<svg xmlns="http://www.w3.org/2000/svg" width="62.249" height="62.25" viewBox="0 0 62.249 62.25"><g transform="translate(-130.926 -941.75)"><g transform="translate(130.92 941.75)"><path d="M55.59,23.6a2.9,2.9,0,0,0-2.874-3.485,2.873,2.873,0,0,0-1.172.245c-.13.058-.256.126-.377.192a3.414,3.414,0,0,1-.563.262,3.4,3.4,0,0,1-2.638-.684,9.627,9.627,0,0,0-1.243-.614,8.126,8.126,0,0,0-2.39-.387,10.8,10.8,0,0,1-1.77-.205,3.231,3.231,0,0,1-2.038-1.472,1.535,1.535,0,0,1-.118-1.293,3.078,3.078,0,0,1,.482-.771,3.852,3.852,0,0,0,.47-.717,3.79,3.79,0,0,0,.2-1.84,5.678,5.678,0,0,1,.017-1.217A5.606,5.606,0,0,1,42.33,9.83,4.721,4.721,0,0,0,43.138,7.6a4.738,4.738,0,0,0-.205-1.233c-.049-.19-.1-.387-.137-.58a4.527,4.527,0,0,1,.221-2.438l.072-.112A31.125,31.125,0,0,0,33.82.974c-.311.886-1.194,1.819-1.556,2.677-.172.409-.216.862-.368,1.279a1.262,1.262,0,0,1-.9.889,1.56,1.56,0,0,0-.4.059c-.342.147-.311.635-.469.973a1.12,1.12,0,0,1-.961.573,3.3,3.3,0,0,1-1.15-.2,2.317,2.317,0,0,1-1.294-.732c-.16-.227-.232-.5-.374-.741a3.7,3.7,0,0,0-1.091-.973A7.27,7.27,0,0,1,23.169,1.89a31,31,0,0,0-5.389,1.968l.072.108a1.523,1.523,0,0,0,.568,1.051L20.7,6.843a1.262,1.262,0,0,1,.476.99v2.593a1.533,1.533,0,0,0,1.532,1.531h1.066a1.27,1.27,0,0,1,1.268,1.268v1.228a1.273,1.273,0,0,1-.513,1.019L18.271,20.11a1.277,1.277,0,0,1-.755.249H13.645a1.533,1.533,0,0,0-1.531,1.531v2.553a1.521,1.521,0,0,0,.449,1.083l2.713,2.713a1.522,1.522,0,0,0,1.083.449h3.82a1.27,1.27,0,0,1,1.268,1.268v1.133a1.533,1.533,0,0,0,1.531,1.532h2.666a1.27,1.27,0,0,1,1.268,1.268,1.533,1.533,0,0,0,1.532,1.531h3.466a1.27,1.27,0,0,1,1.268,1.268v3.664a1.263,1.263,0,0,1-.471.986L27.48,45.564a1.525,1.525,0,0,0-.569,1.191v1.791a1.273,1.273,0,0,1-.4.926l-1.963,1.836a1.537,1.537,0,0,0-.485,1.118v3.992a1.27,1.27,0,0,1-1.268,1.268H20.711a1.27,1.27,0,0,1-1.268-1.268V53.872a1.54,1.54,0,0,0-.152-.664l-1.456-3.024a1.275,1.275,0,0,1-.125-.55V43.871a1.535,1.535,0,0,0-.637-1.243l-5.5-3.961a1.271,1.271,0,0,1-.527-1.029V33.652a1.271,1.271,0,0,1,.16-.617l.29-.522a1.537,1.537,0,0,0-.26-1.832L6.4,25.891a1.276,1.276,0,0,1-.375-.9V21.939a1.535,1.535,0,0,0-.5-1.128L3.152,18.628l-.105-.084a31.129,31.129,0,0,0,52.37,32.9h-.167a15.656,15.656,0,0,1-2.317-1.974,11.013,11.013,0,0,1-2.844-5.906c-.055-.383-.092-.778-.126-1.16a12.979,12.979,0,0,0-.291-2.015A13.236,13.236,0,0,0,48.6,37.8a9.533,9.533,0,0,1-1.18-3.328,4.82,4.82,0,0,1,2.03-4.347A9.726,9.726,0,0,1,52.2,28.973a10.83,10.83,0,0,0,2.628-1.057,1.25,1.25,0,0,0,.532-.541,1.34,1.34,0,0,0-.123-1.029,3.14,3.14,0,0,1-.141-.407,2.666,2.666,0,0,1,.243-1.508A6.107,6.107,0,0,0,55.59,23.6Z" transform="translate(0 -0.856)" fill="#23a8fe"/><path d="M20.711,184.637a1.27,1.27,0,0,1-1.268-1.268v-.19a31.456,31.456,0,0,1-2.492-2.24,31.076,31.076,0,0,1-8.809-26.374L6.4,152.84a1.276,1.276,0,0,1-.375-.9v-3.051a1.535,1.535,0,0,0-.5-1.128l-2.379-2.183-.105-.084a31.13,31.13,0,0,0,32,44.313,30.991,30.991,0,0,1-13.64-5.171Z" transform="translate(-0.001 -127.805)" fill="#0193fa"/><path d="M151.593,8.528a31,31,0,0,0-5.39,1.966l.072.108a1.523,1.523,0,0,0,.568,1.051l2.234,1.787a30.917,30.917,0,0,1,4.062-2.5A8.321,8.321,0,0,1,151.593,8.528Z" transform="translate(-128.422 -7.491)" fill="#0193fa"/><path d="M53.484,55.434H50.018a1.4,1.4,0,0,1-1.4-1.4,1.4,1.4,0,0,0-1.4-1.4H44.552a1.4,1.4,0,0,1-1.4-1.4V50.1a1.4,1.4,0,0,0-1.4-1.4h-3.82a1.4,1.4,0,0,1-.99-.41L34.23,45.579a1.4,1.4,0,0,1-.41-.99V42.036a1.4,1.4,0,0,1,1.4-1.4h3.871a1.4,1.4,0,0,0,.833-.275l6.261-4.638a1.4,1.4,0,0,0,.567-1.125V33.371a1.4,1.4,0,0,0-1.4-1.4H44.285a1.4,1.4,0,0,1-1.4-1.4V27.978a1.4,1.4,0,0,0-.525-1.093l-2.282-1.826a1.4,1.4,0,0,1-.525-1.093v-.059A31.246,31.246,0,0,0,24.567,38.8l2.451,2.248a1.4,1.4,0,0,1,.453,1.031v3.051a1.4,1.4,0,0,0,.414.994l4.831,4.791a1.4,1.4,0,0,1,.237,1.675l-.29.522a1.4,1.4,0,0,0-.177.681v3.986a1.4,1.4,0,0,0,.582,1.136l5.5,3.961a1.4,1.4,0,0,1,.582,1.136v5.762a1.4,1.4,0,0,0,.139.607l1.456,3.024a1.4,1.4,0,0,1,.139.607v2.547a1.4,1.4,0,0,0,1.4,1.4h2.083a1.4,1.4,0,0,0,1.4-1.4V72.572a1.4,1.4,0,0,1,.443-1.022l1.963-1.836a1.4,1.4,0,0,0,.443-1.022V66.9a1.4,1.4,0,0,1,.52-1.088l5.226-4.225a1.4,1.4,0,0,0,.52-1.088V56.834a1.4,1.4,0,0,0-1.4-1.4Z" transform="translate(-21.575 -21)" fill="#43cb8e"/><path d="M39.551,23.976v-.057a31.237,31.237,0,0,0-14.986,14.9l2.451,2.248a1.4,1.4,0,0,1,.453,1.031v3.051a1.4,1.4,0,0,0,.414.994l1.81,1.795A31.16,31.16,0,0,1,42.339,26.879l-2.262-1.81a1.4,1.4,0,0,1-.525-1.093Z" transform="translate(-21.573 -21.011)" fill="#00ba66"/><path d="M352.52,47.9a31.154,31.154,0,0,0-19.312-28.8,4.708,4.708,0,0,0-.276,2.636,9.141,9.141,0,0,1,.34,1.787c-.015,1.443-1.332,2.571-1.564,3.995-.164,1.005.223,2.1-.2,3.023-.249.539-.748.94-.956,1.5-.491,1.311.887,2.624,2.25,2.94s2.834.094,4.144.587c1.339.5,2.607,1.741,3.968,1.3a9.825,9.825,0,0,0,.953-.459,2.782,2.782,0,0,1,3.864,3.094c-.165.809-.689,1.592-.5,2.394.111.458.452.919.27,1.355a1.126,1.126,0,0,1-.48.48c-1.65,1.03-3.777,1.1-5.378,2.209a4.984,4.984,0,0,0-2.087,4.467c.2,2.119,1.729,3.879,2.252,5.941a30.6,30.6,0,0,1,.415,3.162A11.131,11.131,0,0,0,343.1,65.48a16.14,16.14,0,0,0,2.437,2.063A31.029,31.029,0,0,0,352.516,47.9h0Z" transform="translate(-290.265 -16.773)" fill="#43cb8e"/><path d="M340.908,36.858a9.855,9.855,0,0,0,.953-.459,2.782,2.782,0,0,1,3.864,3.094c-.165.809-.689,1.592-.5,2.394.111.458.452.919.27,1.355-.005.013-.012.024-.018.037,1.442-.657,3.118-.858,4.472-1.7a1.126,1.126,0,0,0,.48-.48c.181-.436-.16-.9-.271-1.355-.194-.8.33-1.585.5-2.394,0-.014,0-.028.007-.042q-.517-1.431-1.178-2.818a2.851,2.851,0,0,0-2.693-.234,9.827,9.827,0,0,1-.953.459c-1.361.44-2.629-.8-3.968-1.3-1.31-.493-2.781-.271-4.144-.587s-2.741-1.629-2.25-2.94c.208-.556.707-.958.956-1.5.427-.924.04-2.018.2-3.023.216-1.319,1.361-2.384,1.54-3.681a30.905,30.905,0,0,0-4.974-2.589,4.707,4.707,0,0,0-.276,2.635,9.14,9.14,0,0,1,.34,1.787c-.015,1.443-1.332,2.57-1.564,3.995-.164,1.005.223,2.1-.2,3.023-.249.539-.748.94-.956,1.5-.491,1.311.887,2.624,2.25,2.94s2.834.094,4.144.587C338.279,36.062,339.547,37.3,340.908,36.858Z" transform="translate(-290.264 -16.773)" fill="#00ba66"/><path d="M399.282,244.834a11.13,11.13,0,0,1-2.879-5.978,30.614,30.614,0,0,0-.415-3.162c-.523-2.063-2.056-3.822-2.252-5.941a5,5,0,0,1,1.554-4.036c-1.456.6-3.1.818-4.4,1.716A4.984,4.984,0,0,0,388.8,231.9c.2,2.119,1.729,3.879,2.252,5.941a30.6,30.6,0,0,1,.415,3.162,11.131,11.131,0,0,0,2.879,5.978,16.139,16.139,0,0,0,2.437,2.063,30.978,30.978,0,0,0,2.744-3.957C399.445,245,399.363,244.92,399.282,244.834Z" transform="translate(-341.51 -198.275)" fill="#00ba66"/><path d="M198.879,4.205c.152-.417.2-.87.368-1.279.368-.873,1.277-1.823,1.573-2.723.009-.027.016-.055.023-.082Q199.48,0,198.112,0V0A31.271,31.271,0,0,0,190.1,1.048a7.4,7.4,0,0,0,2.135,3,3.7,3.7,0,0,1,1.091.973c.142.238.215.515.374.741a2.317,2.317,0,0,0,1.294.732,3.3,3.3,0,0,0,1.15.2,1.12,1.12,0,0,0,.961-.573c.157-.338.126-.826.469-.973a1.558,1.558,0,0,1,.4-.059A1.262,1.262,0,0,0,198.879,4.205Z" transform="translate(-166.982 0)" fill="#43cb8e"/><path d="M200.843.122C199.919.041,199,0,198.112,0V0A31.443,31.443,0,0,0,190.1,1.048a8.612,8.612,0,0,0,1.514,2.441A31.023,31.023,0,0,1,200.726.443a1.974,1.974,0,0,0,.117-.322Z" transform="translate(-166.983)" fill="#00ba66"/></g></g></svg>