<svg xmlns="http://www.w3.org/2000/svg" width="62.592" height="61.549" viewBox="0 0 62.592 61.549"><path d="M27.389,51.3H19.043A1.043,1.043,0,0,1,18,50.259V44l7.3,2.086a3.13,3.13,0,0,1,3.13,3.13v1.043A1.043,1.043,0,0,1,27.389,51.3Z" transform="translate(0.778 1.901)" fill="#393f4a"/><path d="M14.389,58.3H6.043A1.043,1.043,0,0,1,5,57.259V51l7.3,2.086a3.13,3.13,0,0,1,3.13,3.13v1.043A1.043,1.043,0,0,1,14.389,58.3Z" transform="translate(0.216 2.203)" fill="#393f4a"/><path d="M61.944,57.259A1.043,1.043,0,0,1,60.9,58.3H15V57.259h.407a1.055,1.055,0,0,0,.793-.365l5.007-5.842L21.321,51H40.8l5.56,5.028a1.043,1.043,0,0,0,.605.188h14.98Z" transform="translate(0.648 2.203)" fill="#4fba6f"/><path d="M16.767,10.973a5.68,5.68,0,0,0,1.878-4.235A5.738,5.738,0,1,0,8.474,10.388" transform="translate(0.31 0.044)" fill="#f9c795"/><path d="M25.766,18.061l-3.286,4.1-2.3-2.3V30.778H15.73a2.086,2.086,0,0,0,.282-1.043V16.173a1.043,1.043,0,0,0,1.043-1.043V12h.918a4.173,4.173,0,0,1,2.952,1.221Z" transform="translate(0.68 0.518)" fill="#e64c3c"/><path d="M25.864,36.259V46.691h-7.3l-1.043-8.346A1.043,1.043,0,0,0,16.475,37.3H14.389a1.043,1.043,0,0,0-1.043,1.043L12.3,53.994H5V31.043h9.389A2.086,2.086,0,0,0,16.194,30H19.6A6.259,6.259,0,0,1,25.864,36.259Z" transform="translate(0.216 1.296)" fill="#3f5c6c"/><path d="M16.6,16V29.562a2.086,2.086,0,0,1-2.086,2.086H4.086A2.093,2.093,0,0,1,2,29.562V16Z" transform="translate(0.086 0.691)" fill="#d25627"/><path d="M36.173,23.46V50.1A2.086,2.086,0,0,1,32,50.1V24.023Z" transform="translate(1.382 1.014)" fill="#7f6e5d"/><path d="M6.043,27.216A1.043,1.043,0,0,1,5,26.173v-3.13a1.043,1.043,0,0,1,2.086,0v3.13A1.043,1.043,0,0,1,6.043,27.216Z" transform="translate(0.216 0.95)" fill="#5f5346"/><path d="M12.043,27.216A1.043,1.043,0,0,1,11,26.173v-3.13a1.043,1.043,0,0,1,2.086,0v3.13A1.043,1.043,0,0,1,12.043,27.216Z" transform="translate(0.475 0.95)" fill="#5f5346"/><ellipse cx="5" cy="5.5" rx="5" ry="5.5" transform="translate(46.737 5.774)" fill="#f3d55b"/><g transform="translate(39.642 0)"><path d="M49.043,3.035A1.043,1.043,0,0,1,48,1.991V1.043a1.043,1.043,0,1,1,2.086,0v.948A1.043,1.043,0,0,1,49.043,3.035Z" transform="translate(-37.568 0)" fill="#f0c419"/><path d="M49.043,22.126A1.043,1.043,0,0,1,48,21.082v-.948a1.043,1.043,0,1,1,2.086,0v.948A1.043,1.043,0,0,1,49.043,22.126Z" transform="translate(-37.568 0.825)" fill="#f0c419"/><path d="M59.082,12.086h-.948a1.043,1.043,0,1,1,0-2.086h.948a1.043,1.043,0,0,1,0,2.086Z" transform="translate(-37.175 0.432)" fill="#f0c419"/><path d="M39.991,12.086h-.948a1.043,1.043,0,0,1,0-2.086h.948a1.043,1.043,0,1,1,0,2.086Z" transform="translate(-38 0.432)" fill="#f0c419"/><path d="M55.472,5.685A1.043,1.043,0,0,1,54.735,3.9l.67-.67a1.043,1.043,0,0,1,1.475,1.475l-.67.67a1.043,1.043,0,0,1-.738.306Z" transform="translate(-37.29 0.127)" fill="#f0c419"/><path d="M41.972,19.185a1.043,1.043,0,0,1-.738-1.781l.67-.67a1.043,1.043,0,0,1,1.475,1.475l-.67.67A1.043,1.043,0,0,1,41.972,19.185Z" transform="translate(-37.873 0.71)" fill="#f0c419"/><path d="M56.141,19.185a1.043,1.043,0,0,1-.738-.306l-.67-.67a1.043,1.043,0,0,1,1.475-1.475l.67.67a1.043,1.043,0,0,1-.738,1.781Z" transform="translate(-37.29 0.71)" fill="#f0c419"/><path d="M42.641,5.685a1.043,1.043,0,0,1-.738-.306l-.67-.67a1.043,1.043,0,0,1,1.475-1.475l.67.67a1.043,1.043,0,0,1-.738,1.781Z" transform="translate(-37.873 0.127)" fill="#f0c419"/></g><path d="M62.592,56.259A1.043,1.043,0,0,1,61.549,57.3H49.7a3.174,3.174,0,0,1-1.815-.574l-6.217-4.454a1.043,1.043,0,0,0-.605-.188H22.867a1.055,1.055,0,0,0-.793.365l-5.007,5.842-.052.052a3.11,3.11,0,0,1-2.326,1.043H1.043a1.043,1.043,0,1,1,0-2.086H14.688a1.055,1.055,0,0,0,.793-.365L20.488,51.1l.052-.052A3.11,3.11,0,0,1,22.867,50H41.06a3.174,3.174,0,0,1,1.815.574l.657.469,5.56,3.985a1.043,1.043,0,0,0,.605.188H61.549a1.043,1.043,0,0,1,1.043,1.043Z" transform="translate(0 2.16)" fill="#24ae5f"/><path d="M58.2,46.6H36V44.779l6.113-10.693L47.475,32l5.362,2.086L59.1,45.04A1.043,1.043,0,0,1,58.2,46.6Z" transform="translate(1.555 1.382)" fill="#7f8c8d"/><path d="M2,13H16.6v7.3a3.13,3.13,0,0,1-3.13,3.13H5.13A3.13,3.13,0,0,1,2,20.3Z" transform="translate(0.086 0.562)" fill="#e57e25"/><path d="M10.13,20.086H8.043a1.043,1.043,0,0,1,0-2.086H10.13a1.043,1.043,0,0,1,0,2.086Z" transform="translate(0.302 0.778)" fill="#5f5346"/><path d="M17.691,12.086v3.13a1.043,1.043,0,0,1-1.043,1.043H2.043A1.043,1.043,0,0,1,1,15.216v-3.13A2.093,2.093,0,0,1,3.086,10H15.6A2.093,2.093,0,0,1,17.691,12.086Z" transform="translate(0.043 0.432)" fill="#f29c1f"/><path d="M32.423,19.051v5.216H26.289a4.173,4.173,0,0,1-2.952-1.221L22.2,21.91l3.286-4.1.939.939a1.053,1.053,0,0,0,.73.3Z" transform="translate(0.959 0.769)" fill="#f9c795"/><path d="M37.206,21.879a2.712,2.712,0,0,1-2.744,2.337H32V19h2.608a2.608,2.608,0,0,1,2.6,2.879Z" transform="translate(1.382 0.821)" fill="#f9c795"/><path d="M32.043,25.3A1.043,1.043,0,0,1,31,24.259V19.043a1.043,1.043,0,1,1,2.086,0v5.216A1.043,1.043,0,0,1,32.043,25.3Z" transform="translate(1.339 0.778)" fill="#56595e"/><path d="M52.584,34.345H41.86l4.454-7.8a1.043,1.043,0,0,1,1.815,0Z" transform="translate(1.808 1.124)" fill="#ecf0f1"/></svg>