<svg xmlns="http://www.w3.org/2000/svg" width="59.456" height="56.824" viewBox="0 0 59.456 56.824"><path d="M165.977,401l-10.706,3.817-.406,1.419A5.37,5.37,0,0,1,150,409.907v.954h22.2Z" transform="translate(-132.673 -354.992)" fill="#adaca7"/><path d="M206.359,380.053l-1.5-5.236L198.691,371l-6.171,3.817-1.09,3.817h10.706l.406,1.419a5.37,5.37,0,0,0,4.866,3.671l1.909.954,1.909-.954A5.37,5.37,0,0,1,206.359,380.053Z" transform="translate(-169.193 -328.809)" fill="#8f8f8b"/><path d="M437,270.086h3.817a3.828,3.828,0,0,0,3.817-3.817v-7.634L437,251Z" transform="translate(-385.179 -223.132)" fill="#adaca7"/><path d="M0,213.9a3.713,3.713,0,0,0,3.574,3.817h48.49a3.713,3.713,0,0,0,3.574-3.817V191L0,206.269Z" transform="translate(0 -170.552)" fill="#cbc9c2"/><path d="M440.817,11H437l3.817,38.171h3.817V14.817A3.828,3.828,0,0,0,440.817,11Z" transform="translate(-385.179 -11)" fill="#404242"/><path d="M55.638,14.817A3.713,3.713,0,0,0,52.064,11H3.574A3.713,3.713,0,0,0,0,14.817V49.171H55.638V45.354L29.606,30.084Z" transform="translate(0 -11)" fill="#565959"/><path d="M276.3,40.977l-3.816,0L248.5,56.244l23.984,15.27,3.817,0s0-30.535,0-30.535Z" transform="translate(-220.663 -37.16)" fill="#4b88d5"/><path d="M78,40.976l-47.994,0S30,71.513,30,71.513l48,0s0-30.535,0-30.535Z" transform="translate(-26.183 -37.159)" fill="#69a7ff"/><ellipse cx="1.909" cy="1.909" rx="1.909" ry="1.909" transform="translate(27.819 39.308)" fill="#fff"/><path d="M122.7,472.909H86.867a.959.959,0,0,1,0-1.909H122.7a.959.959,0,0,1,0,1.909Z" transform="translate(-75.058 -416.085)" fill="#8f8f8b"/></svg>