<svg xmlns="http://www.w3.org/2000/svg" width="63.45" height="52.465" viewBox="0 0 63.45 52.465"><g transform="translate(0.003 -44.327)"><path d="M41.51,167.248a3.261,3.261,0,0,1-1.353-.427l-.133-.064-.121.021a4.437,4.437,0,0,1-.773.07c-2.03,0-3.552-1.458-4.523-4.333l-.033-.1-.025-.039a7.156,7.156,0,0,1-.951-4.137l.007-.573-.528.222-.175.074a3.261,3.261,0,0,1-.922.3,4.059,4.059,0,0,1-.418.022,2.717,2.717,0,0,1-2.506-1.425,6.031,6.031,0,0,1-.6-2.3c-.021-.186-.04-.347-.057-.439l-.007-.039-.015-.037c-.18-.429-.379-.848-.591-1.245l-.294-.548-.349.515a4.557,4.557,0,0,1-1.549,1.387c-.3.172-.59.348-.9.533-.342.207-.723.436-1.1.652l-.288.163.124.306a5.707,5.707,0,0,1,.529,1.87,3.233,3.233,0,0,1-.649,1.855c-.18.3-.383.644-.629,1.12-.146.282-.3.556-.447.82-.179.32-.346.619-.5.923a2.382,2.382,0,0,1-2.352,1.291c-.118,0-.226,0-.321-.007l-.105,0a2.1,2.1,0,0,1-2.046-1.772c-.139-.536-.288-1.078-.432-1.6-.208-.758-.423-1.541-.617-2.331a1.053,1.053,0,0,0-.425-.739,4.91,4.91,0,0,1-.972-.882.631.631,0,0,0-.463-.223.545.545,0,0,0-.064,0,5.519,5.519,0,0,1-.639.039h-.022c-.068,0-.136,0-.2.006-.05,0-.1,0-.153,0a2.348,2.348,0,0,1-2.349-1.57,6.529,6.529,0,0,0-.325-.684c-.044-.084-.085-.163-.125-.243a4.218,4.218,0,0,1-.352-2.757,4.854,4.854,0,0,0-.011-1.762l-.045-.221-.217-.064a5.4,5.4,0,0,0-.57-.114c-.109-.018-.214-.035-.316-.054a2.847,2.847,0,0,0-.52-.039c-.156,0-.324.007-.486.012-.237.009-.421.014-.6.014-.381,0-1.071-.172-1.37-1.294a12.288,12.288,0,0,1-.249-1.521c-.225-1.792-.534-4.244-2.192-5.168l-.025-.014-.122-.044A4.321,4.321,0,0,1,.034,137.3c-.3-1.424,1.3-3.16,2.463-3.495a3.578,3.578,0,0,1,.991-.142,4.586,4.586,0,0,1,3.378,1.749l.113.129H7.15a3.321,3.321,0,0,0,1.74-1.061L9,134.369l0-.155a2.41,2.41,0,0,1,1.376-2.136l.671-.358-.735-.336A2.04,2.04,0,0,1,9.127,128.6a3.581,3.581,0,0,1,3.221-2.714,23.607,23.607,0,0,0,3.622-.749l.08-.025.062-.057a1,1,0,0,1,.825-.256l4.378-.046c.783.166,6.841,3.516,7.577,3.833,2.9,2.141,5.75,1.512,8.3,1.512,1.129,0,2.234-.055,3.209-.1.82-.041,1.595-.079,2.261-.079.311,0,.679.026,1.068.053.48.033,1.024.072,1.589.071.666,0,2.13.825,2.669.715l.255-.052.09-.143.032-.054a2.843,2.843,0,0,0,.623-1.8c-.035-.235-.1-.481-.159-.742-.048-.2-.1-.392-.137-.6a2.135,2.135,0,0,1,.356-1.825,2.074,2.074,0,0,1,1.6-.737c.455-.014,1.056-.03,1.671-.03.71,0,1.341.021,1.929.064a2.348,2.348,0,0,1,1.678,1.216c.61,1.122,1.129,2.258,1.512,3.121l.1.218.238.006a4.085,4.085,0,0,1,3.079,1.119l.1.106.145.012c.1.008.2.013.264.016a2.17,2.17,0,0,1,1.768.8,2.076,2.076,0,0,1,.186,1.853,4.85,4.85,0,0,1-2.108,3.206l-.214.121.025.245a3.115,3.115,0,0,1-2.653,3.556l-.012,0a1.541,1.541,0,0,0-.55.374,2.463,2.463,0,0,0-.318.361l-.149.216.152.214a2.729,2.729,0,0,0,.4.427c.046.041.091.084.136.127s.106.1.137.126l.026.022.03.017a3.473,3.473,0,0,1,1.607,3.587,2.845,2.845,0,0,1-2.186,2.378l-.115.045a1.828,1.828,0,0,1-.689.127A4.314,4.314,0,0,1,55.17,148c-.705-.314-.792-1.121-.849-1.655l-.006-.051a1.565,1.565,0,0,0-.2-.609c-1.1-1.614-1.781-2.8-2.232-3.582-.144-.25-.292-.508-.415-.709l-.175-.285-.3.14a2.273,2.273,0,0,0-.89.608l-.089.119.017.148a4.808,4.808,0,0,0,1.183,1.785,6.909,6.909,0,0,1,1.381,2.074,2.362,2.362,0,0,1-.138,1.548c-.112.307-.238.6-.36.875a8.892,8.892,0,0,0-.39.99,3.239,3.239,0,0,1-2.332,2.265,9.486,9.486,0,0,0-1.508.559,6.229,6.229,0,0,1-2.831.626,10.826,10.826,0,0,1-1.488-.114l-1.036-.144.706.771c.295.321.647.7,1.022,1.066a3.81,3.81,0,0,1,.953,3.528c-.031.178-.095.548-1.049,1.462a6.548,6.548,0,0,1-1.65,1.2,1.776,1.776,0,0,1-.739.149,3.05,3.05,0,0,1-1.109-.232l-.421.6a9.145,9.145,0,0,0,.932.919c1.921,1.646,1.988,3.039,1.857,3.723a1.732,1.732,0,0,1-.866,1.322,1.38,1.38,0,0,1-.633.152Z" transform="translate(0 -70.458)" fill="#a9bb2e"/><path d="M172.412,68.584a1.972,1.972,0,0,0,1.4.634h.009a1.978,1.978,0,0,0,1.409-.634l.031-.032c3.855-4.052,11.032-11.594,7.043-19.182l-.005-.01a9.712,9.712,0,0,0-8.457-5.033H173.8a9.716,9.716,0,0,0-8.463,5.044c-3.988,7.588,3.188,15.13,7.044,19.182Z" transform="translate(-143.826)" fill="#f2791c"/><path d="M208.736,84.154a5.493,5.493,0,1,0-5.493,5.493A5.493,5.493,0,0,0,208.736,84.154Z" transform="translate(-173.247 -30.079)" fill="#efeaea"/></g></svg>