<svg xmlns="http://www.w3.org/2000/svg" xmlns:xlink="http://www.w3.org/1999/xlink" width="294.096" height="114.612" viewBox="0 0 294.096 114.612"><defs><clipPath id="a"><rect width="294.096" height="114.612" fill="none"/></clipPath></defs><g transform="translate(0 0)"><path d="M0,44.189V145.375H18.213v-12H11.13V100.419h6.939V89.145H11.13V56.187h7.083v-12Z" transform="translate(0 -31.053)" fill="#09163b"/><path d="M106.3,141.441,105,201h-1.012l-1.3-59.556H91.412l.724,29.778,3.325,42.5h18.069l3.325-42.5.723-29.778Z" transform="translate(-64.238 -99.395)" fill="#09163b"/><g transform="translate(0 0)"><g clip-path="url(#a)"><path d="M237.012,153.047v47.7a12.5,12.5,0,1,1-25.008,0v-47.7a12.5,12.5,0,1,1,25.008,0m-11.13.723a1.3,1.3,0,0,0-1.3-1.3,1.335,1.335,0,0,0-1.446,1.3v46.257a1.335,1.335,0,0,0,1.446,1.3,1.3,1.3,0,0,0,1.3-1.3Z" transform="translate(-148.982 -98.713)" fill="#09163b"/><rect width="11.13" height="101.186" transform="translate(98.148 13.136)" fill="#09163b"/><path d="M426.346,141.442l-.723,29.778-3.324,42.5H404.229l-3.325-42.5-.723-29.778h11.275l1.3,59.555h1.012l1.3-59.555Z" transform="translate(-281.22 -99.396)" fill="#09163b"/><path d="M545.779,186.871v13.876a12.5,12.5,0,1,1-25.007,0v-47.7a12.5,12.5,0,1,1,25.007,0v29.488H531.9v17.491a1.336,1.336,0,0,0,1.446,1.3,1.3,1.3,0,0,0,1.3-1.3V186.871Zm-12.431-34.4a1.335,1.335,0,0,0-1.446,1.3V171.4h2.746V153.769a1.3,1.3,0,0,0-1.3-1.3" transform="translate(-365.963 -98.713)" fill="#09163b"/><path d="M679.84,44.189V145.375H668.71V66.884H667.7l-2.746,78.491H653.821l-2.746-78.491h-1.012v78.491H638.932V44.189H655.99l2.891,78.492h1.012l2.89-78.492Z" transform="translate(-448.997 -31.053)" fill="#8e51f0"/><path d="M835.591,186.871v13.876a12.5,12.5,0,1,1-25.008,0v-47.7a12.5,12.5,0,1,1,25.008,0v29.488H821.714v17.491a1.335,1.335,0,0,0,1.445,1.3,1.3,1.3,0,0,0,1.3-1.3V186.871Zm-12.432-34.4a1.334,1.334,0,0,0-1.445,1.3V171.4h2.746V153.769a1.3,1.3,0,0,0-1.3-1.3" transform="translate(-569.622 -98.713)" fill="#8e51f0"/><path d="M928.346,142.046h3.085v8.533h1.581v-8.533h3.1V140.53h-7.764Z" transform="translate(-652.378 -98.755)" fill="#8e51f0"/><path d="M965.046,140.53l-.111.263c-.98,2.329-2.282,5.549-2.944,7.258-.647-1.751-1.857-4.863-2.812-7.251l-.108-.27h-1.784v10.049h1.568v-4.342c0-.629,0-1.367-.014-2.095.771,2.091,1.8,4.772,2.348,6.164l.107.273h1.279l.109-.269c.214-.532.452-1.119.7-1.731.642-1.585,1.333-3.29,1.865-4.656q-.007.882-.007,2v4.656h1.568V140.53Z" transform="translate(-672.716 -98.755)" fill="#8e51f0"/></g></g></g></svg>