<svg width="618" height="616" viewBox="0 0 618 616" fill="none" xmlns="http://www.w3.org/2000/svg">
<path d="M378.589 110.943C378.589 110.943 356.607 136.379 384.106 169.456C384.106 169.456 453.262 250.433 458.727 266.946C454.989 255.663 460.987 245.349 465.415 235.317C473.123 217.864 472.729 200.364 468.875 182.021C461.602 147.426 439.544 119.283 403.341 112.611C399.336 111.872 381.504 107.982 378.583 110.943H378.589Z" fill="#09163B" stroke="#09163B" stroke-width="4.13423" stroke-linecap="round" stroke-linejoin="round"/>
<path d="M349.792 311.646C348.803 312.583 347.566 313.282 346.15 313.623C341.807 314.679 337.439 312.038 336.373 307.709C336.211 307.036 332.338 290.931 336.603 271.153C340.562 252.746 352.471 227.523 386.723 211.87C390.793 210.012 395.604 211.793 397.464 215.866C399.324 219.931 397.532 224.737 393.471 226.595C340.135 250.966 351.61 301.718 352.13 303.866C352.829 306.789 351.848 309.729 349.809 311.654L349.792 311.646Z" fill="#78FB82" stroke="#09163B" stroke-width="4.13423" stroke-linecap="round" stroke-linejoin="round"/>
<path d="M310.911 264.871C309.592 264.871 308.265 264.533 307.037 263.815C303.294 261.62 301.975 256.749 304.11 252.907C304.44 252.307 312.436 238.089 328.575 226.751C343.594 216.197 369.789 202.823 404.236 214.846C408.333 216.273 410.517 220.832 409.124 225.028C407.731 229.224 403.28 231.462 399.183 230.035C345.547 211.3 318.791 258.961 317.719 260.852C316.269 263.427 313.631 264.879 310.911 264.879V264.871Z" fill="#78FB82" stroke="#09163B" stroke-width="4.13423" stroke-linecap="round" stroke-linejoin="round"/>
<path d="M174.145 435.592C176.402 435.592 178.231 433.764 178.231 431.51C178.231 429.256 176.402 427.428 174.145 427.428C171.888 427.428 170.059 429.256 170.059 431.51C170.059 433.764 171.888 435.592 174.145 435.592Z" fill="#FFFB8B"/>
<path d="M631.759 579.597C627.997 579.597 622.501 583.202 620.71 579.597C620.71 543.939 607.642 440.584 488.18 296.242C451.872 261.365 411.008 232.367 366.715 210.041C291.497 172.129 232.241 166.684 231.652 166.633C226.021 166.147 221.841 161.197 222.328 155.572C222.814 149.948 227.77 145.773 233.401 146.259C235.969 146.48 293.621 156.989 372.337 196.664C418.447 219.902 458.588 250.3 496.363 286.584C543.523 331.883 608.54 434.383 654.533 562.544C657.05 567.605 657.036 571.175 654.533 572.332C650.622 574.141 647.934 574.885 643.387 575.95L631.759 579.597Z" fill="#78FB82" stroke="#09163B" stroke-width="4.13423" stroke-linecap="round" stroke-linejoin="round"/>
<path d="M36.3376 275.2C36.3376 275.2 70.4737 300.456 109.609 262.769C109.609 262.769 205.259 168.196 225.571 159.763C211.689 165.521 198.121 158.952 185.056 154.326C162.328 146.272 140.293 148.413 117.521 154.983C74.5829 167.378 41.1548 197.757 36.1259 243.914C35.5712 249.015 32.3306 271.809 36.3376 275.2Z" fill="#78FB82" stroke="#09163B" stroke-width="4.13423" stroke-linecap="round" stroke-linejoin="round"/>
<path d="M225.571 160.49C225.571 160.49 178.664 162.715 45.7324 264.879" stroke="#09163B" stroke-width="3.10067" stroke-linecap="round" stroke-linejoin="round"/>
<path d="M119.114 212.591C114.38 215.897 107.941 215.756 102.341 214.237C96.7397 212.718 91.5436 209.992 85.95 208.438C75.2976 205.485 63.3949 207.138 54 212.86" stroke="#09163B" stroke-width="3.10067" stroke-linecap="round" stroke-linejoin="round"/>
<path d="M172.86 180.464C164.201 183.717 153.677 185.981 144.567 185.106C128.057 183.516 112.909 171.671 96.377 172.996" stroke="#09163B" stroke-width="3.10067" stroke-linecap="round" stroke-linejoin="round"/>
<path d="M139.786 199.249C137.011 201.068 135.611 204.677 134.817 207.928C134.022 211.179 133.951 214.552 133.639 217.882" stroke="#09163B" stroke-width="3.10067" stroke-linecap="round" stroke-linejoin="round"/>
<path d="M88.1074 233.873C87.7045 245.823 83.6554 257.596 76.7383 266.946" stroke="#09163B" stroke-width="3.10067" stroke-linecap="round" stroke-linejoin="round"/>
<path d="M55.0419 60.456C55.0419 60.456 79.2916 74.4293 107.71 90.2905C107.71 90.2905 216.826 140.533 232.807 153.255C221.884 144.56 221.144 130.607 219.046 117.933C215.394 95.8798 203.758 78.9427 188.191 63.3928C158.816 34.0657 121.749 25.0322 81.9392 41.5768C77.5401 43.4038 55.9924 55.6922 55.0352 60.4628L55.0419 60.456Z" fill="#78FB82" stroke="#09163B" stroke-width="4.13423" stroke-linecap="round" stroke-linejoin="round"/>
<path d="M143.921 90.208C138.899 87.8812 136.031 82.5988 134.749 77.3633C133.461 72.1278 133.398 66.6717 132.144 61.4362C129.748 51.4533 127.351 46.6323 118.082 41.6309" stroke="#09163B" stroke-width="3.10067" stroke-linecap="round" stroke-linejoin="round"/>
<path d="M194.564 120.181C188.47 114.478 182.277 106.851 178.945 99.0955C172.903 85.0562 174.793 67.9458 166.658 55.0674" stroke="#09163B" stroke-width="3.10067" stroke-linecap="round" stroke-linejoin="round"/>
<path d="M243.272 148.186C221.651 143.019 217.619 154.857 217.619 154.857C215.401 159.535 204.285 163.736 204.285 163.736C204.285 163.736 208.013 169.761 207.535 171.184C206.529 174.192 230.629 166.429 230.629 166.429L243.963 168.329" fill="#78FB82"/>
<path d="M243.272 148.186C221.651 143.019 217.619 154.857 217.619 154.857C215.401 159.535 204.285 163.736 204.285 163.736C204.285 163.736 208.013 169.761 207.535 171.184C206.529 174.192 230.629 166.429 230.629 166.429L243.963 168.329" stroke="#09163B" stroke-width="4.13423" stroke-linecap="round" stroke-linejoin="round"/>
<path d="M226.604 149.121C226.198 148.925 225.833 141.319 225.725 140.63C224.671 134.139 223.042 127.723 220.771 121.549C215.248 106.527 204.967 91.7421 188.48 87.9258C178.862 85.6969 168.378 85.7914 158.57 84.5284C145.625 82.8533 132.728 80.6783 120.027 77.6861C91.664 70.9993 64.0581 58.9832 54 60.3408L105.872 91.0666C105.872 91.0666 226.57 149.107 226.597 149.121H226.604Z" fill="#09163B"/>
<path d="M353.634 283.512C353.318 282.711 352.943 281.919 352.499 281.143C347.892 273.073 337.51 269.81 329.116 273.798C323.161 276.627 319.527 282.225 318.921 288.25C318.324 294.121 314.98 299.345 309.784 302.157C274.474 321.27 253.3 365.291 260.202 412.644C266.592 456.537 295.29 490.819 330.745 502.186C336.845 504.146 341.187 509.395 342.467 515.667C342.859 517.61 343.593 519.518 344.668 521.325C349.402 529.25 359.793 532.309 368.085 528.236C373.989 525.33 377.555 519.68 378.084 513.639C378.63 507.418 382.844 502.101 388.603 499.655C428.127 482.86 452.637 436.197 445.283 385.742C438.381 338.389 405.537 302.233 366.243 293.951C360.57 292.758 355.741 288.906 353.634 283.512Z" fill="#FFD08B" stroke="#09163B" stroke-width="4.13423" stroke-miterlimit="10"/>
<path d="M353.633 283.512C353.318 282.711 352.942 281.91 352.499 281.143C351.125 278.731 349.214 276.754 347.013 275.263C342.441 274.496 337.919 273.388 333.381 272.425C331.93 272.698 330.497 273.141 329.115 273.797C323.16 276.626 319.526 282.225 318.92 288.249C318.323 294.121 314.979 299.344 309.784 302.156C300.673 307.09 292.517 313.686 285.521 321.568C287.859 325.837 291.655 329.424 295.853 332.006C305.254 337.809 318.409 339.156 326.863 332.057C334.515 325.632 336.213 314.546 342.21 306.57C348.694 297.955 366.046 294.368 376.556 296.822L370.32 294.939C368.964 294.581 367.607 294.248 366.234 293.967C360.56 292.774 355.732 288.923 353.625 283.529L353.633 283.512Z" fill="#09163B" stroke="#09163B" stroke-width="1.03356" stroke-miterlimit="10"/>
<path d="M323.536 271.879C323.912 271.095 324.245 270.277 324.509 269.416C327.247 260.639 322.607 250.917 314.041 247.534C307.993 245.148 301.518 246.281 296.74 249.868C292.014 253.413 285.932 254.547 280.327 252.681C242.62 240.095 196.441 254.521 166.787 291.487C139.3 325.734 133.815 369.61 149.478 402.937C152.199 408.731 151.295 415.463 147.609 420.695C146.5 422.272 145.622 424.061 145.05 426.03C142.499 434.815 147.302 444.402 155.867 447.64C161.933 449.932 168.4 448.722 173.134 445.066C178.082 441.24 184.822 440.678 190.546 443.209C229.422 460.396 279.764 446.592 311.363 407.223C340.982 370.309 345.052 322.214 324.637 288.197C321.66 283.238 321.037 277.077 323.554 271.879H323.536Z" fill="#FFFB8B" stroke="#09163B" stroke-width="4.13423" stroke-miterlimit="10"/>
<path d="M204.286 426.162C206.542 426.162 208.372 424.335 208.372 422.08C208.372 419.826 206.542 417.999 204.286 417.999C202.029 417.999 200.199 419.826 200.199 422.08C200.199 424.335 202.029 426.162 204.286 426.162Z" fill="#09163B"/>
<path d="M312.438 291.647C314.695 291.647 316.524 289.819 316.524 287.565C316.524 285.311 314.695 283.483 312.438 283.483C310.181 283.483 308.352 285.311 308.352 287.565C308.352 289.819 310.181 291.647 312.438 291.647Z" fill="#09163B"/>
<path d="M167.575 417.999C169.831 417.999 171.661 416.171 171.661 413.917C171.661 411.663 169.831 409.835 167.575 409.835C165.318 409.835 163.488 411.663 163.488 413.917C163.488 416.171 165.318 417.999 167.575 417.999Z" fill="#09163B"/>
<path d="M185.462 403.166C186.622 405.102 189.13 405.732 191.064 404.573C192.997 403.414 193.624 400.905 192.464 398.969C191.304 397.034 188.796 396.404 186.862 397.563C184.929 398.722 184.302 401.23 185.462 403.166Z" fill="#09163B"/>
<path d="M269.532 279.8C270.693 281.736 273.201 282.365 275.134 281.207C277.068 280.048 277.695 277.539 276.534 275.603C275.374 273.667 272.866 273.038 270.933 274.197C268.999 275.356 268.372 277.864 269.532 279.8Z" fill="#09163B"/>
<path d="M283.421 299.349C284.581 301.285 287.089 301.914 289.023 300.755C290.956 299.596 291.583 297.088 290.423 295.152C289.263 293.216 286.755 292.586 284.821 293.745C282.888 294.904 282.261 297.413 283.421 299.349Z" fill="#09163B"/>
<path d="M371.656 486.13C372.816 488.066 375.324 488.696 377.257 487.537C379.191 486.378 379.818 483.869 378.657 481.933C377.497 479.997 374.989 479.368 373.056 480.527C371.122 481.686 370.495 484.194 371.656 486.13Z" fill="#09163B"/>
<path d="M365.368 310.555C366.529 312.491 369.037 313.121 370.97 311.962C372.904 310.803 373.531 308.294 372.37 306.358C371.21 304.423 368.702 303.793 366.769 304.952C364.835 306.111 364.208 308.62 365.368 310.555Z" fill="#09163B"/>
<path d="M343.64 484.723C344.8 486.659 347.308 487.289 349.242 486.13C351.175 484.971 351.802 482.462 350.642 480.526C349.482 478.591 346.974 477.961 345.04 479.12C343.106 480.279 342.48 482.788 343.64 484.723Z" fill="#09163B"/>
<path d="M352.816 327.365C353.976 329.301 356.484 329.93 358.417 328.771C360.351 327.613 360.978 325.104 359.818 323.168C358.657 321.232 356.149 320.603 354.216 321.762C352.282 322.92 351.655 325.429 352.816 327.365Z" fill="#09163B"/>
<path d="M173.895 435.081C183.197 439.56 206.142 448.931 223.505 450.584" stroke="#09163B" stroke-width="4.13423" stroke-linecap="round"/>
<path d="M277.248 459.188C302.467 451.333 316.696 414.228 320.658 396.658C302.881 422.703 277.765 437.828 267.43 442.134L277.248 459.188Z" fill="#09163B"/>
<path d="M273.755 225.581L281.383 229.598L273.886 233.859L269.88 241.49L265.622 233.99L257.984 229.982L265.481 225.721L269.496 218.081L273.755 225.581Z" fill="#B2FFFF" stroke="#09163B" stroke-width="3.13823" stroke-miterlimit="10" stroke-linejoin="round"/>
<path d="M493.132 470.336L500.76 474.353L493.263 478.614L489.257 486.245L484.999 478.745L477.361 474.737L484.858 470.477L488.873 462.836L493.132 470.336Z" fill="#B2FFFF" stroke="#09163B" stroke-width="3.13823" stroke-miterlimit="10" stroke-linejoin="round"/>
<path d="M103.878 336.809L111.506 340.827L104.009 345.087L100.003 352.718L95.7447 345.218L88.1074 341.21L95.6043 336.95L99.6195 329.309L103.878 336.809Z" fill="#B2FFFF" stroke="#09163B" stroke-width="3.13823" stroke-miterlimit="10" stroke-linejoin="round"/>
<path d="M241.399 508.708L249.027 512.725L241.53 516.986L237.525 524.617L233.266 517.117L225.629 513.109L233.126 508.849L237.141 501.208L241.399 508.708Z" fill="#B2FFFF" stroke="#09163B" stroke-width="3.13823" stroke-miterlimit="10" stroke-linejoin="round"/>
</svg>
