<?xml version="1.0" encoding="utf-8"?>
<!-- Generator: Adobe Illustrator 27.0.1, SVG Export Plug-In . SVG Version: 6.00 Build 0)  -->
<svg version="1.1" id="Layer_1" xmlns="http://www.w3.org/2000/svg" xmlns:xlink="http://www.w3.org/1999/xlink" x="0px" y="0px"
	 viewBox="0 0 1616 704" style="enable-background:new 0 0 1616 704;" xml:space="preserve">
<style type="text/css">
	.st0{fill:#B2FFFF;stroke:#09163B;stroke-width:6.3963;stroke-linejoin:round;stroke-miterlimit:10;}
</style>
<g>
	<path class="st0" d="M59.4,68.5l15.5,8.2l-15.3,8.7l-8.2,15.6l-8.7-15.3l-15.6-8.2l15.3-8.7l8.2-15.6L59.4,68.5z"/>
	<path class="st0" d="M313.3,68.5l15.5,8.2l-15.3,8.7l-8.2,15.6l-8.7-15.3l-15.6-8.2l15.3-8.7l8.2-15.6L313.3,68.5z"/>
	<path class="st0" d="M567.8,68.5l15.5,8.2l-15.3,8.7l-8.2,15.6l-8.7-15.3l-15.6-8.2l15.3-8.7l8.2-15.6L567.8,68.5z"/>
	<path class="st0" d="M824.6,68.5l15.5,8.2l-15.3,8.7l-8.2,15.6L808,85.6l-15.6-8.2l15.3-8.7l8.2-15.6L824.6,68.5z"/>
	<path class="st0" d="M1076.4,68.5l15.5,8.2l-15.3,8.7l-8.2,15.6l-8.7-15.3l-15.6-8.2l15.3-8.7l8.2-15.6L1076.4,68.5z"/>
	<path class="st0" d="M1331.3,68.5l15.5,8.2l-15.3,8.7l-8.2,15.6l-8.7-15.3l-15.6-8.2l15.3-8.7l8.2-15.6L1331.3,68.5z"/>
	<path class="st0" d="M1582.4,68.5l15.5,8.2l-15.3,8.7l-8.2,15.6l-8.7-15.3l-15.6-8.2l15.3-8.7l8.2-15.6L1582.4,68.5z"/>
	<path class="st0" d="M59.4,418.9l15.5,8.2l-15.3,8.7l-8.2,15.6l-8.7-15.3l-15.6-8.2l15.3-8.7l8.2-15.6L59.4,418.9z"/>
	<path class="st0" d="M313.3,418.9l15.5,8.2l-15.3,8.7l-8.2,15.6l-8.7-15.3l-15.6-8.2l15.3-8.7l8.2-15.6L313.3,418.9z"/>
	<path class="st0" d="M567.8,418.9l15.5,8.2l-15.3,8.7l-8.2,15.6l-8.7-15.3l-15.6-8.2l15.3-8.7l8.2-15.6L567.8,418.9z"/>
	<path class="st0" d="M824.6,418.9l15.5,8.2l-15.3,8.7l-8.2,15.6l-8.7-15.3l-15.6-8.2l15.3-8.7l8.2-15.6L824.6,418.9z"/>
	<path class="st0" d="M1076.4,418.9l15.5,8.2l-15.3,8.7l-8.2,15.6l-8.7-15.3l-15.6-8.2l15.3-8.7l8.2-15.6L1076.4,418.9z"/>
	<path class="st0" d="M1331.3,418.9l15.5,8.2l-15.3,8.7l-8.2,15.6l-8.7-15.3l-15.6-8.2l15.3-8.7l8.2-15.6L1331.3,418.9z"/>
	<path class="st0" d="M1582.4,418.9l15.5,8.2l-15.3,8.7l-8.2,15.6l-8.7-15.3l-15.6-8.2l15.3-8.7l8.2-15.6L1582.4,418.9z"/>
	<path class="st0" d="M183.4,244.8l15.5,8.2l-15.3,8.7l-8.2,15.6l-8.7-15.3l-15.6-8.2l15.3-8.7l8.2-15.6L183.4,244.8z"/>
	<path class="st0" d="M437.3,244.8l15.5,8.2l-15.3,8.7l-8.2,15.6l-8.7-15.3l-15.6-8.2l15.3-8.7l8.2-15.6L437.3,244.8z"/>
	<path class="st0" d="M691.8,244.8l15.5,8.2l-15.3,8.7l-8.2,15.6l-8.7-15.3l-15.6-8.2l15.3-8.7l8.2-15.6L691.8,244.8z"/>
	<path class="st0" d="M948.6,244.8l15.5,8.2l-15.3,8.7l-8.2,15.6l-8.7-15.3l-15.6-8.2l15.3-8.7l8.2-15.6L948.6,244.8z"/>
	<path class="st0" d="M1200.4,244.8l15.5,8.2l-15.3,8.7l-8.2,15.6l-8.7-15.3l-15.6-8.2l15.3-8.7l8.2-15.6L1200.4,244.8z"/>
	<path class="st0" d="M1455.3,244.8l15.5,8.2l-15.3,8.7l-8.2,15.6l-8.7-15.3l-15.6-8.2l15.3-8.7l8.2-15.6L1455.3,244.8z"/>
	<path class="st0" d="M183.4,593.7l15.5,8.2l-15.3,8.7l-8.2,15.6l-8.7-15.3l-15.6-8.2l15.3-8.7l8.2-15.6L183.4,593.7z"/>
	<path class="st0" d="M437.3,593.7l15.5,8.2l-15.3,8.7l-8.2,15.6l-8.7-15.3l-15.6-8.2l15.3-8.7l8.2-15.6L437.3,593.7z"/>
	<path class="st0" d="M691.8,593.7l15.5,8.2l-15.3,8.7l-8.2,15.6l-8.7-15.3l-15.6-8.2l15.3-8.7l8.2-15.6L691.8,593.7z"/>
	<path class="st0" d="M948.6,593.7l15.5,8.2l-15.3,8.7l-8.2,15.6l-8.7-15.3l-15.6-8.2l15.3-8.7l8.2-15.6L948.6,593.7z"/>
	<path class="st0" d="M1200.4,593.7l15.5,8.2l-15.3,8.7l-8.2,15.6l-8.7-15.3l-15.6-8.2l15.3-8.7l8.2-15.6L1200.4,593.7z"/>
	<path class="st0" d="M1455.3,593.7l15.5,8.2l-15.3,8.7l-8.2,15.6l-8.7-15.3l-15.6-8.2l15.3-8.7l8.2-15.6L1455.3,593.7z"/>
</g>
</svg>
