<svg xmlns="http://www.w3.org/2000/svg" xmlns:xlink="http://www.w3.org/1999/xlink" width="1616" height="704" viewBox="0 0 1616 704"><defs><clipPath id="a"><rect width="166" height="253" transform="translate(-0.189 0)" fill="none"/></clipPath><clipPath id="b"><rect width="166" height="349" transform="translate(-0.189 0.309)" fill="none"/></clipPath><clipPath id="c"><rect width="166" height="102" transform="translate(-0.189 0)" fill="none"/></clipPath><clipPath id="d"><rect width="254" height="253" transform="translate(0.361 0)" fill="none"/></clipPath><clipPath id="e"><rect width="254" height="349" transform="translate(0.361 0.309)" fill="none"/></clipPath><clipPath id="f"><rect width="254" height="102" transform="translate(0.361 0)" fill="none"/></clipPath><clipPath id="g"><rect width="255" height="253" transform="translate(-0.09 0)" fill="none"/></clipPath><clipPath id="h"><rect width="255" height="349" transform="translate(-0.09 0.309)" fill="none"/></clipPath><clipPath id="i"><rect width="255" height="102" transform="translate(-0.09 0)" fill="none"/></clipPath><clipPath id="j"><rect width="254" height="253" transform="translate(0.46 0)" fill="none"/></clipPath><clipPath id="k"><rect width="254" height="349" transform="translate(0.46 0.309)" fill="none"/></clipPath><clipPath id="l"><rect width="254" height="102" transform="translate(0.46 0)" fill="none"/></clipPath><clipPath id="m"><rect width="255" height="253" transform="translate(0.009 0)" fill="none"/></clipPath><clipPath id="n"><rect width="255" height="349" transform="translate(0.009 0.309)" fill="none"/></clipPath><clipPath id="o"><rect width="255" height="102" transform="translate(0.009 0)" fill="none"/></clipPath><clipPath id="p"><rect width="254" height="253" transform="translate(-0.37 0)" fill="none"/></clipPath><clipPath id="q"><rect width="254" height="349" transform="translate(-0.37 0.309)" fill="none"/></clipPath><clipPath id="r"><rect width="254" height="102" transform="translate(-0.37 0)" fill="none"/></clipPath><clipPath id="s"><rect width="178" height="253" transform="translate(0 0)" fill="none"/></clipPath><clipPath id="t"><rect width="178" height="349" transform="translate(0 0.309)" fill="none"/></clipPath><clipPath id="u"><rect width="178" height="102" transform="translate(0 0)" fill="none"/></clipPath></defs><g transform="translate(-48 -57.541)"><g transform="translate(1498.189 57.541)"><g transform="translate(0 0)" clip-path="url(#a)"><path d="M770.875,191.269l-16.844,4.984a5.12,5.12,0,0,0-3.351,3.137l-6.08,16.481-5.121-17.308a4.147,4.147,0,0,0-2.542-2.715L720,189.6l17.015-5.034a4.763,4.763,0,0,0,3.118-2.919L746.277,165l4.975,16.827a5.152,5.152,0,0,0,3.161,3.375Z" transform="translate(-745.698 62.243)" fill="#f4b033"/><path d="M830.875,108.769l-16.844,4.984a5.12,5.12,0,0,0-3.351,3.137l-6.08,16.481-5.121-17.308a4.147,4.147,0,0,0-2.542-2.715L780,107.1l17.015-5.034a4.763,4.763,0,0,0,3.118-2.919L806.277,82.5l4.975,16.827a5.152,5.152,0,0,0,3.161,3.375Z" transform="translate(-678.511 -30.138)" fill="#f4b033"/></g></g><g transform="translate(1498.189 310.233)"><g transform="translate(0 0)" clip-path="url(#b)"><path d="M770.875,356.269l-16.844,4.984a5.12,5.12,0,0,0-3.351,3.137l-6.08,16.481-5.121-17.308a4.147,4.147,0,0,0-2.542-2.715L720,354.6l17.015-5.034a4.764,4.764,0,0,0,3.118-2.919L746.277,330l4.975,16.827a5.152,5.152,0,0,0,3.161,3.375Z" transform="translate(-745.698 -5.685)" fill="#f4b033"/><path d="M830.875,273.769l-16.844,4.984a5.12,5.12,0,0,0-3.351,3.137l-6.08,16.481-5.121-17.308a4.147,4.147,0,0,0-2.542-2.715L780,272.1l17.015-5.034a4.763,4.763,0,0,0,3.118-2.919l6.143-16.649,4.975,16.827a5.152,5.152,0,0,0,3.161,3.375Z" transform="translate(-678.511 -98.066)" fill="#f4b033"/><path d="M770.875,191.269l-16.844,4.984a5.12,5.12,0,0,0-3.351,3.137l-6.08,16.481-5.121-17.308a4.147,4.147,0,0,0-2.542-2.715L720,189.6l17.015-5.034a4.763,4.763,0,0,0,3.118-2.919L746.277,165l4.975,16.827a5.152,5.152,0,0,0,3.161,3.375Z" transform="translate(-745.698 -190.448)" fill="#f4b033"/></g></g><g transform="translate(1498.189 659.542)"><g transform="translate(0 0)" clip-path="url(#c)"><path d="M770.875,356.269l-16.844,4.984a5.12,5.12,0,0,0-3.351,3.137l-6.08,16.481-5.121-17.308a4.147,4.147,0,0,0-2.542-2.715L720,354.6l17.015-5.034a4.764,4.764,0,0,0,3.118-2.919L746.277,330l4.975,16.827a5.152,5.152,0,0,0,3.161,3.375Z" transform="translate(-745.698 -354.993)" fill="#f4b033"/></g></g><g transform="translate(1243.639 57.541)"><g transform="translate(0 0)" clip-path="url(#d)"><path d="M770.875,191.269l-16.844,4.984a5.12,5.12,0,0,0-3.351,3.137l-6.08,16.481-5.121-17.308a4.147,4.147,0,0,0-2.542-2.715L720,189.6l17.015-5.034a4.763,4.763,0,0,0,3.118-2.919L746.277,165l4.975,16.827a5.152,5.152,0,0,0,3.161,3.375Z" transform="translate(-491.149 62.243)" fill="#f4b033"/><path d="M650.875,191.269l-16.844,4.984a5.12,5.12,0,0,0-3.351,3.137l-6.08,16.481-5.121-17.308a4.147,4.147,0,0,0-2.542-2.715L600,189.6l17.015-5.034a4.763,4.763,0,0,0,3.118-2.919L626.277,165l4.975,16.827a5.152,5.152,0,0,0,3.161,3.375Z" transform="translate(-625.522 62.243)" fill="#f4b033"/><path d="M710.875,108.769l-16.844,4.984a5.12,5.12,0,0,0-3.351,3.137l-6.08,16.481-5.121-17.308a4.147,4.147,0,0,0-2.542-2.715L660,107.1l17.016-5.034a4.763,4.763,0,0,0,3.118-2.919L686.277,82.5l4.975,16.827a5.152,5.152,0,0,0,3.161,3.375Z" transform="translate(-558.335 -30.138)" fill="#f4b033"/></g></g><g transform="translate(1243.639 310.233)"><g transform="translate(0 0)" clip-path="url(#e)"><path d="M770.875,356.269l-16.844,4.984a5.12,5.12,0,0,0-3.351,3.137l-6.08,16.481-5.121-17.308a4.147,4.147,0,0,0-2.542-2.715L720,354.6l17.015-5.034a4.764,4.764,0,0,0,3.118-2.919L746.277,330l4.975,16.827a5.152,5.152,0,0,0,3.161,3.375Z" transform="translate(-491.149 -5.685)" fill="#f4b033"/><path d="M650.875,356.269l-16.844,4.984a5.12,5.12,0,0,0-3.351,3.137l-6.08,16.481-5.121-17.308a4.147,4.147,0,0,0-2.542-2.715L600,354.6l17.015-5.034a4.764,4.764,0,0,0,3.118-2.919L626.277,330l4.975,16.827a5.152,5.152,0,0,0,3.161,3.375Z" transform="translate(-625.522 -5.685)" fill="#f4b033"/><path d="M710.875,273.769l-16.844,4.984a5.12,5.12,0,0,0-3.351,3.137l-6.08,16.481-5.121-17.308a4.147,4.147,0,0,0-2.542-2.715L660,272.1l17.016-5.034a4.763,4.763,0,0,0,3.118-2.919l6.143-16.649,4.975,16.827a5.152,5.152,0,0,0,3.161,3.375Z" transform="translate(-558.335 -98.066)" fill="#f4b033"/><path d="M770.875,191.269l-16.844,4.984a5.12,5.12,0,0,0-3.351,3.137l-6.08,16.481-5.121-17.308a4.147,4.147,0,0,0-2.542-2.715L720,189.6l17.015-5.034a4.763,4.763,0,0,0,3.118-2.919L746.277,165l4.975,16.827a5.152,5.152,0,0,0,3.161,3.375Z" transform="translate(-491.149 -190.448)" fill="#f4b033"/><path d="M650.875,191.269l-16.844,4.984a5.12,5.12,0,0,0-3.351,3.137l-6.08,16.481-5.121-17.308a4.147,4.147,0,0,0-2.542-2.715L600,189.6l17.015-5.034a4.763,4.763,0,0,0,3.118-2.919L626.277,165l4.975,16.827a5.152,5.152,0,0,0,3.161,3.375Z" transform="translate(-625.522 -190.448)" fill="#f4b033"/></g></g><g transform="translate(1243.639 659.542)"><g transform="translate(0 0)" clip-path="url(#f)"><path d="M770.875,356.269l-16.844,4.984a5.12,5.12,0,0,0-3.351,3.137l-6.08,16.481-5.121-17.308a4.147,4.147,0,0,0-2.542-2.715L720,354.6l17.015-5.034a4.764,4.764,0,0,0,3.118-2.919L746.277,330l4.975,16.827a5.152,5.152,0,0,0,3.161,3.375Z" transform="translate(-491.149 -354.993)" fill="#f4b033"/><path d="M650.875,356.269l-16.844,4.984a5.12,5.12,0,0,0-3.351,3.137l-6.08,16.481-5.121-17.308a4.147,4.147,0,0,0-2.542-2.715L600,354.6l17.015-5.034a4.764,4.764,0,0,0,3.118-2.919L626.277,330l4.975,16.827a5.152,5.152,0,0,0,3.161,3.375Z" transform="translate(-625.522 -354.993)" fill="#f4b033"/></g></g><g transform="translate(989.09 57.541)"><g transform="translate(0 0)" clip-path="url(#g)"><path d="M650.875,191.269l-16.844,4.984a5.12,5.12,0,0,0-3.351,3.137l-6.08,16.481-5.121-17.308a4.147,4.147,0,0,0-2.542-2.715L600,189.6l17.015-5.034a4.763,4.763,0,0,0,3.118-2.919L626.277,165l4.975,16.827a5.152,5.152,0,0,0,3.161,3.375Z" transform="translate(-370.972 62.243)" fill="#f4b033"/><path d="M530.875,191.269l-16.844,4.984a5.12,5.12,0,0,0-3.351,3.137l-6.08,16.481-5.121-17.308a4.147,4.147,0,0,0-2.542-2.715L480,189.6l17.015-5.034a4.763,4.763,0,0,0,3.118-2.919L506.277,165l4.975,16.827a5.152,5.152,0,0,0,3.161,3.375Z" transform="translate(-505.346 62.243)" fill="#f4b033"/><path d="M590.875,108.769l-16.844,4.984a5.12,5.12,0,0,0-3.351,3.137l-6.08,16.481-5.121-17.308a4.147,4.147,0,0,0-2.542-2.715L540,107.1l17.015-5.034a4.763,4.763,0,0,0,3.118-2.919L566.277,82.5l4.975,16.827a5.152,5.152,0,0,0,3.161,3.375Z" transform="translate(-438.159 -30.138)" fill="#f4b033"/></g></g><g transform="translate(989.09 310.233)"><g transform="translate(0 0)" clip-path="url(#h)"><path d="M650.875,356.269l-16.844,4.984a5.12,5.12,0,0,0-3.351,3.137l-6.08,16.481-5.121-17.308a4.147,4.147,0,0,0-2.542-2.715L600,354.6l17.015-5.034a4.764,4.764,0,0,0,3.118-2.919L626.277,330l4.975,16.827a5.152,5.152,0,0,0,3.161,3.375Z" transform="translate(-370.972 -5.685)" fill="#f4b033"/><path d="M530.875,356.269l-16.844,4.984a5.12,5.12,0,0,0-3.351,3.137l-6.08,16.481-5.121-17.308a4.147,4.147,0,0,0-2.542-2.715L480,354.6l17.015-5.034a4.764,4.764,0,0,0,3.118-2.919L506.277,330l4.975,16.827a5.152,5.152,0,0,0,3.161,3.375Z" transform="translate(-505.346 -5.685)" fill="#f4b033"/><path d="M590.875,273.769l-16.844,4.984a5.12,5.12,0,0,0-3.351,3.137l-6.08,16.481-5.121-17.308a4.147,4.147,0,0,0-2.542-2.715L540,272.1l17.015-5.034a4.763,4.763,0,0,0,3.118-2.919l6.143-16.649,4.975,16.827a5.152,5.152,0,0,0,3.161,3.375Z" transform="translate(-438.159 -98.066)" fill="#f4b033"/><path d="M650.875,191.269l-16.844,4.984a5.12,5.12,0,0,0-3.351,3.137l-6.08,16.481-5.121-17.308a4.147,4.147,0,0,0-2.542-2.715L600,189.6l17.015-5.034a4.763,4.763,0,0,0,3.118-2.919L626.277,165l4.975,16.827a5.152,5.152,0,0,0,3.161,3.375Z" transform="translate(-370.972 -190.448)" fill="#f4b033"/><path d="M530.875,191.269l-16.844,4.984a5.12,5.12,0,0,0-3.351,3.137l-6.08,16.481-5.121-17.308a4.147,4.147,0,0,0-2.542-2.715L480,189.6l17.015-5.034a4.763,4.763,0,0,0,3.118-2.919L506.277,165l4.975,16.827a5.152,5.152,0,0,0,3.161,3.375Z" transform="translate(-505.346 -190.448)" fill="#f4b033"/></g></g><g transform="translate(989.09 659.542)"><g transform="translate(0 0)" clip-path="url(#i)"><path d="M650.875,356.269l-16.844,4.984a5.12,5.12,0,0,0-3.351,3.137l-6.08,16.481-5.121-17.308a4.147,4.147,0,0,0-2.542-2.715L600,354.6l17.015-5.034a4.764,4.764,0,0,0,3.118-2.919L626.277,330l4.975,16.827a5.152,5.152,0,0,0,3.161,3.375Z" transform="translate(-370.972 -354.993)" fill="#f4b033"/><path d="M530.875,356.269l-16.844,4.984a5.12,5.12,0,0,0-3.351,3.137l-6.08,16.481-5.121-17.308a4.147,4.147,0,0,0-2.542-2.715L480,354.6l17.015-5.034a4.764,4.764,0,0,0,3.118-2.919L506.277,330l4.975,16.827a5.152,5.152,0,0,0,3.161,3.375Z" transform="translate(-505.346 -354.993)" fill="#f4b033"/></g></g><g transform="translate(734.54 57.541)"><g transform="translate(0 0)" clip-path="url(#j)"><path d="M530.875,191.269l-16.844,4.984a5.12,5.12,0,0,0-3.351,3.137l-6.08,16.481-5.121-17.308a4.147,4.147,0,0,0-2.542-2.715L480,189.6l17.015-5.034a4.763,4.763,0,0,0,3.118-2.919L506.277,165l4.975,16.827a5.152,5.152,0,0,0,3.161,3.375Z" transform="translate(-250.796 62.243)" fill="#f4b033"/><path d="M410.875,191.269l-16.844,4.984a5.121,5.121,0,0,0-3.351,3.137L384.6,215.872l-5.121-17.308a4.147,4.147,0,0,0-2.542-2.715L360,189.6l17.015-5.034a4.763,4.763,0,0,0,3.118-2.919L386.277,165l4.975,16.827a5.152,5.152,0,0,0,3.161,3.375Z" transform="translate(-385.17 62.243)" fill="#f4b033"/><path d="M470.875,108.769l-16.844,4.984a5.121,5.121,0,0,0-3.351,3.137L444.6,133.372l-5.121-17.308a4.147,4.147,0,0,0-2.542-2.715L420,107.1l17.015-5.034a4.763,4.763,0,0,0,3.118-2.919L446.277,82.5l4.975,16.827a5.152,5.152,0,0,0,3.161,3.375Z" transform="translate(-317.983 -30.138)" fill="#f4b033"/></g></g><g transform="translate(734.54 310.233)"><g transform="translate(0 0)" clip-path="url(#k)"><path d="M530.875,356.269l-16.844,4.984a5.12,5.12,0,0,0-3.351,3.137l-6.08,16.481-5.121-17.308a4.147,4.147,0,0,0-2.542-2.715L480,354.6l17.015-5.034a4.764,4.764,0,0,0,3.118-2.919L506.277,330l4.975,16.827a5.152,5.152,0,0,0,3.161,3.375Z" transform="translate(-250.796 -5.685)" fill="#f4b033"/><path d="M410.875,356.269l-16.844,4.984a5.12,5.12,0,0,0-3.351,3.137L384.6,380.872l-5.121-17.308a4.147,4.147,0,0,0-2.542-2.715L360,354.6l17.015-5.034a4.763,4.763,0,0,0,3.118-2.919L386.277,330l4.975,16.827a5.152,5.152,0,0,0,3.161,3.375Z" transform="translate(-385.17 -5.685)" fill="#f4b033"/><path d="M470.875,273.769l-16.844,4.984a5.121,5.121,0,0,0-3.351,3.137L444.6,298.372l-5.121-17.308a4.147,4.147,0,0,0-2.542-2.715L420,272.1l17.015-5.034a4.763,4.763,0,0,0,3.118-2.919l6.143-16.649,4.975,16.827a5.152,5.152,0,0,0,3.161,3.375Z" transform="translate(-317.983 -98.066)" fill="#f4b033"/><path d="M530.875,191.269l-16.844,4.984a5.12,5.12,0,0,0-3.351,3.137l-6.08,16.481-5.121-17.308a4.147,4.147,0,0,0-2.542-2.715L480,189.6l17.015-5.034a4.763,4.763,0,0,0,3.118-2.919L506.277,165l4.975,16.827a5.152,5.152,0,0,0,3.161,3.375Z" transform="translate(-250.796 -190.448)" fill="#f4b033"/><path d="M410.875,191.269l-16.844,4.984a5.121,5.121,0,0,0-3.351,3.137L384.6,215.872l-5.121-17.308a4.147,4.147,0,0,0-2.542-2.715L360,189.6l17.015-5.034a4.763,4.763,0,0,0,3.118-2.919L386.277,165l4.975,16.827a5.152,5.152,0,0,0,3.161,3.375Z" transform="translate(-385.17 -190.448)" fill="#f4b033"/></g></g><g transform="translate(734.54 659.542)"><g transform="translate(0 0)" clip-path="url(#l)"><path d="M530.875,356.269l-16.844,4.984a5.12,5.12,0,0,0-3.351,3.137l-6.08,16.481-5.121-17.308a4.147,4.147,0,0,0-2.542-2.715L480,354.6l17.015-5.034a4.764,4.764,0,0,0,3.118-2.919L506.277,330l4.975,16.827a5.152,5.152,0,0,0,3.161,3.375Z" transform="translate(-250.796 -354.993)" fill="#f4b033"/><path d="M410.875,356.269l-16.844,4.984a5.12,5.12,0,0,0-3.351,3.137L384.6,380.872l-5.121-17.308a4.147,4.147,0,0,0-2.542-2.715L360,354.6l17.015-5.034a4.763,4.763,0,0,0,3.118-2.919L386.277,330l4.975,16.827a5.152,5.152,0,0,0,3.161,3.375Z" transform="translate(-385.17 -354.993)" fill="#f4b033"/></g></g><g transform="translate(479.991 57.541)"><g transform="translate(0 0)" clip-path="url(#m)"><path d="M410.875,191.269l-16.844,4.984a5.121,5.121,0,0,0-3.351,3.137L384.6,215.872l-5.121-17.308a4.147,4.147,0,0,0-2.542-2.715L360,189.6l17.015-5.034a4.763,4.763,0,0,0,3.118-2.919L386.277,165l4.975,16.827a5.152,5.152,0,0,0,3.161,3.375Z" transform="translate(-130.62 62.243)" fill="#f4b033"/><path d="M290.875,191.269l-16.844,4.984a5.12,5.12,0,0,0-3.351,3.137l-6.08,16.481-5.121-17.308a4.147,4.147,0,0,0-2.542-2.715L240,189.6l17.015-5.034a4.763,4.763,0,0,0,3.118-2.919L266.277,165l4.975,16.827a5.152,5.152,0,0,0,3.161,3.375Z" transform="translate(-264.993 62.243)" fill="#f4b033"/><path d="M350.875,108.769l-16.844,4.984a5.121,5.121,0,0,0-3.351,3.137L324.6,133.372l-5.121-17.308a4.147,4.147,0,0,0-2.542-2.715L300,107.1l17.015-5.034a4.763,4.763,0,0,0,3.118-2.919L326.277,82.5l4.975,16.827a5.152,5.152,0,0,0,3.161,3.375Z" transform="translate(-197.807 -30.138)" fill="#f4b033"/></g></g><g transform="translate(479.991 310.233)"><g transform="translate(0 0)" clip-path="url(#n)"><path d="M410.875,356.269l-16.844,4.984a5.12,5.12,0,0,0-3.351,3.137L384.6,380.872l-5.121-17.308a4.147,4.147,0,0,0-2.542-2.715L360,354.6l17.015-5.034a4.763,4.763,0,0,0,3.118-2.919L386.277,330l4.975,16.827a5.152,5.152,0,0,0,3.161,3.375Z" transform="translate(-130.62 -5.685)" fill="#f4b033"/><path d="M290.875,356.269l-16.844,4.984a5.12,5.12,0,0,0-3.351,3.137l-6.08,16.481-5.121-17.308a4.147,4.147,0,0,0-2.542-2.715L240,354.6l17.015-5.034a4.763,4.763,0,0,0,3.118-2.919L266.277,330l4.975,16.827a5.152,5.152,0,0,0,3.161,3.375Z" transform="translate(-264.993 -5.685)" fill="#f4b033"/><path d="M350.875,273.769l-16.844,4.984a5.121,5.121,0,0,0-3.351,3.137L324.6,298.372l-5.121-17.308a4.147,4.147,0,0,0-2.542-2.715L300,272.1l17.015-5.034a4.763,4.763,0,0,0,3.118-2.919l6.143-16.649,4.975,16.827a5.152,5.152,0,0,0,3.161,3.375Z" transform="translate(-197.807 -98.066)" fill="#f4b033"/><path d="M410.875,191.269l-16.844,4.984a5.121,5.121,0,0,0-3.351,3.137L384.6,215.872l-5.121-17.308a4.147,4.147,0,0,0-2.542-2.715L360,189.6l17.015-5.034a4.763,4.763,0,0,0,3.118-2.919L386.277,165l4.975,16.827a5.152,5.152,0,0,0,3.161,3.375Z" transform="translate(-130.62 -190.448)" fill="#f4b033"/><path d="M290.875,191.269l-16.844,4.984a5.12,5.12,0,0,0-3.351,3.137l-6.08,16.481-5.121-17.308a4.147,4.147,0,0,0-2.542-2.715L240,189.6l17.015-5.034a4.763,4.763,0,0,0,3.118-2.919L266.277,165l4.975,16.827a5.152,5.152,0,0,0,3.161,3.375Z" transform="translate(-264.993 -190.448)" fill="#f4b033"/></g></g><g transform="translate(479.991 659.542)"><g transform="translate(0 0)" clip-path="url(#o)"><path d="M410.875,356.269l-16.844,4.984a5.12,5.12,0,0,0-3.351,3.137L384.6,380.872l-5.121-17.308a4.147,4.147,0,0,0-2.542-2.715L360,354.6l17.015-5.034a4.763,4.763,0,0,0,3.118-2.919L386.277,330l4.975,16.827a5.152,5.152,0,0,0,3.161,3.375Z" transform="translate(-130.62 -354.993)" fill="#f4b033"/><path d="M290.875,356.269l-16.844,4.984a5.12,5.12,0,0,0-3.351,3.137l-6.08,16.481-5.121-17.308a4.147,4.147,0,0,0-2.542-2.715L240,354.6l17.015-5.034a4.763,4.763,0,0,0,3.118-2.919L266.277,330l4.975,16.827a5.152,5.152,0,0,0,3.161,3.375Z" transform="translate(-264.993 -354.993)" fill="#f4b033"/></g></g><g transform="translate(226.37 57.541)"><g transform="translate(0 0)" clip-path="url(#p)"><path d="M290.875,191.269l-16.844,4.984a5.12,5.12,0,0,0-3.351,3.137l-6.08,16.481-5.121-17.308a4.147,4.147,0,0,0-2.542-2.715L240,189.6l17.015-5.034a4.763,4.763,0,0,0,3.118-2.919L266.277,165l4.975,16.827a5.152,5.152,0,0,0,3.161,3.375Z" transform="translate(-11.373 62.243)" fill="#f4b033"/><path d="M170.875,191.269l-16.844,4.984a5.12,5.12,0,0,0-3.351,3.137l-6.08,16.481-5.121-17.308a4.147,4.147,0,0,0-2.542-2.715L120,189.6l17.015-5.034a4.763,4.763,0,0,0,3.118-2.919L146.277,165l4.975,16.827a5.152,5.152,0,0,0,3.161,3.375Z" transform="translate(-145.746 62.243)" fill="#f4b033"/><path d="M230.875,108.769l-16.844,4.984a5.12,5.12,0,0,0-3.351,3.137l-6.08,16.481-5.121-17.308a4.147,4.147,0,0,0-2.542-2.715L180,107.1l17.015-5.034a4.763,4.763,0,0,0,3.118-2.919L206.277,82.5l4.975,16.827a5.152,5.152,0,0,0,3.161,3.375Z" transform="translate(-78.56 -30.138)" fill="#f4b033"/></g></g><g transform="translate(226.37 310.233)"><g transform="translate(0 0)" clip-path="url(#q)"><path d="M290.875,356.269l-16.844,4.984a5.12,5.12,0,0,0-3.351,3.137l-6.08,16.481-5.121-17.308a4.147,4.147,0,0,0-2.542-2.715L240,354.6l17.015-5.034a4.763,4.763,0,0,0,3.118-2.919L266.277,330l4.975,16.827a5.152,5.152,0,0,0,3.161,3.375Z" transform="translate(-11.373 -5.685)" fill="#f4b033"/><path d="M170.875,356.269l-16.844,4.984a5.12,5.12,0,0,0-3.351,3.137l-6.08,16.481-5.121-17.308a4.146,4.146,0,0,0-2.542-2.715L120,354.6l17.015-5.034a4.763,4.763,0,0,0,3.118-2.919L146.277,330l4.975,16.827a5.152,5.152,0,0,0,3.161,3.375Z" transform="translate(-145.746 -5.685)" fill="#f4b033"/><path d="M230.875,273.769l-16.844,4.984a5.12,5.12,0,0,0-3.351,3.137l-6.08,16.481-5.121-17.308a4.146,4.146,0,0,0-2.542-2.715L180,272.1l17.015-5.034a4.763,4.763,0,0,0,3.118-2.919l6.143-16.649,4.975,16.827a5.152,5.152,0,0,0,3.161,3.375Z" transform="translate(-78.56 -98.066)" fill="#f4b033"/><path d="M290.875,191.269l-16.844,4.984a5.12,5.12,0,0,0-3.351,3.137l-6.08,16.481-5.121-17.308a4.147,4.147,0,0,0-2.542-2.715L240,189.6l17.015-5.034a4.763,4.763,0,0,0,3.118-2.919L266.277,165l4.975,16.827a5.152,5.152,0,0,0,3.161,3.375Z" transform="translate(-11.373 -190.448)" fill="#f4b033"/><path d="M170.875,191.269l-16.844,4.984a5.12,5.12,0,0,0-3.351,3.137l-6.08,16.481-5.121-17.308a4.147,4.147,0,0,0-2.542-2.715L120,189.6l17.015-5.034a4.763,4.763,0,0,0,3.118-2.919L146.277,165l4.975,16.827a5.152,5.152,0,0,0,3.161,3.375Z" transform="translate(-145.746 -190.448)" fill="#f4b033"/></g></g><g transform="translate(226.37 659.542)"><g transform="translate(0 0)" clip-path="url(#r)"><path d="M290.875,356.269l-16.844,4.984a5.12,5.12,0,0,0-3.351,3.137l-6.08,16.481-5.121-17.308a4.147,4.147,0,0,0-2.542-2.715L240,354.6l17.015-5.034a4.763,4.763,0,0,0,3.118-2.919L266.277,330l4.975,16.827a5.152,5.152,0,0,0,3.161,3.375Z" transform="translate(-11.373 -354.993)" fill="#f4b033"/><path d="M170.875,356.269l-16.844,4.984a5.12,5.12,0,0,0-3.351,3.137l-6.08,16.481-5.121-17.308a4.146,4.146,0,0,0-2.542-2.715L120,354.6l17.015-5.034a4.763,4.763,0,0,0,3.118-2.919L146.277,330l4.975,16.827a5.152,5.152,0,0,0,3.161,3.375Z" transform="translate(-145.746 -354.993)" fill="#f4b033"/></g></g><g transform="translate(48 57.541)"><g transform="translate(0 0)" clip-path="url(#s)"><path d="M170.875,191.269l-16.844,4.984a5.12,5.12,0,0,0-3.351,3.137l-6.08,16.481-5.121-17.308a4.147,4.147,0,0,0-2.542-2.715L120,189.6l17.015-5.034a4.763,4.763,0,0,0,3.118-2.919L146.277,165l4.975,16.827a5.152,5.152,0,0,0,3.161,3.375Z" transform="translate(32.624 62.243)" fill="#f4b033"/><path d="M110.875,108.769l-16.844,4.984a5.121,5.121,0,0,0-3.351,3.137L84.6,133.372l-5.121-17.308a4.147,4.147,0,0,0-2.542-2.715L60,107.1l17.015-5.034a4.763,4.763,0,0,0,3.118-2.919L86.277,82.5l4.975,16.827a5.152,5.152,0,0,0,3.161,3.375Z" transform="translate(-34.563 -30.138)" fill="#f4b033"/></g></g><g transform="translate(48 310.233)"><g transform="translate(0 0)" clip-path="url(#t)"><path d="M170.875,356.269l-16.844,4.984a5.12,5.12,0,0,0-3.351,3.137l-6.08,16.481-5.121-17.308a4.146,4.146,0,0,0-2.542-2.715L120,354.6l17.015-5.034a4.763,4.763,0,0,0,3.118-2.919L146.277,330l4.975,16.827a5.152,5.152,0,0,0,3.161,3.375Z" transform="translate(32.624 -5.685)" fill="#f4b033"/><path d="M110.875,273.769l-16.844,4.984a5.12,5.12,0,0,0-3.351,3.137L84.6,298.372l-5.121-17.308a4.147,4.147,0,0,0-2.542-2.715L60,272.1l17.015-5.034a4.763,4.763,0,0,0,3.118-2.919L86.277,247.5l4.975,16.827a5.152,5.152,0,0,0,3.161,3.375Z" transform="translate(-34.563 -98.066)" fill="#f4b033"/><path d="M170.875,191.269l-16.844,4.984a5.12,5.12,0,0,0-3.351,3.137l-6.08,16.481-5.121-17.308a4.147,4.147,0,0,0-2.542-2.715L120,189.6l17.015-5.034a4.763,4.763,0,0,0,3.118-2.919L146.277,165l4.975,16.827a5.152,5.152,0,0,0,3.161,3.375Z" transform="translate(32.624 -190.448)" fill="#f4b033"/></g></g><g transform="translate(48 659.542)"><g transform="translate(0 0)" clip-path="url(#u)"><path d="M170.875,356.269l-16.844,4.984a5.12,5.12,0,0,0-3.351,3.137l-6.08,16.481-5.121-17.308a4.146,4.146,0,0,0-2.542-2.715L120,354.6l17.015-5.034a4.763,4.763,0,0,0,3.118-2.919L146.277,330l4.975,16.827a5.152,5.152,0,0,0,3.161,3.375Z" transform="translate(32.624 -354.993)" fill="#f4b033"/></g></g></g></svg>