<svg xmlns="http://www.w3.org/2000/svg" width="564.913" height="652.37" viewBox="0 0 564.913 652.37"><g transform="translate(-25.175 -32.63)"><g transform="translate(-1184.873 158.135)"><path d="M679.42,138.2l-15.864,4.693a4.821,4.821,0,0,0-3.157,2.955l-5.724,15.521-4.822-16.3a3.909,3.909,0,0,0-2.4-2.557l-15.95-5.884,16.024-4.741a4.484,4.484,0,0,0,2.938-2.748l5.783-15.68L660.94,129.3a4.854,4.854,0,0,0,2.975,3.179Z" transform="translate(966.453 -8.423)" fill="#f4b033"/><path d="M707.056,163.487l-15.863,4.693a4.818,4.818,0,0,0-3.156,2.955l-5.726,15.521-4.822-16.3a3.909,3.909,0,0,0-2.394-2.557l-15.951-5.883,16.025-4.741a4.485,4.485,0,0,0,2.936-2.75l5.785-15.678,4.686,15.847a4.856,4.856,0,0,0,2.976,3.178Z" transform="translate(890.904 27.222)" fill="#f4b033"/><ellipse cx="8.601" cy="8.601" rx="8.601" ry="8.601" transform="translate(1597.96 213.877)" fill="#f4b033"/></g><path d="M679.42,138.2l-15.864,4.693a4.821,4.821,0,0,0-3.157,2.955l-5.724,15.521-4.822-16.3a3.909,3.909,0,0,0-2.4-2.557l-15.95-5.884,16.024-4.741a4.484,4.484,0,0,0,2.938-2.748l5.783-15.68L660.94,129.3a4.854,4.854,0,0,0,2.975,3.179Z" transform="translate(-266.333 84.13)" fill="#f4b033"/><path d="M679.42,138.2l-15.864,4.693a4.821,4.821,0,0,0-3.157,2.955l-5.724,15.521-4.822-16.3a3.909,3.909,0,0,0-2.4-2.557l-15.95-5.884,16.024-4.741a4.484,4.484,0,0,0,2.938-2.748l5.783-15.68L660.94,129.3a4.854,4.854,0,0,0,2.975,3.179Z" transform="translate(-323.42 -46.87)" fill="#f4b033"/><path d="M679.42,138.2l-15.864,4.693a4.821,4.821,0,0,0-3.157,2.955l-5.724,15.521-4.822-16.3a3.909,3.909,0,0,0-2.4-2.557l-15.95-5.884,16.024-4.741a4.484,4.484,0,0,0,2.938-2.748l5.783-15.68L660.94,129.3a4.854,4.854,0,0,0,2.975,3.179Z" transform="translate(-371.333 169.586)" fill="#f4b033"/><path d="M679.42,138.2l-15.864,4.693a4.821,4.821,0,0,0-3.157,2.955l-5.724,15.521-4.822-16.3a3.909,3.909,0,0,0-2.4-2.557l-15.95-5.884,16.024-4.741a4.484,4.484,0,0,0,2.938-2.748l5.783-15.68L660.94,129.3a4.854,4.854,0,0,0,2.975,3.179Z" transform="translate(-444.333 279.63)" fill="#f4b033"/><path d="M679.42,138.2l-15.864,4.693a4.821,4.821,0,0,0-3.157,2.955l-5.724,15.521-4.822-16.3a3.909,3.909,0,0,0-2.4-2.557l-15.95-5.884,16.024-4.741a4.484,4.484,0,0,0,2.938-2.748l5.783-15.68L660.94,129.3a4.854,4.854,0,0,0,2.975,3.179Z" transform="translate(-573.333 249.521)" fill="#f4b033"/><path d="M679.42,138.2l-15.864,4.693a4.821,4.821,0,0,0-3.157,2.955l-5.724,15.521-4.822-16.3a3.909,3.909,0,0,0-2.4-2.557l-15.95-5.884,16.024-4.741a4.484,4.484,0,0,0,2.938-2.748l5.783-15.68L660.94,129.3a4.854,4.854,0,0,0,2.975,3.179Z" transform="translate(-573.333 419.63)" fill="#f4b033"/><path d="M679.42,138.2l-15.864,4.693a4.821,4.821,0,0,0-3.157,2.955l-5.724,15.521-4.822-16.3a3.909,3.909,0,0,0-2.4-2.557l-15.95-5.884,16.024-4.741a4.484,4.484,0,0,0,2.938-2.748l5.783-15.68L660.94,129.3a4.854,4.854,0,0,0,2.975,3.179Z" transform="translate(-405.376 523.63)" fill="#f4b033"/><path d="M679.42,138.2l-15.864,4.693a4.821,4.821,0,0,0-3.157,2.955l-5.724,15.521-4.822-16.3a3.909,3.909,0,0,0-2.4-2.557l-15.95-5.884,16.024-4.741a4.484,4.484,0,0,0,2.938-2.748l5.783-15.68L660.94,129.3a4.854,4.854,0,0,0,2.975,3.179Z" transform="translate(-299.463 467.543)" fill="#f4b033"/><path d="M679.42,138.2l-15.864,4.693a4.821,4.821,0,0,0-3.157,2.955l-5.724,15.521-4.822-16.3a3.909,3.909,0,0,0-2.4-2.557l-15.95-5.884,16.024-4.741a4.484,4.484,0,0,0,2.938-2.748l5.783-15.68L660.94,129.3a4.854,4.854,0,0,0,2.975,3.179Z" transform="translate(-381.42 419.63)" fill="#f4b033"/><path d="M679.42,138.2l-15.864,4.693a4.821,4.821,0,0,0-3.157,2.955l-5.724,15.521-4.822-16.3a3.909,3.909,0,0,0-2.4-2.557l-15.95-5.884,16.024-4.741a4.484,4.484,0,0,0,2.938-2.748l5.783-15.68L660.94,129.3a4.854,4.854,0,0,0,2.975,3.179Z" transform="translate(-535.333 145.63)" fill="#f4b033"/><path d="M707.056,163.487l-15.863,4.693a4.818,4.818,0,0,0-3.156,2.955l-5.726,15.521-4.822-16.3a3.909,3.909,0,0,0-2.394-2.557l-15.951-5.883,16.025-4.741a4.485,4.485,0,0,0,2.936-2.75l5.785-15.678,4.686,15.847a4.856,4.856,0,0,0,2.976,3.178Z" transform="translate(-456.969 8.166)" fill="#f4b033"/><path d="M707.056,163.487l-15.863,4.693a4.818,4.818,0,0,0-3.156,2.955l-5.726,15.521-4.822-16.3a3.909,3.909,0,0,0-2.394-2.557l-15.951-5.883,16.025-4.741a4.485,4.485,0,0,0,2.936-2.75l5.785-15.678,4.686,15.847a4.856,4.856,0,0,0,2.976,3.178Z" transform="translate(-471.969 -106.112)" fill="#f4b033"/><path d="M707.056,163.487l-15.863,4.693a4.818,4.818,0,0,0-3.156,2.955l-5.726,15.521-4.822-16.3a3.909,3.909,0,0,0-2.394-2.557l-15.951-5.883,16.025-4.741a4.485,4.485,0,0,0,2.936-2.75l5.785-15.678,4.686,15.847a4.856,4.856,0,0,0,2.976,3.178Z" transform="translate(-633.969 34.888)" fill="#f4b033"/><path d="M707.056,163.487l-15.863,4.693a4.818,4.818,0,0,0-3.156,2.955l-5.726,15.521-4.822-16.3a3.909,3.909,0,0,0-2.394-2.557l-15.951-5.883,16.025-4.741a4.485,4.485,0,0,0,2.936-2.75l5.785-15.678,4.686,15.847a4.856,4.856,0,0,0,2.976,3.178Z" transform="translate(-562.97 -48.199)" fill="#f4b033"/><path d="M679.42,138.2l-15.864,4.693a4.821,4.821,0,0,0-3.157,2.955l-5.724,15.521-4.822-16.3a3.909,3.909,0,0,0-2.4-2.557l-15.95-5.884,16.024-4.741a4.484,4.484,0,0,0,2.938-2.748l5.783-15.68L660.94,129.3a4.854,4.854,0,0,0,2.975,3.179Z" transform="translate(-148.353 -46.87)" fill="#f4b033"/><path d="M679.42,138.2l-15.864,4.693a4.821,4.821,0,0,0-3.157,2.955l-5.724,15.521-4.822-16.3a3.909,3.909,0,0,0-2.4-2.557l-15.95-5.884,16.024-4.741a4.484,4.484,0,0,0,2.938-2.748l5.783-15.68L660.94,129.3a4.854,4.854,0,0,0,2.975,3.179Z" transform="translate(-89.332 57.63)" fill="#f4b033"/></g></svg>