<svg width="508" height="539" viewBox="0 0 508 539" fill="none" xmlns="http://www.w3.org/2000/svg">
<g clip-path="url(#clip0_9844_31435)">
<path d="M437.98 59.0662C382.138 156.682 309.247 111.606 309.247 111.606L322.422 85.9705C364.947 22.7512 437.98 59.0662 437.98 59.0662Z" fill="#09163B"/>
<path d="M309.247 111.606C309.247 111.606 382.138 156.682 437.98 59.0662C437.98 59.0662 364.947 22.7512 322.422 85.9705" stroke="#09163B" stroke-width="3.68675" stroke-miterlimit="10" stroke-linecap="round" stroke-linejoin="round"/>
<path d="M398.81 86.2585L412.344 81.2618" stroke="#09163B" stroke-width="3.68675" stroke-linecap="round"/>
<path d="M75.92 198.219C4.95703 260.423 54.1842 312.848 54.1842 312.848L73.0686 297.738C117.966 252.222 75.92 198.219 75.92 198.219Z" fill="#09163B"/>
<path d="M54.1842 312.848C54.1842 312.848 4.95703 260.423 75.92 198.219C75.92 198.219 117.966 252.222 73.0686 297.738" stroke="#09163B" stroke-width="3.68675" stroke-miterlimit="10" stroke-linecap="round" stroke-linejoin="round"/>
<path d="M-7.8627 477.801C-7.8627 477.801 -7.93435 477.801 -7.97017 477.801C-11.5408 477.741 -14.383 474.809 -14.3233 471.244C-14.2875 469.337 -13.3202 423.965 9.66811 371.523C23.1984 340.647 41.589 313.788 64.3384 291.698C92.7722 264.076 128.073 243.918 169.249 231.794L169.726 231.675C170.061 231.603 204.549 223.95 239.503 198.784C259.852 184.121 276.404 166.453 288.692 146.247C304.049 121.009 312.803 91.6473 314.702 58.9831C314.905 55.4305 317.974 52.7006 321.532 52.9152C325.091 53.1178 327.814 56.1697 327.611 59.7341C325.569 94.6396 316.147 126.1 299.571 153.221C286.316 174.929 268.498 193.884 246.644 209.549C210.759 235.263 176.294 243.429 172.7 244.228C133.757 255.732 100.403 274.746 73.5695 300.734C52.0382 321.585 34.591 347.001 21.7056 376.256C-0.375085 426.385 -1.39015 471.006 -1.39015 471.447C-1.44986 474.976 -4.32787 477.789 -7.85075 477.789L-7.8627 477.801Z" fill="#78FB82" stroke="#09163B" stroke-width="3.68675" stroke-miterlimit="10"/>
<path d="M214.221 313.182C113.873 363.951 77.8227 286.199 77.8227 286.199L102.931 272.046C173.23 242.667 214.221 313.182 214.221 313.182Z" fill="#78FB82"/>
<path d="M77.8227 286.199C77.8227 286.199 113.873 363.951 214.221 313.182C214.221 313.182 173.23 242.667 102.931 272.046" stroke="#09163B" stroke-width="3.68675" stroke-miterlimit="10" stroke-linecap="round" stroke-linejoin="round"/>
<path d="M90.0201 282.682L179.336 303.512" stroke="#09163B" stroke-width="3.68675" stroke-linecap="round"/>
<path d="M243.222 79.2362C163.648 158.704 226.248 217.237 226.248 217.237L247.535 197.806C297.404 140.202 243.222 79.2362 243.222 79.2362Z" fill="#78FB82"/>
<path d="M223.933 212.353C223.933 212.353 169.093 160.738 243.223 79.2357C243.223 79.2357 297.405 140.202 247.537 197.806" stroke="#09163B" stroke-width="3.68675" stroke-miterlimit="10" stroke-linecap="round" stroke-linejoin="round"/>
<path d="M235.454 200.834L239.602 124.795" stroke="#09163B" stroke-width="3.68675" stroke-linecap="round"/>
<path d="M355.341 202.392C368.838 214.351 333.8 260.43 276.422 276.063C275.737 276.251 279.122 258.195 279.449 257.211C284.69 241.359 295.688 228.095 308.863 218.11C317.192 211.794 346.478 194.533 355.347 202.392L355.341 202.392Z" fill="#09163B" stroke="#09163B" stroke-width="3.68675" stroke-linecap="round" stroke-linejoin="round"/>
<path d="M362.65 199.562C367.976 198.821 373.248 197.838 378.592 197.309C388.813 196.295 399.786 196.72 409.237 201.129C422.91 207.519 429.297 222.174 432.337 236.149C437.317 259.057 436.904 282.713 434.775 305.932C433.04 324.851 431.044 343.781 427.459 362.451C424.645 377.1 419.319 391.81 403.717 396.802L401.382 397.549C389.304 401.418 376.075 398.181 367.158 389.15C345.866 367.595 325.618 344.48 309.179 318.959C303.38 309.965 298.072 300.606 293.838 290.761C284.745 269.619 287.566 240.983 301.323 222.356C308.912 212.08 320.116 206.012 332.381 203.158C340.043 201.372 347.916 200.905 355.741 200.315C358.065 200.139 360.364 199.866 362.657 199.544L362.65 199.562Z" fill="#FF8B8B" stroke="#09163B" stroke-width="3.68675" stroke-linecap="round" stroke-linejoin="round"/>
<path d="M366.376 237.652C365.705 235.12 366.705 232.657 368.609 232.151C370.513 231.645 372.6 233.288 373.271 235.82C373.942 238.352 372.943 240.815 371.039 241.321C369.135 241.826 367.047 240.184 366.376 237.652Z" fill="#FFFB8B" stroke="#09163B" stroke-width="2.76506" stroke-miterlimit="10"/>
<path d="M388.302 267.695C387.631 265.163 388.631 262.7 390.535 262.194C392.439 261.688 394.526 263.331 395.197 265.863C395.868 268.395 394.869 270.858 392.965 271.364C391.061 271.869 388.973 270.227 388.302 267.695Z" fill="#FFFB8B" stroke="#09163B" stroke-width="2.76506" stroke-miterlimit="10"/>
<path d="M345.105 276.864C344.434 274.332 345.433 271.869 347.337 271.364C349.241 270.858 351.329 272.5 352 275.032C352.671 277.565 351.671 280.027 349.767 280.533C347.863 281.039 345.776 279.396 345.105 276.864Z" fill="#FFFB8B" stroke="#09163B" stroke-width="2.76506" stroke-miterlimit="10"/>
<path d="M409.563 290.558C409.428 287.942 410.914 285.739 412.882 285.636C414.849 285.534 416.553 287.571 416.688 290.187C416.822 292.803 415.337 295.007 413.369 295.109C411.402 295.212 409.698 293.174 409.563 290.558Z" fill="#FFFB8B" stroke="#09163B" stroke-width="2.76506" stroke-miterlimit="10"/>
<path d="M371.829 296.789C371.158 294.257 372.158 291.795 374.062 291.289C375.966 290.783 378.053 292.426 378.724 294.958C379.395 297.49 378.396 299.953 376.492 300.458C374.588 300.964 372.5 299.322 371.829 296.789Z" fill="#FFFB8B" stroke="#09163B" stroke-width="2.76506" stroke-miterlimit="10"/>
<path d="M336.915 305.959C336.244 303.427 337.244 300.964 339.148 300.458C341.052 299.953 343.139 301.595 343.81 304.127C344.481 306.659 343.482 309.122 341.578 309.628C339.674 310.134 337.586 308.491 336.915 305.959Z" fill="#FFFB8B" stroke="#09163B" stroke-width="2.76506" stroke-miterlimit="10"/>
<path d="M376.619 383.058C375.947 380.526 376.947 378.063 378.851 377.557C380.755 377.051 382.843 378.694 383.514 381.226C384.185 383.758 383.185 386.221 381.281 386.726C379.377 387.232 377.29 385.59 376.619 383.058Z" fill="#FFFB8B" stroke="#09163B" stroke-width="2.76506" stroke-miterlimit="10"/>
<path d="M321.906 251.384C321.235 248.852 322.234 246.389 324.138 245.883C326.042 245.377 328.13 247.02 328.801 249.552C329.472 252.084 328.472 254.547 326.568 255.053C324.664 255.558 322.577 253.916 321.906 251.384Z" fill="#09163B"/>
<path d="M336.327 338.214C335.183 335.858 335.158 333.509 336.273 332.966C337.388 332.424 339.22 333.894 340.365 336.25C341.509 338.606 341.534 340.955 340.419 341.498C339.304 342.041 337.472 340.57 336.327 338.214Z" fill="#FFFB8B" stroke="#09163B" stroke-width="2.76506" stroke-miterlimit="10"/>
<path d="M295.592 267.695C294.921 265.163 295.469 262.82 296.817 262.462C298.164 262.104 299.8 263.867 300.471 266.399C301.142 268.931 300.594 271.273 299.246 271.631C297.899 271.989 296.263 270.227 295.592 267.695Z" fill="#FFFB8B" stroke="#09163B" stroke-width="2.76506" stroke-miterlimit="10"/>
<path d="M356.511 360.367C355.325 358.032 355.371 355.626 356.614 354.994C357.856 354.362 359.824 355.743 361.01 358.078C362.195 360.413 362.149 362.819 360.907 363.451C359.664 364.083 357.696 362.703 356.511 360.367Z" fill="#FFFB8B" stroke="#09163B" stroke-width="2.76506" stroke-miterlimit="10"/>
<path d="M415.983 348.664C414.59 348.706 413.396 346.618 413.317 343.999C413.237 341.381 414.301 339.224 415.694 339.182C417.088 339.14 418.281 341.228 418.361 343.847C418.441 346.465 417.377 348.622 415.983 348.664Z" fill="#FFFB8B" stroke="#09163B" stroke-width="2.76506" stroke-miterlimit="10"/>
<path d="M314.833 285.026C314.162 282.494 314.71 280.151 316.057 279.793C317.404 279.435 319.04 281.198 319.711 283.73C320.382 286.262 319.834 288.605 318.487 288.962C317.14 289.32 315.504 287.558 314.833 285.026Z" fill="#FFFB8B" stroke="#09163B" stroke-width="2.76506" stroke-miterlimit="10"/>
<path d="M314.092 319.237C312.963 316.873 313.067 314.47 314.325 313.868C315.582 313.267 317.516 314.695 318.645 317.059C319.774 319.423 319.67 321.826 318.413 322.428C317.156 323.029 315.221 321.601 314.092 319.237Z" fill="#FFFB8B" stroke="#09163B" stroke-width="2.76506" stroke-miterlimit="10"/>
<path d="M293.454 295.637C292.783 293.105 293.331 290.762 294.678 290.404C296.025 290.047 297.661 291.809 298.332 294.341C299.003 296.873 298.455 299.216 297.108 299.574C295.761 299.932 294.125 298.169 293.454 295.637Z" fill="#FFFB8B" stroke="#09163B" stroke-width="2.76506" stroke-miterlimit="10"/>
<path d="M423.122 259.274C423.043 256.656 424.108 254.499 425.501 254.456C426.894 254.414 428.087 256.502 428.167 259.121C428.246 261.739 427.181 263.896 425.788 263.939C424.395 263.981 423.202 261.893 423.122 259.274Z" fill="#FFFB8B" stroke="#09163B" stroke-width="2.76506" stroke-miterlimit="10"/>
<path d="M434.498 240.316C433.989 237.746 432.364 235.986 433.731 235.715C435.098 235.444 436.619 237.308 437.128 239.878C437.636 242.448 436.941 244.75 435.573 245.021C434.206 245.292 435.007 242.886 434.498 240.316Z" fill="#09163B" stroke="#09163B" stroke-width="2.76506" stroke-miterlimit="10"/>
<path d="M436.516 290.914C436.656 288.298 435.514 286.192 436.906 286.266C438.297 286.34 439.312 288.521 439.173 291.137C439.033 293.753 437.792 295.813 436.4 295.739C435.008 295.665 436.376 293.53 436.516 290.914Z" fill="#09163B" stroke="#09163B" stroke-width="2.76506" stroke-miterlimit="10"/>
<path d="M346.412 368.741C348.005 370.821 350.241 371.681 349.135 372.528C348.028 373.376 345.84 372.377 344.247 370.297C342.655 368.217 342.26 365.844 343.367 364.997C344.473 364.149 344.819 366.661 346.412 368.741Z" fill="#09163B" stroke="#09163B" stroke-width="2.76506" stroke-miterlimit="10"/>
<path d="M324.375 343.418C325.968 345.498 328.204 346.358 327.098 347.205C325.991 348.053 323.803 347.054 322.21 344.974C320.617 342.894 320.223 340.521 321.329 339.674C322.436 338.826 322.782 341.338 324.375 343.418Z" fill="#09163B" stroke="#09163B" stroke-width="2.76506" stroke-miterlimit="10"/>
<path d="M431.714 345.713C432.369 343.177 431.669 340.886 433.018 341.235C434.367 341.583 434.929 343.922 434.273 346.459C433.618 348.995 431.992 350.768 430.643 350.419C429.293 350.07 431.058 348.249 431.714 345.713Z" fill="#09163B" stroke="#09163B" stroke-width="2.76506" stroke-miterlimit="10"/>
<path d="M425.337 372.1C425.993 369.564 425.292 367.273 426.641 367.621C427.99 367.97 428.552 370.309 427.896 372.845C427.241 375.381 425.615 377.155 424.266 376.806C422.917 376.457 424.681 374.636 425.337 372.1Z" fill="#09163B" stroke="#09163B" stroke-width="2.76506" stroke-miterlimit="10"/>
<path d="M410.078 211.808C408.573 209.665 408.278 207.277 409.418 206.475C410.558 205.672 412.702 206.759 414.207 208.902C415.712 211.045 416.007 213.433 414.867 214.235C413.727 215.038 411.583 213.951 410.078 211.808Z" fill="#09163B"/>
<path d="M382.664 214.522C381.159 212.379 380.864 209.991 382.004 209.189C383.144 208.386 385.288 209.473 386.793 211.616C388.298 213.759 388.593 216.147 387.453 216.949C386.313 217.752 384.169 216.665 382.664 214.522Z" fill="#09163B"/>
<path d="M338.594 221.146C338.338 218.539 339.255 216.315 340.642 216.178C342.029 216.042 343.361 218.045 343.617 220.652C343.873 223.259 342.956 225.483 341.569 225.62C340.182 225.756 338.85 223.753 338.594 221.146Z" fill="#09163B"/>
<path d="M305.939 236.748C304.56 236.547 303.747 234.282 304.124 231.69C304.501 229.097 305.924 227.159 307.304 227.36C308.683 227.561 309.495 229.825 309.119 232.418C308.742 235.01 307.318 236.949 305.939 236.748Z" fill="#09163B"/>
<path d="M408.695 232.971C408.024 230.439 409.023 227.976 410.927 227.47C412.831 226.964 414.919 228.607 415.59 231.139C416.261 233.671 415.261 236.134 413.357 236.639C411.453 237.145 409.366 235.503 408.695 232.971Z" fill="#FFFB8B" stroke="#09163B" stroke-width="2.76506" stroke-miterlimit="10"/>
<path d="M425.604 317.514C425.762 314.899 427.101 312.852 428.596 312.942C430.091 313.032 431.175 315.225 431.017 317.839C430.86 320.454 429.521 322.501 428.026 322.412C426.531 322.322 425.447 320.129 425.604 317.514Z" fill="#FFFB8B" stroke="#09163B" stroke-width="2.76506" stroke-miterlimit="10"/>
<path d="M382.152 348.897C381.481 346.365 382.48 343.902 384.384 343.396C386.288 342.891 388.376 344.533 389.047 347.065C389.718 349.597 388.718 352.06 386.814 352.566C384.91 353.072 382.823 351.429 382.152 348.897Z" fill="#FFFB8B" stroke="#09163B" stroke-width="2.76506" stroke-miterlimit="10"/>
<path d="M395.288 319.837C394.778 317.267 395.997 314.86 398.011 314.459C400.026 314.059 402.073 315.817 402.583 318.387C403.094 320.956 401.875 323.364 399.86 323.764C397.846 324.164 395.799 322.406 395.288 319.837Z" fill="#FFFB8B" stroke="#09163B" stroke-width="2.76506" stroke-miterlimit="10"/>
<path d="M359.685 328.169C359.174 325.6 360.393 323.192 362.408 322.792C364.422 322.391 366.469 324.15 366.98 326.719C367.49 329.289 366.271 331.696 364.257 332.097C362.242 332.497 360.195 330.739 359.685 328.169Z" fill="#FFFB8B" stroke="#09163B" stroke-width="2.76506" stroke-miterlimit="10"/>
<path d="M403.38 374.219C403.308 371.6 404.464 369.444 405.961 369.403C407.458 369.362 408.729 371.452 408.801 374.071C408.872 376.69 407.716 378.846 406.219 378.886C404.722 378.927 403.451 376.837 403.38 374.219Z" fill="#FFFB8B" stroke="#09163B" stroke-width="2.76506" stroke-miterlimit="10"/>
<path d="M299.546 138.621C356.42 142.52 368.965 202.557 368.965 202.557L357.828 207.045C335.875 143.39 299.546 149.172 299.546 149.172L299.546 138.621Z" fill="#78FB82"/>
<path d="M299.546 138.621C356.42 142.52 368.965 202.557 368.965 202.557L357.828 207.045C335.875 143.39 299.546 149.172 299.546 149.172" stroke="#09163B" stroke-width="3.68675" stroke-miterlimit="10" stroke-linecap="round"/>
<path d="M352.726 198.658C349.117 216.337 404.784 232.08 460.027 210.033C460.689 209.766 447.143 197.376 446.294 196.787C432.585 187.27 415.837 183.298 399.313 183.243C388.867 183.207 355.098 187.039 352.726 198.658Z" fill="#FFFB8B" stroke="#09163B" stroke-width="3.68675" stroke-linecap="round" stroke-linejoin="round"/>
<path d="M360.928 193.24C371.301 207.998 326.564 244.718 267.13 246.637C266.414 246.662 273.881 229.881 274.427 228.994C283.186 214.782 296.956 204.433 312.072 197.765C321.632 193.55 354.11 183.541 360.928 193.24Z" fill="#FFFB8B" stroke="#09163B" stroke-width="3.68675" stroke-linecap="round" stroke-linejoin="round"/>
<path d="M294.971 223.929C309.785 212.128 335.104 202.575 355.734 200.328" stroke="#09163B" stroke-width="3.68675" stroke-miterlimit="10" stroke-linecap="round"/>
<path d="M287.066 251.527C297.757 254.845 314.256 250.145 321.168 247.38L322.09 234.937C319.14 236.412 298.126 242.003 287.987 244.615L287.066 251.527Z" fill="#09163B"/>
<path d="M338.919 200.728C305.695 242.647 331.991 282.276 331.991 282.276C341.46 257.557 356.892 240.509 365.991 231.982C375.054 223.485 381.32 211.417 375.648 200.157C368.078 185.138 348.746 188.344 338.925 200.734L338.919 200.728Z" fill="#FFFB8B" stroke="#09163B" stroke-width="3.68675" stroke-linecap="round" stroke-linejoin="round"/>
<path d="M372.227 195.293C372.476 195.56 398.918 189.462 425.645 196.829" stroke="#09163B" stroke-width="3.68675" stroke-miterlimit="10" stroke-linecap="round"/>
<path d="M368.635 229.867C390.019 236.135 405.196 227.256 410.111 222.033L375.548 218.807L368.635 229.867Z" fill="#09163B"/>
</g>
<defs>
<clipPath id="clip0_9844_31435">
<rect width="494.946" height="459" fill="white" transform="matrix(-1 -4.47287e-09 -4.47287e-09 1 470.482 40)"/>
</clipPath>
</defs>
</svg>
