<svg xmlns="http://www.w3.org/2000/svg" width="174.784" height="167.614" viewBox="0 0 174.784 167.614"><ellipse cx="13.575" cy="28.93" rx="13.575" ry="28.93" transform="matrix(0.975, -0.223, 0.223, 0.975, 135.406, 9.829)" fill="#7da299"/><g transform="translate(0 0)"><path d="M561.371,196.315a3.869,3.869,0,0,0,.655-3.238L557.7,176.914c-.6-2.231-3.254-3.459-5.931-2.742l-19.394,5.2a5.019,5.019,0,0,0-3.55,6.149l3.9,14.545a5.017,5.017,0,0,0,6.147,3.55l19.4-5.2A5.57,5.57,0,0,0,561.371,196.315Z" transform="translate(-528.647 -117.536)" fill="#1b4a54"/><g transform="translate(3.462 73.63)"><path d="M531.418,193.611a5.017,5.017,0,0,0,6.147,3.55l19.4-5.2a5.564,5.564,0,0,0,3.112-2.1,3.873,3.873,0,0,0,.655-3.238l-.825-1.911-29.093,7.8Z" transform="translate(-530.81 -184.714)" fill="#0d2226"/></g><path d="M540.617,183.169a11.726,11.726,0,0,1,8.282-14.345l12.93-3.465a5.021,5.021,0,0,1,6.148,3.55l8.662,32.324a5.017,5.017,0,0,1-3.55,6.147l-12.93,3.465a11.726,11.726,0,0,1-14.344-8.282Z" transform="translate(-521.7 -122.809)" fill="#6c6d6d"/><g transform="translate(22.358 66.801)"><path d="M544.373,193.4a11.727,11.727,0,0,0,14.345,8.282l12.93-3.465a5.017,5.017,0,0,0,3.55-6.147l-3.489-11.624-29.091,7.8Z" transform="translate(-542.617 -180.447)" fill="#37373a"/></g><path d="M551.362,180.765a10.038,10.038,0,0,1,7.1-12.295l79.2-21.22a5.017,5.017,0,0,1,6.147,3.55l12.126,45.254a5.02,5.02,0,0,1-3.55,6.147l-79.2,21.22a10.038,10.038,0,0,1-12.295-7.1Z" transform="translate(-515.215 -133.683)" fill="#1b4a54"/><path d="M653.3,183.152l-4.15-14.588-93.741,25.117,2.85,9.739a10.038,10.038,0,0,0,12.294,7.1l79.2-21.22a5.02,5.02,0,0,0,3.549-6.147Z" transform="translate(-512.581 -120.781)" fill="#0d2226"/><path d="M601.915,151.957a5.022,5.022,0,0,1,3.549-6.147l25.861-6.928a5.017,5.017,0,0,1,6.147,3.55l15.592,58.184a5.022,5.022,0,0,1-3.55,6.147l-25.86,6.93a5.02,5.02,0,0,1-6.148-3.55Z" transform="translate(-484.757 -138.708)" fill="#6c6d6d"/><path d="M649,189.938a5.025,5.025,0,0,0,.5-3.809l-6.256-23.3-35.557,9.528,6.256,23.3a5.02,5.02,0,0,0,6.147,3.55l25.861-6.93A5.022,5.022,0,0,0,649,189.938Z" transform="translate(-481.19 -124.223)" fill="#37373a"/></g><g transform="translate(46.514 63.867)"><path d="M647.572,268,611.76,193.393a5.019,5.019,0,0,0-4.526-2.847h-8.69a5.019,5.019,0,0,0-4.526,2.847L558.206,268a5.02,5.02,0,1,0,9.051,4.345L597.87,208.57v61.6a5.02,5.02,0,1,0,10.039,0v-61.6l30.612,63.778a5.02,5.02,0,1,0,9.05-4.345Z" transform="translate(-557.71 -171.45)" fill="#37373a"/><path d="M606.656,193.693a15.085,15.085,0,0,1-15.079,15.033,15.132,15.132,0,0,1-15.035-15.033,15.057,15.057,0,1,1,30.114,0Z" transform="translate(-546.403 -178.614)" fill="#37373a"/><path d="M603.151,189.657a15.084,15.084,0,0,1-15.033,15.079,14.9,14.9,0,0,1-9.4-3.327,14.87,14.87,0,0,1-2.174-7.716,15.053,15.053,0,0,1,24.437-11.8A14.922,14.922,0,0,1,603.151,189.657Z" transform="translate(-546.403 -178.614)" fill="#6c6d6d"/></g></svg>