<?xml version="1.0" encoding="utf-8"?>
<!-- Generator: Adobe Illustrator 27.0.1, SVG Export Plug-In . SVG Version: 6.00 Build 0)  -->
<svg version="1.1" id="Layer_1" xmlns="http://www.w3.org/2000/svg" xmlns:xlink="http://www.w3.org/1999/xlink" x="0px" y="0px"
	 viewBox="0 0 227.9 271.6" style="enable-background:new 0 0 227.9 271.6;" xml:space="preserve">
<style type="text/css">
	.st0{fill:#09163B;}
	.st1{fill:none;stroke:#09163B;stroke-width:2.3342;stroke-linecap:round;stroke-linejoin:round;stroke-miterlimit:10;}
	.st2{fill:#78FB82;stroke:#09163B;stroke-width:2.3342;stroke-miterlimit:10;}
	.st3{fill:#78FB82;}
	.st4{fill:none;stroke:#09163B;stroke-width:2.3342;stroke-linecap:round;}
	.st5{fill:#7DA299;}
	.st6{fill:#1B4A54;}
	.st7{fill:#0D2226;}
	.st8{fill:#6C6D6D;}
	.st9{fill:#37373A;}
</style>
<g>
	<g>
		<path class="st0" d="M109.1,68.2c31.4,27.1,10,50.3,10,50.3l-8.4-6.6C90.8,92.1,109.1,68.2,109.1,68.2z"/>
		<path class="st1" d="M119.1,118.5c0,0,21.4-23.2-10-50.3c0,0-18.3,23.9,1.6,43.7"/>
		<path class="st2" d="M147,190.8C147,190.8,147,190.8,147,190.8c1.6,0,2.9-1.3,2.8-2.9c0-0.8-0.6-20.8-10.9-43.7
			c-6.1-13.5-14.2-25.3-24.3-34.9c-12.6-12-28.2-20.8-46.3-25.9L68,83.3c-0.1,0-15.3-3.3-30.8-14.2c-9-6.4-16.3-14.1-21.8-22.9
			C8.6,35.2,4.6,22.3,3.7,8C3.5,6.4,3.5,1.1,2,1.2C1.3,1.3,1.1,6.3,1.2,7.8c1,15.3,2.1,29.6,9.5,41.5c5.9,9.5,13.8,17.8,23.5,24.6
			c15.9,11.2,31,14.6,32.6,15c17.2,4.9,31.9,13.1,43.8,24.5c9.5,9.1,17.3,20.2,23.1,33c9.9,21.9,10.5,41.6,10.5,41.7
			C144.2,189.6,145.4,190.8,147,190.8L147,190.8z"/>
		<path class="st3" d="M34.7,113.9c44.3,21.9,59.8-12.4,59.8-12.4l-11.1-6.1C52.4,82.8,34.7,113.9,34.7,113.9z"/>
		<path class="st1" d="M94.5,101.6c0,0-15.5,34.3-59.8,12.4c0,0,17.7-31.1,48.8-18.5"/>
		<path class="st4" d="M89.2,100.1L50,109.6"/>
		<path class="st3" d="M35.1,16.6c35.3,34.6,8,60.6,8,60.6l-9.4-8.5C11.6,43.6,35.1,16.6,35.1,16.6z"/>
		<path class="st1" d="M44.1,75c0,0,23.9-22.9-9-58.4c0,0-23.6,27-1.4,52.1"/>
		<path class="st4" d="M39,70l-2.1-33.4"/>
	</g>
	<g>
		<g>
			
				<ellipse transform="matrix(0.9748 -0.223 0.223 0.9748 -25.4056 50.7733)" class="st5" cx="212.1" cy="137.9" rx="13.6" ry="28.9"/>
			<path d="M217.1,167.3c-3.5,0-7.2-2.3-10.6-6.7c-3.8-4.9-6.9-11.8-8.6-19.5c-3.7-16.4-0.4-30.6,7.5-32.4l0,0
				c3.9-0.9,8.3,1.4,12.3,6.5c3.8,4.9,6.9,11.8,8.6,19.5c1.8,7.7,2,15.2,0.7,21.3c-1.4,6.3-4.3,10.3-8.2,11.2
				C218.2,167.2,217.6,167.3,217.1,167.3z M205.9,110.7L205.9,110.7c-6.6,1.5-9.4,15.3-6,30c1.7,7.4,4.6,14,8.3,18.7
				c3.5,4.4,7.1,6.5,10.2,5.8c3.1-0.7,5.5-4.1,6.7-9.6c1.3-5.8,1-13-0.7-20.4c-1.7-7.4-4.6-14-8.3-18.7
				C212.6,112,209,110,205.9,110.7z"/>
		</g>
		<path class="st6" d="M89.7,181.7c0.7-0.9,0.9-2.1,0.7-3.2L86,162.3c-0.6-2.2-3.3-3.5-5.9-2.7l-19.4,5.1c-2.7,0.8-4.2,3.5-3.5,6.2
			l0,0l3.9,14.5c0.7,2.7,3.5,4.3,6.1,3.6l0,0l19.4-5.2C87.9,183.5,89,182.7,89.7,181.7z"/>
		<g transform="translate(3.462 73.63)">
			<path class="st7" d="M57.6,111.8c0.7,2.7,3.5,4.3,6.1,3.6l0,0l19.4-5.2c1.2-0.3,2.3-1.1,3.1-2.1s1-2.2,0.7-3.3l-0.8-1.9L57,110.7
				L57.6,111.8z"/>
		</g>
		<path d="M65.9,190.2c-1,0-2.1-0.3-3-0.8c-1.4-0.8-2.4-2.1-2.8-3.7l-3.9-14.6c-0.4-1.6-0.2-3.2,0.6-4.6c0.8-1.4,2.1-2.4,3.7-2.8
			l19.4-5.2c3.2-0.9,6.4,0.7,7.2,3.4l4.3,16.2c0.4,1.4,0.1,2.9-0.8,4.1c-0.9,1.2-2.2,2.1-3.7,2.5l-19.5,5.2
			C66.9,190.1,66.4,190.2,65.9,190.2z M81.7,160.3c-0.4,0-0.8,0.1-1.3,0.2L61,165.7c-1,0.3-1.9,0.9-2.4,1.9c-0.5,0.9-0.7,2-0.4,3
			l3.8,14.6c0.3,1,0.9,1.9,1.9,2.4c0.9,0.5,1.9,0.7,2.9,0.4l0.1-0.1h0.2l19.3-5.2c1-0.3,1.9-0.9,2.6-1.7l0,0
			c0.5-0.7,0.7-1.6,0.5-2.4l-4.3-16.1C84.7,161.2,83.3,160.3,81.7,160.3z"/>
		<path class="st8" d="M75.9,163.3c-1.7-6.2,2-12.7,8.3-14.3l12.9-3.5c2.7-0.7,5.4,0.9,6.1,3.6l8.7,32.3c0.7,2.7-0.9,5.4-3.5,6.1
			l0,0l-12.9,3.4c-6.2,1.7-12.7-2-14.3-8.3L75.9,163.3z"/>
		<g transform="translate(22.358 66.801)">
			<path class="st9" d="M58.8,115.9c1.7,6.2,8.1,9.9,14.3,8.3l12.9-3.5c2.7-0.7,4.3-3.5,3.6-6.1l0,0l-3.5-11.7L57,110.7L58.8,115.9z
				"/>
		</g>
		<path d="M92.4,192.3c-5.6,0-10.8-3.8-12.3-9.4l-5.2-19.4c-1.8-6.8,2.2-13.7,9-15.6l12.9-3.5c3.2-0.9,6.5,1.1,7.4,4.3l8.7,32.3
			c0.4,1.6,0.2,3.2-0.6,4.6c-0.8,1.3-2,2.3-3.5,2.8l-0.1,0.1h-0.2l-12.8,3.4C94.6,192.2,93.5,192.3,92.4,192.3z M76.9,163l5.2,19.4
			c1.5,5.7,7.4,9.1,13.1,7.6l13-3.5c1-0.3,1.9-0.9,2.4-1.9c0.5-0.9,0.7-2,0.4-3l-8.7-32.3c-0.6-2.1-2.8-3.4-4.9-2.8l-12.9,3.4
			C78.8,151.4,75.4,157.3,76.9,163L76.9,163z"/>
		<path class="st6" d="M93.1,150c-1.4-5.4,1.7-10.9,7.1-12.3l0,0l79.2-21.2c2.7-0.7,5.4,0.9,6.1,3.5l0,0l12.1,45.3
			c0.7,2.7-0.9,5.4-3.5,6.1L115,192.6c-5.4,1.4-10.9-1.7-12.3-7.1l0,0L93.1,150z"/>
		<path class="st7" d="M197.7,165.3l-4.2-14.6l-93.7,25.1l2.8,9.7c1.4,5.4,6.9,8.5,12.3,7.1l0,0l79.2-21.2
			C196.8,170.7,198.4,167.9,197.7,165.3L197.7,165.3z"/>
		<path d="M112.3,194c-1.9,0-3.8-0.5-5.5-1.5c-2.6-1.5-4.4-3.9-5.1-6.7l-9.5-35.6c-0.8-2.8-0.4-5.8,1.1-8.4c1.5-2.6,3.9-4.4,6.7-5.1
			l79.2-21.2c1.6-0.4,3.2-0.2,4.6,0.6c1.3,0.8,2.3,2,2.8,3.5v0.2l12.1,45.3c0.9,3.2-1.1,6.5-4.3,7.4l-79.2,21.1
			C114.3,193.9,113.3,194,112.3,194z M180.7,117.3c-0.3,0-0.7,0-1,0.1l-79.2,21.3c-4.8,1.3-7.7,6.3-6.4,11.1l9.5,35.6
			c0.6,2.3,2.1,4.3,4.2,5.5s4.5,1.5,6.9,0.9l79.2-21.2c2.1-0.6,3.4-2.8,2.8-4.9l-12.1-45.3c-0.3-1-0.9-1.9-1.9-2.4
			C182.1,117.5,181.4,117.3,180.7,117.3z"/>
		<path class="st8" d="M174.2,116.1c-0.7-2.7,0.9-5.4,3.5-6.1l25.9-6.9c2.7-0.7,5.4,0.9,6.1,3.5l0,0l15.6,58.2
			c0.7,2.7-0.9,5.4-3.5,6.1l-25.9,7c-2.7,0.7-5.4-0.9-6.1-3.6L174.2,116.1z"/>
		<path class="st9" d="M224.8,168.6c0.7-1.2,0.8-2.5,0.5-3.8l-6.3-23.3l-35.6,9.5l6.3,23.3c0.7,2.7,3.5,4.3,6.1,3.6l25.9-6.9
			C223,170.6,224.1,169.8,224.8,168.6z"/>
		<g>
			<path class="st9" d="M193.4,263.3l-35.8-74.6c-0.9-1.7-2.6-2.8-4.6-2.8h-8.7c-1.9,0-3.7,1.1-4.5,2.8L104,263.3
				c-1.2,2.5-0.2,5.5,2.3,6.7c2.5,1.2,5.5,0.2,6.7-2.3l0,0l30.7-63.8v61.6c0,2.8,2.2,5.1,4.9,5.1c2.8,0,5.1-2.2,5.1-4.9v-0.1v-61.7
				l30.6,63.8c1.2,2.5,4.1,3.6,6.7,2.4s3.6-4.1,2.4-6.7C193.4,263.4,193.4,263.4,193.4,263.3L193.4,263.3z"/>
			<path d="M188.9,271.6c-0.7,0-1.4-0.1-2.1-0.4c-1.5-0.6-2.7-1.7-3.4-3.1l-28.7-59.8v57.3c0,3.3-2.7,5.9-6,5.9h-0.1
				c-3.3,0-6-2.8-5.9-6.1v-57.2L114,268.1c-1.5,3-5.1,4.3-8.1,2.8c-3-1.4-4.2-5.1-2.8-8l35.8-74.6c1-2.1,3.1-3.4,5.4-3.4l0,0h8.7
				l0,0c2.3,0,4.4,1.3,5.4,3.4l36,75l0,0c1.2,3-0.1,6.4-3,7.8C190.6,271.4,189.7,271.6,188.9,271.6z M152.7,199.5l32.5,67.7
				c0.5,1,1.3,1.7,2.3,2.1s2.1,0.3,3.1-0.1c1-0.4,1.7-1.3,2.1-2.3s0.3-2.1-0.1-3.1l-0.2-0.5l0,0l-35.6-74.2
				c-0.8-1.3-2.2-2.2-3.8-2.2l0,0h-8.7l0,0c-1.5,0-3,0.9-3.6,2.3l-35.8,74.6c-1,2-0.1,4.4,1.9,5.4s4.4,0.1,5.4-1.9l32.5-67.8v66
				c0,1.1,0.4,2.1,1.1,2.9s1.8,1.2,2.8,1.2c1.1,0,2.1-0.4,2.9-1.1c0.8-0.7,1.2-1.8,1.2-2.8L152.7,199.5L152.7,199.5z"/>
		</g>
		<path class="st9" d="M163.8,181.8c0,8.3-6.8,15-15.1,15c-8.3-0.1-15-6.8-15-15c0-8.3,6.7-15.1,15.1-15.1
			C157.2,166.7,163.8,173.5,163.8,181.8L163.8,181.8z"/>
		<path class="st8" d="M160.3,177.8c0,8.3-6.7,15.1-15,15.1c-3.4,0-6.7-1.2-9.4-3.3c-1.4-2.3-2.2-5-2.2-7.7c0-8.3,6.7-15.1,15-15.1
			c3.4,0,6.7,1.2,9.4,3.3C159.5,172.4,160.3,175.1,160.3,177.8z"/>
		<path d="M148.7,197.9c-8.8-0.1-16-7.2-16-16c0-8.9,7.2-16.1,16.1-16.1c8.9,0,16.1,7.2,16.1,16.1l0,0
			C164.7,190.7,157.5,197.9,148.7,197.9z M148.7,167.8c-7.8,0-14.1,6.3-14.1,14.1c0,7.7,6.3,14,14,14s14-6.3,14.1-14
			C162.8,174.1,156.5,167.8,148.7,167.8z"/>
		<path d="M194.6,179.1c-1,0-2.1-0.3-3-0.8c-1.4-0.8-2.4-2.1-2.8-3.7l-15.6-58.2c-0.9-3.2,1.1-6.5,4.3-7.4l25.9-6.9
			c1.6-0.4,3.2-0.2,4.6,0.6c1.3,0.8,2.3,2,2.8,3.5v0.2l15.6,58.2c0.9,3.2-1.1,6.5-4.3,7.4l-25.9,6.9
			C195.6,179,195.1,179.1,194.6,179.1z M175.1,115.9l15.6,58.2c0.3,1,0.9,1.9,1.9,2.4c0.9,0.5,2,0.7,3,0.4l25.9-6.9
			c2.1-0.6,3.4-2.8,2.8-4.9l-15.6-58.2c-0.3-1-0.9-1.9-1.9-2.4c-0.9-0.5-2-0.7-3-0.4L178,111C175.8,111.5,174.5,113.8,175.1,115.9
			L175.1,115.9z"/>
	</g>
</g>
</svg>
