<svg xmlns="http://www.w3.org/2000/svg" width="101.133" height="111.274" viewBox="0 0 101.133 111.274"><g transform="translate(-577.468 -366.94)"><rect width="47.621" height="4.685" transform="matrix(0.615, -0.788, 0.788, 0.615, 630.036, 421.344)" fill="#797979"/><rect width="4.688" height="49.51" transform="matrix(0.654, -0.756, 0.756, 0.654, 630.364, 427.497)" fill="#797979"/><rect width="4.684" height="52.921" transform="matrix(0.621, -0.784, 0.784, 0.621, 592.832, 392.896)" fill="#797979"/><rect width="4.684" height="40.437" transform="translate(629.167 429.242) rotate(-6.481)" fill="#797979"/><circle cx="23.478" cy="23.478" r="23.478" transform="translate(608.419 402.247)" fill="#fa8707"/><path d="M207.341,351.5a23.158,23.158,0,0,1-3.983,13.072,23.47,23.47,0,1,1-32.564-32.564,23.158,23.158,0,0,1,13.072-3.983A23.486,23.486,0,0,1,207.341,351.5Z" transform="translate(448.03 74.222)" fill="#faaf2a"/><path d="M208.514,351.5a23.158,23.158,0,0,1-3.983,13.072,23.158,23.158,0,0,1-13.072,3.983,23.486,23.486,0,0,1-23.475-23.475,23.158,23.158,0,0,1,3.983-13.072,23.158,23.158,0,0,1,13.072-3.983A23.486,23.486,0,0,1,208.514,351.5Z" transform="translate(446.857 74.222)" fill="#ffaf2a"/><g transform="translate(577.468 372.299)"><path d="M151.285,306.33a13.475,13.475,0,0,1-3.126,8.651,3.636,3.636,0,0,1-.275.375,13.606,13.606,0,0,1-10.353,4.726,13.741,13.741,0,1,1,13.753-13.753Z" transform="translate(-123.779 -292.602)" fill="#0d2226"/><path d="M151.385,306.33a13.475,13.475,0,0,1-3.126,8.651,17.226,17.226,0,0,1-6.651,1.3A17.591,17.591,0,0,1,124.429,302.5a13.753,13.753,0,0,1,26.956,3.826Z" transform="translate(-123.879 -292.602)" fill="#1b4a54"/></g><g transform="translate(651.095 366.94)"><path d="M238.372,299.991a13.475,13.475,0,0,1-3.126,8.651,3.66,3.66,0,0,1-.275.375,13.606,13.606,0,0,1-10.352,4.726,13.741,13.741,0,1,1,13.753-13.753Z" transform="translate(-210.865 -286.263)" fill="#0d2226"/><path d="M238.472,299.991a13.475,13.475,0,0,1-3.126,8.651,17.233,17.233,0,0,1-6.651,1.3,17.591,17.591,0,0,1-17.179-13.778,13.753,13.753,0,0,1,26.956,3.827Z" transform="translate(-210.966 -286.263)" fill="#1b4a54"/></g><g transform="translate(661.078 449.131)"><path d="M239.095,391.676a8.048,8.048,0,0,1-1.866,5.166,2.2,2.2,0,0,1-.165.224,8.122,8.122,0,0,1-6.18,2.821,8.2,8.2,0,1,1,8.211-8.211Z" transform="translate(-222.673 -383.48)" fill="#0d2226"/><path d="M239.155,391.676a8.048,8.048,0,0,1-1.866,5.166,10.3,10.3,0,0,1-3.971.776,10.5,10.5,0,0,1-10.257-8.226,8.211,8.211,0,0,1,16.094,2.284Z" transform="translate(-222.733 -383.48)" fill="#1b4a54"/></g><g transform="translate(628.043 461.806)"><path d="M200.023,406.669a8.044,8.044,0,0,1-1.867,5.166,2.174,2.174,0,0,1-.164.224,8.123,8.123,0,0,1-6.18,2.821,8.2,8.2,0,1,1,8.211-8.211Z" transform="translate(-183.6 -398.472)" fill="#0d2226"/><path d="M200.083,406.669a8.044,8.044,0,0,1-1.867,5.166,10.293,10.293,0,0,1-3.971.776,10.5,10.5,0,0,1-10.256-8.226,8.211,8.211,0,0,1,16.094,2.284Z" transform="translate(-183.66 -398.472)" fill="#1b4a54"/></g><path d="M132.763,116.705v5.353H122.058v10.705h-5.353V122.058H106v-5.353h10.705V106h5.353v10.705Z" transform="translate(512.515 306.398)" fill="#fff"/></g></svg>