<svg xmlns="http://www.w3.org/2000/svg" width="151.79" height="151.791" viewBox="0 0 151.79 151.791"><g transform="translate(-0.635 -0.634)"><g transform="translate(0.635 0.634)"><path d="M148.654,70.4l-7.4-.73a64.236,64.236,0,0,0-2.313-11.566l6.564-3.522a4.147,4.147,0,0,0,1.9-5.252l-1.521-3.689a4.193,4.193,0,0,0-5.064-2.4l-7.106,2.167a65.933,65.933,0,0,0-6.585-9.794l4.751-5.752a4.187,4.187,0,0,0-.292-5.606l-2.792-2.792a4.188,4.188,0,0,0-5.606-.292l-5.751,4.751a65.972,65.972,0,0,0-9.794-6.585l2.167-7.106a4.192,4.192,0,0,0-2.4-5.064l-3.668-1.521a4.165,4.165,0,0,0-5.272,1.9l-3.522,6.565A64.288,64.288,0,0,0,83.386,11.8l-.729-7.4A4.164,4.164,0,0,0,78.51.634H74.55A4.164,4.164,0,0,0,70.4,4.406l-.729,7.4a64.257,64.257,0,0,0-11.566,2.313L54.587,7.552a4.165,4.165,0,0,0-5.272-1.9L45.647,7.177a4.192,4.192,0,0,0-2.4,5.064l2.167,7.106a65.971,65.971,0,0,0-9.794,6.585l-5.752-4.751a4.187,4.187,0,0,0-5.606.292l-2.792,2.792a4.187,4.187,0,0,0-.292,5.606l4.751,5.752a65.949,65.949,0,0,0-6.585,9.794L12.242,43.25a4.192,4.192,0,0,0-5.064,2.4L5.657,49.335a4.18,4.18,0,0,0,1.9,5.272l6.564,3.5A64.261,64.261,0,0,0,11.8,69.673l-7.4.73A4.164,4.164,0,0,0,.635,74.55v3.959a4.164,4.164,0,0,0,3.772,4.147l7.4.73a64.219,64.219,0,0,0,2.313,11.565L7.553,98.473a4.165,4.165,0,0,0-1.9,5.272l1.521,3.668a4.193,4.193,0,0,0,5.064,2.4l7.106-2.167a65.965,65.965,0,0,0,6.585,9.794l-4.751,5.752a4.187,4.187,0,0,0,.292,5.606l2.792,2.813a4.209,4.209,0,0,0,5.606.271l5.751-4.751a65.972,65.972,0,0,0,9.794,6.585l-2.167,7.106a4.183,4.183,0,0,0,2.4,5.064l3.689,1.521a4.147,4.147,0,0,0,5.251-1.9l3.522-6.564a64.287,64.287,0,0,0,11.566,2.313l.729,7.4a4.164,4.164,0,0,0,4.147,3.772H78.51a4.164,4.164,0,0,0,4.147-3.772l.729-7.4a64.256,64.256,0,0,0,11.566-2.313l3.522,6.565a4.165,4.165,0,0,0,5.272,1.9l3.668-1.521a4.192,4.192,0,0,0,2.4-5.064l-2.167-7.106a65.97,65.97,0,0,0,9.794-6.585l5.751,4.751a4.209,4.209,0,0,0,5.606-.271l2.792-2.813a4.187,4.187,0,0,0,.292-5.606l-4.751-5.752a66.012,66.012,0,0,0,6.585-9.794l7.106,2.167a4.192,4.192,0,0,0,5.064-2.4l1.521-3.668a4.165,4.165,0,0,0-1.9-5.272l-6.564-3.522a64.249,64.249,0,0,0,2.313-11.565l7.4-.73a4.164,4.164,0,0,0,3.772-4.147V74.55A4.164,4.164,0,0,0,148.654,70.4ZM43.271,75.321A33.259,33.259,0,1,1,76.53,108.58,33.253,33.253,0,0,1,43.271,75.321Z" transform="translate(-0.635 -0.634)" fill="#66d5f2"/><g transform="translate(120.518 19.609)" opacity="0.08"><path d="M410.6,70.635a4.187,4.187,0,0,1,.292,5.606l-4.751,5.752a65.924,65.924,0,0,1,6.585,9.794l5.038-1.537a66.241,66.241,0,0,0-5.649-8.258l4.751-5.752a4.187,4.187,0,0,0-.292-5.606l-2.792-2.792a4.188,4.188,0,0,0-5.606-.292l-.362.3Z" transform="translate(-406.144 -66.612)"/></g><g transform="translate(132.334 42.443)" opacity="0.08"><path d="M461.585,170.767l-7.4-.73a64.232,64.232,0,0,0-2.313-11.566l6.564-3.522a4.147,4.147,0,0,0,1.9-5.252l-1.521-3.689a4.193,4.193,0,0,0-5.064-2.4l-2.243.684a4.083,4.083,0,0,1,1.333,1.712l1.521,3.689a4.147,4.147,0,0,1-1.9,5.252l-6.564,3.522a64.264,64.264,0,0,1,2.313,11.566l7.4.73a4.164,4.164,0,0,1,3.772,4.147v3.959a4.164,4.164,0,0,1-3.772,4.147l-7.4.73a64.222,64.222,0,0,1-2.313,11.565l6.564,3.522a4.165,4.165,0,0,1,1.9,5.272l-1.521,3.668a4.081,4.081,0,0,1-1.333,1.712l2.243.684a4.192,4.192,0,0,0,5.064-2.4l1.521-3.668a4.165,4.165,0,0,0-1.9-5.272l-6.564-3.522a64.246,64.246,0,0,0,2.313-11.565l7.4-.73a4.164,4.164,0,0,0,3.772-4.147v-3.959A4.164,4.164,0,0,0,461.585,170.767Z" transform="translate(-445.9 -143.441)"/></g><g transform="translate(120.518 107.008)" opacity="0.08"><path d="M412.117,370.478a66.263,66.263,0,0,0,5.649-8.258l-5.038-1.537a65.96,65.96,0,0,1-6.585,9.794l4.751,5.752a4.187,4.187,0,0,1-.292,5.606l-2.774,2.795.35.289a4.209,4.209,0,0,0,5.606-.271l2.792-2.813a4.187,4.187,0,0,0,.292-5.606Z" transform="translate(-406.143 -360.684)"/></g><g transform="translate(29.695 28.487)"><path d="M146.772,96.484a46.21,46.21,0,1,0,46.179,46.2,46.2,46.2,0,0,0-46.179-46.2Zm-.021,79.459a33.248,33.248,0,1,1,33.259-33.259A33.271,33.271,0,0,1,146.751,175.943Z" transform="translate(-100.551 -96.484)" fill="#4ec5d8"/></g><g transform="translate(72.936 28.487)" opacity="0.08"><path d="M249.023,96.484c-1,0-2,.042-2.98.1a46.205,46.205,0,0,1,0,92.212c.979.063,1.98.1,2.98.1a46.21,46.21,0,0,0,0-92.421Z" transform="translate(-246.043 -96.484)"/></g><g transform="translate(17.691 59.937)" opacity="0.4"><path d="M63.285,220.18h-.014a3.126,3.126,0,0,1-3.112-3.14,58.932,58.932,0,0,1,1.353-12.277,3.127,3.127,0,1,1,6.109,1.335,52.546,52.546,0,0,0-1.211,10.971A3.126,3.126,0,0,1,63.285,220.18Z" transform="translate(-60.159 -202.305)" fill="#fff"/></g><g transform="translate(52.492 63.714)"><path d="M189.732,216.575a2.439,2.439,0,0,0-2.258-1.562h-.293a2.44,2.44,0,0,0-2.263,1.574l-7.471,17.644A1.941,1.941,0,1,0,181,235.783l1.748-4.192H191.9l1.757,4.214a1.988,1.988,0,0,0,3.207.608,1.936,1.936,0,0,0,.343-2.184Zm.634,11.363h-6.081l3.04-7.321Z" transform="translate(-177.255 -215.013)" fill="#6d6d6d"/><g transform="translate(23.234 0.148)"><path d="M264.041,215.51h-6.682a1.874,1.874,0,0,0-1.376.582,1.933,1.933,0,0,0-.553,1.376V235.4a1.908,1.908,0,0,0,1.929,1.927,1.931,1.931,0,0,0,1.958-1.927v-5.661h4.724c5.61,0,8.432-3.048,8.432-7.116C272.473,218.694,269.777,215.51,264.041,215.51Zm4.545,7.116c0,2.639-2.162,3.374-4.81,3.374h-4.459v-6.751h4.459C266.411,219.249,268.586,219.979,268.586,222.626Z" transform="translate(-255.43 -215.51)" fill="#6d6d6d"/></g><g transform="translate(42.924 0.024)"><path d="M321.681,217.03v18.08a1.908,1.908,0,0,0,1.929,1.927,1.931,1.931,0,0,0,1.958-1.927V217.03A1.943,1.943,0,0,0,321.681,217.03Z" transform="translate(-321.681 -215.094)" fill="#6d6d6d"/></g></g></g></g></svg>