<svg xmlns="http://www.w3.org/2000/svg" width="135.454" height="135" viewBox="0 0 135.454 135"><g transform="translate(-24.363 -24.363)"><rect width="135" height="135" rx="16" transform="translate(24.363 24.363)" fill="#dfdfdf"/><g transform="translate(30.939 30.939)"><path d="M48,48h4.686v4.686H48Z" transform="translate(-48 -48)" fill="#bebebe"/><path d="M80,48h4.686v4.686H80Z" transform="translate(-70.627 -48)" fill="#bebebe"/><path d="M112,48h4.686v4.686H112Z" transform="translate(-93.254 -48)" fill="#bebebe"/><path d="M144,48H244.76v4.686H144Z" transform="translate(-115.881 -48)" fill="#bebebe"/><path d="M168,96h51.551v4.686H168Z" transform="translate(-132.851 -81.941)" fill="#bebebe"/><path d="M64,128H85.089v4.686H64Z" transform="translate(-59.314 -104.568)" fill="#bebebe"/><path d="M64,248H96.805v4.686H64Z" transform="translate(-59.314 -189.419)" fill="#bebebe"/></g><path d="M64,168H176.476v14.059H64Z" transform="translate(-28.375 -101.912)" fill="#a43d2e"/><path d="M64,288H176.476v14.059H64Z" transform="translate(-28.375 -186.764)" fill="#a43d2e"/><path d="M64,368H96.805v4.687H64Z" transform="translate(-28.375 -243.331)" fill="#bebebe"/><path d="M64,408H176.476v14.059H64Z" transform="translate(-28.375 -271.615)" fill="#a43d2e"/><path d="M344.282,217.281l-20.469-14.948-5.925,24.644,7.99-5.432,6.464,17.6,8.8-3.232-6.464-17.6Z" transform="translate(-207.897 -126.189)" fill="#345f67"/></g></svg>