<svg xmlns="http://www.w3.org/2000/svg" xmlns:xlink="http://www.w3.org/1999/xlink" width="199.991" height="97.753" viewBox="0 0 199.991 97.753"><defs><clipPath id="a"><rect width="199.991" height="97.753" fill="none"/></clipPath></defs><g clip-path="url(#a)"><path d="M5.695,32.714,167.849,6.934a6.111,6.111,0,0,1,5.576,2.142L197.554,38a8.366,8.366,0,0,1,.123,10.547L172.409,77.779a6.338,6.338,0,0,1-4.035,2.309L7.9,101.292c-3.89.514-7.314-2.94-7.359-7.424L0,40.29c-.038-3.807,2.4-7.052,5.694-7.576" transform="translate(0 -3.59)" fill="#122347"/><path d="M198.359,41.685,173.092,70.916a6.326,6.326,0,0,1-4.035,2.3L75.566,85.567,8.579,94.421c-3.9.523-7.311-2.933-7.366-7.422L.676,33.423c-.028-3.8,2.41-7.05,5.7-7.573L81.362,13.926,168.535.075a6.09,6.09,0,0,1,5.577,2.134l24.124,28.915a8.376,8.376,0,0,1,.124,10.561" transform="translate(-0.353 0)" fill="#345f67"/><path d="M10.881,94.787a4.079,4.079,0,0,1-3.8-4.248L6.546,36.96a4.179,4.179,0,0,1,3.275-4.3L171.976,6.878a3.527,3.527,0,0,1,3.246,1.237L199.36,37.047a4.749,4.749,0,0,1,.061,5.936L174.144,72.228a3.661,3.661,0,0,1-2.33,1.324L11.337,94.756a3.828,3.828,0,0,1-.456.031M172.509,8.045a2.35,2.35,0,0,0-.346.027L10.012,33.852a2.969,2.969,0,0,0-2.256,3.1l.538,53.578a2.8,2.8,0,0,0,2.887,3.031l160.474-21.2a2.468,2.468,0,0,0,1.565-.9L198.5,42.2a3.5,3.5,0,0,0-.058-4.371L174.3,8.9a2.384,2.384,0,0,0-1.794-.855" transform="translate(-3.424 -3.576)" fill="#122347"/><path d="M65.672,109.205a.7.7,0,0,1,.288-.271.584.584,0,0,1,.289-.1.388.388,0,0,1,.347.063c.058.049.116.155.232.2a1.07,1.07,0,0,0,.289.129c.058.049.174.089.289.187.058.049.174.089.231.138a1.075,1.075,0,0,1,.289.129l.347.121a.874.874,0,0,1,.288.072c.116.04.232.023.289.071l.347.121a2.484,2.484,0,0,1,.29.015.751.751,0,0,0,.347.064c.116.04.231.023.347.064l.288-.043c.117.041.232-.034.348.007.116-.017.231.023.347.006l.347-.051.347-.051.347-.051a.816.816,0,0,0,.347-.108l.289-.043c.115-.017.231-.091.347-.108.115-.074.231-.091.347-.165.115-.017.231-.091.347-.108a.722.722,0,0,1,.288-.157,1.563,1.563,0,0,0,.289-.215,1.522,1.522,0,0,0,.289-.214l.347-.223c.058-.065.173-.14.231-.206a1.28,1.28,0,0,1,.288-.272,1.089,1.089,0,0,1,.232-.263.707.707,0,0,1,.231-.32c.058-.123.116-.189.174-.312s.116-.188.174-.312.116-.188.173-.311.116-.188.174-.312c0-.114.058-.238.058-.352a1.1,1.1,0,0,0,.115-.3.763.763,0,0,0,.059-.352.774.774,0,0,0,.058-.352c0-.114.058-.237.058-.352.058-.123,0-.229,0-.344v-.344c0-.114-.058-.221-.058-.335V103.3c-.058-.106-.116-.154-.174-.26a.669.669,0,0,0-.058-.336,1.013,1.013,0,0,0-.173-.26c-.058-.106-.058-.221-.115-.327a.82.82,0,0,1-.232-.252c-.058-.049-.115-.155-.232-.2a.992.992,0,0,0-.173-.26c-.058-.106-.174-.147-.231-.253a.834.834,0,0,1-.289-.186c-.057-.049-.173-.09-.231-.2a.826.826,0,0,1-.289-.187,1.063,1.063,0,0,0-.289-.129c-.058-.049-.174-.089-.232-.195a1.1,1.1,0,0,1-.289-.13c-.116-.041-.173-.147-.289-.187a2.208,2.208,0,0,0-.578-.316,1.078,1.078,0,0,0-.29-.129l-.231-.2-.347-.121a1.045,1.045,0,0,0-.289-.129,1.028,1.028,0,0,0-.289-.129c-.058-.049-.174-.09-.289-.187-.058-.049-.173-.089-.231-.195-.116-.04-.232-.023-.289-.129a1.089,1.089,0,0,1-.289-.129c-.115-.041-.174-.147-.289-.187a1.064,1.064,0,0,0-.289-.129,1.011,1.011,0,0,1-.231-.253c-.116-.041-.174-.089-.289-.129-.057-.049-.173-.09-.288-.187-.059-.049-.116-.155-.232-.2-.058-.106-.174-.146-.231-.2-.058-.106-.174-.147-.232-.252a1.044,1.044,0,0,1-.288-.13.469.469,0,0,0-.231-.253,1.033,1.033,0,0,0-.174-.261c-.058-.106-.173-.146-.231-.252-.057-.049-.115-.154-.173-.2-.115-.1-.174-.2-.231-.252a1.033,1.033,0,0,0-.174-.261l-.174-.318c-.058-.106-.116-.154-.173-.261a.374.374,0,0,1-.116-.27l-.174-.318c0-.115-.115-.155-.115-.27-.058-.106-.058-.221-.115-.327a.706.706,0,0,0-.116-.327,2.279,2.279,0,0,0-.057-.278.7.7,0,0,1-.116-.327.672.672,0,0,1-.058-.335c0-.114-.116-.212-.116-.326v-.344c0-.114-.057-.22-.057-.335a.668.668,0,0,1-.058-.335c0-.115.058-.237,0-.344V89.055c0-.114.058-.237.058-.352a.469.469,0,0,1,.057-.3c0-.114-.057-.278,0-.343,0-.114.058-.237.058-.352.058-.123,0-.229.058-.352,0-.114.058-.237.058-.352a.925.925,0,0,0,.116-.361c.057-.065.057-.18.115-.3a.922.922,0,0,1,.115-.361c.058-.123.058-.237.116-.36.057-.066.057-.18.115-.3s.174-.2.174-.311l.174-.37a1.088,1.088,0,0,1,.231-.262c.058-.123.115-.189.174-.312s.116-.188.174-.311a1.233,1.233,0,0,0,.231-.32,1.258,1.258,0,0,0,.289-.271l.231-.263a1.092,1.092,0,0,0,.231-.263,1.521,1.521,0,0,0,.289-.214c.116-.074.174-.2.289-.271a1.062,1.062,0,0,0,.231-.263l.347-.223c.058-.066.174-.083.289-.157a1.542,1.542,0,0,0,.289-.214c.116-.074.231-.091.347-.165a1.186,1.186,0,0,1,.29-.157c.115-.074.231-.091.347-.165.116-.017.231-.148.347-.165.115-.074.231-.034.347-.109a.953.953,0,0,0,.347-.165.709.709,0,0,0,.289-.1l.347-.051a.82.82,0,0,1,.347-.108l.347-.051c.115-.017.231-.091.347-.108l.347-.051.348-.051c.115-.017.231-.092.347-.108a.713.713,0,0,0,.347.006c.116-.017.231.024.347.007l.289-.042.347-.051a.749.749,0,0,1,.347.064l.347-.051c.116-.017.231.023.347.006a.611.611,0,0,0,.288.015c.116-.018.232.023.347.006s.232.023.347.007.232.023.347.006a.711.711,0,0,1,.347.006c.116-.017.232-.091.347-.051l.288-.042.348-.051c.116-.017.231-.092.348-.108.115-.074.231-.091.288-.157.115-.074.231-.092.289-.157.116-.017.232-.034.289.015.115.04.231.023.289.129.058.049,0,.172,0,.287a.672.672,0,0,1,.058.335v.344a.668.668,0,0,1,.058.335.673.673,0,0,0,.058.335v.688c0,.172.058.163.058.335a.678.678,0,0,0,.057.335v.687c0,.172.058.164.058.335s-.058.181-.058.353a.666.666,0,0,1,.058.335c0,.172.058.164.058.335a.476.476,0,0,0,.057.278V85.3a.668.668,0,0,1-.057.352,1.07,1.07,0,0,1-.232.263.805.805,0,0,1-.347.108c-.115.017-.231.034-.288-.072-.116-.041-.174-.147-.232-.2-.115-.1-.231-.138-.289-.186-.116-.041-.173-.147-.289-.187a1.057,1.057,0,0,1-.289-.129,1.069,1.069,0,0,1-.29-.13L79.2,85c-.057-.049-.173-.031-.289-.072a1.041,1.041,0,0,1-.289-.13c-.116-.04-.231-.023-.347-.063s-.231-.023-.347-.064a.742.742,0,0,1-.347-.064c-.116.017-.174-.031-.289-.015s-.231-.023-.347-.006a.705.705,0,0,0-.347-.007.74.74,0,0,0-.347-.063l-.347.051-.347.051a.822.822,0,0,0-.347.108l-.347.051c-.115.074-.231.091-.347.165a.809.809,0,0,0-.348.108c-.115.074-.173.14-.288.214s-.232.091-.29.214a1.189,1.189,0,0,0-.347.223,1.091,1.091,0,0,0-.231.263c-.058.065-.116.188-.231.32a1.5,1.5,0,0,0-.173.311c-.058.124-.058.18-.115.3a.908.908,0,0,0-.117.36.926.926,0,0,0-.115.36v.344c0,.114-.058.238-.058.352v.344c0,.114-.058.237-.058.352a.711.711,0,0,1,.115.327c0,.114,0,.229.058.278a.7.7,0,0,0,.115.327c.059.106.059.22.116.327s.116.155.174.261a1.047,1.047,0,0,0,.173.261.808.808,0,0,0,.232.252c.058.049.115.155.231.2.058.106.115.155.174.261a.467.467,0,0,1,.231.252.82.82,0,0,1,.289.187c.058.049.174.089.231.138a.811.811,0,0,1,.232.252,1.044,1.044,0,0,1,.288.13.831.831,0,0,0,.29.186,1.066,1.066,0,0,0,.288.13c.116.04.174.146.231.2.116.1.232.138.289.187a1.06,1.06,0,0,1,.289.129.825.825,0,0,0,.289.186c.058.049.231.081.289.129.116.041.173.147.289.187a1.07,1.07,0,0,0,.289.129c.058.106.173.089.289.129.058.106.174.146.231.2a.825.825,0,0,0,.289.187,1.039,1.039,0,0,0,.29.186c.057.049.173.089.231.2a1.059,1.059,0,0,1,.289.13c.115.04.174.146.289.187l.231.2a.821.821,0,0,1,.289.186c.058.049.174.089.232.2.115.04.173.146.289.186a1.021,1.021,0,0,1,.174.261.471.471,0,0,1,.289.187l.231.2a.825.825,0,0,0,.231.253,1.016,1.016,0,0,1,.174.261l.232.195a.992.992,0,0,0,.174.261,1,1,0,0,0,.173.261c.058.106.174.146.231.253a1.047,1.047,0,0,0,.174.261c.058.106.058.221.116.327a1.013,1.013,0,0,0,.173.261l.174.318a.818.818,0,0,0,.115.27c.058.106.058.221.115.326s.058.221.116.27a.7.7,0,0,0,.115.326v.344c.058.106.058.22.115.327,0,.114.058.221.058.335a.667.667,0,0,0,.058.335v.344a.667.667,0,0,1,.058.334c.058.106,0,.229.058.335,0,.114-.058.238-.058.352s.058.221.058.335-.058.237-.058.352v1.03a.776.776,0,0,0-.058.352.461.461,0,0,0-.058.295c0,.114-.058.237-.058.352a.922.922,0,0,0-.115.361c-.058.123-.058.237-.115.36a.766.766,0,0,1-.058.352c0,.115-.115.189-.115.3a.921.921,0,0,0-.116.36c-.057.123-.057.237-.116.36a1.51,1.51,0,0,0-.173.311c-.058.124-.058.238-.115.3l-.174.369a1.519,1.519,0,0,0-.174.312,1.475,1.475,0,0,0-.174.311c-.058.124-.173.2-.231.32s-.115.189-.174.312a1.073,1.073,0,0,1-.232.263,1.493,1.493,0,0,1-.173.312,1.27,1.27,0,0,1-.289.272c-.058.123-.174.2-.232.32l-.231.263a1.089,1.089,0,0,0-.232.264c-.115.131-.231.148-.289.271-.116.074-.174.2-.289.271a1.6,1.6,0,0,1-.289.215,1.541,1.541,0,0,1-.289.214,3.331,3.331,0,0,1-.578.486c-.116.074-.232.091-.29.157l-.347.223c-.115.074-.174.14-.289.215a.807.807,0,0,0-.347.108c-.115.074-.173.14-.289.214a.964.964,0,0,0-.347.165.808.808,0,0,0-.347.109.953.953,0,0,0-.347.165l-.347.051c-.116.017-.173.083-.289.157l-.405.06a2.916,2.916,0,0,1-.288.1l-.348.051-.347.051-.347.051c-.115.017-.231.092-.347.108a268.027,268.027,0,0,1-.694-.013l-.347.051-.347.051c-.115.017-.231-.023-.347-.006-.115-.041-.231.034-.347.051a.752.752,0,0,0-.347-.064l-.348.051c-.115.017-.231-.023-.347-.007a.713.713,0,0,1-.347-.006l-.347.051-.347.051-.347.051-.347.051c-.116.017-.231.091-.347.108-.116.074-.231.034-.347.108-.116.017-.231.092-.347.109a.815.815,0,0,1-.347.108A.5.5,0,0,1,66.6,116a.272.272,0,0,1-.289-.129.375.375,0,0,1-.115-.269v-.687c0-.172-.058-.164-.058-.335-.058-.164,0-.172,0-.344a.667.667,0,0,1-.058-.335c0-.172-.057-.164-.057-.335a.662.662,0,0,0-.059-.335c0-.172.059-.18,0-.343v-.344a.673.673,0,0,1-.058-.335c0-.172-.058-.164-.058-.335v-.344c-.058-.164,0-.172-.058-.335v-.344c-.058-.164,0-.172-.058-.335v-.343l-.115-.326V109.5a.463.463,0,0,1,.058-.3" transform="translate(-34.326 -41.398)" fill="#122347"/><path d="M121.893,72.643l.347-.051.347-.051.347-.051a.381.381,0,0,0,.347-.051l.347-.051a.487.487,0,0,0,.289-.1l.347-.051c.116-.017.231.023.347-.051.116-.017.232-.091.347-.108a211.2,211.2,0,0,0,.694-.216c.116-.017.231-.091.347-.051.116-.017.232-.034.289.072a.472.472,0,0,1,.289.187,1.008,1.008,0,0,1,.174.261,246.908,246.908,0,0,1,.116.67c0,.114.058.221.058.335.058.106.058.22.116.327A.678.678,0,0,0,127.1,74c0,.114.058.22.058.335s.058.221.058.335c.058.106.058.221.115.269,0,.115.058.22.058.335a.7.7,0,0,1,.116.326c0,.114.058.221.058.335.057.106,0,.229.057.335a.666.666,0,0,0,.058.335.711.711,0,0,0,.115.327.672.672,0,0,0,.058.335c0,.115.058.221.058.335.057.049,0,.172,0,.287-.058.066-.058.18-.174.254a.488.488,0,0,1-.289.1.391.391,0,0,1-.289-.072,1.041,1.041,0,0,1-.289-.129.743.743,0,0,0-.347-.063.888.888,0,0,0-.289-.072c-.115-.041-.232-.023-.347-.064-.115.017-.231-.023-.347-.006-.116-.041-.232.034-.347-.007-.115.017-.231-.023-.347-.006s-.232-.024-.347-.006l-.347.051-.347.051-.347.051-.347.051a2.481,2.481,0,0,0-.289-.015l-.4.059c-.174.026-.174.083-.347.109l-.347.051c-.115.017-.232-.023-.347.051a.708.708,0,0,0-.289.271,1.573,1.573,0,0,0-.174.312.561.561,0,0,0-.057.3V79.5c0,.171-.058.18-.058.351s.058.164.058.335v2.062c0,.172-.058.181-.058.352s.058.164.058.335v2.749c0,.171-.058.18-.058.352s.058.163.058.335v.344c0,.171-.058.18-.058.351s.058.164.058.335-.058.181-.058.353V88.1c0,.172.058.164.058.335v1.719c0,.172-.058.181-.058.352s.058.164.058.335V92.21c0,.172-.058.18-.058.352v.344c0,.172.058.163.058.335v1.718c0,.172-.058.181-.058.352V96c0,.172.058.164.058.335s-.058.181-.058.352.058.164.058.335-.058.181-.058.352.058.164.058.335v.344c0,.172-.058.18-.058.352s.058.163.058.336v4.81a.679.679,0,0,1,.057.336c0,.114.059.278.059.392a1394.173,1394.173,0,0,0,.115.67,1000.582,1000.582,0,0,1,.231.653c.058.106.058.22.116.269a.464.464,0,0,0,.231.253.884.884,0,0,1,0,.629.552.552,0,0,1-.231.263.49.49,0,0,1-.289.1l-.347.051-.347.051-.347.051-.347.052-.347.051-.347.051-.347.051-.347.051-.348.051-.347.051-.347.051-.347.051-.347.051-.347.051-.347.051-.347.051-.347.051-.347.051-.347.051-.348.051-.347.051a.86.86,0,0,1-.289-.072c-.058.008-.115-.1-.174-.146a.837.837,0,0,1-.115-.269.508.508,0,0,1,.115-.3l.174-.369c.058-.123.116-.189.173-.312s.058-.238.116-.361a.916.916,0,0,1,.115-.36v-.344a.914.914,0,0,0,.115-.361c0-.114.058-.237.058-.409v-.344a.773.773,0,0,0,.058-.352v-4.124c0-.172-.058-.164-.058-.335s.058-.18.058-.352V98c0-.172-.058-.164-.058-.335s.058-.18.058-.352v-.344c0-.172-.058-.164-.058-.335s.058-.18.058-.352v-1.03c0-.172-.058-.163-.058-.335v-.344c0-.172.058-.18.058-.352v-.344c0-.172-.058-.163-.058-.335s.058-.18.058-.352-.058-.164-.058-.335.058-.18.058-.352v-.688c0-.171-.058-.163-.058-.335s.058-.18.058-.352V89.406c0-.172-.058-.163-.058-.335s.058-.18.058-.352v-.688c0-.171-.058-.163-.058-.335s.058-.18.058-.352-.058-.164-.058-.335.058-.18.058-.352v-.344c0-.172-.058-.164-.058-.335v-.344c0-.172.058-.18.058-.352V82.534c0-.172-.058-.164-.058-.335s.058-.18.058-.352V80.816c0-.172-.058-.164-.058-.335s.058-.18.058-.352a2.264,2.264,0,0,0-.058-.278.465.465,0,0,0-.231-.252.272.272,0,0,0-.289-.13c-.058-.049-.173-.031-.288-.015-.174.026-.174-.031-.405,0l-.347.051c-.174.025-.174.082-.347.108-.115.017-.231-.023-.347-.007l-.347.051c-.116.017-.231.091-.347.108l-.347.051-.348.051c-.116.017-.231.092-.347.108-.116.074-.231.034-.347.108a.488.488,0,0,0-.289.1c-.115.017-.231.092-.347.108a.966.966,0,0,1-.347.165c-.115.074-.231.091-.347.165-.115.017-.173.14-.288.157-.115.074-.174.14-.289.215s-.231.091-.289.157a.394.394,0,0,1-.289-.072c-.115-.04-.173-.089-.173-.146a.47.47,0,0,1-.058-.278c.058-.124.058-.238.116-.361a.771.771,0,0,1,.058-.352c0-.115.058-.237.058-.352.059-.123.059-.237.116-.36a.77.77,0,0,1,.058-.352c0-.114.058-.237.058-.352s.058-.237.058-.352c.058-.123.058-.237.116-.36,0-.115.057-.18.057-.295a315.446,315.446,0,0,0,.116-.7c.058-.123.058-.237.116-.361a.767.767,0,0,1,.058-.352.917.917,0,0,1,.115-.361,1372.55,1372.55,0,0,0,.115-.7.591.591,0,0,1,.173-.312.705.705,0,0,1,.232-.32.958.958,0,0,1,.347-.165.707.707,0,0,1,.347.006,2.247,2.247,0,0,1,.288.015,7362.1,7362.1,0,0,1,.694.012c.116.041.232-.033.347-.051s.232.023.347.006l.347-.051.347-.051.347-.051.347-.051.347-.051.347-.051.289-.042.4-.06.347-.051.348-.051.347-.051.347-.051.347-.051.347-.051.347-.051c.174-.026.174.031.347.006s.174-.082.347-.108l.347-.051.347-.051.347-.051.348-.051.347-.051.4-.06.347-.051.347-.051.347-.051.347-.051.347-.051.347-.051.347-.051Z" transform="translate(-56.023 -37.562)" fill="#122347"/><path d="M157.826,102.179c-.058-.049-.116-.155-.173-.2a.818.818,0,0,1-.116-.269.5.5,0,0,1,.116-.3l.173-.368a.7.7,0,0,0,.115-.361.582.582,0,0,0,.174-.312,292.15,292.15,0,0,0,.116-.7.9.9,0,0,0,.058-.409.769.769,0,0,0,.058-.352c0-.114.057-.238.057-.352v-.687c0-.115.058-.237.058-.352V96.416c0-.172-.058-.163-.058-.335v-.629c0-.172.058-.181.058-.353v-.687c0-.172-.058-.164-.058-.335s.058-.181.058-.352V91.662c0-.172-.058-.163-.058-.335s.058-.18.058-.352v-.344c0-.172-.058-.163-.058-.335s.058-.18.058-.352-.058-.163-.058-.335.058-.18.058-.352-.058-.163-.058-.335.058-.181.058-.352-.058-.164-.058-.335.058-.181.058-.352V86.164c0-.172-.058-.164-.058-.335s.058-.18.058-.352V82.041c0-.172-.058-.163-.058-.335s.058-.181.058-.352v-.687c0-.172-.058-.164-.058-.335v-.688c0-.172.058-.181.058-.352v-.344c0-.172-.058-.164-.058-.335v-.344c0-.171.058-.18.058-.352v-.63c0-.172-.058-.164-.058-.335s.058-.181.058-.353-.058-.163-.058-.335v-.343c0-.173.058-.181.058-.353s-.058-.163-.058-.335.058-.181.058-.352-.058-.164-.058-.335V74.2c0-.171.058-.18.058-.352s-.058-.163-.058-.335.058-.18.058-.352-.058-.163-.058-.335c0-.114.058-.237.058-.409,0-.114-.058-.22-.058-.335s.058-.238.058-.353c-.058-.105-.058-.22-.115-.326,0-.114.057-.237,0-.344a.665.665,0,0,0-.058-.334v-.4a.671.671,0,0,1-.058-.335.707.707,0,0,1-.116-.327c-.058-.105-.058-.22-.115-.326a1.009,1.009,0,0,1-.174-.26c-.058-.107-.058-.221-.173-.319-.058-.049-.058-.164-.058-.278-.058-.048,0-.171.058-.295a.317.317,0,0,1,.173-.2,1.12,1.12,0,0,1,.289-.157l.347-.051.347-.051.347-.051.347-.051.347-.051.347-.051.347-.052.347-.051.347-.051.347-.051.347-.051.347-.051.347-.051.347-.051.347-.051.347-.05.347-.051.347-.051c.116-.017.231.023.347.006s.231-.092.347-.108l.347-.051.347-.051.347-.051.347-.051.347-.05.347-.052.347-.051.347-.051.347-.052.347-.051.347-.051.347-.051.347-.052.347-.051c.115-.017.231.024.347.007s.231-.092.347-.108l.347-.051.347-.052.347-.051a.809.809,0,0,1,.347-.108l.347-.051c.116-.075.174-.141.289-.158a.806.806,0,0,0,.347-.108c.116-.017.232-.091.348-.051a.733.733,0,0,1,.347.064.364.364,0,0,1,.232.195,1.033,1.033,0,0,1,.173.261c0,.115.058.221.058.336.057.105.057.22.115.326,0,.115.058.221.058.335s.058.221.058.336a.671.671,0,0,1,.058.335.664.664,0,0,1,.058.335c.057.106.057.221.115.327a.672.672,0,0,0,.058.335,2.252,2.252,0,0,1,.058.278.712.712,0,0,1,.116.327.705.705,0,0,0,.115.327,300.826,300.826,0,0,1,.116.67.672.672,0,0,0,.058.335.708.708,0,0,0,.116.327.673.673,0,0,0,.058.335v.286c-.058.066-.115.189-.174.255a.8.8,0,0,1-.347.108.88.88,0,0,1-.288-.072,1.064,1.064,0,0,0-.29-.129.747.747,0,0,1-.347-.064c-.057-.049-.174-.032-.289-.072-.115.017-.231-.023-.347-.007a.748.748,0,0,0-.347-.063.711.711,0,0,0-.347-.006,2.351,2.351,0,0,0-.289-.015c-.116.017-.231-.023-.347-.006l-.347.051-.347.051-.347.051c-.115.017-.231-.023-.347-.007s-.231.092-.347.109c-.173.026-.173-.032-.347-.007s-.174.083-.347.109l-.347.051c-.174.026-.174-.032-.347-.006s-.174.082-.347.108l-.347.051-.348.051-.347.051c-.174.025-.174-.032-.347-.006s-.173.082-.347.108-.174-.031-.347-.006-.173.082-.347.108a.808.808,0,0,0-.347.108c-.115.017-.174.14-.289.214a1.479,1.479,0,0,0-.174.312.461.461,0,0,0-.058.295V75.51c0,.172-.058.18-.058.352s.058.163.058.335v2.348c0,.172-.058.18-.058.352s.058.164.058.335c0,.114,0,.229.058.278a1.02,1.02,0,0,0,.174.261c.115.041.174.146.289.129a.747.747,0,0,0,.347.064l.347-.051.405-.059.4-.06.347-.051.4-.06.347-.051.347-.051c.116-.017.231-.091.347-.108l.347-.051a.815.815,0,0,1,.347-.108,1.249,1.249,0,0,1,.405-.117.814.814,0,0,1,.347-.108c.116-.074.232-.091.347-.165a.6.6,0,0,0,.289-.214.948.948,0,0,0,.347-.166,1.173,1.173,0,0,0,.347-.222.526.526,0,0,1,.29-.157.856.856,0,0,1,.288.072c.058.049.174.089.232.138a.668.668,0,0,1,.058.335v6.071a.5.5,0,0,1-.116.3c-.058.123-.058.237-.174.255a1.169,1.169,0,0,1-.288.157.748.748,0,0,1-.347-.064,1.073,1.073,0,0,0-.289-.13c-.115-.04-.174-.089-.289-.129s-.231-.023-.347-.063a.749.749,0,0,1-.347-.064.705.705,0,0,1-.347-.006,1.105,1.105,0,0,1-.405,0c-.115.017-.231-.023-.347-.006l-.347.051-.347.051a.713.713,0,0,1-.347-.007c-.115.017-.231.091-.347.109s-.289-.015-.4,0l-.347.051-.4.06-.405.059-.347.051a.814.814,0,0,0-.347.108c-.115.074-.174.2-.289.271a1.484,1.484,0,0,0-.174.312.46.46,0,0,0-.058.295c0,.172-.058.18-.058.352s.058.164.058.335v1.031c0,.229-.058.237-.058.409s.058.163.058.335v.343c0,.172-.058.18-.058.352s.058.164.058.335v1.031c0,.172-.058.18-.058.352s.058.163.058.335v1.718c0,.172-.058.18-.058.352s.058.164.058.392v.344c0,.172-.058.18-.058.352a.374.374,0,0,0,.116.27,1.02,1.02,0,0,0,.174.261c.115.041.174.146.289.186.115-.017.231.023.347.006l.347-.051.347-.051c.174-.026.174-.082.347-.107.116-.018.116.04.29.014l.347-.051c.174-.025.174-.082.347-.107l.347-.051c.174-.025.174.031.347.006l.347-.051.347-.051c.174-.025.174-.082.347-.108l.347-.051.347-.051.347-.051c.115-.017.231.023.347.006a.832.832,0,0,1,.347-.108c.115-.017.231-.091.347-.108l.347-.051a.809.809,0,0,1,.347-.108,2.779,2.779,0,0,1,.289-.1c.116-.074.232-.091.347-.166a.8.8,0,0,0,.347-.108c.116-.074.232-.092.347-.165.116-.017.174-.14.289-.214.115-.017.173-.083.289-.157a1.143,1.143,0,0,1,.289-.157.748.748,0,0,1,.347.063c.058-.008.116.1.116.213.058.049.058.164.058.22-.058.123-.058.238-.116.36,0,.114-.058.237-.058.352-.058.123-.058.237-.116.36a.77.77,0,0,1-.058.352c0,.114-.057.238-.057.352a.767.767,0,0,0-.058.352,908.991,908.991,0,0,1-.115.7c-.058.123-.058.237-.116.36,0,.114-.057.237-.057.352s-.058.181-.058.3a.922.922,0,0,0-.116.36.773.773,0,0,0-.058.352c-.058.123-.058.238-.115.361,0,.114-.058.237-.058.352s-.058.238-.058.352c-.058.123-.058.237-.115.36a1.574,1.574,0,0,1-.289.272.726.726,0,0,1-.347.165c-.116.017-.231-.023-.347-.007a.5.5,0,0,0-.289-.014.713.713,0,0,0-.347-.007c-.115.017-.231-.023-.347-.007l-.347.051c-.115.017-.231-.024-.347-.007l-.347.051-.347.05-.347.051-.347.051-.348.051a.822.822,0,0,0-.347.109c-.116.017-.174-.032-.289-.015l-.347.051c-.116.017-.232.092-.347.108s-.231-.023-.347-.007l-.347.051-.347.051-.347.051-.347.051-.347.051-.347.051-.347.051-.347.051-.289.042-.347.051-.347.051-.347.051-.347.051-.347.051-.347.051-.347.051-.348.051-.347.051-.347.051-.289.042-.347.051-.347.051-.347.051-.347.051-.347.051-.347.051-.4.06-.405.06a.606.606,0,0,1-.289-.015" transform="translate(-82.416 -34.193)" fill="#122347"/><path d="M202.846,66.9v-.687c0-.115-.057-.221-.057-.335a.666.666,0,0,0-.058-.335V65.2c0-.172-.058-.278-.058-.393s-.058-.221-.058-.335a.71.71,0,0,1-.116-.327c-.057-.106-.057-.22-.115-.327,0-.114-.115-.155-.174-.261s-.058-.22-.174-.261c-.058-.106-.058-.22-.115-.326a1.122,1.122,0,0,1,.115-.3.557.557,0,0,1,.232-.263.5.5,0,0,1,.289-.1l.347-.051.347-.051.347-.051.347-.051.347-.051.347-.051.348-.051.347-.051.347-.051.347-.051c.116-.017.232-.091.347-.108s.231.023.347.006l.347-.051.347-.051.347-.051.347-.051.347-.051.29-.042.4-.06c.116-.017.173-.082.347-.108.058-.008.231.023.347.006l.289-.042.347-.051.347-.051.347-.051.289-.043a1.4,1.4,0,0,0,.347-.108c.116-.017.232.023.347.006l.347-.051.347-.051c.116-.017.231.023.347.007l.347-.051c.116-.018.231.023.347.006a.713.713,0,0,0,.347.007.745.745,0,0,1,.348.064,127.892,127.892,0,0,1,.694.012c.115-.017.174.032.289.015a.753.753,0,0,0,.347.064.711.711,0,0,0,.347.006,1.081,1.081,0,0,1,.289.129.747.747,0,0,0,.347.064l.347.121c.058.049.173.031.289.072s.174.147.289.187.231.023.289.072a.469.469,0,0,1,.289.187,1.074,1.074,0,0,1,.289.129.469.469,0,0,1,.288.187.819.819,0,0,1,.29.187c.057.049.173.089.231.138.115.1.174.2.231.252.059.106.174.146.232.252l.231.2c.058.106.174.146.231.252a1.008,1.008,0,0,1,.174.261c.058.106.116.154.173.261l.174.318c.058.049.058.163.116.269l.173.318c0,.057.115.155.174.261a.678.678,0,0,0,.057.335c.058.106.116.155.116.269a.719.719,0,0,1,.116.327c.058.106,0,.229.058.335a.713.713,0,0,0,.115.327v.343c.058.106,0,.229.058.336,0,.114.057.22.057.335v1.031c0,.114.058.22.058.335s-.058.238-.058.352v.344a.776.776,0,0,0-.057.351c0,.114-.058.238-.058.352a.774.774,0,0,0-.058.352c0,.114-.058.237-.058.352a1.132,1.132,0,0,0-.116.3c-.057.123-.057.237-.115.361a.926.926,0,0,1-.115.36c0,.115-.058.237-.058.352l-.173.369a1.127,1.127,0,0,1-.115.3,1.572,1.572,0,0,1-.174.312l-.173.369c-.058.123-.116.189-.174.312s-.116.188-.174.311c-.058.066-.116.189-.231.32-.058.124-.058.238-.174.312-.058.123-.115.189-.173.312s-.174.2-.232.32l-.231.262a1.252,1.252,0,0,0-.231.32,1.082,1.082,0,0,1-.232.263.7.7,0,0,1-.231.32,1.061,1.061,0,0,1-.231.263,2.075,2.075,0,0,1-.52.592,1.089,1.089,0,0,1-.232.263c-.058.123-.173.2-.231.32a1.27,1.27,0,0,0-.289.272,1.574,1.574,0,0,1-.289.214l-.231.263c-.116.074-.174.2-.289.271a1.064,1.064,0,0,0-.231.263,1.543,1.543,0,0,0-.289.214l-.289.329a1.537,1.537,0,0,1-.288.214l-.232.263a.716.716,0,0,0-.289.271,1.542,1.542,0,0,0-.289.214c-.115.074-.174.2-.289.271s-.174.14-.289.215a156.657,156.657,0,0,1-.578.543c-.058.066-.173.083-.288.157a1.261,1.261,0,0,1-.289.272,1.056,1.056,0,0,0-.231.263.711.711,0,0,0-.289.271,1.537,1.537,0,0,0-.289.214,1.558,1.558,0,0,0-.289.214c-.116.075-.173.2-.289.272a1.552,1.552,0,0,0-.289.214c-.115.074-.173.2-.288.271-.059.123-.174.14-.29.272-.115.074-.174.14-.289.215s-.174.2-.289.271c-.058.124-.174.2-.231.32a.549.549,0,0,0-.116.361v2.806c0,.172.058.163.058.335s-.058.18-.058.352V91.7c.058.106,0,.229.058.335a.665.665,0,0,0,.058.335v.344a1.048,1.048,0,0,1,.058.392.713.713,0,0,0,.115.327c0,.114.058.22.058.335.057.106.115.155.115.269l.174.319a1.025,1.025,0,0,0,.174.261.88.88,0,0,1,0,.63c0,.114-.115.188-.231.263a2.794,2.794,0,0,1-.289.1l-.347.051c-.116.017-.232-.023-.347-.006s-.231.148-.347.165-.232-.024-.347-.007l-.347.051-.347.051-.29.042-.347.051-.347.051-.347.051-.347.051-.347.051-.347.051c-.115.017-.231-.023-.347-.006s-.232.091-.348.108l-.347.051-.347.051-.347.051-.347.051-.347.051-.347.051a2.5,2.5,0,0,1-.289-.014.366.366,0,0,1-.232-.2.57.57,0,0,1-.058-.278.775.775,0,0,1,.058-.352,1.544,1.544,0,0,0,.232-.32.7.7,0,0,0,.115-.3.913.913,0,0,0,.115-.361.768.768,0,0,0,.058-.352.915.915,0,0,0,.115-.36c0-.115.058-.237.058-.352a1.021,1.021,0,0,0,.058-.41.777.777,0,0,1,.057-.352V90.554c0-.172.058-.18.058-.352s-.058-.163-.058-.335V87.175c0-.172.058-.18.058-.352s-.058-.163-.058-.335.058-.18.058-.352v-.344c0-.172-.058-.164-.058-.335V82.02c0-.172.058-.18.058-.352s-.058-.164-.058-.335V77.9c0-.172.058-.18.058-.352s-.058-.163-.058-.335v-5.5c0-.172.058-.18.058-.352s-.058-.164-.058-.278c0-.172.058-.18.058-.352s-.058-.163-.058-.335V66.9ZM211,66.564a2.355,2.355,0,0,1-.288-.015,1.394,1.394,0,0,0-.347.108,2.792,2.792,0,0,0-.289.1.712.712,0,0,0-.289.272.558.558,0,0,0-.231.263c0,.115-.058.237-.058.352v6.127c0,.172.058.164.058.335s-.058.18-.058.352v2.405c0,.114.058.106.058.278a.668.668,0,0,0-.058.295v.343a.322.322,0,0,0,.231.31.449.449,0,0,0,.52-.076,1.563,1.563,0,0,1,.289-.215,1.059,1.059,0,0,0,.231-.263c.116-.075.174-.14.289-.214a1.6,1.6,0,0,0,.289-.215c.115-.074.174-.2.289-.271a1.092,1.092,0,0,0,.231-.263,1.525,1.525,0,0,0,.289-.214c.116-.074.174-.2.289-.271.058-.066.174-.14.289-.272.058-.066.173-.14.231-.206a1.261,1.261,0,0,1,.288-.272l.232-.262a1.247,1.247,0,0,0,.231-.32,1.086,1.086,0,0,0,.232-.263l.232-.263c.115-.132.173-.255.231-.32.058-.123.174-.2.232-.32a1.476,1.476,0,0,0,.173-.311,307.9,307.9,0,0,0,.347-.624c.059-.123.174-.2.174-.312l.173-.369a2.662,2.662,0,0,0,.058-.295c.058-.123.058-.238.115-.361,0-.114.058-.237.058-.352a.763.763,0,0,0,.058-.351.773.773,0,0,0,.058-.352c0-.114.058-.238.058-.352a.666.666,0,0,0-.058-.335V69.23a.713.713,0,0,1-.116-.327c-.058-.049-.058-.164-.058-.278a.707.707,0,0,1-.115-.326l-.174-.318c-.058-.049-.058-.164-.115-.27s-.174-.146-.232-.252-.173-.146-.231-.195a.813.813,0,0,1-.231-.253l-.348-.12a1.048,1.048,0,0,0-.289-.13,1.077,1.077,0,0,0-.289-.129.544.544,0,0,0-.289-.072.748.748,0,0,0-.347-.063.733.733,0,0,0-.347-.063c-.116-.041-.231.034-.347-.007-.115.017-.231-.023-.347-.006l-.347.051c-.115-.041-.231.034-.347.051Z" transform="translate(-105.636 -31.779)" fill="#122347"/><path d="M281.954,61.046c0-.172-.058-.164-.058-.335s.058-.181.058-.352-.058-.164-.058-.335.058-.18.058-.352v-.286c0-.172-.058-.163-.058-.336v-.343c0-.172.058-.18.058-.352V58.01c0-.172-.058-.163-.058-.334a.471.471,0,0,0-.058-.278c0-.058-.058-.106-.174-.147-.058-.049-.174-.031-.231-.081-.116.017-.174.083-.289.1-.174.082-.174.025-.347.108a1.81,1.81,0,0,1-.289.157,1.783,1.783,0,0,1-.289.157,1.838,1.838,0,0,0-.289.157l-.348.051c-.173.083-.115.132-.289.215a1.4,1.4,0,0,1-.463.124l-.347-.12c-.116-.1-.231-.138-.347-.236a.91.91,0,0,1-.058-.392V56.174c0-.172.058-.18.058-.352s-.058-.164-.058-.278.058-.237.058-.352c.058-.066.058-.18.173-.312a1.018,1.018,0,0,1,.232-.206.49.49,0,0,1,.289-.1.808.808,0,0,1,.347-.108c.115-.017.231-.091.347-.108a.719.719,0,0,1,.289-.157c.116-.074.232-.092.347-.165a.962.962,0,0,0,.347-.165.52.52,0,0,1,.289-.157c.116-.074.232-.091.29-.157a1.574,1.574,0,0,0,.288-.214l.347-.223c.116-.074.174-.14.289-.214s.174-.14.29-.214.173-.14.288-.215l.231-.263a1.251,1.251,0,0,0,.289-.272,1.552,1.552,0,0,1,.288-.214l.232-.263a1.268,1.268,0,0,1,.289-.271,1.469,1.469,0,0,1,.174-.312.714.714,0,0,1,.289-.272c.115-.017.231-.091.4-.116l.289-.043.347-.051.348-.051.289-.042.347-.051.347-.051.29-.042.347-.051.347-.051a2.478,2.478,0,0,1,.289.015,1.041,1.041,0,0,1,.289.13.8.8,0,0,1,.231.252c0,.114.058.221.058.335,0,.172-.058.18-.058.352s.058.164.058.335v.688c0,.172-.058.18-.058.352s.058.164.058.335v.687c0,.172-.058.18-.058.352s.058.164.058.335V55.6c0,.172-.058.18-.058.352s.058.164.058.335v.687c0,.172-.058.18-.058.352s.058.164.058.335V59.04c0,.172-.058.18-.058.352v.344c0,.172.058.164.058.335v.687c0,.172-.058.18-.058.352s.058.164.058.335v1.031c0,.172-.058.18-.058.352v.344c0,.172.058.164.058.335v1.718c0,.172-.058.18-.058.352v.687c0,.172.058.164.058.336v.343c0,.172-.058.18-.058.352s.058.164.058.336-.058.18-.058.351v.687c0,.172.058.164.058.335s-.058.18-.058.352V69.7c0,.172.058.164.058.336s-.058.18-.058.352.058.164.058.335-.058.18-.058.352.058.164.058.278V71.7c0,.172-.058.18-.058.352s.058.164.058.335-.058.18-.058.352.058.163.058.335v.343c0,.172-.058.18-.058.352v1.718c0,.172.058.164.058.335s-.058.18-.058.352v.343c0,.172.058.164.058.336v2.405c0,.172-.058.295-.058.409s.058.221.058.335v.687c0,.115.058.221.058.336v.4c0,.115.116.212.116.327s.058.221.058.335c.057.106.057.221.115.327,0,.114.058.22.058.334.058.106.115.155.174.261a1.025,1.025,0,0,0,.231.252c.058.106,0,.229,0,.344.058.049,0,.172-.058.295l-.174.2a.731.731,0,0,1-.289.157l-.347.051-.347.051-.347.051-.347.051-.347.051-.347.051-.347.051c-.115.017-.231.091-.347.108s-.231-.023-.347-.006l-.348.051-.347.052-.347.051-.347.051-.347.051-.347.051-.347.051-.347.051-.347.051-.347.051-.347.051-.348.051a.5.5,0,0,1-.289-.015c-.058-.049-.174-.089-.231-.2a.568.568,0,0,1-.058-.278.928.928,0,0,1,.115-.361,1.5,1.5,0,0,0,.174-.311c.058-.124.116-.189.173-.312s.058-.237.116-.36a.922.922,0,0,1,.116-.36c0-.115.058-.237.058-.352s.058-.237.058-.352.058-.238.058-.409c0-.115-.058-.221-.058-.336a.772.772,0,0,0,.058-.352v-.687c0-.114.058-.238.058-.41v-.687c0-.172-.058-.164-.058-.335v-.344c0-.172.058-.181.058-.352V78.17c0-.172-.058-.164-.058-.335s.058-.181.058-.352V74.447c0-.172-.058-.164-.058-.335s.058-.181.058-.352-.058-.164-.058-.335.058-.181.058-.352v-.344c0-.172-.058-.164-.058-.335V72.05c0-.171.058-.18.058-.352s-.058-.163-.058-.335.058-.18.058-.352V67.918c0-.172-.058-.164-.058-.335s.058-.181.058-.352-.058-.164-.058-.335.058-.181.058-.353V66.2c0-.172-.058-.164-.058-.335s.058-.18.058-.352v-.344c0-.171-.058-.162-.058-.335v-.343c0-.172.058-.18.058-.352V63.8c0-.172-.058-.163-.058-.335v-.344c0-.172.058-.18.058-.352V61.733c-.058-.163,0-.172,0-.343Z" transform="translate(-145.478 -26.187)" fill="#122347"/><path d="M70.684,103.51a.7.7,0,0,1,.288-.271.584.584,0,0,1,.289-.1.388.388,0,0,1,.347.063c.058.049.116.155.232.2a1.07,1.07,0,0,0,.289.129c.058.049.174.089.289.187.058.048.174.089.231.138a1.06,1.06,0,0,1,.289.129l.347.121a.883.883,0,0,1,.288.072c.116.041.232.023.289.072l.347.12a2.489,2.489,0,0,1,.29.015.746.746,0,0,0,.347.063c.116.041.232.024.347.064l.288-.042c.117.041.232-.034.348.007.116-.017.231.023.347.006l.347-.051.347-.051.347-.051a.811.811,0,0,0,.347-.109l.289-.042c.115-.017.231-.091.347-.108.115-.074.231-.091.347-.166.115-.017.231-.091.347-.108a.722.722,0,0,1,.288-.157,1.592,1.592,0,0,0,.29-.214,1.553,1.553,0,0,0,.289-.214l.347-.223c.058-.066.173-.14.231-.206a1.248,1.248,0,0,1,.288-.272,1.079,1.079,0,0,1,.232-.263.7.7,0,0,1,.231-.32c.058-.123.116-.189.174-.312s.116-.188.174-.312.116-.188.173-.311.116-.189.174-.312c0-.115.058-.238.058-.352a1.1,1.1,0,0,0,.115-.3,181.77,181.77,0,0,0,.116-.7c0-.114.058-.237.058-.352.058-.123,0-.229,0-.344V98.28c0-.114-.058-.221-.058-.335V97.6c-.058-.106-.116-.154-.174-.26A.669.669,0,0,0,81.845,97a1.012,1.012,0,0,0-.173-.26c-.058-.106-.058-.221-.115-.327a.82.82,0,0,1-.232-.252c-.058-.049-.115-.155-.232-.2a1,1,0,0,0-.173-.26c-.058-.106-.174-.147-.231-.253a.828.828,0,0,1-.289-.187c-.057-.049-.173-.089-.231-.195a.83.83,0,0,1-.289-.187,1.056,1.056,0,0,0-.289-.129c-.058-.049-.174-.089-.232-.2a1.085,1.085,0,0,1-.289-.129c-.116-.041-.173-.147-.289-.187a2.208,2.208,0,0,0-.578-.316,1.063,1.063,0,0,0-.29-.129l-.231-.2-.347-.121a414.319,414.319,0,0,0-.578-.259c-.058-.049-.174-.089-.289-.187-.058-.049-.173-.089-.231-.195-.116-.04-.232-.023-.289-.13a1.06,1.06,0,0,1-.289-.129c-.115-.04-.174-.146-.289-.186a1.052,1.052,0,0,0-.288-.129,1.012,1.012,0,0,1-.232-.253c-.115-.041-.174-.089-.289-.129-.058-.049-.174-.09-.289-.187-.059-.049-.116-.155-.232-.2-.058-.106-.174-.146-.231-.2-.058-.106-.174-.146-.232-.252a1.017,1.017,0,0,1-.288-.13.47.47,0,0,0-.231-.252,1.034,1.034,0,0,0-.174-.261c-.058-.106-.173-.146-.231-.252-.057-.049-.115-.155-.173-.2-.115-.1-.174-.2-.231-.251a1.033,1.033,0,0,0-.174-.261l-.174-.318c-.058-.106-.116-.155-.173-.261a.374.374,0,0,1-.116-.27l-.174-.318c0-.115-.115-.155-.115-.27-.058-.106-.058-.221-.115-.327a.706.706,0,0,0-.116-.327,2.279,2.279,0,0,0-.057-.278.7.7,0,0,1-.116-.327.672.672,0,0,1-.058-.335c0-.114-.116-.212-.116-.326v-.344c0-.114-.057-.22-.057-.335a.668.668,0,0,1-.058-.335c0-.115.058-.237,0-.344V83.36c0-.114.058-.237.058-.352a.467.467,0,0,1,.057-.295c0-.114-.057-.278,0-.344,0-.114.058-.237.058-.352.058-.123,0-.229.058-.352,0-.114.058-.238.058-.352a.92.92,0,0,0,.116-.36c.057-.065.057-.18.115-.3a.919.919,0,0,1,.115-.361c.058-.123.058-.237.116-.36.057-.066.057-.18.115-.3s.174-.2.174-.311l.174-.37a1.08,1.08,0,0,1,.231-.262c.058-.123.115-.189.174-.312s.116-.188.174-.311a1.233,1.233,0,0,0,.231-.32,1.258,1.258,0,0,0,.289-.271l.231-.263a1.091,1.091,0,0,0,.231-.263,1.521,1.521,0,0,0,.289-.214c.116-.074.174-.2.289-.271a1.061,1.061,0,0,0,.231-.263l.348-.223c.058-.066.174-.083.289-.157a1.486,1.486,0,0,0,.289-.214c.116-.074.231-.091.347-.165a1.2,1.2,0,0,1,.29-.157c.115-.074.231-.091.347-.165.116-.017.231-.148.347-.165.115-.074.231-.034.347-.109a.96.96,0,0,0,.347-.165.709.709,0,0,0,.289-.1l.347-.051a.813.813,0,0,1,.347-.108l.347-.051c.115-.017.231-.091.347-.108l.347-.051.348-.051c.116-.017.231-.091.347-.108a.713.713,0,0,0,.347.006c.116-.017.231.023.347.007l.289-.042.347-.051a.749.749,0,0,1,.347.064l.347-.051c.116-.018.231.023.347.006a.611.611,0,0,0,.288.015c.116-.018.232.023.347.006s.232.023.347.007.232.023.347.006a.711.711,0,0,1,.347.006c.116-.017.232-.091.347-.051l.289-.042.348-.051c.115-.017.231-.092.347-.108.115-.074.231-.091.288-.157.115-.074.231-.092.289-.157.116-.017.232-.034.289.015.115.04.231.023.289.129.058.049,0,.172,0,.287a.672.672,0,0,1,.058.335v.344a.668.668,0,0,1,.058.335.673.673,0,0,0,.058.335v.688c0,.172.058.163.058.335a.678.678,0,0,0,.057.335v.687c0,.172.058.163.058.335s-.058.181-.058.353a.664.664,0,0,1,.058.335c0,.172.058.164.058.335a.476.476,0,0,0,.057.278V79.6a.668.668,0,0,1-.057.352,1.079,1.079,0,0,1-.232.263.8.8,0,0,1-.347.108c-.115.017-.231.034-.288-.072-.116-.041-.174-.147-.232-.2-.115-.1-.231-.138-.289-.186-.116-.041-.173-.147-.289-.187a1.063,1.063,0,0,1-.289-.129,1.052,1.052,0,0,1-.289-.129l-.347-.121c-.057-.049-.173-.031-.289-.072a1.04,1.04,0,0,1-.289-.13c-.116-.04-.231-.023-.347-.063s-.231-.023-.347-.064a.748.748,0,0,1-.347-.064c-.116.017-.174-.031-.289-.015s-.231-.023-.347-.006a.706.706,0,0,0-.347-.007.74.74,0,0,0-.347-.063l-.347.051-.347.051a.815.815,0,0,0-.347.108l-.347.051c-.115.074-.231.091-.347.165a.811.811,0,0,0-.348.108c-.115.074-.173.14-.288.214s-.232.091-.29.214a1.189,1.189,0,0,0-.347.223,1.082,1.082,0,0,0-.231.263c-.058.065-.116.188-.231.32a1.485,1.485,0,0,0-.173.311c-.058.123-.058.18-.115.3a.908.908,0,0,0-.117.361.926.926,0,0,0-.115.36v.344c0,.114-.058.238-.058.352v.344c0,.114-.058.237-.058.352a.711.711,0,0,1,.115.327c0,.114,0,.229.058.278a.7.7,0,0,0,.115.327c.059.106.059.22.116.327s.116.155.174.261a1.042,1.042,0,0,0,.173.261.809.809,0,0,0,.232.252c.058.049.115.155.231.2.058.106.115.155.174.261a.467.467,0,0,1,.231.252.82.82,0,0,1,.289.187c.058.049.174.089.231.138a.809.809,0,0,1,.232.252,1.033,1.033,0,0,1,.289.13.83.83,0,0,0,.289.186,1.065,1.065,0,0,0,.289.13c.116.04.174.146.231.2.116.1.232.138.289.187a1.06,1.06,0,0,1,.289.129.825.825,0,0,0,.289.186c.058.049.231.081.289.129.116.041.173.147.289.187a1.071,1.071,0,0,0,.289.129c.058.106.173.089.289.129.058.106.174.146.231.2a.832.832,0,0,0,.289.187,1.039,1.039,0,0,0,.29.186c.057.049.173.089.231.2a1.045,1.045,0,0,1,.289.13c.115.04.174.146.289.187l.231.2a.814.814,0,0,1,.289.186c.058.049.174.089.232.2.115.04.173.146.289.186a1.021,1.021,0,0,1,.174.261.471.471,0,0,1,.289.187l.231.2a.825.825,0,0,0,.231.253,1.017,1.017,0,0,1,.174.261l.232.195a245,245,0,0,1,.347.522c.058.106.174.146.231.253a1.046,1.046,0,0,0,.174.261c.058.106.058.221.116.327a1.012,1.012,0,0,0,.173.261l.174.318a.818.818,0,0,0,.115.27c.058.106.058.22.115.326s.058.221.116.27a.7.7,0,0,0,.115.326v.344c.058.106.058.22.115.327,0,.114.058.221.058.335a.666.666,0,0,0,.058.335v.344a.672.672,0,0,1,.058.335c.058.106,0,.229.058.335,0,.114-.058.237-.058.352s.058.221.058.335-.058.237-.058.352V99.1a.775.775,0,0,0-.058.352.461.461,0,0,0-.058.295c0,.114-.058.237-.058.352a.922.922,0,0,0-.115.361c-.058.123-.058.237-.115.36a.766.766,0,0,1-.058.352c0,.115-.115.189-.115.3a.921.921,0,0,0-.116.36c-.057.123-.057.237-.116.36a1.5,1.5,0,0,0-.173.311c-.058.123-.058.237-.115.3l-.174.369a1.52,1.52,0,0,0-.174.312,1.474,1.474,0,0,0-.174.311c-.058.124-.173.2-.231.32s-.115.189-.174.312a1.072,1.072,0,0,1-.232.263,1.476,1.476,0,0,1-.173.311,1.263,1.263,0,0,1-.289.272c-.058.123-.174.2-.232.32l-.231.263a1.1,1.1,0,0,0-.232.263c-.115.131-.231.148-.288.271-.116.075-.174.2-.289.272a1.58,1.58,0,0,1-.289.215,1.542,1.542,0,0,1-.289.214,3.331,3.331,0,0,1-.578.486c-.116.074-.232.091-.29.157l-.347.222c-.115.075-.174.14-.289.215a.806.806,0,0,0-.347.108c-.115.074-.173.14-.289.214a.964.964,0,0,0-.347.165.808.808,0,0,0-.347.109.953.953,0,0,0-.347.165l-.347.051c-.116.017-.173.083-.289.157l-.4.06a2.933,2.933,0,0,1-.289.1l-.348.051-.347.052-.347.051c-.115.017-.231.092-.347.108a254.9,254.9,0,0,1-.694-.013l-.347.051-.347.051c-.115.017-.231-.023-.347-.006-.115-.041-.231.034-.347.051a.752.752,0,0,0-.347-.064l-.348.052c-.115.017-.231-.024-.347-.007a.707.707,0,0,1-.347-.007l-.347.052-.347.051-.347.051-.347.051c-.116.017-.231.092-.347.109-.116.074-.231.034-.347.108-.116.017-.231.092-.347.109a.822.822,0,0,1-.347.108.5.5,0,0,1-.289-.015.272.272,0,0,1-.289-.129.375.375,0,0,1-.115-.269v-.687c0-.173-.058-.164-.058-.335-.058-.164,0-.172,0-.344a.667.667,0,0,1-.058-.335c0-.172-.057-.164-.057-.335a.662.662,0,0,0-.059-.335c0-.172.059-.18,0-.343v-.344a.675.675,0,0,1-.058-.335c0-.172-.058-.164-.058-.335v-.344c-.058-.164,0-.172-.058-.335v-.344c-.058-.164,0-.172-.058-.335v-.343l-.115-.326v-.344a.463.463,0,0,1,.058-.3" transform="translate(-36.948 -38.419)" fill="#fff"/><path d="M126.906,66.947l.347-.051.347-.051.347-.051a.381.381,0,0,0,.347-.051l.347-.051a.487.487,0,0,0,.289-.1l.347-.051c.116-.017.231.023.347-.051.116-.017.232-.091.347-.108a275.221,275.221,0,0,0,.695-.216c.115-.017.231-.091.347-.051.116-.017.231-.034.289.072a.47.47,0,0,1,.289.187,1.008,1.008,0,0,1,.174.261,233.237,233.237,0,0,1,.116.67c0,.114.058.22.058.335.058.106.058.221.116.327a.678.678,0,0,0,.057.335c0,.114.058.22.058.335s.058.221.058.335c.058.106.058.221.115.269,0,.114.058.22.058.335a.7.7,0,0,1,.116.326c0,.114.058.221.058.335.057.106,0,.229.057.335a.667.667,0,0,0,.058.335.711.711,0,0,0,.115.327.672.672,0,0,0,.058.335c0,.115.058.221.058.335.057.049,0,.172,0,.286-.058.066-.058.181-.174.255a.484.484,0,0,1-.289.1.391.391,0,0,1-.289-.072,1.041,1.041,0,0,1-.289-.13.748.748,0,0,0-.347-.063.876.876,0,0,0-.289-.072c-.115-.041-.231-.023-.347-.064-.115.017-.231-.023-.347-.006-.116-.041-.232.034-.347-.007-.115.017-.231-.023-.347-.007s-.232-.023-.347-.006l-.347.051-.347.051-.347.051-.347.051a2.381,2.381,0,0,0-.289-.015l-.4.059c-.174.026-.174.083-.347.109l-.347.051c-.115.017-.232-.023-.347.052a.7.7,0,0,0-.288.271,1.526,1.526,0,0,0-.174.312.557.557,0,0,0-.058.3V73.8c0,.171-.058.18-.058.351s.058.164.058.335v2.062c0,.172-.058.181-.058.352s.058.164.058.335v2.749c0,.171-.058.18-.058.352s.058.163.058.335v.344c0,.171-.058.18-.058.351s.058.164.058.335-.058.181-.058.353V82.4c0,.172.058.164.058.335v1.719c0,.172-.058.181-.058.352s.058.163.058.335v1.375c0,.172-.058.18-.058.352v.344c0,.172.058.163.058.335v1.718c0,.172-.058.181-.058.352V90.3c0,.172.058.164.058.335s-.058.181-.058.352.058.164.058.335-.058.181-.058.352.058.164.058.335v.344c0,.172-.058.18-.058.352s.058.163.058.336v4.81a.674.674,0,0,1,.058.336c0,.114.058.278.058.392a.673.673,0,0,0,.058.335.666.666,0,0,0,.058.335,4975.089,4975.089,0,0,0,.231.653c.058.106.058.22.116.269a.461.461,0,0,0,.231.252.885.885,0,0,1,0,.63.552.552,0,0,1-.231.263.487.487,0,0,1-.289.1l-.347.051-.347.051-.347.051-.347.051-.347.051-.347.051-.347.051-.347.051-.348.051-.347.051-.347.051-.347.051-.347.051-.347.051-.347.051-.347.051-.347.051-.347.051-.347.051-.348.051-.347.051a.86.86,0,0,1-.289-.072c-.058.008-.115-.1-.174-.146a.837.837,0,0,1-.115-.269.508.508,0,0,1,.115-.3l.174-.369c.058-.123.116-.189.173-.312s.058-.238.116-.361a.916.916,0,0,1,.115-.36v-.344a.917.917,0,0,0,.115-.361c0-.114.058-.237.058-.409v-.344a.773.773,0,0,0,.058-.352V94.362c0-.172-.058-.164-.058-.335s.058-.18.058-.352V92.3c0-.172-.058-.164-.058-.335s.058-.18.058-.352V91.27c0-.172-.058-.164-.058-.335s.058-.18.058-.352v-1.03c0-.172-.058-.163-.058-.335v-.344c0-.172.058-.18.058-.352v-.344c0-.172-.058-.163-.058-.335s.058-.18.058-.352-.058-.164-.058-.335.058-.18.058-.352v-.688c0-.172-.058-.164-.058-.335s.058-.18.058-.352V83.71c0-.172-.058-.163-.058-.335s.058-.18.058-.352v-.688c0-.171-.058-.163-.058-.335s.058-.18.058-.352-.058-.164-.058-.335.058-.18.058-.352v-.344c0-.172-.058-.164-.058-.335v-.344c0-.172.058-.18.058-.352V76.837c0-.172-.058-.164-.058-.335s.058-.18.058-.352V75.119c0-.172-.058-.163-.058-.335s.058-.18.058-.352a2.262,2.262,0,0,0-.058-.278.465.465,0,0,0-.231-.252.272.272,0,0,0-.289-.13c-.058-.049-.173-.031-.288-.015-.174.026-.174-.031-.405,0l-.347.052c-.174.025-.174.082-.347.108-.115.017-.231-.023-.347-.007l-.347.051c-.115.017-.231.091-.347.108l-.347.051-.348.051c-.116.017-.231.092-.347.108-.116.074-.231.034-.347.108a.487.487,0,0,0-.289.1c-.115.017-.231.091-.347.108a.966.966,0,0,1-.347.165c-.115.074-.231.091-.347.165-.115.017-.173.14-.288.157-.115.074-.174.14-.289.215s-.231.091-.289.157a.4.4,0,0,1-.289-.072q-.173-.061-.173-.146a.47.47,0,0,1-.058-.278c.058-.124.058-.238.116-.361a.772.772,0,0,1,.058-.352c0-.115.058-.237.058-.352.059-.123.059-.237.116-.36a.77.77,0,0,1,.058-.352c0-.114.058-.237.058-.352s.058-.237.058-.352c.058-.124.058-.238.116-.36,0-.115.057-.18.057-.295a328.705,328.705,0,0,0,.116-.7c.058-.123.058-.237.116-.361a.767.767,0,0,1,.058-.352.917.917,0,0,1,.115-.361,1846.753,1846.753,0,0,0,.115-.7.591.591,0,0,1,.173-.312.705.705,0,0,1,.232-.32.958.958,0,0,1,.347-.165.707.707,0,0,1,.347.006,2.244,2.244,0,0,1,.288.015,123.169,123.169,0,0,1,.694.012c.116.041.232-.033.348-.051s.231.023.347.006l.347-.051.347-.051.347-.051.347-.051.347-.051.347-.051.289-.042.4-.06.347-.051.348-.051.347-.051.347-.051.347-.051.347-.051.347-.051c.174-.026.174.031.347.006s.174-.082.347-.108l.347-.051.347-.051.347-.051.348-.051.347-.051.4-.06.347-.051.347-.051.347-.052.347-.051.347-.051.347-.051.347-.051Z" transform="translate(-58.646 -34.582)" fill="#fff"/><path d="M162.839,96.483c-.058-.049-.116-.155-.173-.2a.818.818,0,0,1-.116-.269.5.5,0,0,1,.116-.3l.173-.369a.7.7,0,0,0,.115-.361.582.582,0,0,0,.174-.312,264.012,264.012,0,0,0,.116-.7.9.9,0,0,0,.058-.409.771.771,0,0,0,.058-.353c0-.114.057-.237.057-.352V92.16c0-.115.058-.237.058-.352V90.72c0-.172-.058-.163-.058-.335v-.629c0-.173.058-.181.058-.353v-.687c0-.172-.058-.164-.058-.335s.058-.181.058-.352V85.967c0-.172-.058-.163-.058-.335s.058-.18.058-.352v-.344c0-.172-.058-.163-.058-.335s.058-.18.058-.352-.058-.163-.058-.335.058-.18.058-.352-.058-.163-.058-.335.058-.181.058-.352-.058-.164-.058-.335.058-.181.058-.352V80.469c0-.172-.058-.164-.058-.335s.058-.181.058-.352V76.345c0-.172-.058-.163-.058-.335s.058-.181.058-.352v-.687c0-.172-.058-.164-.058-.335v-.688c0-.172.058-.181.058-.352v-.344c0-.172-.058-.164-.058-.335v-.344c0-.171.058-.18.058-.352v-.63c0-.172-.058-.164-.058-.335s.058-.181.058-.353-.058-.163-.058-.335v-.343c0-.173.058-.181.058-.353s-.058-.163-.058-.335.058-.181.058-.352-.058-.164-.058-.335v-.344c0-.171.058-.18.058-.352s-.058-.163-.058-.335.058-.18.058-.352-.058-.163-.058-.335c0-.114.058-.237.058-.409,0-.114-.058-.22-.058-.335s.058-.238.058-.353c-.058-.105-.058-.22-.115-.326,0-.114.057-.237,0-.344a.666.666,0,0,0-.058-.335v-.4a.672.672,0,0,1-.058-.335.712.712,0,0,1-.116-.327c-.058-.105-.058-.22-.115-.326a1.02,1.02,0,0,1-.174-.261c-.058-.106-.058-.221-.173-.319-.058-.049-.058-.164-.058-.278-.058-.048,0-.171.058-.295a.317.317,0,0,1,.173-.2,1.151,1.151,0,0,1,.289-.157l.347-.051.347-.051.347-.052.347-.051.347-.051.347-.051.347-.051.347-.051.347-.051.347-.051.347-.051.347-.051.347-.051.347-.051.347-.051.347-.051.347-.051.347-.051c.116-.017.231.023.347.006s.231-.092.347-.108l.347-.051.347-.051.347-.051.347-.051.347-.051.347-.052.347-.051.347-.051.347-.051.347-.051.347-.051.347-.051.347-.051.347-.051c.115-.017.231.023.347.006s.231-.091.347-.108l.347-.051.347-.051.347-.051a.811.811,0,0,1,.347-.108l.347-.051a.722.722,0,0,1,.289-.157.812.812,0,0,0,.347-.108c.116-.017.232-.091.348-.051a.745.745,0,0,1,.347.063.367.367,0,0,1,.232.2,1.024,1.024,0,0,1,.173.261c0,.115.058.22.058.335.057.106.057.22.115.327,0,.114.058.221.058.335s.058.221.058.335a248.3,248.3,0,0,0,.116.67c.057.106.057.221.115.327a.672.672,0,0,0,.058.335,2.221,2.221,0,0,1,.058.277.713.713,0,0,1,.116.327.7.7,0,0,0,.115.327,334.289,334.289,0,0,1,.116.67.673.673,0,0,0,.058.335.706.706,0,0,0,.116.326.674.674,0,0,0,.058.336v.286c-.058.066-.115.189-.174.255a.8.8,0,0,1-.347.108.88.88,0,0,1-.288-.072,1.049,1.049,0,0,0-.29-.129.753.753,0,0,1-.347-.064c-.057-.049-.174-.032-.289-.072-.115.017-.231-.023-.347-.007a.748.748,0,0,0-.347-.063.705.705,0,0,0-.347-.006,2.353,2.353,0,0,0-.289-.015c-.116.017-.231-.023-.347-.006l-.347.051-.347.051-.348.051c-.115.017-.231-.023-.347-.007s-.231.092-.347.109c-.173.026-.173-.032-.347-.007s-.174.083-.347.109l-.347.051c-.174.026-.174-.032-.347-.006s-.174.082-.347.108l-.347.051-.348.051-.347.051c-.174.025-.174-.032-.347-.006s-.173.082-.347.108-.174-.031-.347-.006-.173.082-.347.108a.815.815,0,0,0-.347.109c-.115.017-.174.14-.289.214a1.481,1.481,0,0,0-.174.312.461.461,0,0,0-.058.295v2.348c0,.172-.058.18-.058.352s.058.163.058.335v2.348c0,.172-.058.18-.058.352s.058.164.058.335c0,.114,0,.229.058.278a1.022,1.022,0,0,0,.174.261c.115.041.174.146.289.129a.747.747,0,0,0,.347.064l.347-.051.405-.059.4-.06.347-.051.4-.06.347-.051.347-.051c.116-.017.231-.091.347-.108l.347-.051a.815.815,0,0,1,.347-.108,1.249,1.249,0,0,1,.405-.117.808.808,0,0,1,.347-.108c.116-.074.232-.091.347-.165a.6.6,0,0,0,.289-.214.954.954,0,0,0,.348-.166,1.185,1.185,0,0,0,.347-.222.521.521,0,0,1,.289-.157.845.845,0,0,1,.289.072c.058.049.174.089.232.138a.668.668,0,0,1,.058.335v6.071a.5.5,0,0,1-.116.3c-.058.123-.058.237-.174.255a1.186,1.186,0,0,1-.289.157.755.755,0,0,1-.347-.064,1.062,1.062,0,0,0-.289-.13c-.116-.04-.174-.089-.29-.129s-.231-.023-.347-.063a.749.749,0,0,1-.347-.064.711.711,0,0,1-.347-.006,1.105,1.105,0,0,1-.405,0c-.115.017-.231-.023-.347-.006l-.347.051-.347.051a.713.713,0,0,1-.347-.007c-.115.017-.231.091-.347.108s-.289-.015-.4,0l-.347.051-.4.06-.405.059-.347.051a.814.814,0,0,0-.347.108c-.115.074-.174.2-.289.271a1.486,1.486,0,0,0-.174.312.46.46,0,0,0-.058.295c0,.172-.058.18-.058.352s.058.164.058.335v1.031c0,.229-.058.237-.058.409s.058.163.058.335v.343c0,.172-.058.18-.058.352s.058.164.058.335v1.031c0,.172-.058.18-.058.352s.058.164.058.335v1.718c0,.172-.058.18-.058.352s.058.164.058.392v.344c0,.172-.058.18-.058.352a.374.374,0,0,0,.116.27,1.022,1.022,0,0,0,.174.261c.115.041.174.146.289.186.115-.017.231.023.347.007l.347-.051.347-.051c.174-.026.174-.083.347-.108.116-.018.116.04.29.014l.347-.051c.174-.025.174-.082.347-.108l.347-.051c.174-.025.174.032.347.006l.347-.051.347-.051c.174-.025.174-.083.347-.108l.347-.051.347-.051.347-.051c.115-.017.231.023.347.007a.814.814,0,0,1,.347-.108c.115-.017.231-.091.347-.108l.347-.051a.81.81,0,0,1,.347-.108,2.779,2.779,0,0,1,.289-.1c.116-.074.232-.091.347-.166a.8.8,0,0,0,.347-.108c.116-.075.232-.092.347-.165.116-.017.174-.14.289-.215.115-.017.173-.082.289-.156a1.143,1.143,0,0,1,.289-.157.748.748,0,0,1,.347.063c.058-.008.116.1.116.213.058.048.058.163.058.22-.058.123-.058.238-.116.361,0,.114-.058.237-.058.351-.058.123-.058.237-.116.36a.77.77,0,0,1-.058.352c0,.114-.057.237-.057.352a.767.767,0,0,0-.058.352,834.162,834.162,0,0,1-.115.7c-.058.123-.058.237-.116.36,0,.114-.057.237-.057.352s-.058.181-.058.3a.922.922,0,0,0-.116.36.773.773,0,0,0-.058.352c-.058.124-.058.238-.115.361,0,.115-.058.237-.058.352s-.058.237-.058.352c-.058.123-.058.237-.115.36a1.574,1.574,0,0,1-.289.272.726.726,0,0,1-.347.165c-.116.017-.231-.023-.347-.007a.5.5,0,0,0-.289-.015.713.713,0,0,0-.347-.006c-.115.017-.231-.023-.347-.007l-.347.051c-.115.017-.231-.023-.347-.006l-.347.051-.347.051-.347.051-.347.051-.348.051a.828.828,0,0,0-.347.108c-.116.017-.174-.031-.289-.015l-.347.051c-.116.017-.232.092-.347.108s-.231-.023-.347-.007l-.347.051-.347.051-.347.051-.347.052-.347.051-.347.051-.347.051-.347.051-.289.042-.347.051-.347.051-.347.051-.347.051-.347.051-.347.051-.347.051L167,95.93l-.347.051-.347.052-.289.042-.347.051-.347.051-.347.051-.347.051-.347.051-.347.051-.4.06-.405.06a.606.606,0,0,1-.289-.015" transform="translate(-85.039 -31.213)" fill="#fff"/><path d="M207.859,61.2v-.687c0-.115-.057-.221-.057-.335a.667.667,0,0,0-.058-.335V59.5c0-.172-.058-.278-.058-.392s-.058-.221-.058-.335a.71.71,0,0,1-.116-.327c-.057-.106-.057-.221-.115-.327,0-.114-.115-.155-.174-.261s-.058-.22-.174-.261c-.058-.106-.058-.22-.115-.327a1.12,1.12,0,0,1,.115-.3.557.557,0,0,1,.232-.263.492.492,0,0,1,.289-.1l.347-.051.347-.051.347-.051.347-.051.347-.051.347-.051.348-.051.347-.051.347-.051.347-.051c.116-.017.232-.091.347-.108s.231.023.347.006l.347-.051.347-.051.347-.051.347-.051.347-.051.29-.042.4-.06c.115-.017.173-.082.347-.108.057-.009.231.023.347.006l.289-.042.347-.051.347-.051.347-.051.289-.042a1.4,1.4,0,0,0,.347-.108c.116-.017.232.023.347.006l.347-.051.347-.051c.116-.017.231.023.347.007l.347-.051c.116-.017.231.023.347.006a.713.713,0,0,0,.347.007.744.744,0,0,1,.347.064,127.449,127.449,0,0,1,.694.012c.115-.017.174.032.289.015a.753.753,0,0,0,.347.064.711.711,0,0,0,.347.006,1.081,1.081,0,0,1,.289.129.747.747,0,0,0,.347.064l.347.121c.058.049.173.032.289.072s.174.146.289.187.231.023.289.072a.469.469,0,0,1,.289.187,1.075,1.075,0,0,1,.289.129.469.469,0,0,1,.289.187.822.822,0,0,1,.289.186c.058.049.173.089.231.138.115.1.174.2.231.252.059.106.174.146.232.252l.231.2c.058.106.174.146.231.252a1.008,1.008,0,0,1,.174.261c.058.106.116.155.173.261l.174.318c.058.049.058.163.116.269l.173.318c0,.057.115.155.174.261a.675.675,0,0,0,.057.335c.058.106.116.155.116.269a.717.717,0,0,1,.116.327c.058.106,0,.229.058.335a.713.713,0,0,0,.115.327v.343c.058.106,0,.229.058.336,0,.114.057.22.057.335v1.031c0,.114.058.221.058.335s-.058.237-.058.352v.344a.779.779,0,0,0-.057.351c0,.114-.058.238-.058.352a.775.775,0,0,0-.058.352c0,.114-.058.237-.058.352a1.131,1.131,0,0,0-.116.3c-.057.124-.057.238-.115.361a.928.928,0,0,1-.115.36c0,.115-.058.237-.058.352l-.173.369a1.133,1.133,0,0,1-.115.3,1.572,1.572,0,0,1-.174.312l-.173.369c-.058.123-.116.188-.174.311s-.116.188-.174.311c-.058.066-.116.189-.231.32-.058.123-.058.237-.174.312-.058.123-.115.189-.173.312s-.174.2-.232.32l-.231.262a1.255,1.255,0,0,0-.231.32,1.082,1.082,0,0,1-.232.263.7.7,0,0,1-.231.32,1.062,1.062,0,0,1-.231.263,2.076,2.076,0,0,1-.52.592,1.1,1.1,0,0,1-.232.263c-.058.123-.173.2-.231.32a1.258,1.258,0,0,0-.289.272,1.574,1.574,0,0,1-.289.214l-.231.263c-.116.074-.174.2-.289.271a1.065,1.065,0,0,0-.231.263,1.542,1.542,0,0,0-.289.214l-.289.329a1.536,1.536,0,0,1-.288.214l-.232.263a.713.713,0,0,0-.289.271,1.522,1.522,0,0,0-.289.214c-.116.074-.174.2-.289.271s-.174.14-.289.215a469.749,469.749,0,0,1-.578.543c-.058.066-.173.083-.288.157a1.268,1.268,0,0,1-.289.271,1.064,1.064,0,0,0-.231.263.715.715,0,0,0-.289.272,1.516,1.516,0,0,0-.289.214,1.536,1.536,0,0,0-.289.214c-.116.074-.173.2-.289.272a1.553,1.553,0,0,0-.289.214c-.115.074-.173.2-.288.271-.059.123-.174.14-.29.272-.115.074-.174.14-.289.215s-.174.2-.289.271c-.058.123-.174.2-.231.32a.549.549,0,0,0-.115.361v2.806c0,.172.057.163.057.335s-.057.181-.057.352V86c.057.106,0,.229.057.335a.667.667,0,0,0,.058.335v.344a1.047,1.047,0,0,1,.058.392.713.713,0,0,0,.115.327c0,.114.058.22.058.335.057.106.115.155.115.269l.174.319a1.024,1.024,0,0,0,.174.261.88.88,0,0,1,0,.63c0,.114-.115.188-.231.263a2.918,2.918,0,0,1-.289.1l-.347.051c-.116.017-.232-.023-.347-.007s-.231.149-.347.166-.232-.024-.347-.007l-.347.051-.347.051-.29.042-.347.051-.347.051-.347.051-.347.051-.347.051-.347.051c-.115.018-.231-.023-.347-.006s-.232.091-.348.108l-.347.051-.347.051-.347.051-.347.051-.347.051-.347.051a2.373,2.373,0,0,1-.289-.015.364.364,0,0,1-.232-.2.571.571,0,0,1-.058-.278.773.773,0,0,1,.058-.352,1.536,1.536,0,0,0,.232-.32.693.693,0,0,0,.115-.3.912.912,0,0,0,.115-.36.768.768,0,0,0,.058-.352.915.915,0,0,0,.115-.36c0-.115.058-.237.058-.352a1.022,1.022,0,0,0,.058-.41.777.777,0,0,1,.057-.352V84.858c0-.172.058-.18.058-.352s-.058-.163-.058-.335V81.479c0-.172.058-.18.058-.352s-.058-.163-.058-.335.058-.18.058-.352V80.1c0-.172-.058-.164-.058-.335V76.324c0-.172.058-.18.058-.352s-.058-.164-.058-.335V72.2c0-.172.058-.18.058-.352s-.058-.163-.058-.335v-5.5c0-.172.058-.18.058-.352s-.058-.164-.058-.278c0-.172.058-.18.058-.352s-.058-.163-.058-.335V61.2Zm8.155-.337a2.355,2.355,0,0,1-.288-.015,1.394,1.394,0,0,0-.347.108,2.792,2.792,0,0,0-.289.1.712.712,0,0,0-.289.272.556.556,0,0,0-.231.263c0,.115-.057.237-.057.352v6.127c0,.172.057.164.057.335s-.057.181-.057.353v2.405c0,.114.057.106.057.278a.676.676,0,0,0-.057.3v.343a.322.322,0,0,0,.231.31.449.449,0,0,0,.52-.076,1.563,1.563,0,0,1,.289-.215,1.06,1.06,0,0,0,.231-.263c.116-.075.174-.14.289-.214a1.6,1.6,0,0,0,.289-.215c.115-.074.174-.2.289-.272a1.079,1.079,0,0,0,.231-.263,1.526,1.526,0,0,0,.289-.214c.116-.074.174-.2.289-.272.058-.066.174-.14.289-.271.058-.066.173-.14.231-.206a1.261,1.261,0,0,1,.288-.272l.232-.262a1.262,1.262,0,0,0,.231-.32,1.092,1.092,0,0,0,.231-.263l.232-.263c.115-.132.173-.255.231-.32.057-.123.174-.2.231-.32a1.475,1.475,0,0,0,.173-.311,295.72,295.72,0,0,0,.347-.624c.059-.123.174-.2.174-.312l.173-.369a2.663,2.663,0,0,0,.058-.295c.058-.123.058-.238.115-.361,0-.114.058-.237.058-.352a.763.763,0,0,0,.058-.351.773.773,0,0,0,.058-.352c0-.114.058-.238.058-.352a.666.666,0,0,0-.058-.335v-.343a.713.713,0,0,1-.116-.327c-.058-.049-.058-.164-.058-.278a.707.707,0,0,1-.115-.326l-.174-.318c-.058-.05-.058-.164-.115-.27s-.174-.146-.232-.252-.173-.146-.231-.2a.806.806,0,0,1-.231-.253l-.347-.12a1.052,1.052,0,0,0-.289-.13,1.07,1.07,0,0,0-.289-.129.544.544,0,0,0-.289-.072.747.747,0,0,0-.347-.063.733.733,0,0,0-.347-.063c-.116-.041-.231.034-.347-.007-.115.017-.231-.023-.347-.007l-.347.051c-.115-.04-.231.034-.347.051Z" transform="translate(-108.258 -28.799)" fill="#fff"/><path d="M286.967,55.35c0-.171-.058-.164-.058-.335s.058-.181.058-.352-.058-.164-.058-.335.058-.18.058-.352v-.286c0-.172-.058-.163-.058-.336V53.01c0-.172.058-.18.058-.352v-.343c0-.172-.058-.163-.058-.334a.471.471,0,0,0-.058-.278c0-.058-.058-.106-.174-.147-.058-.049-.174-.031-.231-.081-.116.017-.174.083-.289.1-.174.083-.174.026-.347.109a1.807,1.807,0,0,1-.288.157,1.785,1.785,0,0,1-.289.157,1.836,1.836,0,0,0-.289.157l-.348.051c-.173.083-.115.132-.288.215a1.4,1.4,0,0,1-.463.125l-.347-.121c-.116-.1-.232-.138-.347-.235a.9.9,0,0,1-.058-.392V50.478c0-.172.058-.18.058-.352s-.058-.164-.058-.278.058-.237.058-.352c.057-.066.057-.18.173-.312a1.016,1.016,0,0,1,.231-.206.49.49,0,0,1,.289-.1.82.82,0,0,1,.347-.108c.115-.017.231-.091.347-.108a.719.719,0,0,1,.289-.157c.116-.074.232-.092.347-.165a.97.97,0,0,0,.347-.165.517.517,0,0,1,.288-.157c.116-.074.232-.091.29-.157a1.574,1.574,0,0,0,.288-.214l.347-.223c.116-.074.174-.141.289-.215s.174-.14.29-.214.173-.14.288-.215l.231-.263a1.261,1.261,0,0,0,.289-.272,1.542,1.542,0,0,1,.289-.214l.231-.263a1.257,1.257,0,0,1,.289-.271,1.469,1.469,0,0,1,.174-.312.714.714,0,0,1,.289-.272c.115-.017.231-.091.4-.116l.289-.042.347-.051.348-.051.289-.042.347-.051.347-.051.29-.042.347-.051.347-.051a2.471,2.471,0,0,1,.289.015,1.046,1.046,0,0,1,.289.13.805.805,0,0,1,.231.252c0,.114.058.221.058.335,0,.172-.058.18-.058.352s.058.164.058.335v.688c0,.172-.058.18-.058.352s.058.164.058.335v.687c0,.172-.058.181-.058.352s.058.164.058.335v1.375c0,.172-.058.18-.058.352s.058.164.058.335v.687c0,.172-.058.18-.058.352s.058.164.058.335v1.375c0,.172-.058.18-.058.352v.343c0,.172.058.164.058.335v.687c0,.172-.058.18-.058.352s.058.164.058.335V56.78c0,.172-.058.18-.058.352v.344c0,.172.058.164.058.335v1.718c0,.172-.058.18-.058.352v.687c0,.172.058.164.058.336v.343c0,.172-.058.18-.058.352s.058.164.058.336-.058.18-.058.351v.687c0,.172.058.164.058.335s-.058.18-.058.352V64c0,.172.058.164.058.336s-.058.18-.058.352.058.164.058.335-.058.18-.058.352.058.164.058.278V66c0,.172-.058.18-.058.352s.058.164.058.335-.058.18-.058.352.058.163.058.335v.343c0,.172-.058.18-.058.352v1.718c0,.172.058.164.058.335s-.058.18-.058.352v.343c0,.172.058.164.058.336V73.56c0,.172-.058.295-.058.409s.058.221.058.335v.687c0,.115.058.221.058.336v.4c0,.115.116.212.116.327s.058.221.058.335c.057.106.057.221.115.327,0,.114.058.22.058.335.058.106.115.155.174.261a1.025,1.025,0,0,0,.231.252c.058.106,0,.229,0,.344.058.049,0,.172-.058.295l-.174.2a.731.731,0,0,1-.289.157l-.347.051-.347.051-.347.051-.347.051-.347.051-.347.051-.347.051c-.115.017-.231.091-.347.108s-.231-.023-.347-.006l-.348.051-.347.051-.347.051-.347.051-.347.051-.347.052-.347.051-.347.051-.347.051-.347.051-.347.051-.348.051a.5.5,0,0,1-.289-.014c-.058-.049-.174-.09-.231-.2a.568.568,0,0,1-.058-.278.928.928,0,0,1,.115-.361,1.5,1.5,0,0,0,.174-.311c.058-.124.116-.189.173-.312s.058-.237.116-.361a.92.92,0,0,1,.116-.36c0-.115.058-.237.058-.352s.058-.238.058-.352.058-.237.058-.409c0-.115-.058-.221-.058-.336a.771.771,0,0,0,.058-.352v-.687c0-.114.058-.238.058-.41v-.687c0-.172-.058-.164-.058-.335V73.17c0-.172.058-.181.058-.352v-.344c0-.172-.058-.164-.058-.335s.058-.181.058-.352V68.751c0-.172-.058-.164-.058-.335s.058-.181.058-.352-.058-.164-.058-.335.058-.181.058-.352v-.344c0-.172-.058-.164-.058-.335v-.344c0-.171.058-.18.058-.352s-.058-.163-.058-.335.058-.18.058-.352V62.222c0-.172-.058-.164-.058-.335s.058-.181.058-.352-.058-.164-.058-.335.058-.181.058-.353V60.5c0-.172-.058-.164-.058-.335s.058-.18.058-.352v-.344c0-.171-.058-.162-.058-.335V58.8c0-.172.058-.181.058-.353V58.1c0-.173-.058-.164-.058-.336V57.42c0-.172.058-.18.058-.352V56.037c-.058-.162,0-.172,0-.343Z" transform="translate(-148.101 -23.207)" fill="#fff"/><path d="M361.727,24.707l-16.74,2.837.069.363,16.939-1.791Z" transform="translate(-180.481 -12.926)" fill="#122347"/><path d="M381.2,47.806l-16.74,2.837.069.363,16.939-1.791Z" transform="translate(-190.667 -25.01)" fill="#122347"/><path d="M400.478,77.771l-16.74,2.837.069.363,16.939-1.791Z" transform="translate(-200.754 -40.686)" fill="#122347"/><path d="M387.739,102.9l-12.756,2.381.062.363,12.936-1.333Z" transform="translate(-196.174 -53.835)" fill="#122347"/><path d="M372.8,121.368l-12.756,2.381.062.363,12.936-1.333Z" transform="translate(-188.361 -63.494)" fill="#122347"/><path d="M354.922,10.614,342.166,13l.062.363,12.936-1.333Z" transform="translate(-179.006 -5.553)" fill="#122347"/></g></svg>