<svg xmlns="http://www.w3.org/2000/svg" xmlns:xlink="http://www.w3.org/1999/xlink" width="200" height="98.001" viewBox="0 0 200 98.001"><defs><clipPath id="a"><rect width="200" height="98.001" fill="none"/></clipPath></defs><g clip-path="url(#a)"><path d="M197.868,48.813l-25.305,29.31a6.336,6.336,0,0,1-4.037,2.315L7.816,101.7c-3.9.513-7.327-2.95-7.248-7.444L.507,88.321.493,86.977.465,84.139.451,82.814.409,78.585l-.014-1.33-.051-5.26L.329,70.632l-.3-30.094a6.259,6.259,0,0,1,.009-.784v-.089a6.994,6.994,0,0,1,5.568-6.721L168,7.1a6.12,6.12,0,0,1,5.582,2.147l24.68,25.931.093.1a5.388,5.388,0,0,1,.887,1.475l.014.042A11.456,11.456,0,0,1,200,40.758v.023c.079,3.029-.709,6.31-2.133,8.032" transform="translate(-0.012 -3.747)" fill="#53221b"/><path d="M200,36.474a8.342,8.342,0,0,1-.1,1.442,8.018,8.018,0,0,1-1.718,3.874L172.855,71.1a6.347,6.347,0,0,1-4.047,2.306L75.082,85.783,7.925,94.66C4.014,95.183.593,91.72.537,87.22L.29,62.741.276,61.383.229,56.711.215,55.362.169,50.606.159,49.253.113,44.81.1,43.47.043,37.93l-.01-1.363L0,33.506C-.027,29.7,2.414,26.44,5.713,25.917L80.892,13.96,168.285.075a6.105,6.105,0,0,1,5.592,2.138l1.876,2.25,1.055,1.265,4.536,5.433,1.059,1.274,8.154,9.773,1.017,1.223,6.487,7.771A8.163,8.163,0,0,1,200,36.474" transform="translate(0 0)" fill="#a43d2e"/><path d="M10.088,94.58a4.09,4.09,0,0,1-3.807-4.258L5.742,36.607a4.19,4.19,0,0,1,3.284-4.314L171.591,6.449a3.534,3.534,0,0,1,3.254,1.24l24.2,29a4.762,4.762,0,0,1,.061,5.952L173.765,71.963a3.672,3.672,0,0,1-2.336,1.328L10.545,94.548a3.734,3.734,0,0,1-.457.031M172.126,7.618a2.221,2.221,0,0,0-.346.028L9.217,33.49a2.977,2.977,0,0,0-2.262,3.1l.539,53.715a2.812,2.812,0,0,0,2.894,3.039L171.27,72.089a2.472,2.472,0,0,0,1.569-.907l25.342-29.32a3.506,3.506,0,0,0-.058-4.382l-24.2-29a2.391,2.391,0,0,0-1.8-.857" transform="translate(-3.062 -3.415)" fill="#53221b"/><path d="M10.827,143.114.708,144.379H.694L.68,143.016H.694L10.8,142.76Z" transform="translate(-0.363 -76.131)" fill="#53221b"/><path d="M10.673,157.314.848,158.542H.834l-.014-1.33H.834l9.815-.252Z" transform="translate(-0.437 -83.704)" fill="#53221b"/><path d="M10.77,169.224l-9.8,1.223H.955l-.014-1.326H.955l9.792-.252Z" transform="translate(-0.502 -90.055)" fill="#53221b"/><path d="M10.672,131.324.6,132.585.59,131.226l10.058-.257Z" transform="translate(-0.315 -69.844)" fill="#53221b"/><path d="M10.532,118.424.475,119.675l-.014-1.349,10.048-.257Z" transform="translate(-0.246 -62.964)" fill="#53221b"/><path d="M10.417,105.334.35,106.59.34,105.236l10.053-.257Z" transform="translate(-0.181 -55.984)" fill="#53221b"/><path d="M10.194,92.944.225,94.186.211,92.846l9.96-.257Z" transform="translate(-0.112 -49.376)" fill="#53221b"/><path d="M10.492,78.094.08,79.387.07,78.024l10.4-.285Z" transform="translate(-0.038 -41.457)" fill="#53221b"/><path d="M370.433,25.184,352.66,27.069l-.07-.364,16.783-2.8Z" transform="translate(-188.03 -12.751)" fill="#53221b"/><path d="M390.257,48.863,372.61,50.735l-.07-.364,16.685-2.791,1.017,1.223Z" transform="translate(-198.669 -25.373)" fill="#53221b"/><path d="M409.2,78.15a8.333,8.333,0,0,1-.1,1.442l-16.746,1.769L392.29,81Z" transform="translate(-209.201 -41.676)" fill="#53221b"/><path d="M397.2,103.635l-13.881,2.512.064.364,14.067-1.461Z" transform="translate(-204.417 -55.267)" fill="#53221b"/><path d="M381.272,122.7l-13.251,2.44.063.364,13.434-1.389Z" transform="translate(-196.259 -65.435)" fill="#53221b"/><path d="M73.531,109.079a.689.689,0,0,1,.282-.265.572.572,0,0,1,.283-.1.38.38,0,0,1,.339.062c.057.048.114.152.227.191a1.048,1.048,0,0,0,.283.126c.056.048.17.087.283.183.056.048.17.087.226.135a1.052,1.052,0,0,1,.283.126l.34.119a.856.856,0,0,1,.282.071c.113.039.227.022.283.07l.339.119a2.436,2.436,0,0,1,.284.014.735.735,0,0,0,.339.063c.113.039.226.023.34.063l.282-.042c.114.04.227-.033.34.007.113-.017.226.022.34.006l.339-.05.34-.05.339-.049a.8.8,0,0,0,.34-.106l.283-.042c.113-.016.226-.089.34-.105.113-.073.226-.089.339-.162.113-.017.226-.089.34-.106a.706.706,0,0,1,.282-.154,1.53,1.53,0,0,0,.283-.21,1.489,1.489,0,0,0,.283-.209l.34-.218c.056-.064.169-.137.226-.2a1.232,1.232,0,0,1,.282-.266,1.057,1.057,0,0,1,.227-.257.69.69,0,0,1,.226-.314c.057-.12.114-.185.17-.306s.114-.184.17-.305.113-.184.169-.3.113-.185.17-.305c0-.112.056-.233.056-.345a1.074,1.074,0,0,0,.113-.3.747.747,0,0,0,.057-.345.758.758,0,0,0,.056-.344c0-.112.056-.232.056-.344.056-.12,0-.224,0-.336v-.337c0-.112-.056-.216-.056-.328V103.3c-.056-.1-.114-.151-.17-.255a.655.655,0,0,0-.057-.329.991.991,0,0,0-.169-.255c-.057-.1-.057-.216-.113-.32a.8.8,0,0,1-.227-.247c-.057-.048-.113-.152-.227-.191a.971.971,0,0,0-.169-.255c-.056-.1-.17-.144-.226-.247a.816.816,0,0,1-.283-.182c-.056-.048-.169-.088-.226-.191a.809.809,0,0,1-.283-.183,1.04,1.04,0,0,0-.283-.126c-.056-.048-.17-.087-.227-.191a1.062,1.062,0,0,1-.283-.126c-.113-.04-.169-.144-.283-.183a2.161,2.161,0,0,0-.566-.309,1.055,1.055,0,0,0-.284-.126l-.226-.191-.34-.118a1.023,1.023,0,0,0-.283-.126,1.007,1.007,0,0,0-.283-.126c-.057-.048-.17-.088-.283-.183-.056-.048-.169-.087-.226-.19-.113-.039-.227-.023-.283-.127a1.053,1.053,0,0,1-.283-.126c-.113-.04-.17-.144-.283-.183a1.027,1.027,0,0,0-.283-.126.99.99,0,0,1-.226-.247c-.113-.04-.17-.087-.283-.126-.056-.048-.169-.088-.282-.183-.057-.048-.113-.152-.227-.191-.056-.1-.17-.143-.226-.191-.057-.1-.17-.144-.227-.247a1.022,1.022,0,0,1-.282-.127.459.459,0,0,0-.226-.247,1.012,1.012,0,0,0-.17-.255c-.056-.1-.169-.143-.226-.247-.056-.048-.113-.151-.169-.2-.113-.1-.17-.2-.226-.246a1.011,1.011,0,0,0-.17-.256L74.719,95c-.056-.1-.113-.151-.169-.255a.366.366,0,0,1-.114-.264l-.17-.311c0-.112-.113-.152-.113-.264-.056-.1-.056-.216-.113-.32a.691.691,0,0,0-.113-.32A2.23,2.23,0,0,0,73.871,93a.683.683,0,0,1-.114-.32.658.658,0,0,1-.056-.328c0-.112-.113-.207-.113-.319v-.337c0-.112-.056-.216-.056-.328a.654.654,0,0,1-.057-.328c0-.112.057-.232,0-.337V89.357c0-.112.057-.232.057-.344a.459.459,0,0,1,.056-.289c0-.112-.056-.272,0-.336,0-.112.057-.232.057-.344.056-.12,0-.225.056-.345,0-.112.056-.232.056-.344A.9.9,0,0,0,73.871,87c.056-.064.056-.176.113-.3a.9.9,0,0,1,.113-.353c.056-.12.056-.232.113-.353.056-.064.056-.176.113-.3s.17-.193.17-.3l.17-.362a1.065,1.065,0,0,1,.226-.257c.056-.12.113-.185.17-.306s.113-.184.17-.3a1.207,1.207,0,0,0,.226-.314,1.231,1.231,0,0,0,.283-.266l.226-.258a1.069,1.069,0,0,0,.226-.258,1.489,1.489,0,0,0,.283-.21c.114-.072.17-.193.283-.266a1.039,1.039,0,0,0,.226-.258l.34-.218c.057-.064.17-.081.283-.154a1.509,1.509,0,0,0,.283-.21c.113-.073.226-.089.339-.162a1.161,1.161,0,0,1,.284-.154c.113-.072.226-.089.339-.162.113-.017.226-.145.34-.161.113-.073.226-.033.339-.106a.932.932,0,0,0,.34-.161.694.694,0,0,0,.283-.1l.34-.05a.8.8,0,0,1,.34-.105l.339-.05c.113-.017.226-.089.34-.105l.339-.05.34-.049c.113-.016.226-.09.339-.106a.7.7,0,0,0,.34.006c.113-.016.226.023.339.007l.283-.042.34-.05a.733.733,0,0,1,.34.063l.339-.049c.113-.017.226.022.34.006a.6.6,0,0,0,.282.015c.113-.017.227.022.34.006s.227.023.34.007.227.023.34.006a.7.7,0,0,1,.339.006c.113-.016.227-.089.34-.049l.282-.042.34-.05c.113-.017.226-.09.34-.106.113-.072.226-.089.282-.154.113-.072.226-.09.283-.154.114-.016.227-.034.283.014.113.039.226.023.283.126.056.048,0,.168,0,.28a.658.658,0,0,1,.056.328v.337a.654.654,0,0,1,.057.328.659.659,0,0,0,.056.328v.673c0,.168.057.16.057.328a.664.664,0,0,0,.056.328V83.4c0,.168.057.16.057.328s-.057.177-.057.345a.652.652,0,0,1,.057.328c0,.168.057.16.057.328a.466.466,0,0,0,.056.272v.673a.654.654,0,0,1-.056.345,1.048,1.048,0,0,1-.227.257.788.788,0,0,1-.34.106c-.113.017-.226.033-.282-.07-.114-.04-.17-.144-.227-.192-.113-.1-.226-.135-.283-.182-.113-.04-.169-.144-.283-.183a1.034,1.034,0,0,1-.283-.126,1.047,1.047,0,0,1-.284-.127l-.339-.119c-.056-.048-.169-.031-.283-.07a1.019,1.019,0,0,1-.283-.127c-.113-.039-.226-.022-.34-.062s-.226-.023-.339-.063A.726.726,0,0,1,85.19,85c-.113.017-.17-.031-.283-.014s-.226-.023-.34-.006a.69.69,0,0,0-.339-.007.724.724,0,0,0-.34-.062l-.339.05-.34.05a.8.8,0,0,0-.339.105l-.34.05c-.113.073-.226.089-.339.162a.792.792,0,0,0-.34.106c-.113.073-.169.137-.282.21s-.227.089-.284.21a1.164,1.164,0,0,0-.339.218,1.068,1.068,0,0,0-.226.258c-.056.064-.113.184-.226.314a1.465,1.465,0,0,0-.169.3c-.057.121-.057.176-.113.3a.889.889,0,0,0-.114.353.906.906,0,0,0-.113.352v.337c0,.112-.056.233-.056.345v.337c0,.112-.056.232-.056.344a.7.7,0,0,1,.113.32c0,.112,0,.224.057.272a.689.689,0,0,0,.113.32c.057.1.057.216.113.32s.113.152.17.256a1.025,1.025,0,0,0,.169.255.791.791,0,0,0,.227.246c.057.048.113.152.226.191.056.1.113.152.17.256a.457.457,0,0,1,.226.247.8.8,0,0,1,.283.183c.056.048.17.087.226.135a.794.794,0,0,1,.227.247,1.022,1.022,0,0,1,.282.127.813.813,0,0,0,.284.182,1.043,1.043,0,0,0,.282.127c.113.039.17.143.226.191.113.1.227.135.283.183a1.037,1.037,0,0,1,.283.126.808.808,0,0,0,.283.182c.057.048.226.079.283.126.113.04.169.144.283.183a1.048,1.048,0,0,0,.283.126c.056.1.169.087.283.126.057.1.17.143.226.191a.807.807,0,0,0,.283.183,1.017,1.017,0,0,0,.284.182c.056.048.169.087.226.191a1.036,1.036,0,0,1,.283.127c.113.039.17.143.283.183l.226.191a.8.8,0,0,1,.283.182c.057.048.17.087.227.191.113.039.169.143.283.182a1,1,0,0,1,.17.255.461.461,0,0,1,.283.183l.226.191a.807.807,0,0,0,.226.247,1,1,0,0,1,.17.255l.227.19a.971.971,0,0,0,.17.255.983.983,0,0,0,.169.255c.056.1.17.143.226.247a1.024,1.024,0,0,0,.17.255c.056.1.056.216.113.32a.991.991,0,0,0,.169.255l.17.311a.8.8,0,0,0,.113.264c.056.1.056.216.113.319s.056.216.113.264a.685.685,0,0,0,.113.319v.337c.056.1.056.216.113.32,0,.112.057.216.057.328a.654.654,0,0,0,.057.328v.337a.655.655,0,0,1,.056.328c.056.1,0,.224.056.328,0,.112-.056.232-.056.344s.056.216.056.328-.056.232-.056.345v1.009a.759.759,0,0,0-.056.345.451.451,0,0,0-.057.288c0,.112-.057.232-.057.344a.9.9,0,0,0-.113.353c-.057.12-.057.232-.113.353a.75.75,0,0,1-.057.344c0,.112-.113.185-.113.3a.9.9,0,0,0-.113.353c-.056.12-.056.232-.113.353a1.479,1.479,0,0,0-.169.3c-.057.121-.057.233-.113.3l-.17.361a1.487,1.487,0,0,0-.17.306,1.444,1.444,0,0,0-.17.3c-.056.121-.169.193-.226.314s-.113.185-.17.305a1.05,1.05,0,0,1-.227.258,1.462,1.462,0,0,1-.169.305,1.243,1.243,0,0,1-.283.266c-.057.12-.17.193-.227.313l-.226.257a1.066,1.066,0,0,0-.227.258c-.113.128-.226.145-.283.265-.113.073-.17.193-.283.266a1.562,1.562,0,0,1-.283.21,1.508,1.508,0,0,1-.283.21,3.261,3.261,0,0,1-.566.476c-.113.072-.227.089-.284.154l-.339.218c-.113.073-.17.137-.283.21a.79.79,0,0,0-.339.105c-.113.073-.169.137-.283.21a.944.944,0,0,0-.339.162.791.791,0,0,0-.34.106.933.933,0,0,0-.34.161l-.34.05c-.113.017-.169.081-.283.154l-.4.058a2.855,2.855,0,0,1-.282.1l-.34.049-.339.05-.34.049c-.113.016-.226.09-.339.106a244.256,244.256,0,0,1-.68-.013l-.339.05-.34.049c-.113.017-.226-.023-.339-.006-.113-.04-.226.033-.34.049a.736.736,0,0,0-.339-.063l-.34.05c-.113.016-.226-.023-.339-.007a.7.7,0,0,1-.34-.006l-.339.05-.34.049-.339.05-.34.05c-.113.016-.226.089-.34.106-.113.072-.226.033-.339.105-.113.017-.226.09-.34.106a.8.8,0,0,1-.34.105.494.494,0,0,1-.283-.014.267.267,0,0,1-.283-.126.367.367,0,0,1-.113-.264v-.673c0-.168-.056-.16-.056-.328-.057-.16,0-.168,0-.337a.653.653,0,0,1-.057-.328c0-.168-.056-.16-.056-.328a.648.648,0,0,0-.057-.328c0-.168.057-.176,0-.336v-.337a.659.659,0,0,1-.056-.328c0-.168-.056-.16-.056-.328v-.337c-.056-.16,0-.168-.056-.328v-.337c-.057-.16,0-.168-.057-.328v-.336l-.113-.319v-.337a.454.454,0,0,1,.057-.289" transform="translate(-39.182 -42.473)" fill="#53221b"/><path d="M129.438,73.137l.34-.05.339-.05.34-.049a.373.373,0,0,0,.339-.05l.34-.049a.477.477,0,0,0,.283-.1l.34-.05c.113-.017.226.023.339-.05.113-.016.227-.089.34-.106a207.148,207.148,0,0,0,.68-.212c.113-.016.226-.089.339-.049.114-.016.227-.033.283.07a.462.462,0,0,1,.283.183.986.986,0,0,1,.17.255,243.681,243.681,0,0,1,.113.656c0,.112.056.216.056.328.056.1.056.216.113.32a.664.664,0,0,0,.056.328c0,.112.057.216.057.328s.056.216.056.328c.056.1.056.216.113.264,0,.112.057.216.057.328a.688.688,0,0,1,.113.319c0,.112.057.216.057.328.056.1,0,.224.056.328a.652.652,0,0,0,.057.328.7.7,0,0,0,.113.32.658.658,0,0,0,.056.328c0,.112.057.216.057.328.056.048,0,.168,0,.28-.057.064-.057.176-.17.249a.477.477,0,0,1-.283.1.383.383,0,0,1-.283-.071,1.02,1.02,0,0,1-.283-.126.727.727,0,0,0-.34-.062.87.87,0,0,0-.283-.071c-.113-.04-.227-.023-.34-.063-.113.017-.226-.022-.34-.006-.113-.04-.227.033-.34-.007-.113.017-.226-.023-.339-.006s-.227-.023-.34-.006l-.34.049-.339.05-.34.05-.339.049a2.428,2.428,0,0,0-.283-.014l-.4.058c-.17.025-.17.081-.34.106l-.34.049c-.113.017-.227-.023-.34.05a.693.693,0,0,0-.283.265,1.539,1.539,0,0,0-.17.305.55.55,0,0,0-.056.289v.336c0,.168-.057.176-.057.344s.057.16.057.328v2.018c0,.168-.057.177-.057.345s.057.16.057.328V85.9c0,.168-.057.176-.057.344s.057.16.057.328v.337c0,.168-.057.176-.057.344s.057.16.057.328-.057.177-.057.345v.336c0,.169.057.16.057.328v1.682c0,.168-.057.177-.057.345s.057.16.057.328v1.346c0,.168-.057.176-.057.344v.336c0,.168.057.16.057.328v1.681c0,.168-.057.177-.057.345V96c0,.168.057.16.057.328s-.057.177-.057.345.057.16.057.328-.057.177-.057.345.057.16.057.328v.336c0,.168-.057.176-.057.344s.057.16.057.329v4.708a.665.665,0,0,1,.056.329c0,.112.057.272.057.384a1401.163,1401.163,0,0,0,.113.656,931.616,931.616,0,0,1,.226.639c.056.1.056.216.113.264a.454.454,0,0,0,.226.247.865.865,0,0,1,0,.616.54.54,0,0,1-.226.258.48.48,0,0,1-.283.1l-.34.049-.339.05-.34.049-.339.05-.34.049-.339.05-.34.049-.339.05-.34.05-.34.05-.339.05-.34.049-.339.05-.34.05-.339.05-.34.049-.339.05-.34.05-.339.049-.34.05-.339.049a.842.842,0,0,1-.283-.07c-.056.008-.113-.1-.17-.143a.819.819,0,0,1-.113-.264.5.5,0,0,1,.113-.3l.17-.361c.056-.12.113-.185.169-.305s.057-.233.114-.353a.9.9,0,0,1,.113-.352v-.336a.9.9,0,0,0,.113-.353c0-.112.057-.232.057-.4v-.337a.756.756,0,0,0,.056-.344V99.97c0-.168-.056-.16-.056-.328s.056-.176.056-.344V97.952c0-.168-.056-.16-.056-.328s.056-.176.056-.344v-.337c0-.168-.056-.16-.056-.328s.056-.176.056-.345V95.262c0-.168-.056-.16-.056-.328V94.6c0-.168.056-.176.056-.344v-.337c0-.168-.056-.16-.056-.328s.056-.176.056-.344-.056-.16-.056-.328.056-.176.056-.344V91.9c0-.168-.056-.16-.056-.328s.056-.176.056-.344V89.544c0-.168-.056-.16-.056-.328s.056-.176.056-.344V88.2c0-.168-.056-.159-.056-.328s.056-.176.056-.344-.056-.16-.056-.328.056-.176.056-.344v-.337c0-.168-.056-.16-.056-.328v-.337c0-.168.056-.176.056-.344V82.818c0-.168-.056-.16-.056-.328s.056-.176.056-.344V81.136c0-.168-.056-.16-.056-.328s.056-.176.056-.345a2.215,2.215,0,0,0-.056-.272.455.455,0,0,0-.226-.247.267.267,0,0,0-.283-.127c-.056-.048-.169-.031-.282-.014-.17.025-.17-.031-.4,0l-.339.05c-.17.025-.17.081-.34.105-.113.017-.226-.023-.339-.007l-.34.05c-.113.016-.226.089-.34.105l-.339.05-.34.049c-.113.016-.226.09-.339.106-.113.073-.226.033-.34.106a.477.477,0,0,0-.283.1c-.113.017-.226.09-.34.106a.946.946,0,0,1-.34.162c-.113.073-.226.089-.34.161-.113.017-.169.137-.282.154-.113.073-.17.137-.283.21s-.226.089-.283.154a.385.385,0,0,1-.283-.071c-.113-.039-.169-.087-.169-.143a.46.46,0,0,1-.057-.272c.057-.121.057-.233.113-.353a.755.755,0,0,1,.056-.344c0-.112.056-.232.056-.345.057-.12.057-.232.113-.353a.753.753,0,0,1,.057-.345c0-.112.056-.232.056-.344s.056-.232.056-.344c.056-.12.056-.232.113-.353,0-.112.056-.176.056-.288a332.14,332.14,0,0,0,.113-.689c.056-.12.056-.232.113-.353a.75.75,0,0,1,.057-.344.9.9,0,0,1,.113-.353,1648.159,1648.159,0,0,0,.113-.689.578.578,0,0,1,.169-.305.69.69,0,0,1,.227-.313.938.938,0,0,1,.34-.162.692.692,0,0,1,.34.006,2.2,2.2,0,0,1,.282.015,7170.947,7170.947,0,0,1,.679.012c.113.04.227-.033.34-.05s.227.023.34.006l.34-.049.34-.05.34-.049.339-.05.34-.05.34-.049.283-.042.4-.058.339-.05.34-.049.339-.05.34-.049.339-.05.34-.05.339-.049c.17-.025.17.031.34.006s.17-.081.339-.105l.34-.05.339-.049.34-.05.34-.049.339-.049.4-.058.339-.05.34-.049.34-.05.34-.049.339-.05.34-.05.339-.05Z" transform="translate(-61.3 -38.562)" fill="#53221b"/><path d="M165.68,101.91c-.056-.048-.113-.152-.169-.2a.8.8,0,0,1-.113-.263.494.494,0,0,1,.113-.3l.169-.361a.684.684,0,0,0,.113-.353.569.569,0,0,0,.17-.305,260.375,260.375,0,0,0,.113-.689.878.878,0,0,0,.056-.4.753.753,0,0,0,.057-.345c0-.112.056-.233.056-.345v-.673c0-.112.057-.232.057-.345V96.269c0-.168-.057-.16-.057-.328v-.616c0-.169.057-.177.057-.345v-.673c0-.168-.057-.16-.057-.328s.057-.177.057-.345V91.616c0-.168-.057-.159-.057-.328s.057-.176.057-.344v-.337c0-.168-.057-.16-.057-.328s.057-.176.057-.344-.057-.16-.057-.328.057-.176.057-.344-.057-.16-.057-.328.057-.177.057-.345-.057-.16-.057-.328.057-.177.057-.345V86.235c0-.168-.057-.16-.057-.328s.057-.176.057-.344V82.2c0-.168-.057-.16-.057-.328s.057-.177.057-.345v-.673c0-.168-.057-.16-.057-.328v-.673c0-.168.057-.177.057-.345v-.337c0-.168-.057-.16-.057-.328v-.337c0-.168.057-.176.057-.344v-.617c0-.168-.057-.16-.057-.328s.057-.177.057-.345-.057-.16-.057-.328V76.21c0-.169.057-.177.057-.345s-.057-.16-.057-.328.057-.177.057-.345-.057-.16-.057-.328v-.337c0-.168.057-.176.057-.344s-.057-.16-.057-.328.057-.176.057-.345-.057-.159-.057-.328c0-.112.057-.232.057-.4,0-.112-.057-.216-.057-.328s.057-.233.057-.345c-.057-.1-.057-.216-.113-.319,0-.112.056-.232,0-.337a.653.653,0,0,0-.057-.328v-.393a.658.658,0,0,1-.056-.328.7.7,0,0,1-.113-.32c-.057-.1-.057-.215-.113-.319a1,1,0,0,1-.17-.255c-.056-.1-.056-.216-.169-.312-.057-.048-.057-.16-.057-.272-.056-.047,0-.168.057-.288a.31.31,0,0,1,.169-.193,1.127,1.127,0,0,1,.283-.154l.34-.05.34-.049.339-.05.34-.05.339-.049.34-.05.34-.05.34-.05.339-.049.34-.05.339-.049.34-.05.339-.049.34-.05.34-.05.339-.049.34-.05.34-.049c.113-.017.226.023.34.006s.226-.09.339-.106l.34-.049.339-.05.34-.05.339-.05.34-.049.34-.05.34-.049.34-.05.34-.05.34-.049.339-.05.34-.05.339-.05.34-.049c.113-.017.226.023.339.007s.226-.09.34-.106l.339-.049.34-.05.34-.049a.792.792,0,0,1,.34-.106l.339-.049a.707.707,0,0,1,.283-.154.8.8,0,0,0,.339-.106c.114-.016.227-.089.34-.049a.717.717,0,0,1,.339.062.357.357,0,0,1,.227.191,1.012,1.012,0,0,1,.169.255c0,.112.057.216.057.329.056.1.056.215.113.319,0,.112.056.216.056.328s.057.216.057.328a244.373,244.373,0,0,0,.113.656c.056.1.056.216.113.32a.658.658,0,0,0,.056.328,2.193,2.193,0,0,1,.056.271.7.7,0,0,1,.113.32.689.689,0,0,0,.113.32,345.067,345.067,0,0,1,.113.656.659.659,0,0,0,.056.328.691.691,0,0,0,.113.319.659.659,0,0,0,.057.329v.28c-.057.064-.113.185-.17.249a.786.786,0,0,1-.34.106.861.861,0,0,1-.282-.07,1.041,1.041,0,0,0-.284-.126.732.732,0,0,1-.339-.063c-.056-.048-.17-.031-.283-.07-.113.016-.226-.023-.34-.007a.732.732,0,0,0-.34-.062.7.7,0,0,0-.339-.006,2.3,2.3,0,0,0-.283-.015c-.113.017-.226-.022-.34-.006l-.34.05-.34.05-.34.049c-.113.017-.226-.023-.339-.007s-.226.09-.34.106c-.169.025-.169-.031-.339-.007s-.17.081-.34.106l-.34.049c-.17.025-.17-.031-.339-.006s-.17.081-.34.106l-.339.05-.34.049-.339.05c-.17.025-.17-.031-.34-.006s-.169.081-.339.105-.17-.031-.34-.006-.169.081-.339.106a.79.79,0,0,0-.34.106c-.113.017-.17.137-.283.21a1.449,1.449,0,0,0-.17.305.452.452,0,0,0-.057.288v2.3c0,.168-.056.176-.056.345s.056.16.056.328v2.3c0,.168-.056.176-.056.345s.056.16.056.328c0,.112,0,.224.057.272a1,1,0,0,0,.17.255c.113.04.17.143.283.126a.731.731,0,0,0,.34.063l.339-.05.4-.058.4-.058.34-.05.4-.058.339-.049.34-.05c.113-.016.226-.089.339-.105l.34-.05a.8.8,0,0,1,.339-.105,1.223,1.223,0,0,1,.4-.114.8.8,0,0,1,.339-.106c.113-.072.227-.089.34-.162a.587.587,0,0,0,.283-.21.928.928,0,0,0,.34-.162,1.147,1.147,0,0,0,.339-.217.514.514,0,0,1,.284-.154.838.838,0,0,1,.282.07c.057.048.17.087.227.135a.654.654,0,0,1,.057.328v5.942a.492.492,0,0,1-.113.3c-.056.12-.056.232-.17.25a1.144,1.144,0,0,1-.282.154.732.732,0,0,1-.34-.063,1.05,1.05,0,0,0-.283-.127c-.113-.039-.17-.087-.283-.126s-.226-.023-.339-.062a.733.733,0,0,1-.34-.063.69.69,0,0,1-.339-.006,1.082,1.082,0,0,1-.4,0c-.113.017-.226-.022-.339-.006l-.34.05-.339.05a.7.7,0,0,1-.34-.007c-.113.017-.226.089-.339.106s-.283-.015-.4,0l-.34.05-.4.058-.4.058-.339.05a.8.8,0,0,0-.34.106c-.113.073-.17.193-.283.266a1.453,1.453,0,0,0-.17.306.45.45,0,0,0-.057.288c0,.168-.056.176-.056.344s.056.16.056.328V88.2c0,.224-.056.232-.056.4s.056.16.056.328v.336c0,.168-.056.176-.056.345s.056.16.056.328v1.009c0,.168-.056.176-.056.344s.056.16.056.328V93.3c0,.168-.056.176-.056.344s.056.16.056.384v.337c0,.168-.056.176-.056.344a.366.366,0,0,0,.113.264,1,1,0,0,0,.17.255c.113.04.17.143.283.182.113-.016.226.022.34.006l.339-.049.34-.05c.17-.025.17-.081.339-.105.113-.017.113.039.284.014l.339-.05c.17-.024.17-.08.34-.105l.339-.05c.17-.025.17.031.34.006l.339-.049.34-.05c.17-.025.17-.081.34-.105l.34-.05.339-.049.34-.05c.113-.016.226.023.34.006a.807.807,0,0,1,.339-.105c.113-.016.226-.089.34-.105l.339-.05a.792.792,0,0,1,.34-.106,2.722,2.722,0,0,1,.283-.1c.113-.073.227-.089.34-.162a.788.788,0,0,0,.339-.105c.113-.073.227-.09.34-.162.113-.017.17-.137.283-.21.113-.017.169-.081.283-.154a1.119,1.119,0,0,1,.283-.154.732.732,0,0,1,.34.062c.056-.008.113.1.113.208.056.048.056.16.056.216-.056.12-.056.233-.113.353,0,.112-.056.232-.056.344-.056.12-.056.232-.113.353a.754.754,0,0,1-.057.345c0,.112-.056.232-.056.344a.75.75,0,0,0-.057.344,894.261,894.261,0,0,1-.113.69c-.056.12-.056.232-.113.353,0,.112-.056.232-.056.344s-.057.177-.057.289a.9.9,0,0,0-.113.352.756.756,0,0,0-.056.344c-.057.121-.057.233-.113.353,0,.112-.057.232-.057.345s-.056.232-.056.344c-.056.12-.056.232-.113.353a1.542,1.542,0,0,1-.283.266.71.71,0,0,1-.339.162c-.113.017-.226-.023-.34-.007a.49.49,0,0,0-.283-.014.692.692,0,0,0-.34-.007c-.113.016-.226-.023-.339-.007l-.34.05c-.113.016-.226-.023-.339-.007l-.34.05-.339.049-.34.05-.339.05-.34.049a.8.8,0,0,0-.339.106c-.113.016-.17-.031-.283-.014l-.339.049c-.114.016-.227.09-.34.106s-.226-.023-.34-.007l-.34.05-.34.05-.34.05-.34.05-.339.049-.34.05-.339.05-.34.05-.283.041-.34.05-.339.049-.34.05-.339.05-.34.05-.339.049-.34.05-.34.05-.339.049-.34.05-.283.041-.34.05-.34.049-.34.05-.339.05-.34.05-.339.049-.4.058-.4.058a.593.593,0,0,1-.283-.014" transform="translate(-88.203 -35.128)" fill="#53221b"/><path d="M210.687,67.282V66.61c0-.112-.056-.216-.056-.328a.653.653,0,0,0-.057-.328v-.336c0-.168-.056-.272-.056-.385s-.056-.216-.056-.328a.694.694,0,0,1-.113-.32c-.056-.1-.056-.216-.113-.32,0-.112-.113-.152-.17-.256s-.057-.216-.17-.255c-.056-.1-.056-.216-.113-.319a1.1,1.1,0,0,1,.113-.3.545.545,0,0,1,.227-.258.485.485,0,0,1,.283-.1l.339-.049.34-.05.34-.05.339-.049.34-.05.339-.05.34-.05.339-.049.34-.05.339-.049c.113-.017.227-.089.34-.106s.226.023.339.006l.34-.049.339-.05.34-.05.34-.05.339-.049.284-.042.4-.058c.113-.016.169-.081.34-.106.056-.008.226.023.34.006l.283-.041.34-.05.34-.05.339-.049.283-.042a1.375,1.375,0,0,0,.339-.105c.113-.017.227.022.34.006l.34-.05.34-.05c.113-.016.226.023.339.007l.34-.049c.113-.017.226.022.339.006a.7.7,0,0,0,.34.007.729.729,0,0,1,.34.063,123.992,123.992,0,0,1,.679.012c.113-.017.17.031.283.014a.737.737,0,0,0,.34.063.7.7,0,0,0,.339.006,1.058,1.058,0,0,1,.283.126.732.732,0,0,0,.339.063l.34.119c.056.048.169.031.283.07s.17.144.283.183.226.023.283.07a.459.459,0,0,1,.283.183,1.051,1.051,0,0,1,.283.126.46.46,0,0,1,.282.183.8.8,0,0,1,.284.183c.056.048.169.087.226.135.113.1.17.2.226.247.057.1.17.143.227.247l.226.191c.056.1.17.143.226.247a.987.987,0,0,1,.17.256c.056.1.113.151.169.255l.17.311c.056.048.056.16.114.264l.169.311c0,.056.113.152.17.256a.663.663,0,0,0,.056.328c.057.1.114.151.114.263a.7.7,0,0,1,.113.32c.056.1,0,.224.056.328a.7.7,0,0,0,.113.32v.336c.057.1,0,.224.057.329,0,.112.056.216.056.328v1.009c0,.112.057.216.057.328s-.057.233-.057.345v.337a.76.76,0,0,0-.056.344c0,.112-.057.233-.057.345a.758.758,0,0,0-.056.345c0,.112-.056.232-.056.344a1.109,1.109,0,0,0-.114.3c-.056.12-.056.232-.113.353a.905.905,0,0,1-.113.353c0,.112-.057.232-.057.345l-.169.361a1.1,1.1,0,0,1-.113.3,1.54,1.54,0,0,1-.17.305l-.169.361c-.057.12-.113.185-.17.305s-.113.184-.17.3c-.057.065-.113.185-.226.314-.057.121-.057.233-.17.305-.056.12-.113.185-.169.306s-.17.193-.227.314l-.226.257a1.225,1.225,0,0,0-.226.314,1.06,1.06,0,0,1-.227.258.683.683,0,0,1-.226.314,1.039,1.039,0,0,1-.226.258,2.031,2.031,0,0,1-.509.579,1.066,1.066,0,0,1-.227.257c-.057.12-.169.193-.226.313a1.242,1.242,0,0,0-.283.266,1.541,1.541,0,0,1-.283.21l-.226.258c-.113.072-.17.193-.283.266a1.042,1.042,0,0,0-.226.258,1.509,1.509,0,0,0-.283.21l-.283.322a1.5,1.5,0,0,1-.282.21l-.227.258a.7.7,0,0,0-.283.266,1.509,1.509,0,0,0-.283.21c-.113.072-.17.193-.283.266s-.17.137-.283.21a151.964,151.964,0,0,1-.566.531c-.056.065-.169.081-.282.154a1.234,1.234,0,0,1-.283.266,1.034,1.034,0,0,0-.226.258.7.7,0,0,0-.283.266,1.5,1.5,0,0,0-.283.21,1.525,1.525,0,0,0-.283.21c-.113.073-.169.193-.283.266a1.522,1.522,0,0,0-.283.21c-.113.072-.169.193-.282.266-.057.12-.17.137-.284.266-.113.073-.17.137-.283.21s-.17.193-.283.265c-.057.121-.17.193-.226.314a.537.537,0,0,0-.113.353v2.747c0,.168.056.16.056.328s-.056.176-.056.344v2.41c.056.1,0,.225.056.328a.651.651,0,0,0,.057.328v.337a1.025,1.025,0,0,1,.056.384.7.7,0,0,0,.113.32c0,.112.057.216.057.328.056.1.113.151.113.263l.17.312a1,1,0,0,0,.17.255.861.861,0,0,1,0,.617c0,.112-.113.184-.226.257a2.737,2.737,0,0,1-.283.1l-.339.05c-.114.017-.227-.023-.34-.006s-.226.145-.339.162-.227-.023-.34-.007l-.34.049-.339.05-.284.042-.339.049-.34.05-.339.049-.34.05-.339.049-.34.05c-.113.017-.226-.023-.339-.006s-.227.089-.34.106l-.339.05-.34.049-.339.05-.34.049-.34.05-.339.05a2.441,2.441,0,0,1-.283-.014.358.358,0,0,1-.227-.192.558.558,0,0,1-.056-.272.759.759,0,0,1,.056-.345,1.512,1.512,0,0,0,.227-.313.682.682,0,0,0,.113-.3.893.893,0,0,0,.113-.353.752.752,0,0,0,.057-.345.9.9,0,0,0,.113-.352c0-.112.056-.232.056-.345a1,1,0,0,0,.057-.4.761.761,0,0,1,.056-.344v-2.41c0-.168.057-.176.057-.345s-.057-.16-.057-.328V87.126c0-.168.057-.176.057-.345s-.057-.16-.057-.328.057-.176.057-.344v-.337c0-.168-.057-.16-.057-.328V82.08c0-.168.057-.176.057-.344s-.057-.16-.057-.328V78.045c0-.168.057-.176.057-.345s-.057-.16-.057-.328V71.991c0-.168.057-.176.057-.344s-.057-.16-.057-.272c0-.168.057-.176.057-.345s-.057-.16-.057-.328V67.282Zm7.981-.33a2.306,2.306,0,0,1-.282-.014,1.365,1.365,0,0,0-.34.106,2.731,2.731,0,0,0-.283.1.7.7,0,0,0-.283.266.546.546,0,0,0-.226.257c0,.112-.056.232-.056.345v6c0,.169.056.16.056.328s-.056.176-.056.345v2.354c0,.112.056.1.056.272a.654.654,0,0,0-.056.288v.336a.315.315,0,0,0,.226.3.439.439,0,0,0,.509-.075,1.53,1.53,0,0,1,.283-.21,1.037,1.037,0,0,0,.226-.257c.113-.073.17-.137.283-.21a1.563,1.563,0,0,0,.283-.21c.113-.073.17-.193.283-.266a1.069,1.069,0,0,0,.226-.258,1.494,1.494,0,0,0,.283-.21c.114-.073.17-.193.283-.266.056-.065.17-.137.283-.266.056-.064.169-.137.226-.2a1.234,1.234,0,0,1,.282-.266l.227-.257a1.221,1.221,0,0,0,.226-.313,1.064,1.064,0,0,0,.227-.258l.227-.258c.113-.129.169-.249.226-.314.056-.12.17-.193.227-.314a1.444,1.444,0,0,0,.169-.3,280.866,280.866,0,0,0,.339-.61c.057-.12.17-.193.17-.305l.169-.361a2.606,2.606,0,0,0,.057-.288c.056-.121.056-.233.113-.353,0-.112.056-.232.056-.345a.747.747,0,0,0,.057-.344.756.756,0,0,0,.056-.344c0-.112.057-.233.057-.345a.652.652,0,0,0-.057-.328v-.336a.7.7,0,0,1-.113-.32c-.056-.048-.056-.16-.056-.272a.692.692,0,0,1-.113-.319l-.17-.311c-.056-.048-.056-.16-.113-.264s-.17-.143-.227-.247-.169-.143-.226-.19a.8.8,0,0,1-.226-.248l-.34-.118a1.026,1.026,0,0,0-.283-.127,1.055,1.055,0,0,0-.283-.126.533.533,0,0,0-.283-.071.732.732,0,0,0-.34-.062.717.717,0,0,0-.339-.062c-.113-.04-.226.033-.34-.007-.113.017-.226-.023-.339-.006l-.34.05c-.113-.04-.226.033-.34.049Z" transform="translate(-111.873 -32.667)" fill="#53221b"/><path d="M287.032,84.513c0-.112.056-.232.056-.344s-.056-.216-.056-.328V82.831c0-.112.056-.232.056-.344V81.477a.759.759,0,0,0,.056-.345c.056-.12,0-.224,0-.337s.056-.232.056-.344a2.607,2.607,0,0,1,.057-.288c0-.112.056-.232.056-.345.057-.12,0-.224,0-.336a.884.884,0,0,0,.114-.352v-.337a.9.9,0,0,0,.113-.353.908.908,0,0,1,.113-.353v-.336a.9.9,0,0,1,.113-.353,2.625,2.625,0,0,0,.056-.288.9.9,0,0,0,.113-.353.756.756,0,0,0,.056-.344c.057-.12.057-.232.113-.353s.113-.185.17-.306c0-.112.056-.232.056-.344.056-.12.056-.232.113-.353,0-.112.113-.184.113-.3a.894.894,0,0,0,.113-.353c.056-.121.113-.185.169-.306,0-.112.113-.24.113-.352a1.524,1.524,0,0,0,.17-.306c.056-.12.056-.232.113-.3.057-.12.057-.233.113-.353s.169-.193.226-.314a.494.494,0,0,1,.113-.3.9.9,0,0,0,.113-.353c.056-.12.17-.193.226-.314s.056-.232.113-.3l.17-.362a1.5,1.5,0,0,0,.169-.3c.057-.121.113-.185.17-.305s.169-.193.226-.314a1.462,1.462,0,0,0,.169-.305c.057-.12.17-.193.227-.314a1.482,1.482,0,0,0,.17-.305c.056-.12.113-.185.169-.305a1.213,1.213,0,0,1,.227-.314c.057-.064.113-.185.17-.249a1.53,1.53,0,0,1,.226-.313,1.2,1.2,0,0,1,.226-.314.966.966,0,0,1,.17-.249c.113-.129.169-.249.226-.314.056-.12.169-.193.227-.314a1.489,1.489,0,0,0,.169-.3,1.067,1.067,0,0,1,.226-.258c.113-.128.113-.241.227-.314.057-.12.113-.184.17-.305.113-.072.17-.193.283-.266a1.488,1.488,0,0,1,.17-.3,1.067,1.067,0,0,1,.226-.258c.057-.12.17-.193.226-.313l.226-.258a.693.693,0,0,1,.226-.313c.057-.12.113-.185.17-.3a1.092,1.092,0,0,0,.227-.258c.113-.129.17-.249.226-.314.057-.121.113-.185.17-.305a1.215,1.215,0,0,0,.227-.314l.226-.258.169-.361a1.038,1.038,0,0,1,.227-.258,1.437,1.437,0,0,1,.17-.305c.056-.12.113-.185.169-.305a306.8,306.8,0,0,1,.34-.61l.169-.361c.056-.12.056-.232.113-.3.057-.12.057-.232.113-.352a.9.9,0,0,0,.113-.353.677.677,0,0,0,.113-.3c0-.112.057-.233.057-.345v-.673c0-.112.056-.232.056-.344a.663.663,0,0,1-.056-.328.652.652,0,0,1-.057-.328.7.7,0,0,1-.113-.32c-.056-.1-.056-.216-.113-.319s-.113-.152-.113-.264a.453.453,0,0,0-.226-.247.971.971,0,0,0-.17-.255c-.056-.1-.17-.144-.226-.191-.113-.1-.226-.135-.283-.182l-.34-.119c-.057-.048-.17-.031-.283-.07-.113.017-.227-.079-.34-.063a.7.7,0,0,0-.339-.006c-.114-.039-.227.034-.34.05a.7.7,0,0,0-.339-.007.8.8,0,0,0-.34.106c-.113.017-.226-.023-.34-.006a.8.8,0,0,1-.339.106c-.113.017-.227.089-.34.106s-.169.137-.283.154-.226.089-.34.106a.794.794,0,0,1-.339.105l-.34.218a.949.949,0,0,0-.34.162,1.129,1.129,0,0,0-.283.154c-.113.073-.17.193-.283.21l-.34.218a1.463,1.463,0,0,1-.282.21,1.51,1.51,0,0,1-.283.21.7.7,0,0,1-.283.266,173.824,173.824,0,0,1-.453.515.481.481,0,0,1-.339.162.7.7,0,0,1-.34-.007c-.056-.048-.169-.087-.226-.191a.663.663,0,0,1-.056-.328V56.62c.056-.176,0-.168.056-.344V56c0-.168.057-.176.057-.344v-.337c0-.168.056-.176.056-.344a.759.759,0,0,1,.056-.345c0-.168-.056-.16-.056-.328a.757.757,0,0,1,.056-.345v-.336a.757.757,0,0,0,.056-.345v-.336a.751.751,0,0,0,.057-.345v-.336c0-.168.056-.176.056-.344s-.056-.16,0-.337v-.337a.493.493,0,0,1,.114-.3c.056-.12.113-.184.226-.2a.278.278,0,0,1,.283-.1c.113-.016.17.031.283.014.113.04.17.144.283.126a.7.7,0,0,0,.34.007l.339-.049.34-.05a.565.565,0,0,0,.283-.1l.34-.049c.113-.073.226-.09.339-.162l.34-.05a.8.8,0,0,0,.339-.106.476.476,0,0,0,.283-.1c.113-.017.226-.089.339-.106a.8.8,0,0,0,.34-.106.8.8,0,0,0,.34-.105l.339-.05c.113-.017.226-.089.34-.106a.489.489,0,0,0,.283-.042l.34-.05.339-.05.34-.05.339-.049.34-.05c.113-.017.226.023.339.006l.34-.049c.113-.017.226.023.339.006s.227.023.34.006.226.023.339.007c.113.039.227-.034.34.006a.383.383,0,0,1,.283.071.7.7,0,0,1,.34.007.718.718,0,0,1,.339.062.7.7,0,0,0,.34.007,1.013,1.013,0,0,1,.283.126.732.732,0,0,1,.34.062c.113.039.17.087.283.127a1.029,1.029,0,0,1,.283.126.459.459,0,0,1,.283.183,1.047,1.047,0,0,1,.283.126c.113.04.169.088.283.127.056.1.17.143.226.247.113.039.17.143.227.191a.8.8,0,0,1,.226.247l.226.191c.056.1.169.143.226.247a1.007,1.007,0,0,0,.169.256.7.7,0,0,0,.113.319c.057.1.114.151.17.255s.056.216.113.32c0,.112.113.151.113.263.056.1.056.216.113.32a.69.69,0,0,0,.113.32.66.66,0,0,0,.056.329c0,.112.057.159.057.272a.658.658,0,0,1,.056.328.659.659,0,0,0,.056.328v.672a.651.651,0,0,1,.057.328c0,.112.056.216.056.329s-.056.232-.056.344v.673a.754.754,0,0,0-.057.345c0,.112-.056.232-.056.344a300.337,300.337,0,0,1-.113.689c-.056.12-.056.232-.113.353a.68.68,0,0,1-.113.3c0,.112-.113.241-.113.353a.685.685,0,0,0-.113.3l-.169.361c-.057.12-.057.176-.113.3l-.17.361c-.056.064-.056.176-.113.3s-.169.193-.226.314-.057.232-.114.3c-.056.12-.169.193-.226.314a1.482,1.482,0,0,1-.17.305,1.5,1.5,0,0,1-.227.314c-.056.12-.113.184-.169.3a1.493,1.493,0,0,1-.17.305c-.056.12-.169.193-.226.313a1.5,1.5,0,0,0-.17.305c-.113.073-.113.185-.226.314a1.056,1.056,0,0,1-.226.258,1.507,1.507,0,0,1-.17.3,1.2,1.2,0,0,1-.226.314l-.226.258a1.481,1.481,0,0,1-.17.305,1.217,1.217,0,0,0-.226.314c-.056.064-.113.185-.226.314a1.056,1.056,0,0,0-.227.257,1.5,1.5,0,0,0-.169.305,1.074,1.074,0,0,1-.226.257c-.114.128-.114.24-.227.314a1.037,1.037,0,0,1-.226.257,1.461,1.461,0,0,1-.169.305,1.2,1.2,0,0,0-.226.314c-.057.12-.17.193-.226.314a1.059,1.059,0,0,1-.226.257,1.232,1.232,0,0,1-.226.314,1.466,1.466,0,0,0-.17.3,1.2,1.2,0,0,1-.226.314c-.057.065-.113.185-.17.25-.056.12-.169.193-.226.313s-.113.185-.169.305c-.113.129-.113.24-.17.3a1.231,1.231,0,0,0-.226.314c-.056.12-.113.184-.169.305s-.17.193-.226.314-.113.185-.17.3-.113.185-.169.306-.17.193-.227.314-.057.232-.113.352a1.477,1.477,0,0,0-.169.306,1.449,1.449,0,0,0-.17.305,1.469,1.469,0,0,0-.169.3c-.057.121-.057.233-.114.353a1.5,1.5,0,0,0-.17.306c0,.111-.113.184-.113.3l-.169.361a.681.681,0,0,1-.113.3.894.894,0,0,0-.113.353c-.056.12-.056.232-.113.353a.491.491,0,0,0-.113.3.75.75,0,0,0-.057.344c-.056.121-.056.233-.113.353a.905.905,0,0,0,0,.393.694.694,0,0,0,.113.32c.113.1.17.2.283.238a.953.953,0,0,0,.4,0c.17-.025.17-.081.339-.105l.34-.05c.17-.025.17.031.34.006l.4-.058c.17-.025.17-.08.34-.105s.17.031.339.006.17-.081.34-.106l.339-.049.34-.049c.169-.025.169.03.339.005l.34-.049.339-.05.34-.05.339-.049.34-.05c.113-.016.226-.089.34-.105s.226.022.339.006.226-.089.34-.105l.34-.05.34-.049a.791.791,0,0,1,.339-.106.8.8,0,0,0,.34-.106c.113-.017.226-.089.339-.106.113-.072.17-.081.283-.154a.792.792,0,0,0,.34-.106c.113-.073.226-.089.34-.161s.169-.081.282-.154l.34-.218a.515.515,0,0,1,.283-.154.589.589,0,0,1,.283.014c.056.048.113.152.17.2,0,.112.056.216,0,.28,0,.112-.056.233-.056.344s-.113.241-.113.353-.056.232-.056.344a.753.753,0,0,0-.057.345.9.9,0,0,0-.113.353v.337a.9.9,0,0,0-.113.352.758.758,0,0,0-.056.345c0,.112-.057.233-.057.345-.056.12-.056.232-.113.353a.682.682,0,0,1-.113.3.756.756,0,0,1-.056.344c0,.112-.057.232-.057.344a.762.762,0,0,0-.056.344.9.9,0,0,1-.113.353.757.757,0,0,1-.057.345.889.889,0,0,1-.113.352,1.492,1.492,0,0,1-.283.21c-.113.129-.17.193-.283.21s-.226-.023-.34-.007c-.113-.04-.226-.023-.339-.063l-.34.05c-.113.017-.226-.023-.34-.006-.113-.04-.226.033-.34-.007l-.34.05-.34.05-.339.05-.34.049a2.313,2.313,0,0,1-.282-.014c-.113.017-.227.089-.34.106l-.339.049-.34.05-.339.05-.34.049-.339.05-.34.049-.34.05-.339.049-.34.05-.339.05-.34.05-.339.05-.34.049-.339.05-.34.049-.339.05-.284.041c-.113.017-.226.09-.339.106s-.226-.023-.34-.007l-.339.05-.34.049-.339.05-.34.049-.34.049-.339.05-.34.049-.34.05-.34.05-.339.05-.34.049-.339.05-.34.05-.339.049-.34.05-.283.041-.34.05c0-.112-.056-.216-.056-.328" transform="translate(-153.069 -26.299)" fill="#53221b"/><path d="M78.544,103.926a.689.689,0,0,1,.282-.265.572.572,0,0,1,.283-.1.38.38,0,0,1,.339.062c.057.048.114.152.227.191a1.048,1.048,0,0,0,.283.126c.056.048.17.087.283.183.056.047.17.087.226.135a1.037,1.037,0,0,1,.283.126l.34.119a.864.864,0,0,1,.282.07c.113.04.227.022.283.071l.339.118a2.435,2.435,0,0,1,.284.014.73.73,0,0,0,.339.062c.113.04.227.023.34.063l.282-.042c.114.04.227-.033.34.007.113-.017.226.022.34.006l.339-.05.34-.05.339-.049a.793.793,0,0,0,.34-.106l.283-.042c.113-.016.226-.089.34-.105.113-.073.226-.089.339-.162.113-.016.226-.089.34-.105a.706.706,0,0,1,.282-.154,1.556,1.556,0,0,0,.284-.21,1.518,1.518,0,0,0,.283-.21l.34-.218c.056-.064.169-.137.226-.2a1.221,1.221,0,0,1,.282-.266,1.057,1.057,0,0,1,.227-.257.69.69,0,0,1,.226-.314c.057-.12.114-.185.17-.306s.114-.184.17-.305.113-.184.169-.3.113-.185.17-.305c0-.112.056-.233.056-.345a1.073,1.073,0,0,0,.113-.3,176.983,176.983,0,0,0,.114-.689c0-.112.056-.232.056-.344.056-.12,0-.224,0-.337v-.337c0-.112-.056-.216-.056-.328v-.337c-.056-.1-.114-.151-.17-.255a.655.655,0,0,0-.057-.329A.991.991,0,0,0,89.3,97.3c-.057-.1-.057-.216-.113-.32a.8.8,0,0,1-.227-.247c-.057-.048-.113-.152-.227-.191a.979.979,0,0,0-.169-.255c-.056-.1-.17-.144-.226-.247a.811.811,0,0,1-.283-.183c-.056-.048-.169-.087-.226-.19a.813.813,0,0,1-.283-.183,1.034,1.034,0,0,0-.283-.126c-.056-.048-.17-.087-.227-.191a1.062,1.062,0,0,1-.283-.126c-.113-.04-.169-.144-.283-.183a2.161,2.161,0,0,0-.566-.309,1.041,1.041,0,0,0-.284-.126l-.226-.191-.34-.118a399.322,399.322,0,0,0-.566-.253c-.057-.048-.17-.087-.283-.183-.056-.048-.169-.087-.226-.19-.113-.039-.227-.023-.283-.127a1.037,1.037,0,0,1-.283-.126c-.113-.039-.17-.143-.283-.182a1.029,1.029,0,0,0-.282-.126.991.991,0,0,1-.227-.247c-.113-.04-.17-.087-.283-.126-.056-.048-.17-.088-.283-.183-.057-.048-.113-.152-.227-.191-.056-.1-.17-.143-.226-.191-.057-.1-.17-.143-.227-.247a1,1,0,0,1-.282-.127.46.46,0,0,0-.226-.247,1.012,1.012,0,0,0-.17-.255c-.056-.1-.169-.143-.226-.247-.056-.048-.113-.151-.169-.2-.113-.1-.17-.2-.226-.246a1.01,1.01,0,0,0-.17-.256l-.17-.311c-.056-.1-.113-.152-.169-.255a.366.366,0,0,1-.114-.264l-.17-.311c0-.112-.113-.152-.113-.264-.056-.1-.056-.216-.113-.32a.691.691,0,0,0-.113-.32,2.23,2.23,0,0,0-.056-.272.683.683,0,0,1-.114-.32.658.658,0,0,1-.056-.328c0-.112-.113-.207-.113-.319v-.337c0-.112-.056-.216-.056-.328a.654.654,0,0,1-.057-.328c0-.112.057-.232,0-.337V84.2c0-.112.057-.232.057-.344a.457.457,0,0,1,.056-.288c0-.112-.056-.272,0-.337,0-.112.057-.232.057-.344.056-.12,0-.224.056-.345,0-.112.056-.233.056-.345a.9.9,0,0,0,.114-.353c.056-.064.056-.176.113-.3a.9.9,0,0,1,.113-.353c.056-.12.056-.232.113-.353.056-.064.056-.176.113-.3s.17-.193.17-.3l.17-.362a1.057,1.057,0,0,1,.226-.257c.056-.12.113-.185.17-.306s.113-.184.17-.3a1.207,1.207,0,0,0,.226-.314,1.231,1.231,0,0,0,.283-.266l.226-.258a1.068,1.068,0,0,0,.226-.258,1.489,1.489,0,0,0,.283-.21c.114-.073.17-.193.283-.266A1.039,1.039,0,0,0,82,77.187l.34-.218c.056-.064.17-.081.283-.154a1.454,1.454,0,0,0,.283-.21c.113-.072.226-.089.339-.162a1.172,1.172,0,0,1,.284-.154c.113-.072.226-.089.339-.162.113-.017.226-.145.34-.161.113-.073.226-.033.339-.106a.94.94,0,0,0,.34-.161.693.693,0,0,0,.283-.1l.34-.05a.8.8,0,0,1,.34-.105l.339-.05c.113-.017.226-.089.34-.106l.339-.05.34-.049c.113-.017.226-.089.339-.106a.7.7,0,0,0,.34.006c.113-.016.226.023.339.007l.283-.042.34-.05a.733.733,0,0,1,.34.063l.339-.049c.113-.017.226.022.34.006a.6.6,0,0,0,.282.015c.113-.017.227.022.34.006s.227.023.34.007.227.023.34.006a.7.7,0,0,1,.339.006c.113-.016.227-.089.34-.049l.283-.042.34-.05c.113-.017.226-.09.34-.106.113-.073.226-.089.282-.154.113-.072.226-.09.283-.154.114-.016.227-.034.283.014.113.039.226.023.283.126.056.048,0,.168,0,.28a.658.658,0,0,1,.056.328v.336a.654.654,0,0,1,.057.328.659.659,0,0,0,.056.328v.673c0,.168.057.16.057.328a.664.664,0,0,0,.056.328v.672c0,.168.057.16.057.328s-.057.177-.057.345a.65.65,0,0,1,.057.328c0,.168.057.16.057.328a.466.466,0,0,0,.056.272v.673a.654.654,0,0,1-.056.345,1.056,1.056,0,0,1-.227.257.788.788,0,0,1-.34.106c-.113.017-.226.033-.282-.07-.114-.04-.17-.144-.227-.192-.113-.1-.226-.135-.283-.182-.113-.04-.169-.144-.283-.183a480.766,480.766,0,0,0-.566-.253l-.34-.119c-.056-.048-.169-.031-.283-.07a1.018,1.018,0,0,1-.283-.127c-.113-.039-.226-.022-.34-.062s-.226-.023-.339-.063a.732.732,0,0,1-.34-.063c-.113.016-.17-.031-.283-.014s-.226-.023-.34-.006a.69.69,0,0,0-.339-.007.724.724,0,0,0-.34-.062l-.339.05-.34.05a.8.8,0,0,0-.339.105l-.34.05c-.113.073-.226.089-.339.162a.794.794,0,0,0-.34.106c-.113.073-.169.137-.282.21s-.227.089-.284.21a1.164,1.164,0,0,0-.339.218,1.06,1.06,0,0,0-.226.258c-.056.064-.113.184-.226.314a1.453,1.453,0,0,0-.169.3c-.057.12-.057.176-.113.3a.889.889,0,0,0-.114.353A.906.906,0,0,0,85,82.8v.337c0,.112-.056.233-.056.345v.337c0,.112-.056.232-.056.344a.7.7,0,0,1,.113.32c0,.112,0,.224.057.272a.689.689,0,0,0,.113.32c.057.1.057.216.113.32s.113.152.17.255a1.02,1.02,0,0,0,.169.256.791.791,0,0,0,.227.246c.057.048.113.152.226.191.056.1.113.152.17.256a.457.457,0,0,1,.226.247.8.8,0,0,1,.283.183c.056.048.17.087.226.135a.792.792,0,0,1,.227.247,1.012,1.012,0,0,1,.283.127.812.812,0,0,0,.283.182,1.043,1.043,0,0,0,.282.127c.113.039.17.143.226.191.113.1.227.135.283.183a1.037,1.037,0,0,1,.283.126.808.808,0,0,0,.283.182c.057.048.226.079.283.126.113.04.169.144.283.183a1.048,1.048,0,0,0,.283.126c.056.1.169.087.283.126.057.1.17.143.226.191a.814.814,0,0,0,.283.183,1.017,1.017,0,0,0,.284.182c.056.048.169.087.226.191a1.022,1.022,0,0,1,.283.127c.113.039.17.143.283.183l.226.191a.8.8,0,0,1,.283.182c.057.048.17.087.227.191.113.039.169.143.283.182a1,1,0,0,1,.17.255.461.461,0,0,1,.283.183l.226.191a.807.807,0,0,0,.226.247,1,1,0,0,1,.17.255l.227.19a238.485,238.485,0,0,1,.339.511c.056.1.17.143.226.247a1.024,1.024,0,0,0,.17.255c.056.1.056.216.113.32a.991.991,0,0,0,.169.255l.17.311a.8.8,0,0,0,.113.264c.056.1.056.216.113.319s.056.216.113.264a.685.685,0,0,0,.113.319v.337c.056.1.056.216.113.32,0,.112.057.216.057.328a.651.651,0,0,0,.057.328v.337a.658.658,0,0,1,.056.328c.056.1,0,.224.056.328,0,.112-.056.232-.056.344s.056.216.056.328-.056.232-.056.345v1.009a.759.759,0,0,0-.056.345.451.451,0,0,0-.057.288c0,.112-.057.232-.057.344a.9.9,0,0,0-.113.353c-.057.12-.057.232-.113.353a.75.75,0,0,1-.057.344c0,.112-.113.185-.113.3a.9.9,0,0,0-.113.353c-.056.12-.056.232-.113.353a1.466,1.466,0,0,0-.169.3c-.057.12-.057.232-.113.3l-.17.361a1.487,1.487,0,0,0-.17.306,1.444,1.444,0,0,0-.17.3c-.056.121-.169.193-.226.314s-.113.185-.17.305a1.049,1.049,0,0,1-.227.258,1.445,1.445,0,0,1-.169.3,1.236,1.236,0,0,1-.283.267c-.057.12-.17.193-.227.313l-.226.257a1.074,1.074,0,0,0-.227.258c-.113.128-.226.145-.282.265-.114.073-.17.193-.283.266a1.545,1.545,0,0,1-.283.21,1.509,1.509,0,0,1-.283.21,3.259,3.259,0,0,1-.566.476c-.113.072-.227.089-.284.154l-.339.217c-.113.073-.17.137-.283.21a.79.79,0,0,0-.339.105c-.113.073-.169.137-.283.21a.943.943,0,0,0-.339.162.791.791,0,0,0-.34.106.933.933,0,0,0-.34.161l-.34.05c-.113.016-.169.081-.283.154l-.4.058a2.875,2.875,0,0,1-.283.1l-.34.049-.339.05-.34.049c-.113.016-.226.09-.339.106a236.558,236.558,0,0,1-.68-.013l-.339.05-.34.049c-.113.017-.226-.023-.339-.006-.113-.04-.226.033-.34.049a.736.736,0,0,0-.339-.063l-.34.05c-.113.016-.226-.023-.339-.007a.692.692,0,0,1-.34-.007l-.339.05-.34.049-.339.05-.34.049c-.113.017-.226.09-.34.106-.113.072-.226.033-.339.105-.113.017-.226.09-.34.106a.8.8,0,0,1-.34.105.494.494,0,0,1-.283-.014.267.267,0,0,1-.283-.126.367.367,0,0,1-.113-.264v-.673c0-.169-.056-.16-.056-.328-.057-.16,0-.168,0-.336a.653.653,0,0,1-.057-.328c0-.168-.056-.16-.056-.328a.648.648,0,0,0-.057-.328c0-.168.057-.176,0-.336v-.336a.661.661,0,0,1-.056-.328c0-.168-.056-.16-.056-.328V106.2c-.056-.16,0-.168-.056-.328v-.337c-.057-.16,0-.168-.057-.328v-.336l-.113-.319v-.337a.454.454,0,0,1,.057-.289" transform="translate(-41.856 -39.725)" fill="#fff"/><path d="M134.451,67.984l.34-.05.339-.05.34-.049a.373.373,0,0,0,.339-.05l.34-.049a.477.477,0,0,0,.283-.1l.34-.05c.113-.017.226.023.339-.05.113-.016.227-.089.34-.106a270.86,270.86,0,0,0,.68-.212c.113-.016.226-.089.339-.049.113-.017.226-.033.283.07a.46.46,0,0,1,.283.183.986.986,0,0,1,.17.255,230.419,230.419,0,0,1,.113.656c0,.112.056.216.056.328.056.1.056.216.113.32a.664.664,0,0,0,.056.328c0,.112.057.216.057.328s.056.216.056.328c.056.1.056.216.113.264,0,.112.057.216.057.328a.686.686,0,0,1,.113.319c0,.112.057.216.057.328.056.1,0,.224.056.328a.652.652,0,0,0,.057.328.7.7,0,0,0,.113.32.658.658,0,0,0,.056.328c0,.112.057.216.057.328.056.048,0,.168,0,.28-.057.065-.057.177-.17.249a.474.474,0,0,1-.283.1.383.383,0,0,1-.283-.07,1.019,1.019,0,0,1-.283-.127.732.732,0,0,0-.34-.062.858.858,0,0,0-.283-.071c-.113-.04-.226-.023-.34-.063-.113.017-.226-.022-.34-.006-.113-.04-.227.033-.34-.007-.113.017-.226-.023-.339-.007s-.227-.023-.34-.006l-.34.049-.339.05-.34.05-.339.049a2.332,2.332,0,0,0-.283-.014l-.4.058c-.17.025-.17.081-.34.106l-.34.049c-.113.017-.227-.023-.34.05a.689.689,0,0,0-.282.265,1.492,1.492,0,0,0-.17.305.546.546,0,0,0-.056.289v.337c0,.168-.057.176-.057.344s.057.16.057.328v2.018c0,.168-.057.177-.057.345s.057.16.057.328v2.691c0,.168-.057.176-.057.344s.057.16.057.328v.337c0,.168-.057.176-.057.344s.057.16.057.328-.057.177-.057.345v.336c0,.168.057.16.057.328v1.682c0,.168-.057.177-.057.345s.057.159.057.328v1.346c0,.168-.057.176-.057.344v.337c0,.168.057.16.057.328v1.681c0,.169-.057.177-.057.345v.673c0,.168.057.16.057.328s-.057.177-.057.345.057.16.057.328-.057.177-.057.345.057.16.057.328v.336c0,.168-.057.176-.057.344s.057.16.057.329v4.708a.66.66,0,0,1,.056.329c0,.112.057.272.057.384a.659.659,0,0,0,.056.328.651.651,0,0,0,.057.328,5223.12,5223.12,0,0,1,.226.639c.056.1.056.216.113.264a.452.452,0,0,0,.226.247.866.866,0,0,1,0,.617.54.54,0,0,1-.226.258.477.477,0,0,1-.283.1l-.34.05-.339.05-.34.049-.339.05-.34.05-.339.05-.34.049-.339.05-.34.05-.34.049-.339.05-.34.049-.339.05-.34.05-.339.05-.34.049-.339.05-.34.05-.339.049-.34.05-.339.049a.842.842,0,0,1-.283-.07c-.056.008-.113-.1-.17-.143a.82.82,0,0,1-.113-.264.5.5,0,0,1,.113-.3l.17-.361c.056-.12.113-.185.169-.305s.057-.233.114-.353a.9.9,0,0,1,.113-.352v-.336a.9.9,0,0,0,.113-.353c0-.112.057-.232.057-.4V99.2a.756.756,0,0,0,.056-.344V94.817c0-.168-.056-.16-.056-.328s.056-.176.056-.344V92.8c0-.168-.056-.16-.056-.328s.056-.176.056-.344V91.79c0-.168-.056-.16-.056-.328s.056-.176.056-.345V90.109c0-.168-.056-.16-.056-.328v-.337c0-.168.056-.176.056-.344v-.336c0-.168-.056-.16-.056-.328s.056-.176.056-.344-.056-.16-.056-.328.056-.176.056-.344v-.673c0-.168-.056-.16-.056-.328s.056-.176.056-.344V84.391c0-.168-.056-.16-.056-.328s.056-.176.056-.344v-.673c0-.168-.056-.159-.056-.328s.056-.176.056-.344-.056-.16-.056-.328.056-.176.056-.344v-.337c0-.168-.056-.16-.056-.328V80.7c0-.168.056-.176.056-.344V77.664c0-.168-.056-.16-.056-.328s.056-.176.056-.344V75.983c0-.168-.056-.16-.056-.328s.056-.176.056-.345a2.214,2.214,0,0,0-.056-.272.455.455,0,0,0-.226-.247.267.267,0,0,0-.283-.127c-.056-.048-.169-.031-.282-.014-.17.025-.17-.031-.4,0l-.339.05c-.17.024-.17.081-.34.105-.113.016-.226-.023-.339-.007l-.34.05c-.113.016-.226.089-.34.105l-.339.05-.34.049c-.113.016-.226.09-.339.106-.113.072-.226.033-.34.106a.477.477,0,0,0-.283.1c-.113.017-.226.089-.34.106a.946.946,0,0,1-.34.162c-.113.073-.226.089-.34.161-.113.017-.169.137-.282.154-.113.073-.17.137-.283.21s-.226.089-.283.154a.387.387,0,0,1-.283-.071q-.169-.06-.169-.143a.46.46,0,0,1-.057-.272c.057-.121.057-.233.113-.353a.755.755,0,0,1,.056-.344c0-.112.056-.232.056-.345.057-.12.057-.232.113-.353a.753.753,0,0,1,.057-.345c0-.112.056-.232.056-.344s.056-.232.056-.344c.056-.121.056-.233.113-.353,0-.112.056-.176.056-.288a312.886,312.886,0,0,0,.113-.689c.056-.12.056-.232.113-.353a.751.751,0,0,1,.057-.344.9.9,0,0,1,.113-.353,2068.78,2068.78,0,0,0,.113-.689.578.578,0,0,1,.169-.305.691.691,0,0,1,.227-.313.938.938,0,0,1,.34-.162.692.692,0,0,1,.34.006,2.2,2.2,0,0,1,.282.015,122.84,122.84,0,0,1,.679.012c.113.04.227-.033.34-.05s.226.023.34.006l.34-.049.339-.05.34-.05.339-.05.34-.049.34-.049.283-.042.4-.058.339-.05.34-.05.339-.05.34-.049.339-.05.34-.05.339-.049c.17-.025.17.031.34.006s.17-.081.339-.105l.34-.05.339-.049.34-.05.34-.049.339-.049.4-.058.339-.05.34-.049.34-.05.34-.049.339-.05.34-.05.339-.05Z" transform="translate(-63.973 -35.814)" fill="#fff"/><path d="M170.693,96.756c-.056-.048-.113-.152-.169-.2a.8.8,0,0,1-.113-.263.494.494,0,0,1,.113-.3l.169-.361a.684.684,0,0,0,.113-.353.569.569,0,0,0,.17-.305,252.273,252.273,0,0,0,.113-.689.878.878,0,0,0,.056-.4.754.754,0,0,0,.057-.345c0-.112.056-.232.056-.344v-.673c0-.112.057-.232.057-.345V91.116c0-.168-.057-.16-.057-.328v-.616c0-.169.057-.177.057-.345v-.673c0-.168-.057-.16-.057-.328s.057-.177.057-.345V86.463c0-.168-.057-.159-.057-.328s.057-.176.057-.344v-.336c0-.168-.057-.16-.057-.328s.057-.176.057-.344-.057-.16-.057-.328.057-.176.057-.344-.057-.16-.057-.328.057-.177.057-.345-.057-.16-.057-.328.057-.177.057-.345V81.082c0-.168-.057-.16-.057-.328s.057-.177.057-.344V77.046c0-.168-.057-.16-.057-.328s.057-.177.057-.345V75.7c0-.168-.057-.16-.057-.328V74.7c0-.168.057-.177.057-.345v-.336c0-.168-.057-.16-.057-.328v-.337c0-.168.057-.176.057-.344v-.617c0-.168-.057-.16-.057-.328s.057-.177.057-.345-.057-.16-.057-.328v-.336c0-.169.057-.177.057-.345s-.057-.16-.057-.328.057-.177.057-.345-.057-.16-.057-.328v-.337c0-.168.057-.176.057-.344s-.057-.16-.057-.328.057-.176.057-.345-.057-.159-.057-.328c0-.112.057-.232.057-.4,0-.112-.057-.216-.057-.328s.057-.233.057-.345c-.057-.1-.057-.216-.113-.319,0-.112.056-.232,0-.337a.652.652,0,0,0-.057-.328V65.58a.658.658,0,0,1-.056-.328.7.7,0,0,1-.113-.32c-.057-.1-.057-.215-.113-.319a1,1,0,0,1-.17-.255c-.056-.1-.056-.216-.169-.312-.057-.048-.057-.16-.057-.272-.056-.047,0-.168.057-.288a.31.31,0,0,1,.169-.193,1.127,1.127,0,0,1,.283-.154l.34-.05.34-.049.339-.05.34-.049.339-.049.34-.05.34-.05.34-.05.339-.05.34-.05.339-.049.34-.05.339-.05.34-.049.34-.05.339-.049.34-.05.34-.049c.113-.017.226.023.34.006s.226-.09.339-.106l.34-.049.339-.05.34-.05.34-.05.34-.049.339-.05.34-.049.34-.05.34-.05.34-.049.339-.05.34-.05.339-.05.34-.049c.113-.017.226.023.339.006s.226-.089.34-.106l.339-.049.34-.05.34-.049a.794.794,0,0,1,.34-.106l.339-.049a.707.707,0,0,1,.283-.154.8.8,0,0,0,.339-.106c.114-.016.227-.089.34-.05a.729.729,0,0,1,.339.062.359.359,0,0,1,.227.191,1,1,0,0,1,.169.255c0,.112.057.216.057.328.056.1.056.216.113.32,0,.112.056.216.056.328s.057.216.057.328a.659.659,0,0,1,.056.328.652.652,0,0,1,.057.328c.056.1.056.216.113.32a.658.658,0,0,0,.056.328,2.175,2.175,0,0,1,.056.271.7.7,0,0,1,.113.32.689.689,0,0,0,.113.32,380.633,380.633,0,0,1,.113.656.659.659,0,0,0,.056.328.691.691,0,0,0,.113.319.66.66,0,0,0,.056.329v.28c-.056.064-.113.185-.17.249a.786.786,0,0,1-.34.106.861.861,0,0,1-.282-.07,1.027,1.027,0,0,0-.284-.126.737.737,0,0,1-.339-.063c-.056-.048-.17-.031-.283-.07-.113.016-.226-.023-.34-.007a.732.732,0,0,0-.34-.062.69.69,0,0,0-.339-.006,2.3,2.3,0,0,0-.283-.015c-.113.017-.226-.022-.339-.006l-.34.05-.34.05-.34.049c-.113.016-.226-.023-.339-.007s-.226.09-.34.106c-.169.025-.169-.031-.339-.007s-.17.081-.34.106l-.34.049c-.17.025-.17-.031-.339-.006s-.17.081-.34.105l-.339.05-.34.049-.339.05c-.17.025-.17-.031-.34-.006s-.169.081-.339.105-.17-.031-.34-.006-.169.081-.339.105a.8.8,0,0,0-.34.106c-.113.016-.17.137-.283.21a1.448,1.448,0,0,0-.17.305.451.451,0,0,0-.057.288v2.3c0,.168-.056.176-.056.345s.056.16.056.328v2.3c0,.168-.056.176-.056.345s.056.16.056.328c0,.112,0,.224.057.272a1,1,0,0,0,.17.255c.113.04.17.143.283.126a.731.731,0,0,0,.34.063l.339-.05.4-.058.4-.058.34-.05.4-.058.339-.049.34-.05c.113-.017.226-.089.339-.105l.34-.05a.8.8,0,0,1,.339-.105,1.223,1.223,0,0,1,.4-.114.79.79,0,0,1,.339-.106c.113-.072.227-.089.34-.162a.587.587,0,0,0,.283-.21.933.933,0,0,0,.34-.162,1.159,1.159,0,0,0,.339-.217.51.51,0,0,1,.283-.154.826.826,0,0,1,.282.07c.057.048.17.087.227.135a.654.654,0,0,1,.057.328v5.942a.492.492,0,0,1-.113.3c-.056.12-.056.232-.17.25a1.161,1.161,0,0,1-.282.154.74.74,0,0,1-.34-.063,1.039,1.039,0,0,0-.283-.127c-.113-.039-.17-.087-.284-.126s-.226-.023-.339-.062a.733.733,0,0,1-.34-.063.7.7,0,0,1-.339-.006,1.082,1.082,0,0,1-.4,0c-.113.017-.226-.022-.339-.006l-.34.05-.339.05a.7.7,0,0,1-.34-.007c-.113.017-.226.089-.339.106s-.283-.014-.4,0l-.34.05-.4.058-.4.058-.339.05a.8.8,0,0,0-.34.106c-.113.072-.17.193-.283.266a1.453,1.453,0,0,0-.17.306.45.45,0,0,0-.057.288c0,.168-.056.176-.056.344s.056.16.056.328v1.009c0,.224-.056.232-.056.4s.056.16.056.328v.336c0,.168-.056.176-.056.345s.056.16.056.328v1.009c0,.168-.056.176-.056.344s.056.16.056.328v1.682c0,.168-.056.176-.056.344s.056.16.056.384v.337c0,.168-.056.176-.056.344a.366.366,0,0,0,.113.264,1,1,0,0,0,.17.255c.113.04.17.143.283.182.113-.016.226.023.34.007l.339-.05.34-.05c.17-.025.17-.081.339-.105.113-.017.113.039.284.014l.339-.05c.17-.025.17-.08.34-.105l.339-.05c.17-.025.17.031.34.006l.339-.049.34-.05c.17-.025.17-.081.34-.106l.34-.05.339-.049.34-.05c.113-.016.226.023.34.007a.8.8,0,0,1,.339-.106c.113-.017.226-.089.34-.105l.339-.05a.792.792,0,0,1,.34-.106,2.72,2.72,0,0,1,.283-.1c.113-.073.227-.089.34-.162a.787.787,0,0,0,.339-.105c.113-.073.227-.09.34-.162.113-.017.17-.137.283-.21.113-.016.169-.081.283-.153a1.12,1.12,0,0,1,.283-.154.732.732,0,0,1,.34.062c.056-.008.113.1.113.208.056.047.056.16.056.216-.056.12-.056.233-.113.353,0,.112-.056.232-.056.344-.056.12-.056.232-.113.353a.753.753,0,0,1-.057.345c0,.112-.056.232-.056.344a.751.751,0,0,0-.057.344,1161.019,1161.019,0,0,1-.113.69c-.056.12-.056.232-.113.353,0,.112-.056.232-.056.344s-.057.177-.057.289a.9.9,0,0,0-.113.352.756.756,0,0,0-.056.344c-.057.121-.057.233-.113.353,0,.112-.057.232-.057.345s-.056.232-.056.344c-.056.12-.056.232-.113.353a1.542,1.542,0,0,1-.283.266.71.71,0,0,1-.339.162c-.113.016-.226-.023-.34-.007a.494.494,0,0,0-.283-.014.7.7,0,0,0-.34-.006c-.113.016-.226-.023-.339-.007l-.34.05c-.113.017-.226-.023-.339-.006l-.34.05-.339.049-.34.05-.339.05-.34.049a.81.81,0,0,0-.339.106c-.113.017-.17-.031-.283-.014l-.339.05c-.114.016-.227.09-.34.106s-.226-.023-.34-.007l-.34.05-.34.05-.339.049-.34.05-.34.049-.34.05-.339.05-.34.05-.283.041-.34.05-.339.049-.34.05-.339.05-.34.05-.339.049-.34.05-.34.05-.339.049-.34.05-.283.041-.34.05-.34.049-.34.05-.339.05-.34.05-.339.049-.4.058-.4.058a.593.593,0,0,1-.283-.014" transform="translate(-90.877 -32.38)" fill="#fff"/><path d="M215.7,62.129v-.673c0-.112-.056-.216-.056-.328a.652.652,0,0,0-.057-.328v-.336c0-.168-.056-.272-.056-.384s-.056-.216-.056-.328a.7.7,0,0,1-.113-.32c-.056-.1-.056-.216-.113-.32,0-.112-.113-.152-.17-.256s-.057-.216-.17-.255c-.056-.1-.056-.216-.113-.32a1.1,1.1,0,0,1,.113-.3.545.545,0,0,1,.227-.258.481.481,0,0,1,.283-.1l.339-.049.34-.05.34-.05.339-.049.34-.05.339-.05.34-.05.339-.049.34-.05.339-.049c.113-.017.227-.089.34-.106s.226.023.339.006l.34-.049.339-.05.34-.05.34-.05.339-.049.284-.042.4-.058c.113-.017.169-.081.34-.106.056-.008.226.023.339.006l.283-.041.34-.05.34-.05.339-.05.283-.042a1.375,1.375,0,0,0,.339-.105c.113-.017.227.022.34.006l.34-.05.34-.05c.113-.017.226.023.339.007l.34-.05c.113-.017.226.023.34.006a.7.7,0,0,0,.34.007.729.729,0,0,1,.34.063,126.663,126.663,0,0,1,.679.012c.113-.017.17.031.283.014a.737.737,0,0,0,.34.063.7.7,0,0,0,.339.006,1.058,1.058,0,0,1,.283.126.731.731,0,0,0,.339.063l.34.118c.056.048.169.031.283.07s.17.143.283.183.226.023.283.07a.459.459,0,0,1,.283.183,1.051,1.051,0,0,1,.283.126.459.459,0,0,1,.283.183.805.805,0,0,1,.283.182c.056.048.169.087.226.135.113.1.17.2.226.247.057.1.17.143.227.247l.226.191c.056.1.17.143.226.247a.987.987,0,0,1,.17.256c.056.1.113.151.169.255l.17.311c.056.048.056.16.114.264l.169.311c0,.056.113.152.17.256a.661.661,0,0,0,.056.328c.057.1.114.152.114.264a.7.7,0,0,1,.113.32c.056.1,0,.224.056.328a.7.7,0,0,0,.113.32V62.2c.057.1,0,.224.057.329,0,.112.056.215.056.328v1.009c0,.112.057.216.057.328s-.057.232-.057.344v.337a.763.763,0,0,0-.056.344c0,.112-.057.233-.057.345a.758.758,0,0,0-.056.345c0,.112-.056.232-.056.344a1.107,1.107,0,0,0-.114.3c-.056.121-.056.233-.113.353a.908.908,0,0,1-.113.353c0,.112-.057.232-.057.345l-.169.361a1.108,1.108,0,0,1-.113.3,1.539,1.539,0,0,1-.17.305l-.169.361c-.057.12-.113.184-.17.3s-.113.184-.17.3c-.057.065-.113.185-.226.314-.057.12-.057.232-.17.305-.056.12-.113.185-.169.306s-.17.193-.227.314l-.226.257a1.229,1.229,0,0,0-.226.314,1.059,1.059,0,0,1-.227.258.681.681,0,0,1-.226.314,1.04,1.04,0,0,1-.226.258,2.032,2.032,0,0,1-.509.579,1.075,1.075,0,0,1-.227.257c-.056.12-.169.193-.226.313a1.232,1.232,0,0,0-.283.266,1.541,1.541,0,0,1-.283.21l-.226.258c-.113.072-.17.193-.283.266a1.042,1.042,0,0,0-.226.258,1.509,1.509,0,0,0-.283.21l-.283.322a1.5,1.5,0,0,1-.282.21l-.227.258a.7.7,0,0,0-.283.266,1.489,1.489,0,0,0-.283.21c-.113.072-.17.193-.283.266s-.17.137-.283.21a480.995,480.995,0,0,1-.566.531c-.056.065-.169.081-.282.154a1.241,1.241,0,0,1-.283.266,1.041,1.041,0,0,0-.226.257.7.7,0,0,0-.283.266,1.483,1.483,0,0,0-.283.21,1.5,1.5,0,0,0-.283.21c-.113.073-.169.193-.283.266a1.519,1.519,0,0,0-.283.21c-.113.072-.169.193-.282.266-.057.12-.17.137-.284.266-.113.073-.17.137-.283.21s-.17.193-.283.265c-.057.121-.17.193-.226.314a.537.537,0,0,0-.113.353v2.747c0,.168.056.16.056.328s-.056.177-.056.345V86.4c.056.1,0,.224.056.328a.653.653,0,0,0,.057.328v.337a1.025,1.025,0,0,1,.056.384.7.7,0,0,0,.113.32c0,.112.057.216.057.328.056.1.113.151.113.263l.17.312a1,1,0,0,0,.17.255.861.861,0,0,1,0,.617c0,.112-.113.184-.226.257a2.852,2.852,0,0,1-.283.1l-.339.05c-.113.017-.227-.023-.34-.007s-.226.146-.339.162-.227-.023-.34-.007l-.34.049-.339.05-.284.042-.339.049-.34.05-.339.05-.34.05-.339.049-.34.049c-.113.017-.226-.022-.339-.006s-.227.089-.34.105l-.339.05-.34.05-.339.05-.34.049-.34.05-.339.05a2.323,2.323,0,0,1-.283-.014.356.356,0,0,1-.227-.191.558.558,0,0,1-.056-.272.756.756,0,0,1,.056-.344,1.5,1.5,0,0,0,.227-.314.678.678,0,0,0,.113-.3.893.893,0,0,0,.113-.353.752.752,0,0,0,.057-.345.9.9,0,0,0,.113-.352c0-.112.056-.232.056-.345a1,1,0,0,0,.057-.4.761.761,0,0,1,.056-.344v-2.41c0-.168.057-.176.057-.345s-.057-.16-.057-.328V81.972c0-.168.057-.176.057-.345s-.057-.16-.057-.328.057-.176.057-.344v-.337c0-.168-.057-.16-.057-.328V76.927c0-.168.057-.176.057-.344s-.057-.16-.057-.328V72.891c0-.168.057-.176.057-.345s-.057-.16-.057-.328V66.838c0-.168.057-.176.057-.344s-.057-.16-.057-.272c0-.168.057-.176.057-.345s-.057-.16-.057-.328V62.129Zm7.981-.33a2.306,2.306,0,0,1-.282-.014,1.365,1.365,0,0,0-.34.106,2.73,2.73,0,0,0-.283.1.7.7,0,0,0-.283.266.544.544,0,0,0-.226.257c0,.112-.056.232-.056.345v6c0,.168.056.16.056.328s-.056.177-.056.345V71.88c0,.112.056.1.056.272a.661.661,0,0,0-.056.289v.336a.315.315,0,0,0,.226.3.439.439,0,0,0,.509-.075,1.53,1.53,0,0,1,.283-.21,1.037,1.037,0,0,0,.226-.257c.113-.073.17-.137.283-.21a1.561,1.561,0,0,0,.283-.21c.113-.073.17-.193.283-.266a1.056,1.056,0,0,0,.226-.257,1.494,1.494,0,0,0,.283-.21c.114-.073.17-.193.283-.266.056-.064.17-.137.283-.266.056-.064.169-.137.226-.2a1.235,1.235,0,0,1,.282-.266l.227-.257a1.236,1.236,0,0,0,.226-.313,1.069,1.069,0,0,0,.226-.258l.227-.258c.113-.129.169-.249.226-.314.056-.12.17-.193.226-.314a1.445,1.445,0,0,0,.169-.3,312.306,312.306,0,0,0,.339-.61c.057-.12.17-.194.17-.306l.169-.361a2.606,2.606,0,0,0,.057-.288c.056-.121.056-.233.113-.353,0-.112.056-.232.056-.345a.747.747,0,0,0,.057-.344.756.756,0,0,0,.056-.344c0-.112.057-.233.057-.345a.652.652,0,0,0-.057-.328v-.336a.7.7,0,0,1-.113-.32c-.056-.048-.056-.16-.056-.272a.692.692,0,0,1-.113-.319l-.17-.311c-.056-.049-.056-.161-.113-.264s-.17-.143-.227-.247-.169-.143-.226-.191a.789.789,0,0,1-.226-.247l-.34-.118a1.03,1.03,0,0,0-.283-.127,1.047,1.047,0,0,0-.283-.126.533.533,0,0,0-.283-.071.732.732,0,0,0-.34-.062.717.717,0,0,0-.339-.062c-.113-.04-.226.033-.34-.007-.113.017-.226-.023-.339-.007l-.34.05c-.113-.039-.226.034-.34.05Z" transform="translate(-114.546 -29.919)" fill="#fff"/><path d="M292.044,79.359c0-.112.056-.232.056-.344s-.056-.216-.056-.328V77.677c0-.112.056-.232.056-.344V76.323a.759.759,0,0,0,.056-.345c.056-.12,0-.224,0-.336s.056-.232.056-.344a2.606,2.606,0,0,1,.057-.288c0-.112.056-.232.056-.345.057-.12,0-.224,0-.336a.884.884,0,0,0,.114-.352v-.337a.906.906,0,0,0,.113-.353.912.912,0,0,1,.113-.353V72.6a.9.9,0,0,1,.113-.353,2.626,2.626,0,0,0,.056-.288.9.9,0,0,0,.113-.353.756.756,0,0,0,.056-.344c.057-.12.057-.232.113-.353s.113-.185.17-.306c0-.112.056-.232.056-.344.056-.12.056-.232.113-.353,0-.112.113-.184.113-.3a.9.9,0,0,0,.113-.353c.056-.12.113-.185.169-.305,0-.112.113-.241.113-.353a1.507,1.507,0,0,0,.17-.305c.056-.12.056-.232.113-.3.057-.12.057-.233.113-.353s.169-.193.226-.314a.494.494,0,0,1,.113-.3.9.9,0,0,0,.113-.353c.056-.12.17-.193.226-.314s.056-.232.113-.3l.17-.362a1.493,1.493,0,0,0,.169-.305c.057-.12.113-.185.17-.3s.169-.194.226-.314a1.465,1.465,0,0,0,.169-.305c.057-.12.171-.193.227-.314a1.462,1.462,0,0,0,.17-.305c.056-.12.113-.185.169-.305a1.225,1.225,0,0,1,.227-.314c.057-.064.113-.185.17-.249a1.516,1.516,0,0,1,.226-.313,1.193,1.193,0,0,1,.226-.314.958.958,0,0,1,.17-.249c.113-.129.169-.249.226-.314.057-.12.169-.193.227-.314a1.5,1.5,0,0,0,.169-.3,1.057,1.057,0,0,1,.226-.258c.113-.128.113-.241.227-.314.057-.12.113-.185.17-.305.113-.072.17-.193.283-.266a1.491,1.491,0,0,1,.17-.3,1.06,1.06,0,0,1,.226-.258c.057-.12.17-.193.226-.313l.226-.258a.693.693,0,0,1,.226-.313c.057-.12.113-.185.17-.3a1.083,1.083,0,0,0,.227-.258c.113-.129.17-.249.226-.313.057-.121.113-.185.17-.305a1.232,1.232,0,0,0,.226-.314l.226-.258.169-.361a1.038,1.038,0,0,1,.227-.258,1.44,1.44,0,0,1,.17-.305c.056-.12.113-.185.169-.305a305.382,305.382,0,0,1,.34-.61l.169-.361c.056-.12.056-.232.113-.3.057-.12.057-.232.113-.353a.893.893,0,0,0,.113-.353.677.677,0,0,0,.113-.3c0-.112.057-.233.057-.345v-.673c0-.112.056-.232.056-.344a.664.664,0,0,1-.056-.328.651.651,0,0,1-.057-.328.7.7,0,0,1-.113-.32c-.056-.1-.056-.216-.113-.32s-.113-.152-.113-.264a.453.453,0,0,0-.226-.247.971.971,0,0,0-.17-.255c-.056-.1-.17-.144-.226-.191-.113-.1-.226-.135-.283-.182l-.34-.119c-.056-.048-.17-.031-.283-.07-.113.017-.227-.079-.34-.063a.7.7,0,0,0-.339-.007c-.114-.039-.227.034-.34.05a.7.7,0,0,0-.339-.007.8.8,0,0,0-.34.106c-.113.017-.226-.023-.34-.006a.8.8,0,0,1-.339.106c-.113.017-.227.089-.34.106s-.169.137-.283.153-.226.09-.34.106a.794.794,0,0,1-.339.105l-.34.218a.941.941,0,0,0-.34.162,1.129,1.129,0,0,0-.283.154c-.113.073-.17.193-.283.21l-.34.218a1.464,1.464,0,0,1-.282.21,1.49,1.49,0,0,1-.283.21.694.694,0,0,1-.283.266,11043.179,11043.179,0,0,1-.453.515.481.481,0,0,1-.339.162.7.7,0,0,1-.34-.007c-.056-.048-.169-.087-.226-.191a.663.663,0,0,1-.056-.328v-.337c.056-.176,0-.168.056-.344v-.28c0-.168.057-.176.057-.344v-.337c0-.168.056-.176.056-.345a.758.758,0,0,1,.056-.344c0-.168-.056-.16-.056-.328a.756.756,0,0,1,.056-.344v-.336a.757.757,0,0,0,.056-.345v-.336a.751.751,0,0,0,.057-.345V47.1c0-.168.056-.176.056-.344s-.056-.16,0-.337v-.337a.493.493,0,0,1,.114-.3c.056-.12.113-.184.226-.2a.278.278,0,0,1,.283-.1c.113-.016.17.031.283.014.113.04.17.144.283.126a.7.7,0,0,0,.34.007l.339-.049.34-.05a.563.563,0,0,0,.283-.1l.34-.049c.113-.073.226-.09.339-.162l.34-.049a.8.8,0,0,0,.339-.106.479.479,0,0,0,.283-.1c.113-.017.226-.089.339-.106a.8.8,0,0,0,.34-.106.8.8,0,0,0,.34-.105l.339-.05c.113-.016.226-.089.34-.105a.493.493,0,0,0,.283-.042l.34-.05.339-.049.34-.05.339-.049.34-.05c.113-.017.226.023.339.006l.34-.049c.113-.017.226.023.339.006s.227.023.34.007.226.023.339.007c.113.039.227-.034.34.006a.383.383,0,0,1,.283.071.7.7,0,0,1,.34.007.717.717,0,0,1,.339.062.7.7,0,0,0,.34.006,1.041,1.041,0,0,1,.283.126.737.737,0,0,1,.34.063c.113.039.17.087.283.127a1.035,1.035,0,0,1,.284.126.459.459,0,0,1,.282.183,1.046,1.046,0,0,1,.283.126c.113.04.169.088.283.127.057.1.17.143.226.247.113.04.17.144.227.191a.8.8,0,0,1,.226.247l.226.191c.056.1.169.143.226.247a1.015,1.015,0,0,0,.169.256.7.7,0,0,0,.113.319c.057.1.114.151.17.255s.056.216.113.32c0,.112.113.151.113.263.056.1.056.216.113.32a.689.689,0,0,0,.113.32.657.657,0,0,0,.057.328c0,.112.057.16.057.272a.658.658,0,0,1,.056.328.659.659,0,0,0,.056.328v.672a.652.652,0,0,1,.057.328c0,.112.056.216.056.329s-.056.232-.056.344v.673a.755.755,0,0,0-.057.345c0,.112-.056.232-.056.344a289.47,289.47,0,0,1-.113.689c-.057.121-.057.233-.113.353a.682.682,0,0,1-.113.3c0,.112-.113.241-.113.353a.686.686,0,0,0-.113.3l-.169.361c-.057.12-.057.176-.113.3l-.17.361c-.056.064-.056.176-.113.3s-.169.193-.226.314-.057.232-.114.3c-.056.12-.169.193-.226.314a1.479,1.479,0,0,1-.17.305,1.511,1.511,0,0,1-.227.314c-.056.12-.113.184-.169.3a1.477,1.477,0,0,1-.17.3c-.056.121-.169.193-.226.314a1.5,1.5,0,0,0-.17.305c-.113.073-.113.185-.226.314a1.071,1.071,0,0,1-.226.258,1.485,1.485,0,0,1-.17.3,1.2,1.2,0,0,1-.226.314l-.226.258a1.48,1.48,0,0,1-.17.305,1.21,1.21,0,0,0-.226.314c-.056.064-.113.185-.226.314a1.046,1.046,0,0,0-.227.257,1.514,1.514,0,0,0-.169.3,1.068,1.068,0,0,1-.226.258c-.114.128-.114.24-.227.314a1.038,1.038,0,0,1-.226.257,1.461,1.461,0,0,1-.169.305,1.2,1.2,0,0,0-.226.314c-.057.12-.17.193-.226.314a1.059,1.059,0,0,1-.226.257,1.23,1.23,0,0,1-.226.314,1.468,1.468,0,0,0-.17.3,1.214,1.214,0,0,1-.226.314c-.057.065-.113.185-.17.25-.056.12-.169.193-.226.313s-.113.185-.169.305c-.113.129-.113.24-.17.3a1.218,1.218,0,0,0-.226.314c-.056.12-.113.184-.169.305s-.17.193-.227.313-.113.185-.17.305-.113.185-.169.306-.17.193-.227.314-.057.232-.113.352a1.48,1.48,0,0,0-.169.306,1.435,1.435,0,0,0-.17.305,1.471,1.471,0,0,0-.169.3c-.057.121-.057.233-.114.353a1.514,1.514,0,0,0-.17.3c0,.112-.113.185-.113.3l-.169.361a.681.681,0,0,1-.113.3.894.894,0,0,0-.113.353c-.056.12-.056.232-.113.353a.491.491,0,0,0-.113.3.75.75,0,0,0-.057.344c-.056.12-.056.232-.113.353a.905.905,0,0,0,0,.393.694.694,0,0,0,.113.32c.113.1.17.2.283.238a.945.945,0,0,0,.4,0c.17-.025.17-.081.339-.106l.34-.05c.17-.025.17.032.34.007l.4-.058c.17-.025.17-.081.34-.106s.17.031.339.007.17-.081.34-.106l.339-.049.34-.049c.169-.025.169.031.339.006l.34-.049.339-.05.34-.049.339-.05.34-.049c.113-.017.226-.089.34-.106s.226.022.339.006.226-.089.34-.105l.34-.05.34-.049a.792.792,0,0,1,.339-.106.8.8,0,0,0,.34-.106c.113-.017.226-.09.339-.106.113-.072.17-.081.283-.154a.8.8,0,0,0,.34-.106c.113-.073.226-.089.34-.161s.169-.081.282-.154l.34-.218a.512.512,0,0,1,.283-.154.589.589,0,0,1,.283.014c.056.048.113.151.17.2,0,.112.056.216,0,.28,0,.112-.056.232-.056.345s-.113.24-.113.353-.056.232-.056.344a.751.751,0,0,0-.057.344.905.905,0,0,0-.113.353v.337a.9.9,0,0,0-.113.352.758.758,0,0,0-.056.345c0,.112-.057.233-.057.345-.056.12-.056.232-.113.353a.682.682,0,0,1-.113.3.756.756,0,0,1-.056.344c0,.112-.057.232-.057.344a.761.761,0,0,0-.056.344.9.9,0,0,1-.113.353.76.76,0,0,1-.056.345.89.89,0,0,1-.113.352,1.5,1.5,0,0,1-.283.21c-.113.129-.17.193-.283.21s-.226-.023-.34-.007c-.113-.04-.226-.023-.339-.063l-.34.05c-.113.017-.226-.023-.339-.006-.113-.04-.226.033-.34-.007l-.34.05-.34.05-.339.05-.34.049a2.314,2.314,0,0,1-.282-.014c-.113.017-.227.089-.34.106l-.339.049-.34.05-.339.05-.34.049-.339.05-.34.05-.34.05-.339.049-.34.049-.339.05-.34.049-.339.05-.34.05-.339.05-.34.049-.339.05-.284.041c-.113.017-.226.09-.339.106s-.226-.023-.34-.006l-.339.05-.34.049L296.8,79l-.34.049-.34.049-.339.05-.34.049-.34.05-.34.05-.339.05-.34.049-.339.05-.34.05-.339.049-.34.05-.283.042-.34.05c0-.112-.056-.216-.056-.328" transform="translate(-155.742 -23.55)" fill="#fff"/></g></svg>