<svg xmlns="http://www.w3.org/2000/svg" width="23.566" height="23.604" viewBox="0 0 23.566 23.604"><g transform="translate(-0.406)"><path d="M318.941,79.888c-1.614,1.614-4.514,1.717-6.76,1.265-.163-.032-.289-.063-.584-.131-1.529-6.62,1.713-10.04,8.477-8.477C320.649,74.938,320.674,78.155,318.941,79.888Z" transform="translate(-296.454 -68.834)" fill="#00aa95"/><path d="M9.234,81.592c-.3.068-.423.1-.588.132-2.253.447-5.137.352-6.755-1.266C.156,78.724.183,75.5.757,73.115,3.164,72.56,6.345,72.5,8.1,74.249S9.789,79.183,9.234,81.592Z" transform="translate(0 -69.405)" fill="#00cc76"/><path d="M169.182,5.994c0,2.472-2.287,4.679-4.391,5.994-2.617-1.65-5.093-4.3-4.2-7.248.592-1.96,2.465-3.654,4.2-4.741,2.093,1.291,4.391,3.534,4.391,5.994Z" transform="translate(-152.605)" fill="#a5e887"/><path d="M256.688,6.041c0,2.477-2.3,4.685-4.391,5.994l-.145-.091V.139l.11-.071c.044-.027.022-.029.1.017C254.43,1.4,256.688,3.588,256.688,6.041Z" transform="translate(-240.111 -0.047)" fill="#00cc76"/><path d="M15.449,87.161,9.909,81.81H4.831a5.963,5.963,0,0,1-.482-1.387H8.474l-4.142-4c.049-.284.105-.56.169-.825.261-.06.53-.114.806-.161l3.645,3.521V75.37a6.544,6.544,0,0,1,1.387.383V80.3l5.592,5.4Z" transform="translate(-3.744 -71.887)" fill="#a5e887"/><path d="M273.441,80.442h4.13a5.984,5.984,0,0,1-.481,1.387h-5.084l-5.5,5.316V85.217l5.074-4.9V75.775a6.518,6.518,0,0,1,1.387-.385v3.587l3.646-3.522c.277.047.548.1.81.162.063.264.12.538.168.821Z" transform="translate(-253.798 -71.906)" fill="#00cc76"/><path d="M180.369,17.421h-1.387V7.938l-2.971-1.651.673-1.212,2.3,1.277V.52c.343-.243.687-.463.7-.46s.4.257.691.46V4.665l1.849-1.387.832,1.109L180.369,6.4Z" transform="translate(-167.49 -0.057)" fill="#00cc76"/><path d="M256.042,17.421h-.69V.06c.016,0,.4.257.69.46V4.665l1.849-1.387.832,1.109L256.042,6.4Z" transform="translate(-243.163 -0.057)" fill="#00aa95"/><path d="M74.673,366.639a8.851,8.851,0,0,1-.092,1.063H56.37l-.068-.617a4.027,4.027,0,0,1,5.6-4.136,4.026,4.026,0,0,1,7.152,0A4.027,4.027,0,0,1,74.673,366.639Z" transform="translate(-53.289 -344.099)" fill="#c47e4e"/><path d="M264.489,366.57a8.844,8.844,0,0,1-.092,1.063h-9.1V360.7a4.024,4.024,0,0,1,3.576,2.18A4.027,4.027,0,0,1,264.489,366.57Z" transform="translate(-243.106 -344.029)" fill="#a05f4b"/></g></svg>