<svg xmlns="http://www.w3.org/2000/svg" width="23.302" height="21.453" viewBox="0 0 23.302 21.453"><g transform="translate(-0.001 -20.31)"><g transform="translate(0.602 22.732)"><path d="M210.789,80.769a.7.7,0,0,0-.079-.982l-1.4-1.192a2.809,2.809,0,0,1-.989-2.141v-.032L209.4,75.34a.7.7,0,0,0-.985-.985l-.1.1v-.218a.7.7,0,1,0-1.394,0v.218l-.1-.1a.7.7,0,0,0-.985.985l1.081,1.081v.032a4.2,4.2,0,0,0,1.231,2.973q.119.119.248.229l1.4,1.192A.7.7,0,0,0,210.789,80.769Z" transform="translate(-196.885 -73.536)" fill="#7fdc48"/><path d="M20.525,159.192l-1.192-1.4a4.2,4.2,0,0,0-3.2-1.479H16.1l-1.081-1.081a.7.7,0,0,0-.985.985l.1.1H13.91a.7.7,0,1,0,0,1.394h.218l-.1.1a.7.7,0,0,0,.985.985l1.081-1.081h.032a2.809,2.809,0,0,1,2.141.989l1.192,1.4a.7.7,0,1,0,1.061-.9Z" transform="translate(-13.213 -151.32)" fill="#7fdc48"/></g><path d="M1.322,41.154a.7.7,0,0,1-.084-.1A8.168,8.168,0,0,1,.151,38.371a6.056,6.056,0,0,1,1.508-5.557,7.322,7.322,0,0,1,3.049-1.964,7.981,7.981,0,0,1,3.58-.326c3.35.452,5.532-.852,6.488-3.878a4.233,4.233,0,0,1,.293-3.463,6.325,6.325,0,0,1,2.162-2.207,3.158,3.158,0,0,1,3.081-.429c1.894.958,1.62,4.522.845,6.067a3.9,3.9,0,0,1-2.308,1.9,9.592,9.592,0,0,1-3.169,4.814c-2.01,1.565-4.7,2.133-8,1.689a3.453,3.453,0,0,0-2.844.733A9.149,9.149,0,0,0,2.507,40.74a.7.7,0,0,1-1.185.414Z" transform="translate(0 0)" fill="#b7f07d"/><g transform="translate(9.093 31.131)"><path d="M354.347,262.207l-.1-.1h.218a.7.7,0,1,0,0-1.394h-.218l.1-.1a.7.7,0,0,0-.985-.985l-1.081,1.081h-.032a2.809,2.809,0,0,1-2.141-.989l-1.192-1.4a.7.7,0,0,0-1.061.9l1.192,1.4q.11.129.229.248a4.2,4.2,0,0,0,2.973,1.231h.032l1.081,1.081a.7.7,0,1,0,.985-.986Z" transform="translate(-340.956 -258.084)" fill="#46a655"/><path d="M203.718,324.626l-.826-1.286.007-.031a4.2,4.2,0,0,0-.764-3.443L201.02,318.4a.7.7,0,0,0-1.109.844l1.114,1.462a2.809,2.809,0,0,1,.511,2.3l-.007.031-1.286.826a.7.7,0,1,0,.753,1.172l.114-.073-.046.213a.7.7,0,1,0,1.362.3l.046-.213.073.114a.7.7,0,1,0,1.172-.753Z" transform="translate(-199.769 -315.395)" fill="#46a655"/></g><g transform="translate(1.356 21.362)"><path d="M30.917,450.923a8.709,8.709,0,0,1,.165-.872l-1.317,1.317a.7.7,0,0,0,1.152-.445Z" transform="translate(-29.765 -431.545)" fill="#7fdc48"/><path d="M179.349,48.668c.625-1.246.924-3.807.022-5.253L165.736,57.05l.139.017c3.3.445,5.988-.123,8-1.689a9.592,9.592,0,0,0,3.169-4.814A3.9,3.9,0,0,0,179.349,48.668Z" transform="translate(-159.548 -43.415)" fill="#7fdc48"/></g></g></svg>