<svg xmlns="http://www.w3.org/2000/svg" width="26.471" height="28.361" viewBox="0 0 26.471 28.361"><g transform="translate(-32 -16)"><g transform="translate(50.908 24.508)"><g transform="translate(2.363 9.454)"><path d="M394.363,330.4h-1.891a.473.473,0,0,1-.473-.473V320h2.836v9.926A.473.473,0,0,1,394.363,330.4Z" transform="translate(-392 -320)" fill="#fabe19"/></g><g transform="translate(3.782 9.454)"><path d="M416,330.4h.945a.473.473,0,0,0,.473-.473V320H416Z" transform="translate(-416 -320)" fill="#f5871e"/></g><g transform="translate(0 6.618)"><path d="M359.09,274.836h-6.618a.473.473,0,0,1-.473-.473v-1.891a.473.473,0,0,1,.473-.473h6.618a.473.473,0,0,1,.473.473v1.891A.473.473,0,0,1,359.09,274.836Z" transform="translate(-352 -272)" fill="#463c4b"/></g><g transform="translate(0 6.618)"><path d="M353.418,274.363v-1.891a.473.473,0,0,1,.473-.473h-1.418a.473.473,0,0,0-.473.473v1.891a.473.473,0,0,0,.473.473h1.418A.473.473,0,0,1,353.418,274.363Z" transform="translate(-352 -272)" fill="#555a6e"/></g><g transform="translate(0.473 0)"><path d="M365.672,160h-4.727a.945.945,0,0,0-.945.945v5.672h6.618v-5.672A.945.945,0,0,0,365.672,160Z" transform="translate(-360 -160)" fill="#b9af9b"/></g><g transform="translate(0.473 0)"><path d="M362.363,160h-1.418a.945.945,0,0,0-.945.945v5.672h1.418v-5.672A.945.945,0,0,1,362.363,160Z" transform="translate(-360 -160)" fill="#f0e1cd"/></g><g transform="translate(2.836 0)"><path d="M400,160h.473v6.618H400Z" transform="translate(-400 -160)" fill="#9b917d"/></g><g transform="translate(4.254 0)"><path d="M424,160h.473v6.618H424Z" transform="translate(-424 -160)" fill="#9b917d"/></g><g transform="translate(5.672 0)"><path d="M448,160h.473v6.618H448Z" transform="translate(-448 -160)" fill="#9b917d"/></g></g><g transform="translate(35.782 16)"><g transform="translate(7.563 0)"><path d="M227.309,44.361h-2.836a.473.473,0,0,1-.473-.473V16.473a.473.473,0,0,1,.473-.473h2.836a.473.473,0,0,1,.473.473V43.889A.473.473,0,0,1,227.309,44.361Z" transform="translate(-224 -16)" fill="#fabe19"/></g><g transform="translate(9.454 0.473)"><path d="M256,51.889h1.418a.473.473,0,0,0,.473-.473V24h-1.418a.473.473,0,0,0-.473.473Z" transform="translate(-256 -24)" fill="#f5871e"/></g><g transform="translate(0 1.891)"><path d="M112.071,48H98.836A2.836,2.836,0,0,0,96,50.836h18.908A2.836,2.836,0,0,0,112.071,48Z" transform="translate(-96 -48)" fill="#555a6e"/></g><g transform="translate(7.09 0.945)"><path d="M220.254,36.727h-3.782a.473.473,0,0,1-.473-.473V32.473a.473.473,0,0,1,.473-.473h3.782a.473.473,0,0,1,.473.473v3.782A.473.473,0,0,1,220.254,36.727Z" transform="translate(-216 -32)" fill="#555a6e"/></g><g transform="translate(9.454 0.945)"><path d="M257.891,36.727h-1.418a.473.473,0,0,1-.473-.473V32.473a.473.473,0,0,1,.473-.473h1.418a.473.473,0,0,1,.473.473v3.782A.473.473,0,0,1,257.891,36.727Z" transform="translate(-256 -32)" fill="#463c4b"/></g></g><g transform="translate(32 24.508)"><g transform="translate(0 0)"><path d="M35.782,170.4a1.278,1.278,0,0,0,.832-.308l2.476-2.122a1.358,1.358,0,0,0,.331-1.639l-2.954-5.908a.765.765,0,0,0-1.368,0l-2.954,5.908a1.358,1.358,0,0,0,.331,1.639l2.476,2.122A1.278,1.278,0,0,0,35.782,170.4Z" transform="translate(-32 -160)" fill="#463c4b"/></g><g transform="translate(0 0.161)"><path d="M32.473,169.981a.473.473,0,0,1-.473-.473,1.365,1.365,0,0,1,.143-.607l2.954-5.908a.473.473,0,1,1,.846.423l-2.954,5.908a.416.416,0,0,0-.044.185A.473.473,0,0,1,32.473,169.981Z" transform="translate(-32 -162.732)" fill="#555a6e"/></g><g transform="translate(2.836 8.508)"><path d="M80.945,304a.945.945,0,0,0-.945.945v1.891h1.891v-1.891A.945.945,0,0,0,80.945,304Z" transform="translate(-80 -304)" fill="#f0e1cd"/></g><g transform="translate(3.782 8.981)"><path d="M96.473,312a.473.473,0,0,1,.473.473v1.891H96v-1.891A.473.473,0,0,1,96.473,312Z" transform="translate(-96 -312)" fill="#b9af9b"/></g><g transform="translate(2.363 11.345)"><path d="M74.363,360.508H72.473a.473.473,0,0,1-.473-.473v-7.563a.473.473,0,0,1,.473-.473h1.891a.473.473,0,0,1,.473.473v7.563A.473.473,0,0,1,74.363,360.508Z" transform="translate(-72 -352)" fill="#fabe19"/></g><g transform="translate(3.782 11.817)"><path d="M96,368.036h.945a.473.473,0,0,0,.473-.473V360H96Z" transform="translate(-96 -360)" fill="#f5871e"/></g></g></g></svg>