<svg xmlns="http://www.w3.org/2000/svg" width="28.863" height="28.596" viewBox="0 0 28.863 28.596"><g transform="translate(0 -2.372)"><path d="M21.506,82.174a11.335,11.335,0,0,1-6.666-1.886,7.669,7.669,0,0,1-3.333-5.911c0-1.585-.938-2.011-1.886-2.012a5.47,5.47,0,0,0-1.949.44A12.6,12.6,0,1,0,25.153,84.438C25.153,81.985,22.449,82.174,21.506,82.174ZM7.546,80.224a2.166,2.166,0,1,1,0-4.276,2.166,2.166,0,1,1,0,4.276Z" transform="translate(0 -66.046)" fill="#fad59a"/><path d="M58.417,246.318a12.578,12.578,0,0,1-19.622,9.355,12.577,12.577,0,0,0,22.966-7.088C61.761,246.359,59.534,246.309,58.417,246.318Z" transform="translate(-36.608 -230.193)" fill="#f2c04b"/><circle cx="2.138" cy="2.138" r="2.138" transform="translate(1.761 15.499)" fill="#fbe709"/><circle cx="2.138" cy="2.138" r="2.138" transform="translate(5.031 21.473)" fill="#f59393"/><circle cx="2.138" cy="2.138" r="2.138" transform="translate(11.193 23.862)" fill="#a1e42c"/><path d="M2.138,0A2.138,2.138,0,1,1,0,2.138,2.138,2.138,0,0,1,2.138,0Z" transform="translate(17.419 20.781)" fill="#314c52"/><path d="M303.955,94.823l-1.211.855,9.933,13.308a1.035,1.035,0,0,0,1.691-1.192l-9.181-13.84Z" transform="translate(-285.677 -86.419)" fill="#da8659"/><path d="M332.424,94.5l9.128,13.877a1.034,1.034,0,0,1,.07,1.021,1.034,1.034,0,0,0,.753-1.6l-9.182-13.84Z" transform="translate(-313.684 -86.419)" fill="#c56e37"/><path d="M285.748,67.521l-2.442,1.724-1.161-1.491,2.569-1.812Z" transform="translate(-266.238 -59.986)" fill="#dfdfdf"/><path d="M313.138,66.522l1.087,1.542.769-.542-1.034-1.579Z" transform="translate(-295.485 -59.986)" fill="#bebebe"/><path d="M247.025,5.956a2.918,2.918,0,0,0-.646-2.007,4.165,4.165,0,0,0-2.813-1.479l-.753-.1a.116.116,0,0,0-.11.182l.241.342a.348.348,0,0,1-.418.523l-.066-.027a.116.116,0,0,0-.158.083,4.056,4.056,0,0,0,.48,3.01,2.918,2.918,0,0,0,1.674,1.282Z" transform="translate(-228.55)" fill="#f2c04b"/><path d="M251.482,7.11a2.483,2.483,0,0,0,1.134.658l2.569-1.812a2.918,2.918,0,0,0-.646-2.007,4.165,4.165,0,0,0-2.813-1.479l-.753-.1a.114.114,0,0,0-.121.072c.534.415,2.38,1.985,1.819,3.437A2.592,2.592,0,0,1,251.482,7.11Z" transform="translate(-236.71 0)" fill="#90421d"/></g></svg>