<svg xmlns="http://www.w3.org/2000/svg" width="40.063" height="44.084" viewBox="0 0 40.063 44.084"><g transform="translate(-591.678 -443.629)"><rect width="18.926" height="1.862" transform="matrix(0.615, -0.788, 0.788, 0.615, 612.469, 465.217)" fill="#37373a"/><rect width="1.863" height="19.677" transform="matrix(0.654, -0.756, 0.756, 0.654, 612.594, 467.556)" fill="#37373a"/><rect width="1.861" height="21.032" transform="matrix(0.621, -0.784, 0.784, 0.621, 597.787, 453.904)" fill="#37373a"/><rect width="1.861" height="16.071" transform="translate(612.227 468.248) rotate(-6.481)" fill="#37373a"/><circle cx="9.331" cy="9.331" r="9.331" transform="translate(603.979 457.59)" fill="#fa8707"/><path d="M187,337.356a9.2,9.2,0,0,1-1.583,5.2,9.328,9.328,0,1,1-12.942-12.942,9.2,9.2,0,0,1,5.2-1.583A9.334,9.334,0,0,1,187,337.356Z" transform="translate(435.644 129.566)" fill="#b46621"/><path d="M192.037,337.356a9.2,9.2,0,0,1-1.583,5.2,9.2,9.2,0,0,1-5.2,1.583,9.334,9.334,0,0,1-9.329-9.33,9.2,9.2,0,0,1,1.583-5.2,9.2,9.2,0,0,1,5.2-1.583A9.334,9.334,0,0,1,192.037,337.356Z" transform="translate(430.605 129.57)" fill="#f2c04b"/><g transform="translate(591.678 445.751)"><path d="M142.656,298.058a5.355,5.355,0,0,1-1.242,3.438,1.428,1.428,0,0,1-.109.149,5.407,5.407,0,0,1-4.114,1.878,5.461,5.461,0,1,1,5.466-5.466Z" transform="translate(-131.724 -292.602)" fill="#122347"/><path d="M143.087,298.058a5.355,5.355,0,0,1-1.242,3.438,6.846,6.846,0,0,1-2.643.517,6.991,6.991,0,0,1-6.828-5.476,5.466,5.466,0,0,1,10.713,1.521Z" transform="translate(-132.156 -292.602)" fill="#335f66"/></g><g transform="translate(620.809 443.629)"><path d="M229.742,291.719a5.357,5.357,0,0,1-1.242,3.438,1.406,1.406,0,0,1-.11.149,5.406,5.406,0,0,1-4.114,1.878,5.461,5.461,0,1,1,5.466-5.466Z" transform="translate(-218.81 -286.263)" fill="#122347"/><path d="M230.174,291.719a5.357,5.357,0,0,1-1.242,3.438,6.848,6.848,0,0,1-2.643.517,6.991,6.991,0,0,1-6.828-5.476,5.466,5.466,0,0,1,10.713,1.521Z" transform="translate(-219.242 -286.263)" fill="#335f66"/></g><g transform="translate(624.766 476.154)"><path d="M237.144,386.737a3.2,3.2,0,0,1-.742,2.053.9.9,0,0,1-.065.089A3.228,3.228,0,0,1,233.881,390a3.26,3.26,0,1,1,3.263-3.263Z" transform="translate(-230.618 -383.48)" fill="#122347"/><path d="M237.4,386.737a3.2,3.2,0,0,1-.741,2.053,4.091,4.091,0,0,1-1.578.308,4.174,4.174,0,0,1-4.076-3.269,3.263,3.263,0,0,1,6.4.908Z" transform="translate(-230.876 -383.48)" fill="#335f66"/></g><g transform="translate(611.781 481.192)"><path d="M198.072,401.73a3.2,3.2,0,0,1-.742,2.053.888.888,0,0,1-.065.089,3.229,3.229,0,0,1-2.456,1.121,3.26,3.26,0,1,1,3.263-3.263Z" transform="translate(-191.545 -398.472)" fill="#122347"/><path d="M198.33,401.73a3.2,3.2,0,0,1-.742,2.053,4.091,4.091,0,0,1-1.578.309,4.174,4.174,0,0,1-4.076-3.269,3.263,3.263,0,0,1,6.4.908Z" transform="translate(-191.803 -398.472)" fill="#335f66"/></g></g></svg>