<svg xmlns="http://www.w3.org/2000/svg" width="28.039" height="28.039" viewBox="0 0 28.039 28.039"><g transform="translate(8.269 21.867)"><path d="M162.435,400.943,156.75,399.3l-5.685,1.643a.668.668,0,0,0-.066.312v3.4h11.5v-3.4A.667.667,0,0,0,162.435,400.943Z" transform="translate(-151 -399.3)" fill="#646d73"/></g><path d="M261.75,404.65v-3.4a.667.667,0,0,0-.066-.312L256,399.3v5.35Z" transform="translate(-241.98 -377.433)" fill="#474f54"/><path d="M27.218,1.643h-4.2c.007-.277.035-.539.035-.821A.813.813,0,0,0,22.234,0H5.8a.813.813,0,0,0-.821.821c0,.283.028.544.035.821H.821A.821.821,0,0,0,0,2.464V4.545A8.634,8.634,0,0,0,8.2,13.1,8.143,8.143,0,0,0,11.539,15.9a12.274,12.274,0,0,1-3.023,7.344.583.583,0,0,0-.181.263H19.7a.583.583,0,0,0-.181-.263A12.117,12.117,0,0,1,16.5,15.9,8.165,8.165,0,0,0,19.845,13.1a8.634,8.634,0,0,0,8.194-8.552V2.464a.821.821,0,0,0-.821-.821ZM1.643,4.545V3.286H5.089A21.815,21.815,0,0,0,7.129,11.32,7.008,7.008,0,0,1,1.643,4.545Zm24.753,0a7.008,7.008,0,0,1-5.481,6.773A21.9,21.9,0,0,0,22.95,3.286H26.4Z" fill="#fed843"/><path d="M269.2,1.643H265c.007-.277.035-.539.035-.821A.813.813,0,0,0,264.215,0H256V23.51h5.685a.583.583,0,0,0-.181-.263,12.117,12.117,0,0,1-3.023-7.344,8.165,8.165,0,0,0,3.344-2.806,8.634,8.634,0,0,0,8.194-8.552V2.464a.821.821,0,0,0-.821-.821Zm-.821,2.9a7.008,7.008,0,0,1-5.481,6.773,21.9,21.9,0,0,0,2.035-8.033h3.446Z" transform="translate(-241.98)" fill="#fabe2c"/><g transform="translate(10.464 3.733)"><path d="M195.945,74.882l-1.311-.681-1.311.681a.821.821,0,0,1-1.189-.863l.241-1.459-1.051-1.037a.821.821,0,0,1,.454-1.4l1.46-.22.661-1.321a.855.855,0,0,1,1.47,0l.661,1.321,1.46.22a.821.821,0,0,1,.454,1.4l-1.051,1.037.241,1.459a.821.821,0,0,1-1.189.863Z" transform="translate(-191.079 -68.167)" fill="#fabe2c"/></g><path d="M257.311,74.882a.821.821,0,0,0,1.189-.863l-.241-1.459,1.051-1.037a.821.821,0,0,0-.454-1.4l-1.46-.22-.661-1.321a.8.8,0,0,0-.735-.418V74.2Z" transform="translate(-241.98 -64.433)" fill="#ff9100"/><g transform="translate(6.626 26.396)"><path d="M134.965,483.643H121.821a.821.821,0,1,1,0-1.643h13.143a.821.821,0,1,1,0,1.643Z" transform="translate(-121 -482)" fill="#474f54"/></g><path d="M262.572,482H256v1.643h6.572a.821.821,0,0,0,0-1.643Z" transform="translate(-241.98 -455.604)" fill="#32393f"/></svg>