<svg xmlns="http://www.w3.org/2000/svg" width="127.028" height="127.028" viewBox="0 0 127.028 127.028"><g transform="translate(-1312.484 -2230.828)"><circle cx="63.514" cy="63.514" r="63.514" transform="translate(1312.484 2230.828)" fill="#087a91"/><g transform="translate(1334.781 2245.125)"><path d="M67.045,28.928a3.04,3.04,0,0,0-2.194-.918h-.016c.016-.265.016-2.086.016-2.334A26.073,26.073,0,0,0,38.4,0,26.073,26.073,0,0,0,11.948,25.676c0,.249,0,2.069.015,2.334h-.015a3.112,3.112,0,1,0,0,6.224h3.563C17.658,44.006,27.087,51.35,38.4,51.35s20.741-7.345,22.889-17.116h3.563a3.121,3.121,0,0,0,3.112-3.112A3.041,3.041,0,0,0,67.045,28.928Zm0,0" transform="translate(-7.272 0)" fill="#af8066"/><path d="M64.877,185.395s-1.556,9.336,1.555,15.56c2.77,5.539,1.836,12.323-2.8,15.933H13.218c-4.637-3.61-5.57-10.394-2.8-15.933,3.112-6.224,1.556-15.56,1.556-15.56Zm0,0" transform="translate(-7.295 -153.009)" fill="#90421d"/><g transform="translate(4.676 -0.001)"><path d="M62.414,110.715a2.315,2.315,0,0,0-.156.264h-.016A2.554,2.554,0,0,1,62.414,110.715Zm0,0" transform="translate(-55.941 -91.2)" fill="#90421d"/><path d="M79.4,25.676c0,.249,0,2.069-.016,2.334H76.174c-.047-.56-.14-1.12-.233-1.681-.14-.684-.311-1.354-.514-2.023v-.015A35.373,35.373,0,0,0,73.156,19.9a5.082,5.082,0,0,0-1.54-1.23c-12.837,1.074-19.808-3.75-22.873-6.877a11.545,11.545,0,0,0-2.91-.638c-1.431,2.3-4.964,6.271-13.024,8.62a2.313,2.313,0,0,1,.156-.264,2.552,2.552,0,0,0-.171.264,37.494,37.494,0,0,0-2.334,4.513v.015c-.2.669-.373,1.338-.513,2.023-.094.56-.187,1.12-.233,1.681H26.507c-.015-.265-.015-2.086-.015-2.334A26.073,26.073,0,0,1,52.943,0,26.073,26.073,0,0,1,79.4,25.676Zm0,0" transform="translate(-26.492 0.001)" fill="#90421d"/><path d="M62.414,110.715a2.315,2.315,0,0,0-.156.264h-.016A2.554,2.554,0,0,1,62.414,110.715Zm0,0" transform="translate(-55.941 -91.2)" fill="#90421d"/></g><path d="M43.575,335.465h-24.9A18.666,18.666,0,0,0,.008,354.136v9.336a3.121,3.121,0,0,0,3.112,3.112H59.135l1.618-19.792A18.668,18.668,0,0,0,43.575,335.465Zm0,0" transform="translate(0 -276.86)" fill="#ecf0f1"/><path d="M159.414,288.941v11.795c-3.47,9.9-4.668,27.525-4.668,27.525s-1.2-17.629-4.668-27.525V288.941Zm0,0" transform="translate(-123.79 -238.537)" fill="#745b3e"/><path d="M15.511,165.138H11.948a3.112,3.112,0,1,1,0-6.224h3.221a16.992,16.992,0,0,0-.109,2.007,20.967,20.967,0,0,0,.125,2.209C15.262,163.815,15.371,164.468,15.511,165.138Zm0,0" transform="translate(-7.272 -131.079)" fill="#af814d"/><path d="M313.089,162.026a3.121,3.121,0,0,1-3.112,3.112h-3.563c.14-.669.249-1.323.327-2.007a20.783,20.783,0,0,0,.124-2.209,16.989,16.989,0,0,0-.109-2.007h3.221A3.135,3.135,0,0,1,313.089,162.026Zm0,0" transform="translate(-252.737 -131.079)" fill="#af814d"/><path d="M142.806,335.465v3.594a22.448,22.448,0,0,0-1.556-3.594Zm0,0" transform="translate(-116.494 -276.693)" fill="#95a5a5"/><path d="M204.6,335.465a22.387,22.387,0,0,0-1.556,3.594v-3.594Zm0,0" transform="translate(-167.459 -276.693)" fill="#95a5a5"/><path d="M31.127,366.584H3.12a3.121,3.121,0,0,1-3.112-3.112v-9.336a18.666,18.666,0,0,1,18.672-18.672H24.9a11.357,11.357,0,0,0-10.892,10.378s6.224,0,7.78,2.07a12.42,12.42,0,0,0-6.224,8.293S26.46,360.361,31.127,366.584Zm0,0" transform="translate(0 -276.86)" fill="#ecf0f1"/><path d="M206.185,346.792l-1.618,19.792H176.559c4.668-6.224,15.56-10.378,15.56-10.378a12.42,12.42,0,0,0-6.224-8.293c1.555-2.07,7.78-2.07,7.78-2.07a11.357,11.357,0,0,0-10.892-10.378h6.224A18.668,18.668,0,0,1,206.185,346.792Zm0,0" transform="translate(-145.701 -276.86)" fill="#ecf0f1"/><path d="M192.119,356.206s-10.892,4.155-15.56,10.378c0,0,1.2-17.629,4.668-27.525a22.392,22.392,0,0,1,1.556-3.594,11.357,11.357,0,0,1,10.892,10.378s-6.224,0-7.78,2.07A12.42,12.42,0,0,1,192.119,356.206Zm0,0" transform="translate(-145.655 -276.86)" fill="#bdc3c7"/><path d="M52.436,470.991H36.876a1.556,1.556,0,0,1,0-3.112h15.56a1.556,1.556,0,1,1,0,3.112Zm0,0" transform="translate(-29.088 -385.934)" fill="#95a5a5"/><path d="M403.806,345.252v-9.787h-6.224v9.787a10.9,10.9,0,0,0-7.484,7.9l.249.591,4.575,11.172a10.7,10.7,0,0,0,5.773,1.665,10.894,10.894,0,0,0,3.112-21.333Zm0,0" transform="translate(-321.856 -276.86)" fill="#67b9cc"/><path d="M412.751,434.046a10.884,10.884,0,0,1-10.892,10.892,10.7,10.7,0,0,1-5.773-1.665L391.512,432.1a12.2,12.2,0,0,1,8.791-1.167C406.527,432.49,406.527,435.6,412.751,434.046Zm0,0" transform="translate(-323.021 -355.213)" fill="#f0c419"/><path d="M411.586,355.692c-6.224,1.556-6.224-1.556-12.448-3.112a12.2,12.2,0,0,0-8.791,1.167l-.249-.591a10.9,10.9,0,0,1,7.484-7.9v-9.787h6.224v9.787A10.886,10.886,0,0,1,411.586,355.692Zm0,0" transform="translate(-321.856 -276.86)" fill="#67b9cc"/><path d="M425.8,329.749h-9.336a1.556,1.556,0,1,1,0-3.112H425.8a1.556,1.556,0,0,1,0,3.112Zm0,0" transform="translate(-342.292 -269.41)" fill="#2fa8cc"/><path d="M320.986,366.279l-2.054-2.459L314.3,358.3v-14h-6.224v14l-5.819,6.83-.98,1.152a4.661,4.661,0,0,0,3.641,7.577h12.416a4.667,4.667,0,0,0,3.657-7.577Zm0,0" transform="translate(-247.724 -284.132)" fill="#67b9cc"/><path d="M317.329,465.114H304.913a4.661,4.661,0,0,1-3.641-7.577l.98-1.152a9.491,9.491,0,0,0,6.847,1.245c4.652-.809,7.11-2.194,9.834-2.552l2.054,2.459a4.667,4.667,0,0,1-3.657,7.577Zm0,0" transform="translate(-247.724 -375.39)" fill="#955ba5"/><path d="M328.3,363.82c-2.723.358-5.181,1.743-9.834,2.552a9.491,9.491,0,0,1-6.847-1.245l5.819-6.83v-14h6.224v14Zm0,0" transform="translate(-257.079 -284.132)" fill="#67b9cc"/><path d="M337.849,338.577h-9.336a1.556,1.556,0,1,1,0-3.112h9.336a1.556,1.556,0,1,1,0,3.112Zm0,0" transform="translate(-269.709 -276.691)" fill="#2fa8cc"/><path d="M96.572,366.584c-4.668-6.224-15.559-10.378-15.559-10.378a12.42,12.42,0,0,1,6.224-8.293c-1.556-2.07-7.78-2.07-7.78-2.07a11.357,11.357,0,0,1,10.892-10.378,22.447,22.447,0,0,1,1.556,3.594C95.374,348.955,96.572,366.584,96.572,366.584Zm0,0" transform="translate(-65.546 -276.86)" fill="#bdc3c7"/><path d="M90.824,73.66a19.952,19.952,0,0,1-.684,5.166q-.257.886-.56,1.727c-.015.047-.046.109-.062.156-.125.311-.249.607-.373.918-.156.327-.311.669-.467.98-.14.264-.28.529-.42.778a20.182,20.182,0,0,1-1.634,2.49c-.2.264-.4.514-.622.778-.14.171-.3.357-.452.529-.124.14-.249.264-.389.4a8.679,8.679,0,0,1-.653.669,22.932,22.932,0,0,1-4.917,3.657c-.218.125-.451.249-.684.358-.3.156-.607.311-.934.451a23.739,23.739,0,0,1-3.143,1.2c-.187.063-.389.109-.591.171-.42.109-.84.218-1.276.311-.2.047-.42.093-.638.125-.233.046-.467.093-.685.124-.669.109-1.354.2-2.054.265-.7.046-1.4.078-2.1.078s-1.4-.032-2.1-.078c-.7-.063-1.385-.156-2.054-.265-.218-.031-.452-.078-.685-.124-.218-.032-.436-.078-.638-.125-.436-.094-.856-.2-1.276-.311-.2-.063-.4-.109-.591-.171A23.74,23.74,0,0,1,57,92.72c-.327-.14-.638-.3-.934-.451-.233-.109-.467-.233-.684-.358a22.953,22.953,0,0,1-4.917-3.657,8.806,8.806,0,0,1-.653-.669c-.14-.14-.264-.265-.389-.4-.156-.171-.311-.358-.451-.529-.218-.264-.42-.514-.622-.778a20.184,20.184,0,0,1-1.634-2.49c-.14-.249-.28-.514-.42-.778-.156-.311-.311-.653-.467-.98-.125-.311-.249-.607-.373-.918-.016-.047-.047-.109-.063-.156q-.3-.84-.56-1.727a19.953,19.953,0,0,1-.685-5.166,18.378,18.378,0,0,1,.094-1.867c.031-.311.062-.607.109-.918a9.075,9.075,0,0,1,.14-.9c.109-.545.233-1.073.389-1.6l.824-4.5c.56-.14,1.105-.28,1.634-.451C55.41,61.072,58.942,57.1,60.374,54.8a7.674,7.674,0,0,0,.887-1.82,12.914,12.914,0,0,0,1.992,2.443c3.05,3.112,10.02,7.967,22.9,6.893a5.082,5.082,0,0,1,1.54,1.23c.016,0,.016.015.031.031a12.549,12.549,0,0,1,2.225,4.31c.14.482.264.9.342,1.26.031.171.078.342.125.514a2.684,2.684,0,0,0,.062.311,9.069,9.069,0,0,1,.14.9c.046.311.078.607.109.918A18.38,18.38,0,0,1,90.824,73.66Zm0,0" transform="translate(-36.357 -43.642)" fill="#907250"/><path d="M81.013,141.258H91.9a1.556,1.556,0,0,1,1.556,1.556v1.556a6.224,6.224,0,0,1-6.224,6.224H85.681a6.224,6.224,0,0,1-6.224-6.224v-1.556A1.556,1.556,0,0,1,81.013,141.258Zm0,0" transform="translate(-65.542 -116.521)" fill="#9fc9d3"/><path d="M195.771,141.258h10.892a1.556,1.556,0,0,1,1.556,1.556v1.556a6.224,6.224,0,0,1-6.224,6.224h-1.555a6.224,6.224,0,0,1-6.224-6.224v-1.556A1.556,1.556,0,0,1,195.771,141.258Zm0,0" transform="translate(-160.211 -116.521)" fill="#9fc9d3"/><path d="M156.77,132.577a1.549,1.549,0,0,1-1.042-.4,3.481,3.481,0,0,0-4.809,0,1.556,1.556,0,0,1-2.085-2.31,6.579,6.579,0,0,1,8.978,0,1.556,1.556,0,0,1-1.043,2.711Zm0,0" transform="translate(-122.356 -105.657)" fill="#35495e"/><path d="M51.516,137.658l-6.613,2.49a1.3,1.3,0,0,1-.545.109h-.125v-.015c.016-.452.047-.887.094-1.323.046-.56.14-1.12.233-1.681a1.79,1.79,0,0,1,.078-.311l5.788-2.194a1.561,1.561,0,0,1,1.089,2.925Zm0,0" transform="translate(-36.431 -111.056)" fill="#35495e"/><path d="M270.175,140.241v.015h-.125a1.3,1.3,0,0,1-.545-.109l-6.613-2.49a1.561,1.561,0,0,1,1.089-2.925l5.788,2.194a1.793,1.793,0,0,1,.078.311c.094.56.187,1.12.233,1.681C270.128,139.354,270.159,139.79,270.175,140.241Zm0,0" transform="translate(-216.019 -111.056)" fill="#35495e"/><path d="M109.894,156.021v.5a6.222,6.222,0,0,1-6.224,6.224h-1.556a5.834,5.834,0,0,1-2.707-.638A11.109,11.109,0,0,1,109.894,156.021Zm0,0" transform="translate(-81.993 -128.681)" fill="#67b9cc"/><path d="M219.561,156.269v.4a6.223,6.223,0,0,1-6.224,6.224h-1.555a6.1,6.1,0,0,1-3.8-1.307C209.743,158.712,213.15,155.677,219.561,156.269Zm0,0" transform="translate(-171.562 -128.836)" fill="#67b9cc"/><path d="M79.965,144.878H78.409a7.789,7.789,0,0,1-7.78-7.78v-1.556a3.116,3.116,0,0,1,3.112-3.112H84.633a3.116,3.116,0,0,1,3.112,3.112V137.1A7.789,7.789,0,0,1,79.965,144.878Zm-6.224-9.336V137.1a4.673,4.673,0,0,0,4.668,4.668h1.556a4.673,4.673,0,0,0,4.668-4.668v-1.556Zm0,0" transform="translate(-58.173 -109.245)" fill="#35495e"/><path d="M194.722,144.878h-1.555a7.789,7.789,0,0,1-7.78-7.78v-1.556a3.116,3.116,0,0,1,3.112-3.112h10.892a3.116,3.116,0,0,1,3.112,3.112V137.1A7.789,7.789,0,0,1,194.722,144.878Zm-6.224-9.336V137.1a4.673,4.673,0,0,0,4.668,4.668h1.555a4.673,4.673,0,0,0,4.668-4.668v-1.556Zm0,0" transform="translate(-152.938 -109.245)" fill="#35495e"/></g></g></svg>