<svg xmlns="http://www.w3.org/2000/svg" width="127.028" height="127.028" viewBox="0 0 127.028 127.028"><g transform="translate(-901.988 -2230.828)"><circle cx="63.514" cy="63.514" r="63.514" transform="translate(901.988 2230.828)" fill="#087a91"/><path d="M304.981,255c1.019,0,1.846,1.1,1.846,2.452V342.09h-.114l-23.537-31.271a1.545,1.545,0,0,0-2.611,0L257.028,342.09H257V257.452c0-1.354.827-2.452,1.846-2.452Z" transform="translate(682.586 1992.76)" fill="#a43d2e"/><path d="M21491.412,19511.852h0v0l-.109,0-23.537-31.273a1.634,1.634,0,0,0-1.3-.719,1.516,1.516,0,0,0-.957.354v-55.453h24.066c1.016,0,1.844,1.1,1.844,2.449Z" transform="translate(-20502 -17177)" fill="#991b08" stroke="rgba(0,0,0,0)" stroke-miterlimit="10" stroke-width="1"/></g></svg>