<svg xmlns="http://www.w3.org/2000/svg" width="28.06" height="28.06" viewBox="0 0 28.06 28.06"><g transform="translate(0 -0.5)"><path d="M160.874,231.79a.423.423,0,0,1-.3-.124l-6.438-6.438a.424.424,0,0,1,.6-.6l6.438,6.438a.424.424,0,0,1-.3.724Zm0,0" transform="translate(-145.573 -211.729)" fill="#8ac129"/><path d="M182.748,183.672a.423.423,0,0,1-.3-.124l-8.072-8.072a.424.424,0,1,1,.6-.6l8.072,8.071a.424.424,0,0,1-.3.724Zm0,0" transform="translate(-164.703 -164.703)" fill="#ff4c4c"/><path d="M230.866,161.8a.423.423,0,0,1-.3-.124l-6.438-6.438a.424.424,0,0,1,.6-.6l6.437,6.437a.424.424,0,0,1-.3.724Zm0,0" transform="translate(-211.729 -145.57)" fill="#8ac129"/><path d="M354.075,44.738a.422.422,0,0,1-.3-.124l-6.13-6.13a.424.424,0,1,1,.6-.6l6.13,6.13a.424.424,0,0,1-.3.724Zm0,0" transform="translate(-328.475 -35.218)" fill="#ff4c4c"/><path d="M43.813,355a.423.423,0,0,1-.3-.124l-6.13-6.13a.424.424,0,0,1,.6-.6l6.13,6.13a.424.424,0,0,1-.3.724Zm0,0" transform="translate(-35.217 -328.475)" fill="#ff4c4c"/><path d="M7.8,320.368c-2.611-.494-5.328-.572-7.526,1.625A.935.935,0,0,0,1.6,323.316c1.782-1.782,4.05-1.52,6.661-.946C8.109,321.7,7.946,321.026,7.8,320.368Zm0,0" transform="translate(0 -302.068)" fill="#ffbf14"/><path d="M122.106,322.085c-.389-.074-.78-.138-1.172-.187.142.648.3,1.288.446,1.951.386.067.781.149,1.183.237C122.414,323.41,122.253,322.746,122.106,322.085Zm0,0" transform="translate(-114.306 -303.785)" fill="#e0a812"/><path d="M190.093,2.1A.935.935,0,1,0,188.771.773c-5.214,5.214,2.367,13-1.891,17.262-2.018,2.018-4.659,1.415-7.717.705.156.672.313,1.348.44,2.019,2.924.652,6.1,1.1,8.6-1.4C193.43,14.13,185.838,6.351,190.093,2.1Zm0,0" transform="translate(-169.346 0)" fill="#ffbf14"/><path d="M179.6,335.355c.35.078.7.153,1.058.22-.12-.669-.27-1.331-.424-1.994-.352-.077-.71-.161-1.075-.245C179.316,334.007,179.473,334.68,179.6,335.355Zm0,0" transform="translate(-169.342 -314.596)" fill="#e0a812"/><path d="M139.615,136.049c-.156-.669-.314-1.355-.44-2.019-2.924-.652-6.1-1.1-8.6,1.4-5.2,5.2,2.351,13.021-1.89,17.262a.935.935,0,0,0,1.322,1.322c5.247-5.247-2.389-12.982,1.891-17.262C133.917,134.737,136.558,135.339,139.615,136.049Zm0,0" transform="translate(-121.375 -125.731)" fill="#45748c"/><path d="M306.119,138.936c-.358-.08-.72-.156-1.084-.225.115.667.262,1.329.415,1.992.363.079.733.165,1.108.252C306.4,140.286,306.244,139.6,306.119,138.936Zm0,0" transform="translate(-288.318 -130.637)" fill="#3a6175"/><path d="M369.312,129.186a.935.935,0,0,0-1.322,0c-1.782,1.782-4.05,1.52-6.661.946.149.679.31,1.341.458,2,2.888.546,5.449.452,7.526-1.625A.935.935,0,0,0,369.312,129.186Zm0,0" transform="translate(-341.526 -121.375)" fill="#45748c"/><path d="M362.364,151.383c-.339-.062-.685-.134-1.036-.211.149.679.31,1.341.458,2,.341.064.683.122,1.027.168C362.673,152.708,362.512,152.039,362.364,151.383Zm0,0" transform="translate(-341.526 -142.415)" fill="#3a6175"/></g></svg>