<svg xmlns="http://www.w3.org/2000/svg" width="28.333" height="28.219" viewBox="0 0 28.333 28.219"><g transform="translate(-1.408 -0.001)"><path d="M443.789,31.234l2.631.537a.511.511,0,0,1,.237.858l-2.08,1.593" transform="translate(-417.067 -29.392)" fill="#805333"/><path d="M136.718,235.1a9.416,9.416,0,0,1-2.374,2.839c-2.558,2.046-7.162,2.046-10.743,1.535a18.453,18.453,0,0,1-3.151-.747,23.212,23.212,0,0,0,2.778-2,14.328,14.328,0,0,0,7.536.184,5.766,5.766,0,0,0,3.714-3.141A11.717,11.717,0,0,0,136.718,235.1Zm0,0" transform="translate(-112.789 -219.994)" fill="#af8066"/><path d="M324.45,30c-1.734,2.318-2.046,3.07-2.046,5.116a9.215,9.215,0,0,1-1.207,4.323,11.718,11.718,0,0,1-2.241-1.325c1.049-2.317.45-5.1-1.156-6.067a9.984,9.984,0,0,0-1.315-.67,7.915,7.915,0,0,1,7.311-5.52,5.3,5.3,0,0,1,.936,2.123A2.561,2.561,0,0,1,324.45,30Zm0,0" transform="translate(-297.267 -24.33)" fill="#f18d46"/><path d="M246.784,1.526a7.915,7.915,0,0,0-7.311,5.52q-2.932-1.228-4.824.67l3.576-3.576c.578-.578,1.156-1.166,1.745-1.745,1.166-1.146,2.67-2.6,4.456-2.368A3.562,3.562,0,0,1,246.784,1.526Zm0,0" transform="translate(-220.256 0)" fill="#af8066"/><path d="M176.835,183.535c-.108.1-.22.215-.327.327" transform="translate(-165.543 -172.714)" fill="#7f5b53"/><path d="M160.5,194.641c-.107.1-.22.215-.327.327s-.22.215-.327.327" transform="translate(-149.865 -183.165)" fill="#7f5b53"/><path d="M119.531,118.568a5.766,5.766,0,0,1-3.714,3.141,14.328,14.328,0,0,1-7.536-.184,21.8,21.8,0,0,1-3.714-1.351l.507-.512c.363-.363.9-.9,1.514-1.509l.3-.3q.146-.153.307-.307c.1-.1.2-.21.312-.312l.65-.65c.108-.108.215-.22.327-.327s.215-.22.327-.327.22-.22.327-.327c.435-.44.859-.865,1.253-1.259l1.847-1.847q1.893-1.893,4.824-.67a9.984,9.984,0,0,1,1.315.67C119.981,113.468,120.579,116.251,119.531,118.568Zm0,0" transform="translate(-97.842 -104.785)" fill="#7f5b53"/><path d="M23.415,262.378a23.212,23.212,0,0,1-2.778,2,30.33,30.33,0,0,1-5.57,2.663.511.511,0,0,1-.532-.844l3.115-3.119,2.046-2.046H19.7A21.8,21.8,0,0,0,23.415,262.378Zm0,0" transform="translate(-12.976 -245.638)" fill="#59474e"/><path d="M409.234,53.269a.512.512,0,1,1-.512-.511A.512.512,0,0,1,409.234,53.269Zm0,0" transform="translate(-383.586 -49.646)" fill="#2c3e50"/><g transform="translate(13.045 18.964)"><path d="M301.715,444.358a.512.512,0,0,1-.184-.99.952.952,0,0,0,.12-.055,1.006,1.006,0,0,0-.184-.176.512.512,0,1,1,.592-.834,1.391,1.391,0,0,1,.646,1.16c-.032.263-.2.627-.808.861A.513.513,0,0,1,301.715,444.358Zm0,0" transform="translate(-295.931 -435.102)" fill="#59474e"/><path d="M351.613,437.941a.512.512,0,0,1-.184-.99,1.045,1.045,0,0,0,.12-.055,1,1,0,0,0-.181-.174.512.512,0,1,1,.592-.836,1.391,1.391,0,0,1,.644,1.16c-.032.263-.2.626-.808.86A.519.519,0,0,1,351.613,437.941Zm0,0" transform="translate(-342.888 -429.064)" fill="#59474e"/><path d="M256.163,412.1a.512.512,0,0,1-.5-.6l.358-2.128a.512.512,0,1,1,1.009.17l-.358,2.128A.512.512,0,0,1,256.163,412.1Zm0,0" transform="translate(-253.066 -403.793)" fill="#59474e"/><path d="M303.891,404.7a.512.512,0,0,1-.505-.6l.394-2.328a.512.512,0,1,1,1.009.171l-.395,2.329A.512.512,0,0,1,303.891,404.7Zm0,0" transform="translate(-297.979 -396.649)" fill="#59474e"/><path d="M274.74,329.418a.511.511,0,0,1-.324-.116l-4.691-3.852a1.023,1.023,0,0,1-.159-1.4c.313-.409,1.369-1.791,1.8-2.225a.512.512,0,1,1,.723.723c-.31.311-1.118,1.337-1.714,2.122l4.685,3.843a.511.511,0,0,1-.325.907Zm0,0" transform="translate(-265.964 -321.667)" fill="#59474e"/><path d="M217.624,334.036a.507.507,0,0,1-.324-.116l-5.147-4.231a1.023,1.023,0,0,1-.154-1.4c.226-.3,1.006-1.321,1.518-1.916a.512.512,0,1,1,.776.665c-.493.572-1.256,1.574-1.479,1.868l5.133,4.225a.512.512,0,0,1-.325.906Zm0,0" transform="translate(-211.79 -325.906)" fill="#59474e"/></g></g></svg>