<svg xmlns="http://www.w3.org/2000/svg" width="27.449" height="26.999" viewBox="0 0 27.449 26.999"><g transform="translate(0 -0.001)"><path d="M213.247,110.631V105.2h-6.763v5.432a8.322,8.322,0,1,0,6.763,0Zm0,0" transform="translate(-190.738 -99.559)" fill="#c9fff7"/><path d="M246.233,263.907A6.638,6.638,0,1,1,235,259.121h9.2A6.646,6.646,0,0,1,246.233,263.907Zm0,0" transform="translate(-220.468 -245.229)" fill="#f7d360"/><path d="M208,98.006V96.5a1.474,1.474,0,0,1,1.474-1.475h3.769V93.417L211.906,92.2l-1.263-.337-4.159,1.557v4.59a8.323,8.323,0,0,0,3.323,15.927c-2.5-.058-4.521-3.761-4.521-8.321C205.285,102.22,206.4,99.3,208,98.006Zm0,0" transform="translate(-190.738 -86.934)" fill="#72cec0"/><path d="M236.286,269.659A6.635,6.635,0,0,1,235,259.121h.852a13.392,13.392,0,0,0-.833,4.786A12.581,12.581,0,0,0,236.286,269.659Zm0,0" transform="translate(-220.468 -245.229)" fill="#e58e13"/><path d="M16.278,185.368l-5.4-9.361v-4.843H5.737v4.843l-5.4,9.361a2.413,2.413,0,0,0,2.089,3.619H14.188A2.412,2.412,0,0,0,16.278,185.368Zm0,0" transform="translate(-0.005 -161.987)" fill="#e6e6e6"/><path d="M10.868,155.567,9.3,154.684l-3.014.031-.55.852v4.843l-5.4,9.361a2.412,2.412,0,0,0,2.089,3.619H5.628c-.843,0-1.37-2.01-.949-3.619l2.454-9.361v-2.486A.925.925,0,0,1,8.059,157h2.809Zm0,0" transform="translate(0 -146.39)" fill="#ccc"/><path d="M81.033,131.423a1.1,1.1,0,0,1-1.095,1.095H73.267a1.095,1.095,0,1,1,0-2.189h6.672a1.094,1.094,0,0,1,1.095,1.095Zm0,0" transform="translate(-68.303 -123.34)" fill="#ccc"/><path d="M127.9,131.423a1.1,1.1,0,0,1-1.095,1.095h-4.017a1.095,1.095,0,1,1,0-2.189H126.8a1.094,1.094,0,0,1,1.095,1.095Zm0,0" transform="translate(-115.167 -123.34)" fill="#e6e6e6"/><path d="M270.684,81.161a1.1,1.1,0,0,1-1.095,1.095h-8.253a1.095,1.095,0,1,1,0-2.189h8.253a1.095,1.095,0,0,1,1.095,1.095Zm0,0" transform="translate(-246.29 -75.773)" fill="#72cec0"/><path d="M315.845,81.161a1.1,1.1,0,0,1-1.095,1.095h-5.695a1.095,1.095,0,0,1,0-2.189h5.695a1.095,1.095,0,0,1,1.095,1.095Zm0,0" transform="translate(-291.451 -75.773)" fill="#c9fff7"/><path d="M44.537,331.115a.7.7,0,0,1-.63.364H32.14a.728.728,0,0,1-.631-1.092l3.972-6.879h5.086l3.971,6.879A.7.7,0,0,1,44.537,331.115Zm0,0" transform="translate(-29.723 -306.163)" fill="#fc5f61"/><g transform="translate(1.684 0.001)"><path d="M34.4,329.545a4.992,4.992,0,0,0-.1,1.934H32.14a.728.728,0,0,1-.631-1.092l3.972-6.879h.5Zm0,0" transform="translate(-31.407 -306.164)" fill="#e83842"/><path d="M164.342,398.209a.421.421,0,1,1,.417-.359A.424.424,0,0,1,164.342,398.209Zm0,0" transform="translate(-156.82 -376.065)" fill="#e83842"/><path d="M129.7,76.225a.421.421,0,1,1,.41-.326A.425.425,0,0,1,129.7,76.225Zm0,0" transform="translate(-124.031 -71.343)" fill="#e83842"/><path d="M160.941,46.379a.421.421,0,1,1,.41-.326A.424.424,0,0,1,160.941,46.379Zm0,0" transform="translate(-153.601 -43.096)" fill="#e83842"/><path d="M143.864.841a.426.426,0,0,1-.4-.3.426.426,0,0,1,.169-.472.424.424,0,0,1,.642.453.425.425,0,0,1-.408.319Zm0,0" transform="translate(-137.436 -0.001)" fill="#e83842"/></g><path d="M418.369,293a.421.421,0,1,1,.421-.421A.425.425,0,0,1,418.369,293Zm0,0" transform="translate(-395.545 -276.494)" fill="#fff"/><path d="M423.811,345.349a.421.421,0,1,1,.417-.359A.424.424,0,0,1,423.811,345.349Zm0,0" transform="translate(-400.694 -326.038)" fill="#fff"/><path d="M321.344,404.477a.421.421,0,1,1,.406-.309A.424.424,0,0,1,321.344,404.477Zm0,0" transform="translate(-303.718 -381.996)" fill="#fff"/><path d="M285.273,338.511a.421.421,0,1,1,.412-.334A.424.424,0,0,1,285.273,338.511Zm0,0" transform="translate(-269.585 -319.567)" fill="#fff"/><path d="M381.073,319.664a.421.421,0,1,1,.413-.338A.424.424,0,0,1,381.073,319.664Zm0,0" transform="translate(-360.248 -301.73)" fill="#fff"/><path d="M109.316,414.482a.421.421,0,1,1,.413-.339A.425.425,0,0,1,109.316,414.482Zm0,0" transform="translate(-103.058 -391.466)" fill="#e83842"/><path d="M129.733,363.661a.421.421,0,1,1,.414-.349A.424.424,0,0,1,129.733,363.661Zm0,0" transform="translate(-122.38 -343.369)" fill="#e83842"/></g></svg>