<svg xmlns="http://www.w3.org/2000/svg" width="30.434" height="27.848" viewBox="0 0 30.434 27.848"><g transform="translate(0 -21.749)"><g transform="translate(14.31 32.645)"><g transform="translate(0 0)"><path d="M248.536,213.528h-1.918l1.686-7.751a.6.6,0,0,0-1.015-.537l-6.277,6.611a.993.993,0,0,0,.72,1.677h1.918l-1.686,7.751a.6.6,0,0,0,1.015.537l6.277-6.611A.993.993,0,0,0,248.536,213.528Z" transform="translate(-240.737 -205.052)" fill="#ffc751"/><path d="M268.456,215.209l-6.277,6.611a.6.6,0,0,1-1.014-.537l.416-1.913c2.276-1.95,3.823-5.782,3.823-10.19a18.145,18.145,0,0,0-.184-2.6l1.268-1.335a.6.6,0,0,1,1.015.537l-1.686,7.751h1.919A.993.993,0,0,1,268.456,215.209Z" transform="translate(-259.937 -205.055)" fill="#ffaf40"/></g><path d="M259.474,268.038l-1.607,1.692a1.026,1.026,0,0,0,.019,1.432l.015.015a1.026,1.026,0,0,0,1.47-.019l1.607-1.692a1.026,1.026,0,0,0-.023-1.437l-.015-.015A1.026,1.026,0,0,0,259.474,268.038Z" transform="translate(-256.584 -263.994)" fill="#ffe059"/></g><g transform="translate(0 21.749)"><path d="M29.107,31.231A4.516,4.516,0,0,0,25.866,29.9a5.536,5.536,0,0,0-4.4-2.813A8.61,8.61,0,0,0,5.248,27.9a5.536,5.536,0,1,0,3.787,9.819,8.613,8.613,0,0,0,9.327-.258,5.547,5.547,0,0,0,4.537.365,4.53,4.53,0,0,0,6.207-6.595Z" transform="translate(0 -21.749)" fill="#b5b1a4"/><path d="M29.107,143.046a4.531,4.531,0,0,1-6.207.187,5.553,5.553,0,0,1-4.537-.365,8.613,8.613,0,0,1-9.326.258,5.537,5.537,0,1,1-5.841-9.308,8.609,8.609,0,0,0,13.477,5.9,5.537,5.537,0,0,0,8.708-5.133,5.474,5.474,0,0,1,.486.725,4.53,4.53,0,0,1,3.241,7.733Z" transform="translate(0 -127.157)" fill="#8f8b81"/><path d="M33.354,193.826a4.531,4.531,0,0,1-6.207.187,5.553,5.553,0,0,1-4.537-.365,8.613,8.613,0,0,1-9.326.258,5.538,5.538,0,0,1-8.768-2.583,5.537,5.537,0,0,0,7.96,1.01,8.613,8.613,0,0,0,9.326-.258,5.553,5.553,0,0,0,4.537.365,4.531,4.531,0,0,0,7.361-4.634A4.531,4.531,0,0,1,33.354,193.826Z" transform="translate(-4.248 -177.936)" fill="#706c64"/><g transform="translate(5.012 0.069)"><path d="M272.464,113.405l.013-.013a.917.917,0,0,0-.232-1.467,5.538,5.538,0,0,0-7.724,3.258.921.921,0,0,0,.874,1.208h.019a.926.926,0,0,0,.878-.646,3.677,3.677,0,0,1,5.126-2.159A.911.911,0,0,0,272.464,113.405Z" transform="translate(-253.767 -106.094)" fill="#d8d4c9"/><path d="M91.656,22.911a8.614,8.614,0,0,0-7.325,7.008.928.928,0,0,0,1.83.315,6.768,6.768,0,0,1,5.73-5.482.923.923,0,0,0,.8-.911v-.018a.919.919,0,0,0-1.039-.912Z" transform="translate(-84.317 -22.903)" fill="#d8d4c9"/></g></g><g transform="translate(5.18 28.41)"><g transform="translate(0 0)"><path d="M94.937,142.294H93.019l1.686-7.751a.6.6,0,0,0-1.015-.537l-6.277,6.611a.993.993,0,0,0,.72,1.677h1.918l-1.686,7.751a.6.6,0,0,0,1.015.537l6.277-6.611A.993.993,0,0,0,94.937,142.294Z" transform="translate(-87.138 -133.818)" fill="#ffc751"/><path d="M114.856,143.976l-6.277,6.611a.6.6,0,0,1-1.014-.537l.416-1.913c2.276-1.95,3.823-5.782,3.823-10.19a18.143,18.143,0,0,0-.184-2.6l1.268-1.335a.6.6,0,0,1,1.015.537l-1.686,7.751h1.919a.993.993,0,0,1,.72,1.677Z" transform="translate(-106.337 -133.822)" fill="#ffaf40"/></g><path d="M105.875,196.8l-1.607,1.692a1.026,1.026,0,0,0,.019,1.432l.015.015a1.026,1.026,0,0,0,1.47-.019l1.607-1.692a1.026,1.026,0,0,0-.023-1.437l-.015-.015A1.026,1.026,0,0,0,105.875,196.8Z" transform="translate(-102.985 -192.76)" fill="#ffe059"/></g></g></svg>