<svg xmlns="http://www.w3.org/2000/svg" width="26.75" height="29.895" viewBox="0 0 26.75 29.895"><g transform="translate(-26.924 0)"><path d="M53.674,23.245l-1.56.9H52.1l-9.908,5.7L42.1,29.9a.131.131,0,0,1-.053-.016L27.078,21.237a.334.334,0,0,1-.154-.263V19.515a.1.1,0,0,1,.052-.1v0l9.94-5.734V1.534a.667.667,0,0,1,.2-.529l.121-.073L38.675.1,38.78.039l.012-.008h0a.664.664,0,0,1,.578.089l13.4,7.738a1.981,1.981,0,0,1,.893,1.548V21.568Z" transform="translate(0 -0.001)" fill="#dadcda"/><path d="M42.2,341.213v1.459a.111.111,0,0,1-.012.053l-.089.052a.131.131,0,0,1-.053-.016l-14.971-8.643a.334.334,0,0,1-.154-.263V332.4a.1.1,0,0,1,.052-.1.105.105,0,0,1,.1.012l6.194,3.576a.887.887,0,0,0,.368.517l2.109,1.216c.17.1.315.053.372-.089l5.928,3.422a.3.3,0,0,1,.113.121A.314.314,0,0,1,42.2,341.213Z" transform="translate(0 -312.882)" fill="#a5b4b4"/><path d="M219.947,23.244l-1.56.9h-.016l-9.908,5.7a.112.112,0,0,0,.012-.053V28.331a.313.313,0,0,0-.04-.141l9.952-5.722V10.306a1.976,1.976,0,0,0-.9-1.544l-13.4-7.742a.679.679,0,0,0-.578-.089L204.948.1l.105-.065.012-.008h0a.664.664,0,0,1,.578.089l13.4,7.738a1.981,1.981,0,0,1,.893,1.548V21.567Z" transform="translate(-166.274 0)" fill="#919d9e"/><path d="M228.774,56.5l-13.14-7.586V37.963l13.14,7.586Z" transform="translate(-177.69 -35.746)" fill="#4f6f7f"/><path d="M52.976,242.962l-9.952,5.722a.3.3,0,0,0-.113-.121l-5.928-3.422c-.057.141-.2.186-.372.089L34.5,244.013a.887.887,0,0,1-.368-.517L27.94,239.92a.105.105,0,0,0-.1-.012v0l9.94-5.734v.016Z" transform="translate(-0.862 -220.494)" fill="#b4b4b3"/><g transform="translate(33.12 15.533)"><path d="M133.029,268.419l11.924,6.921,4.083-2.45-11.924-6.921Z" transform="translate(-133.029 -265.969)" fill="#dadcda"/><path d="M140.592,351.669l5.062,2.938,1.733-1.04-5.062-2.938Z" transform="translate(-140.15 -345.685)" fill="#dadcda"/></g><g transform="translate(39.171 5.511)"><path d="M236.833,95.425a.2.2,0,0,1-.1-.378l1.143-.651a.2.2,0,0,1,.2.351l-1.143.651A.2.2,0,0,1,236.833,95.425Z" transform="translate(-236.631 -94.37)" fill="#95c2d5"/><path d="M236.833,128.725a.2.2,0,0,1-.1-.378l.571-.326a.2.2,0,0,1,.2.351l-.571.326A.2.2,0,0,1,236.833,128.725Z" transform="translate(-236.631 -126.031)" fill="#95c2d5"/><path d="M266.185,109.384a.2.2,0,0,1-.1-.378l.857-.488a.2.2,0,0,1,.2.351l-.857.488A.2.2,0,0,1,266.185,109.384Z" transform="translate(-264.269 -107.667)" fill="#95c2d5"/><path d="M236.833,138.411a.2.2,0,0,1-.1-.378l2.571-1.465a.2.2,0,0,1,.2.351l-2.571,1.465A.2.2,0,0,1,236.833,138.411Z" transform="translate(-236.631 -134.079)" fill="#95c2d5"/><path d="M300.421,123.176a.2.2,0,0,1-.1-.378l.286-.163a.2.2,0,0,1,.2.351l-.286.163A.2.2,0,0,1,300.421,123.176Z" transform="translate(-296.505 -120.96)" fill="#95c2d5"/></g></g></svg>