<svg xmlns="http://www.w3.org/2000/svg" width="28.042" height="21.049" viewBox="0 0 28.042 21.049"><g transform="translate(0 -160.666)"><path d="M105.045,235.811H96.333a.929.929,0,0,1-1-.834V224.7a.929.929,0,0,1,1-.834h8.712a.929.929,0,0,1,1,.834v10.275A.928.928,0,0,1,105.045,235.811Z" transform="translate(-90.631 -58.987)" fill="#2bd254"/><path d="M180.024,223.867h-4.356v11.944h4.356a.929.929,0,0,0,1-.834V224.7A.928.928,0,0,0,180.024,223.867Z" transform="translate(-166.436 -58.987)" fill="#1eb4a0"/><path d="M116.682,169.093a4.214,4.214,0,1,1,4.214-4.214A4.218,4.218,0,0,1,116.682,169.093Z" transform="translate(-106.747)" fill="#ffc3b9"/><path d="M175.667,169.093v-8.427a4.214,4.214,0,0,1,0,8.427Z" transform="translate(-166.34)" fill="#ffa0a5"/><path d="M265.711,235.811H257a.929.929,0,0,1-1-.834V224.7a.929.929,0,0,1,1-.834h8.712a.929.929,0,0,1,1,.834v10.275A.929.929,0,0,1,265.711,235.811Z" transform="translate(-243.371 -58.987)" fill="#d5ff38"/><path d="M340.689,223.867h-4.356v11.944h4.356a.929.929,0,0,0,1-.834V224.7A.928.928,0,0,0,340.689,223.867Z" transform="translate(-318.657 -58.987)" fill="#2bd254"/><path d="M277.348,169.093a4.214,4.214,0,1,1,4.214-4.214A4.218,4.218,0,0,1,277.348,169.093Z" transform="translate(-259.24)" fill="#a05e2c"/><path d="M336.333,169.093v-8.427a4.214,4.214,0,1,1,0,8.427Z" transform="translate(-318.476)" fill="#6c4014"/><path d="M36.348,225.327a4.214,4.214,0,1,1,4.214-4.214A4.218,4.218,0,0,1,36.348,225.327Z" transform="translate(-29.992 -53.079)" fill="#d17b48"/><path d="M11.712,354.547H1a1,1,0,0,1-1-1v-3.891a6.356,6.356,0,0,1,12.712,0v3.891a1,1,0,0,1-1,1Z" transform="translate(0 -172.833)" fill="#00d4f5"/><path d="M95.333,225.327V216.9a4.214,4.214,0,1,1,0,8.427Z" transform="translate(-90.271 -53.079)" fill="#a05e2c"/><path d="M100.689,354.547a1,1,0,0,0,1-1v-3.891a6.363,6.363,0,0,0-6.356-6.356v11.247Z" transform="translate(-90.371 -172.833)" fill="#0098c9"/><path d="M357.681,225.327a4.214,4.214,0,1,1,4.214-4.214A4.218,4.218,0,0,1,357.681,225.327Z" transform="translate(-335.995 -53.079)" fill="#ffe1d2"/><path d="M333.045,354.547H322.333a1,1,0,0,1-1-1v-3.891a6.356,6.356,0,0,1,12.712,0v3.891A1,1,0,0,1,333.045,354.547Z" transform="translate(-306.003 -172.833)" fill="#ffe287"/><path d="M416.666,225.327V216.9a4.214,4.214,0,1,1,0,8.427Z" transform="translate(-394.98 -53.079)" fill="#ffc3b9"/><path d="M422.022,354.547a1,1,0,0,0,1-1v-3.891a6.363,6.363,0,0,0-6.356-6.356v11.247Z" transform="translate(-394.98 -172.833)" fill="#ffcb00"/><path d="M197.015,225.327a4.214,4.214,0,1,1,4.214-4.214A4.218,4.218,0,0,1,197.015,225.327Z" transform="translate(-182.994 -53.079)" fill="#ffe1d2"/><path d="M172.379,354.547H161.667a1,1,0,0,1-1-1v-3.891a6.356,6.356,0,0,1,12.712,0v3.891A1,1,0,0,1,172.379,354.547Z" transform="translate(-153.002 -172.833)" fill="#ee1c66"/><path d="M256,225.327V216.9a4.214,4.214,0,1,1,0,8.427Z" transform="translate(-242.408 -53.079)" fill="#ffc3b9"/><path d="M261.355,354.547a1,1,0,0,0,1-1v-3.891A6.363,6.363,0,0,0,256,343.3v11.247Z" transform="translate(-242.675 -172.833)" fill="#a8003f"/></g></svg>