<svg xmlns="http://www.w3.org/2000/svg" width="27.527" height="27.527" viewBox="0 0 27.527 27.527"><g transform="translate(-24 -24)"><path d="M26.848,72H24V92.408a1.424,1.424,0,0,0,1.424,1.424H49.629V72Z" transform="translate(0 -45.152)" fill="#348fd9"/><path d="M112,123.934h20.408V104Z" transform="translate(-82.779 -75.254)" fill="#3086cd"/><path d="M26.848,45.832H25.424A1.424,1.424,0,0,0,24,47.256V25.424A1.424,1.424,0,0,1,25.424,24h1.424Z" transform="translate(0 0)" fill="#60d1e0"/><path d="M200,72V83.391h.475v1.9h.475v1.9h.949v-1.9h.475v-1.9h.475V72Z" transform="translate(-165.559 -45.152)" fill="#3086cd"/><path d="M129.561,112H112.475a.475.475,0,0,0-.475.475v16.137a.475.475,0,0,0,.475.475h4.271V126.76a2.377,2.377,0,0,1,1.9,2.326h10.916a.475.475,0,0,0,.475-.475V112.475A.475.475,0,0,0,129.561,112Zm-.475.949v.949h-.949v-.949Zm-1.424,4.746a3.328,3.328,0,0,0-3.183,2.373h-2.512v-2.512a3.328,3.328,0,0,0,2.373-3.183.475.475,0,0,0-.475-.475h-1.9v-.949h5.221v1.424a.475.475,0,0,0,.475.475h1.424v5.221h-.949v-1.9A.475.475,0,0,0,127.662,117.7Zm-14.713-4.746h.949v.949h-.949Zm0,15.188v-.949h.949v.949Zm6.506,0a3.328,3.328,0,0,0-3.183-2.373.475.475,0,0,0-.475.475v1.9h-.949v-1.424a.475.475,0,0,0-.475-.475h-1.424V114.848h1.424a.475.475,0,0,0,.475-.475v-1.424h6.17v1.9h2.326a2.377,2.377,0,0,1-2.326,1.9v6.17h2.326a2.377,2.377,0,0,1-2.326,1.9v3.322Zm2.512,0v-2.512a3.328,3.328,0,0,0,2.373-3.183.475.475,0,0,0-.475-.475h-1.9v-.949h3.322a2.377,2.377,0,0,1,1.9-2.326v2.326h1.9v7.119Z" transform="translate(-82.779 -82.779)" fill="#2d7dbf"/><path d="M0,0H13.289V2.848H0Z" transform="translate(33.492 37.289) rotate(-90)" fill="#92563a"/><path d="M186.848,72V82.441H184v-6.17Z" transform="translate(-150.508 -45.152)" fill="#875036"/><path d="M0,0H1.9V1.9H0Z" transform="translate(33.967 39.188) rotate(-90)" fill="#cfcfcd"/><path d="M200,280h.949v1.9H200Z" transform="translate(-165.559 -240.813)" fill="#b8b8b6"/><path d="M184,160h2.848v.949H184Z" transform="translate(-150.508 -127.932)" fill="#ffb531"/><path d="M240,254.713h14.713V240Zm11.865-2.848h-4.746l4.746-4.746Z" transform="translate(-203.186 -203.186)" fill="#ffb531"/><path d="M24,184.966v10.916a1.424,1.424,0,0,1,1.424-1.424h1.424V182Z" transform="translate(0 -148.626)" fill="#5ac6d4"/><path d="M362.618,356.93v7.776H354.71l2.9-2.848h2.164V359.73Z" transform="translate(-311.09 -313.179)" fill="#ffa912"/></g></svg>