<svg xmlns="http://www.w3.org/2000/svg" width="25.026" height="25.026" viewBox="0 0 25.026 25.026"><g transform="translate(-0.008 0)"><g transform="translate(0.008 -0.001)"><g transform="translate(0 0)"><g transform="translate(4.818 19.791)"><path d="M98.583,404.894H101.7v5.236H98.583Z" transform="translate(-98.583 -404.894)" fill="#a26037"/><path d="M130.487,404.894h1.559v5.236h-1.559Z" transform="translate(-128.928 -404.894)" fill="#824c2d"/></g><path d="M10.013,14.428H11.19a.248.248,0,0,0,.226-.348L8.5,7.493h.987a.248.248,0,0,0,.226-.348l-3.1-7a.248.248,0,0,0-.453,0l-3.1,7a.248.248,0,0,0,.226.348h.987L1.355,14.08a.248.248,0,0,0,.226.348H2.758L.03,20.587a.248.248,0,0,0,.226.348H12.515a.248.248,0,0,0,.226-.348Z" transform="translate(-0.008 0)" fill="#5a9ea7"/><path d="M136.843,20.587l-2.728-6.159h1.177a.248.248,0,0,0,.226-.348L132.6,7.493h.987a.248.248,0,0,0,.226-.348l-3.1-7A.244.244,0,0,0,130.487,0V20.935h6.13A.248.248,0,0,0,136.843,20.587Z" transform="translate(-124.109 0)" fill="#4f7976"/></g><g transform="translate(12.27 0)"><g transform="translate(4.818 19.791)"><path d="M349.625,404.894h3.119v5.235h-3.119Z" transform="translate(-349.625 -404.894)" fill="#613921"/><path d="M381.528,404.894h1.559v5.236h-1.559Z" transform="translate(-379.969 -404.894)" fill="#4c250f"/></g><path d="M261.055,14.428h1.177a.248.248,0,0,0,.226-.348L259.54,7.493h.987a.248.248,0,0,0,.226-.348l-3.1-7a.248.248,0,0,0-.453,0l-3.1,7a.248.248,0,0,0,.226.348h.987L252.4,14.08a.248.248,0,0,0,.226.348H253.8l-2.728,6.159a.248.248,0,0,0,.226.348h12.259a.248.248,0,0,0,.226-.348Z" transform="translate(-251.049 0)" fill="#5a9ea7"/><path d="M387.884,20.587l-2.728-6.159h1.177a.248.248,0,0,0,.227-.348l-2.918-6.586h.987a.248.248,0,0,0,.227-.348l-3.1-7A.244.244,0,0,0,381.528,0V20.935h6.13A.248.248,0,0,0,387.884,20.587Z" transform="translate(-375.15 0)" fill="#4f7976"/></g><g transform="translate(8.1 6.723)"><g transform="translate(2.874 13.15)"><path d="M224.53,406.563h3.077v5.154H224.53Z" transform="translate(-224.53 -406.563)" fill="#824c2d"/><path d="M256.008,406.563h1.539v5.154h-1.539Z" transform="translate(-254.469 -406.563)" fill="#613921"/></g><path d="M172.67,147.5h.711a.244.244,0,0,0,.223-.343l-1.992-4.5h.579a.244.244,0,0,0,.223-.343l-2.054-4.636a.244.244,0,0,0-.447,0l-2.054,4.636a.244.244,0,0,0,.223.343h.579l-1.992,4.5a.244.244,0,0,0,.223.343h.711l-1.86,4.2a.244.244,0,0,0,.223.343h8.337a.244.244,0,0,0,.223-.343Z" transform="translate(-165.726 -137.536)" fill="#5a9ea7"/><path d="M260.4,151.7l-1.86-4.2h.711a.244.244,0,0,0,.223-.343l-1.992-4.5h.579a.244.244,0,0,0,.223-.343l-2.054-4.636a.241.241,0,0,0-.223-.145v14.506h4.168A.244.244,0,0,0,260.4,151.7Z" transform="translate(-251.597 -137.537)" fill="#4f7976"/></g></g><g transform="translate(0.008 -0.001)"><g transform="translate(0 0)"><path d="M3.067,9.121A2.969,2.969,0,0,1,.029,5.829C.251,3.99,3.167,2.13,3.017.265a.244.244,0,0,1,.4-.21c.815.667,2.14,2.287,1.065,5.279a1.326,1.326,0,0,0,.849-.495.245.245,0,0,1,.428.071C6.369,6.839,5.454,9.121,3.067,9.121Z" transform="translate(-0.008 0.001)" fill="#edbe2c"/><path d="M63.478,4.911a.245.245,0,0,0-.428-.071,1.326,1.326,0,0,1-.849.495C63.276,2.343,61.952.723,61.137.056a.244.244,0,0,0-.4.21A1.9,1.9,0,0,1,60.7.83V9.12l.093,0c2.387,0,3.3-2.282,2.688-4.21Z" transform="translate(-57.731 0)" fill="#e58f22"/></g><g transform="translate(13.246 17.384)"><path d="M273.595,363.3a2.5,2.5,0,0,1-2.561-2.776c.184-1.524,2.564-3.066,2.523-4.612a.244.244,0,0,1,.4-.2c.69.6,1.7,1.954.826,4.39a1.131,1.131,0,0,0,.679-.37.244.244,0,0,1,.42.087C276.355,361.431,275.577,363.3,273.595,363.3Z" transform="translate(-271.015 -355.654)" fill="#edbe2c"/><path d="M324.552,359.822a.244.244,0,0,0-.42-.087,1.131,1.131,0,0,1-.679.37c.875-2.436-.136-3.793-.826-4.39a.244.244,0,0,0-.4.2,1.641,1.641,0,0,1-.04.4V363.3l.078,0C324.245,363.3,325.022,361.432,324.552,359.822Z" transform="translate(-319.683 -355.655)" fill="#e58f22"/></g><g transform="translate(17.87 4.201)"><path d="M369.3,97.008a3.581,3.581,0,0,1-3.664-3.971c.271-2.252,3.894-4.53,3.592-6.816a.244.244,0,0,1,.392-.226c.97.752,2.722,2.714,1.382,6.445a1.582,1.582,0,0,0,1.071-.666.244.244,0,0,1,.435.052C373.312,94.173,372.219,97.008,369.3,97.008Z" transform="translate(-365.607 -85.943)" fill="#edbe2c"/><path d="M442.127,91.827a.244.244,0,0,0-.435-.052,1.582,1.582,0,0,1-1.071.666c1.341-3.73-.412-5.692-1.382-6.445a.244.244,0,0,0-.392.226,2.256,2.256,0,0,1-.04.785v10l.112,0C441.842,97.009,442.934,94.174,442.127,91.827Z" transform="translate(-435.229 -85.944)" fill="#e58f22"/></g></g></g></svg>