<svg xmlns="http://www.w3.org/2000/svg" width="28" height="28" viewBox="0 0 28 28"><g transform="translate(-24 -24)"><path d="M262.759,100.939a1.967,1.967,0,0,1-2.087,1.82,2.333,2.333,0,0,0-2.584,0,1.967,1.967,0,0,1-2.087-1.82,1.694,1.694,0,0,1,.553-1.234,1.427,1.427,0,0,1-.355-.932,1.6,1.6,0,0,1,1.261-1.491,2.078,2.078,0,0,1,3.84,0,1.6,1.6,0,0,1,1.261,1.491,1.427,1.427,0,0,1-.355.932A1.694,1.694,0,0,1,262.759,100.939Z" transform="translate(-218 -67.656)" fill="#6a9c72"/><path d="M304.483,158.759a.483.483,0,0,1-.483-.483v-5.793a.483.483,0,1,1,.966,0v5.793A.483.483,0,0,1,304.483,158.759Z" transform="translate(-263.103 -120.276)" fill="#996046"/><path d="M289.445,169.445a.481.481,0,0,1-.216-.051l-.966-.483a.483.483,0,0,1,.432-.864l.966.483a.483.483,0,0,1-.216.915Z" transform="translate(-248.066 -135.307)" fill="#996046"/><path d="M352.69,70.35a2.529,2.529,0,0,1-2.684,2.34,3,3,0,0,0-3.323,0A2.529,2.529,0,0,1,344,70.35a2.178,2.178,0,0,1,.711-1.587,1.835,1.835,0,0,1-.456-1.2,2.061,2.061,0,0,1,1.621-1.917,2.672,2.672,0,0,1,4.936,0,2.061,2.061,0,0,1,1.621,1.917,1.835,1.835,0,0,1-.456,1.2A2.178,2.178,0,0,1,352.69,70.35Z" transform="translate(-300.69 -37.587)" fill="#88c791"/><path d="M408.483,143.724a.483.483,0,0,1-.483-.483v-6.759a.483.483,0,1,1,.966,0v6.759A.483.483,0,0,1,408.483,143.724Z" transform="translate(-360.827 -105.242)" fill="#b37a60"/><path d="M385.93,153.93a.482.482,0,0,1-.268-.081l-1.448-.966a.483.483,0,1,1,.536-.8l1.181.787,1.18-.787a.483.483,0,1,1,.536.8l-1.448.965A.482.482,0,0,1,385.93,153.93Z" transform="translate(-338.275 -120.275)" fill="#b37a60"/><path d="M43.586,150.759v1.931H32v-1.931l4.735-6.252a1.359,1.359,0,0,1,2.117,0Z" transform="translate(-7.517 -112.759)" fill="#828c52"/><path d="M136.207,180.827v1.931H128v-1.931l3.143-4.344a1.195,1.195,0,0,1,1.921,0Z" transform="translate(-97.724 -142.827)" fill="#8f9e46"/><path d="M36.069,256H24a14,14,0,1,0,28,0Z" transform="translate(0 -218)" fill="#a3d4f7"/><path d="M40.179,269.832A14.013,14.013,0,0,1,24,256H36.069s.483,1.931,3.862,3.379C42.91,260.656,43.767,265.682,40.179,269.832Z" transform="translate(0 -218)" fill="#6a9c72"/><path d="M382.759,256a13.963,13.963,0,0,1-4.6,10.374c-.964-1.6-1.153-3.082-.229-5.546C379.379,256.966,376,256,376,256Z" transform="translate(-330.759 -218)" fill="#6a9c72"/><path d="M31.724,26.9a1.449,1.449,0,0,1-1.448,1.448,1.432,1.432,0,0,1-.733-.2,2.412,2.412,0,0,1-3.362,0,1.432,1.432,0,0,1-.733.2,1.448,1.448,0,0,1,0-2.9,1.394,1.394,0,0,1,.2.013,2.414,2.414,0,0,1,4.437,0,1.394,1.394,0,0,1,.2-.013A1.449,1.449,0,0,1,31.724,26.9Z" fill="#a3d4f7"/><g transform="translate(33.172 24.482)"><path d="M233.448,33.931a.483.483,0,0,1-.483-.483.729.729,0,0,0-.079-.285.394.394,0,0,0-.4-.2.483.483,0,0,1,0-.966,1.544,1.544,0,0,0,1.931,0,.483.483,0,0,1,0,.966.393.393,0,0,0-.4.2.726.726,0,0,0-.079.29A.483.483,0,0,1,233.448,33.931Z" transform="translate(-228.621 -32)" fill="#734b39"/><path d="M177.448,97.931a.483.483,0,0,1-.483-.483.729.729,0,0,0-.079-.285.394.394,0,0,0-.4-.2.483.483,0,0,1,0-.966,1.4,1.4,0,0,1,.966.339,1.4,1.4,0,0,1,.966-.339.483.483,0,1,1,0,.966.394.394,0,0,0-.4.2.726.726,0,0,0-.079.29A.483.483,0,0,1,177.448,97.931Z" transform="translate(-176 -92.138)" fill="#734b39"/></g></g></svg>