<svg xmlns="http://www.w3.org/2000/svg" width="28.863" height="25.241" viewBox="0 0 28.863 25.241"><path d="M257.922,252.651a.845.845,0,0,1-.795-1.135l3.623-9.963a.846.846,0,1,1,1.589.578l-3.623,9.963A.846.846,0,0,1,257.922,252.651Zm0,0" transform="translate(-242.584 -227.411)" fill="#3ab4fb"/><path d="M357.324,252.652a.846.846,0,0,1-.794-.554l-3.659-9.963a.846.846,0,0,1,1.587-.583l3.659,9.963A.846.846,0,0,1,357.324,252.652Zm0,0" transform="translate(-332.93 -227.411)" fill="#1d9cfd"/><path d="M208.138,0H195.458A2.657,2.657,0,0,0,192.8,2.657V12.62a2.657,2.657,0,0,0,2.657,2.657h12.681A2.657,2.657,0,0,0,210.8,12.62V2.657A2.657,2.657,0,0,0,208.138,0Zm0,0" transform="translate(-181.932)" fill="#eff6fe"/><path d="M356.881,0H350.43V15.277h6.451a2.657,2.657,0,0,0,2.657-2.657V2.657A2.657,2.657,0,0,0,356.881,0Zm0,0" transform="translate(-330.675)" fill="#d9e4ef"/><path d="M37.366,33.683A3.683,3.683,0,1,1,33.683,30,3.683,3.683,0,0,1,37.366,33.683Zm0,0" transform="translate(-28.309 -28.309)" fill="#ffcfbe"/><path d="M233.432,150.728a.846.846,0,0,1-.378-1.135l2.264-4.529a.846.846,0,0,1,1.513.756l-2.264,4.529A.846.846,0,0,1,233.432,150.728Zm0,0" transform="translate(-219.831 -136.446)" fill="#ffb826"/><path d="M99.012,33.68a3.683,3.683,0,0,1-3.684,3.683V30A3.683,3.683,0,0,1,99.012,33.68Zm0,0" transform="translate(-89.954 -28.305)" fill="#f9bcaa"/><path d="M266.969,57.929h-9.057a.846.846,0,1,1,0-1.691h9.057a.846.846,0,0,1,0,1.691Zm0,0" transform="translate(-242.575 -53.068)" fill="#3ab4fb"/><g transform="translate(19.755 3.17)"><path d="M355.07,122.191h-3.794a.846.846,0,1,1,0-1.691h3.794a.846.846,0,0,1,0,1.691Zm0,0" transform="translate(-350.43 -116.877)" fill="#1d9cfd"/><path d="M355.07,186.457h-3.794a.846.846,0,1,1,0-1.691h3.794a.846.846,0,0,1,0,1.691Zm0,0" transform="translate(-350.43 -177.52)" fill="#1d9cfd"/><path d="M355.07,56.238h-4.64v1.691h4.64a.846.846,0,0,0,0-1.691Zm0,0" transform="translate(-350.43 -56.238)" fill="#1d9cfd"/></g><path d="M8.091,176.851H2.657a.846.846,0,0,1-.846-.846v-4.727A2.661,2.661,0,0,1,0,168.759v-2.717a5.332,5.332,0,0,1,1.575-3.8,5.4,5.4,0,0,1,3.8-1.573h.747a7.253,7.253,0,0,1,3.571,1.149l4.083,2.031a2.2,2.2,0,0,1,1.1,2.677l0,.01a2.316,2.316,0,0,1-3.231,1.323L8.937,166.5v9.5A.846.846,0,0,1,8.091,176.851Zm0,0" transform="translate(0 -151.611)" fill="#ff7579"/><path d="M103.73,163.848l-4.084-2.031a7.252,7.252,0,0,0-3.571-1.149h-.748v16.183h2.717a.846.846,0,0,0,.846-.846v-9.5l2.707,1.353a2.316,2.316,0,0,0,3.231-1.323l0-.01A2.2,2.2,0,0,0,103.73,163.848Zm0,0" transform="translate(-89.954 -151.611)" fill="#fe4a60"/></svg>