<svg xmlns="http://www.w3.org/2000/svg" width="27.592" height="27.592" viewBox="0 0 27.592 27.592"><path d="M12.677,234.338A2.338,2.338,0,1,1,10.338,232,2.338,2.338,0,0,1,12.677,234.338Zm0,0" transform="translate(-7.532 -218.438)" fill="#ffcd34"/><path d="M124.677,274.338A2.338,2.338,0,1,1,122.338,272,2.338,2.338,0,0,1,124.677,274.338Zm0,0" transform="translate(-112.985 -256.1)" fill="#ffcd34"/><path d="M36.677,386.338A2.338,2.338,0,1,1,34.338,384,2.338,2.338,0,0,1,36.677,386.338Zm0,0" transform="translate(-30.129 -361.552)" fill="#008fcf"/><g transform="translate(2.338 15.433)"><path d="M40.935,264.468a.468.468,0,1,1-.468-.468A.468.468,0,0,1,40.935,264.468Zm0,0" transform="translate(-40 -264)" fill="#226c8a"/><path d="M152.935,304.468a.468.468,0,1,1-.468-.468A.468.468,0,0,1,152.935,304.468Zm0,0" transform="translate(-145.453 -301.662)" fill="#226c8a"/><path d="M64.935,416.468a.468.468,0,1,1-.468-.468A.468.468,0,0,1,64.935,416.468Zm0,0" transform="translate(-62.597 -407.115)" fill="#226c8a"/></g><path d="M4.206,124.909H4.179A2.708,2.708,0,0,1,1.4,122.078a2.835,2.835,0,0,1,1.619-2.517l6.9-2.223A2.053,2.053,0,0,0,11.1,116.23a2.175,2.175,0,0,0-.072-1.5,1.883,1.883,0,0,0-2.385-.9l-4.7,1.961a2.946,2.946,0,0,1-2.82-.327A2.936,2.936,0,0,1,0,113.218l.761-9.858.933.073-.759,9.821a2.031,2.031,0,0,0,.739,1.453,2.011,2.011,0,0,0,1.905.215l4.714-1.964A2.828,2.828,0,0,1,11.86,114.3a3.1,3.1,0,0,1,.117,2.26,2.973,2.973,0,0,1-1.722,1.652L3.38,120.426a1.912,1.912,0,0,0-1.041,1.683,1.783,1.783,0,0,0,1.874,1.864l17.85-.948.047.935Zm0,0" transform="translate(0 -97.317)" fill="#4d4d4d"/><path d="M128.523,29.949l.056-.934,8.2.491-.056.933Zm0,0" transform="translate(-121.01 -27.319)" fill="#4d4d4d"/><path d="M429.139,258.449l-.178-6.167.934-.036.178,6.168Zm0,0" transform="translate(-403.885 -237.5)" fill="#4d4d4d"/><path d="M15.875,3.342l.692-.541,1.25.518.108.873.676.676.873.108.518,1.249-.541.693v.958l.541.692-.518,1.25-.873.108-.676.676-.108.873-1.25.518-.692-.541h-.958l-.693.541-1.249-.518-.108-.873-.677-.676-.873-.108L10.8,8.567l.541-.692V6.917L10.8,6.224l.518-1.249.873-.108.676-.677.108-.873L14.224,2.8l.693.541Zm0,0" transform="translate(-10.169 -2.637)" fill="#53a2ab"/><path d="M60.053,50.111a1.943,1.943,0,1,1-1.943-1.943A1.943,1.943,0,0,1,60.053,50.111Zm0,0" transform="translate(-52.885 -45.352)" fill="#ffcd34"/><path d="M185.905,25.552,187.377,24l1.3.421.278,2.121.886.643,2.1-.391.8,1.1-1.023,1.879.339,1.042,1.931.919V33.1l-1.931.919-.339,1.041,1.022,1.879-.8,1.1-2.1-.391-.886.643-.277,2.121-1.3.421-1.471-1.552h-1.1l-1.471,1.552-1.3-.421-.278-2.121-.886-.643-2.1.391-.8-1.1L179,35.06l-.338-1.041-1.931-.919V31.736l1.931-.919L179,29.776,177.974,27.9l.8-1.1,2.1.391.886-.643.278-2.121,1.3-.421,1.471,1.552Zm0,0" transform="translate(-166.396 -22.597)" fill="#008fcf"/><path d="M335.8,321.447l1.483.421.323.971-.935,1.226-.108.526.374,1.5-.677.765-1.529-.2-.51.17-1.107,1.076-1-.206-.594-1.426-.4-.357-1.483-.421-.323-.971.935-1.226.108-.527-.374-1.5.679-.766,1.529.2.51-.17,1.107-1.076,1,.206.594,1.423Zm0,0" transform="translate(-310.062 -300.782)" fill="#e2c675"/><path d="M371.741,361.871A1.871,1.871,0,1,1,369.871,360,1.871,1.871,0,0,1,371.741,361.871Zm0,0" transform="translate(-346.488 -338.955)" fill="#53a2ab"/><path d="M256.418,100.209A4.209,4.209,0,1,1,252.209,96,4.209,4.209,0,0,1,256.418,100.209Zm0,0" transform="translate(-233.503 -90.388)" fill="#ffcd34"/><path d="M284.677,130.338A2.338,2.338,0,1,1,282.338,128,2.338,2.338,0,0,1,284.677,130.338Zm0,0" transform="translate(-263.632 -120.517)" fill="#53a2ab"/><path d="M441.871.935A.935.935,0,1,1,440.935,0,.935.935,0,0,1,441.871.935Zm0,0" transform="translate(-414.279)" fill="#fbcc34"/><path d="M200.935.468A.468.468,0,1,1,200.468,0,.468.468,0,0,1,200.935.468Zm0,0" transform="translate(-188.309)" fill="#fbcc34"/></svg>