<svg xmlns="http://www.w3.org/2000/svg" width="21.642" height="27.592" viewBox="0 0 21.642 27.592"><g transform="translate(-5.91 0.001)"><path d="M8.753,17.637a.5.5,0,0,1-.429-.24,1.98,1.98,0,0,0-1.549-1.059.517.517,0,0,1-.518-.488.5.5,0,0,1,.488-.519A2.984,2.984,0,0,1,9.181,16.87a.5.5,0,0,1-.428.768Z" transform="translate(-0.172 -7.615)" fill="#436b1c"/><g transform="translate(8.918 0.217)"><path d="M21.85,3.534a1.885,1.885,0,0,0-1.88-1.756h-.009a1.167,1.167,0,0,0-.04-.469A1.228,1.228,0,0,0,18.906.44a1.21,1.21,0,0,0-1,.342,1.342,1.342,0,0,0-2.247,1s0,0,0,.007a1.744,1.744,0,0,0-1.568,2.154,2.017,2.017,0,0,0-1.664,3.027,1.475,1.475,0,0,0-.081,2.215c1.214-.992,2.489,2.326,3.991,4.975.5.88,5.888-.057,6.317.489.489-.44.805-8.1.819-8.773A2.427,2.427,0,0,0,21.85,3.534Z" transform="translate(-11.886 -0.431)" fill="#88c057"/></g><path d="M31.483,13.354l.359-.215a2.1,2.1,0,0,1,2.158,0l.359.215a2.1,2.1,0,0,0,2.158,0l1.014-.451c.149-.416.253-.717.294-.85a35.1,35.1,0,0,0,1.639-9.444c.033-1.285-1.03-3.29-2.8-2.379-1.736.895-2.979,4.327-3.853,5.957a35.5,35.5,0,0,0-2.922,7.4A2.094,2.094,0,0,0,31.483,13.354Z" transform="translate(-11.912)" fill="#eeaf4b"/><path d="M6.49,21.013l.677.406a2.455,2.455,0,0,0,2.527,0l.174-.1a2.1,2.1,0,0,1,2.158,0l.359.215a2.093,2.093,0,0,0,1.274.286,4.342,4.342,0,0,0-.285-3.221c-1.679-2.962-3.076-2.358-4.42-1.073a2.2,2.2,0,0,1-.916.525c-1.474.421-2.561,1.11-1.943,2.987A.355.355,0,0,1,6.49,21.013Z" transform="translate(-0.004 -8.176)" fill="#ed3f32"/><path d="M35.1,21.647a.5.5,0,0,1-.476-.665,1.9,1.9,0,0,1,2.4-1.184.886.886,0,0,0,1.123-.554.5.5,0,1,1,.953.324,1.9,1.9,0,0,1-2.4,1.184.888.888,0,0,0-1.123.554A.5.5,0,0,1,35.1,21.647Z" transform="translate(-14.246 -9.389)" fill="#a46f3e"/><path d="M37.461,14.68a.5.5,0,0,1-.476-.665,1.892,1.892,0,0,1,2.4-1.184.885.885,0,0,0,1.123-.554.5.5,0,1,1,.953.324,1.9,1.9,0,0,1-2.4,1.184.885.885,0,0,0-1.123.554A.5.5,0,0,1,37.461,14.68Z" transform="translate(-15.421 -5.928)" fill="#a46f3e"/><path d="M39.826,8a.508.508,0,0,1-.162-.027.5.5,0,0,1-.315-.639,1.664,1.664,0,0,1,2.106-1.039.653.653,0,0,0,.83-.408.5.5,0,1,1,.953.324,1.66,1.66,0,0,1-2.107,1.038.654.654,0,0,0-.829.409A.5.5,0,0,1,39.826,8Z" transform="translate(-16.596 -2.754)" fill="#a46f3e"/><g transform="translate(13.696 4.027)"><path d="M22.382,11.069a3.029,3.029,0,0,0-.937,2.7l.777,3.556h0l.359-.215a2.1,2.1,0,0,1,2.158,0l.359.215a2.052,2.052,0,0,0,.567.233A36.265,36.265,0,0,1,27.7,11.935,3.322,3.322,0,0,0,25.879,10.3l-.01-.006A.7.7,0,0,1,25.75,9.22a.57.57,0,0,0,.126-.493l-.061-.278a.571.571,0,0,0-.677-.434l-3.059.667a.571.571,0,0,0-.434.677l.061.278a.565.565,0,0,0,.33.4.694.694,0,0,1,.409.934A.778.778,0,0,1,22.382,11.069Z" transform="translate(-21.38 -8.002)" fill="#dae7ef"/></g><path d="M25.428,9.286l-3.462.756a.714.714,0,0,1-.847-.543l-.05-.227a.714.714,0,0,1,.543-.847l3.462-.756a.714.714,0,0,1,.847.543l.05.227A.714.714,0,0,1,25.428,9.286Z" transform="translate(-7.521 -3.801)" fill="#fff"/><path d="M26.5,25.167l-.878,12.6a2.365,2.365,0,0,1-2.362,2.244H9.13a2.365,2.365,0,0,1-2.362-2.244L5.911,25.58a.358.358,0,0,1,.542-.326l.677.406a2.455,2.455,0,0,0,2.527,0l.174-.1a2.1,2.1,0,0,1,2.158,0l.359.215a2.1,2.1,0,0,0,2.158,0l.359-.215a2.1,2.1,0,0,1,2.158,0l.359.215a2.1,2.1,0,0,0,2.158,0l.359-.215a2.1,2.1,0,0,1,2.158,0l.359.215a2.1,2.1,0,0,0,2.158,0l1.7-.757A.159.159,0,0,1,26.5,25.167Z" transform="translate(0 -12.418)" fill="#fbd490"/><path d="M13.936,41.007H10.413a.5.5,0,0,1,0-1.007h3.523a.5.5,0,1,1,0,1.007Z" transform="translate(-1.987 -19.868)" fill="#e0b877"/><path d="M14.943,45.007h-4.53a.5.5,0,0,1,0-1.007h4.53a.5.5,0,0,1,0,1.007Z" transform="translate(-1.987 -21.855)" fill="#e0b877"/><path d="M15.95,49.007H10.413a.5.5,0,0,1,0-1.007H15.95a.5.5,0,1,1,0,1.007Z" transform="translate(-1.987 -23.842)" fill="#e0b877"/><path d="M26.42,49.007H25.413a.5.5,0,0,1,0-1.007H26.42a.5.5,0,1,1,0,1.007Z" transform="translate(-9.437 -23.842)" fill="#e0b877"/></g></svg>