<svg xmlns="http://www.w3.org/2000/svg" width="21.427" height="28.229" viewBox="0 0 21.427 28.229"><g transform="translate(0.023 0.001)"><g transform="translate(-0.023 -0.001)"><path d="M22,44.913h1.947v3.1H22Z" transform="translate(-11.768 -23.54)" fill="#f29c1f" fill-rule="evenodd"/><path d="M21.79,18.419l1.363,1.363a.97.97,0,1,1-1.372,1.372l-1.363-1.363L4.649,4.023,3.286,2.66A.97.97,0,1,1,4.658,1.287L6.021,2.65Z" transform="translate(-2.014 -0.999)" fill="#f29c1f" fill-rule="evenodd"/><circle cx="9.247" cy="9.247" r="9.247" transform="translate(1.958 0.975)" fill="#81ccb8"/><path d="M21.15,19.056A11.194,11.194,0,1,1,5.458,3.415a.977.977,0,0,1,1.276.092l.027.027a.911.911,0,0,1-.118,1.426A9.247,9.247,0,1,0,19.584,17.9a.94.94,0,0,1,1.421-.123l.057.057a.937.937,0,0,1,.088,1.222Z" transform="translate(-0.977 -2.139)" fill="#f0c419" fill-rule="evenodd"/><path d="M15.787,54.893h6.946a.841.841,0,0,0,.251-1.645l-6.759-2.182a1.454,1.454,0,0,0-.871,0L8.59,53.249a.841.841,0,0,0,.251,1.645Z" transform="translate(-4.582 -26.665)" fill="#f0c419" fill-rule="evenodd"/><g transform="translate(2.162 0.979)"><path d="M12.507,3.68v0C12,4.936,11.509,6.2,11,7.452A3.319,3.319,0,0,1,8.7,9.564,3.03,3.03,0,0,1,6.375,9.15l0,0A9.243,9.243,0,0,1,12.507,3.68Z" transform="translate(-5.908 -3.354)" fill="#24ae5f" fill-rule="evenodd"/><path d="M29.785,6.582c-.355.107-.715.2-1.08.292a18.8,18.8,0,0,0-2.453.467c-1.037.384-1.494,1.548-2.506,2.005a1.788,1.788,0,0,1-2.7-1.562A8.071,8.071,0,0,1,21.94,4.9c.277-.633.574-1.256.861-1.888v0a9.238,9.238,0,0,1,6.225,2.706A8.411,8.411,0,0,1,29.785,6.582Z" transform="translate(-13.442 -3.01)" fill="#24ae5f" fill-rule="evenodd"/><path d="M28.9,22.283a1.417,1.417,0,0,1-1.776,1.47,2.242,2.242,0,0,0-1.4-.151,6.336,6.336,0,0,1-2.283.784,2.49,2.49,0,0,1-2.068-.91c-.784-1.076.019-2.234.934-2.857a10.887,10.887,0,0,1,2.784-1.368,2.593,2.593,0,0,1,1.956.024,3.969,3.969,0,0,1,1.626,2.287,2.526,2.526,0,0,1,.224.72Z" transform="translate(-13.447 -11.254)" fill="#24ae5f" fill-rule="evenodd"/><path d="M16.58,32.382v0A9.236,9.236,0,0,1,5.42,25.305c.964-.516,2.146-1.022,2.813-.1.711.983.608,2.317,1.684,3.076a6.891,6.891,0,0,0,2.458.672c1.071.287,2.618.355,3.241,1.431.321.569.307,1.343.788,1.825Z" transform="translate(-5.42 -14.141)" fill="#24ae5f" fill-rule="evenodd"/></g></g></g></svg>