<svg xmlns="http://www.w3.org/2000/svg" width="27.801" height="23.294" viewBox="0 0 27.801 23.294"><g transform="translate(0 -41.497)"><path d="M17.735,118.483l-7.12-5.154L0,114.415v13.063l.814,1.629H26.986l.814-1.629V121.2Z" transform="translate(0 -67.932)" fill="#ffa64d"/><g transform="translate(2.749 47.558)"><path d="M250.458,153.114v13.618h13.387l.814-1.629v-6.28l-10.066-2.715Z" transform="translate(-239.608 -153.114)" fill="#ed8600"/><path d="M51.449,180.521a.814.814,0,0,0-.814.814v.52a.814.814,0,1,0,1.629,0v-.52A.814.814,0,0,0,51.449,180.521Z" transform="translate(-50.635 -179.033)" fill="#ed8600"/><path d="M111.623,272.834a.815.815,0,0,0-.814.814v.52a.814.814,0,0,0,1.629,0v-.52A.815.815,0,0,0,111.623,272.834Z" transform="translate(-107.542 -266.333)" fill="#ed8600"/><path d="M181.485,210.262a.815.815,0,0,0-.814.814v.52a.814.814,0,0,0,1.629,0v-.52A.815.815,0,0,0,181.485,210.262Z" transform="translate(-173.61 -207.159)" fill="#ed8600"/></g><path d="M251.814,296.291a.814.814,0,0,0-.814.814v.52a.814.814,0,1,0,1.629,0v-.52A.814.814,0,0,0,251.814,296.291Z" transform="translate(-237.371 -240.959)" fill="#d36705"/><path d="M27.8,373.906H0v4.431a.814.814,0,0,0,.814.814H26.986a.814.814,0,0,0,.814-.814Z" transform="translate(0 -314.36)" fill="#ed8600"/><path d="M250.458,379.151h13.387a.814.814,0,0,0,.814-.814v-4.431h-14.2Z" transform="translate(-236.859 -314.36)" fill="#d36705"/><path d="M17.735,53.266h2.506l.814-.543.814.543H27.8V49.094a.814.814,0,0,0-.814-.814H24.652l-.7.543-.933-.543H20.795L17,44.365l-.815.3L15.4,42.719l-.945-.974a.815.815,0,0,0-.585-.247h-8.8l-.693.326L3.443,41.5H.814A.814.814,0,0,0,0,42.311v4.172H6.63l.814-.543.814.543h2.356l1.061,1.011.813-.312.813,1.86.294.28,2.046,1.949.814-.31.814,1.862Z" fill="#b36b24"/><path d="M64.215,43.1a.814.814,0,0,0,.814-.814V41.5H63.4v.79A.814.814,0,0,0,64.215,43.1Z" transform="translate(-59.958 -0.001)" fill="#99481f"/><path d="M263.777,48.28h-2.334l-.7.543-.933-.543h-2.229l-3.8-3.915-.815.3-.782-1.947-.945-.974a.815.815,0,0,0-.585-.247h-.274l0,7.826,2.046,1.949.814-.31.814,1.862.465.443h2.506l.814-.543.814.543h5.93V49.094A.814.814,0,0,0,263.777,48.28Z" transform="translate(-236.79)" fill="#99481f"/><path d="M122.926,100.087a.814.814,0,0,0-.814.814v.99h1.629v-.99A.814.814,0,0,0,122.926,100.087Z" transform="translate(-115.482 -55.409)" fill="#99481f"/><path d="M181.485,61.186a.815.815,0,0,0-.814.814v1.006a.814.814,0,0,0,1.629,0V62A.814.814,0,0,0,181.485,61.186Z" transform="translate(-170.861 -18.62)" fill="#99481f"/><path d="M424.833,168.118a.814.814,0,0,0,.814-.814v-.889h-1.629v.889A.814.814,0,0,0,424.833,168.118Z" transform="translate(-400.995 -118.134)" fill="#662828"/><path d="M373.6,226.875a.814.814,0,0,0-.814.814v.889h1.629v-.889A.815.815,0,0,0,373.6,226.875Z" transform="translate(-352.544 -175.312)" fill="#662828"/><path d="M288.88,203.033a.815.815,0,0,0-.814.814v.189l1.629,1.552v-1.741A.815.815,0,0,0,288.88,203.033Z" transform="translate(-272.424 -152.765)" fill="#662828"/><path d="M283.066,65.669a.814.814,0,1,0,1.629,0v-.551l-1.626-1.677c0,.021,0,.041,0,.062Z" transform="translate(-267.696 -20.753)" fill="#662828"/><path d="M216.662,134.156a.814.814,0,1,0-1.629,0v.2l1.629,1.544h0Z" transform="translate(-203.357 -86.858)" fill="#99481f"/></g></svg>