<svg xmlns="http://www.w3.org/2000/svg" width="31.063" height="23.328" viewBox="0 0 31.063 23.328"><g transform="translate(0.001 -63.751)"><g transform="translate(-0.001 63.751)"><path d="M64.78,232.086a13.591,13.591,0,0,0-1.606,6.423,11.939,11.939,0,0,0-1.02,3.8.426.426,0,0,1-.726.253,15.5,15.5,0,0,0-4.275-2.849c-3.734-1.765-4.974-4.232-4.683-6.557a7.292,7.292,0,0,1,1.606-3.211l10.7-.535Z" transform="translate(-49.248 -219.359)" fill="#ffdc50"/><path d="M.446,64.024a.59.59,0,0,0-.437.689c.379,2.051,1.757,9.215,2.577,9.625,1.07.535,9.2.535,12.945-.535V71.661S9.644,62.027.446,64.024Z" transform="translate(0.001 -63.751)" fill="#ffdc50"/></g><g transform="translate(0.481 66.928)"><path d="M7.932,116.326c.069.34.142.7.22,1.058,2.34-.279,8.753-.664,13.9,2.558A29.638,29.638,0,0,0,9.007,121c.1.374.2.722.3,1.035a28.716,28.716,0,0,1,13.671-.84v-.349a19.383,19.383,0,0,0-2.239-2.826A24.439,24.439,0,0,0,7.932,116.326Z" transform="translate(-7.932 -116.114)" fill="#ffbe46"/><path d="M54.081,231.073a7.291,7.291,0,0,0-1.606,3.211,5.044,5.044,0,0,0,.605,3.108,29.529,29.529,0,0,1,10.25-6.782Z" transform="translate(-49.735 -223.663)" fill="#ffbe46"/></g><g transform="translate(15.531 63.751)"><path d="M256,232.086a13.591,13.591,0,0,1,1.606,6.423,11.938,11.938,0,0,1,1.02,3.8.426.426,0,0,0,.726.253,15.5,15.5,0,0,1,4.275-2.849c3.734-1.765,4.974-4.232,4.683-6.557a7.292,7.292,0,0,0-1.606-3.211L256,229.41Z" transform="translate(-256 -219.359)" fill="#ffdc50"/><path d="M271.084,64.024a.59.59,0,0,1,.437.689c-.379,2.051-1.757,9.215-2.577,9.625-1.07.535-9.2.535-12.945-.535V71.661S261.887,62.027,271.084,64.024Z" transform="translate(-255.999 -63.751)" fill="#ffdc50"/></g><g transform="translate(15.531 66.928)"><path d="M271.05,116.326c-.069.34-.142.7-.22,1.058-2.34-.279-8.753-.664-13.9,2.558A29.638,29.638,0,0,1,269.975,121c-.1.374-.2.722-.3,1.035A28.716,28.716,0,0,0,256,121.2v-.349a19.378,19.378,0,0,1,2.239-2.826A24.439,24.439,0,0,1,271.05,116.326Z" transform="translate(-255.999 -116.114)" fill="#ffbe46"/><path d="M289.225,231.073a7.291,7.291,0,0,1,1.606,3.211,5.044,5.044,0,0,1-.605,3.108,29.528,29.528,0,0,0-10.25-6.782Z" transform="translate(-278.52 -223.663)" fill="#ffbe46"/></g><path d="M202.139,89.735a.267.267,0,0,1-.256-.191,11.549,11.549,0,0,0-3.127-5.224.268.268,0,0,1,.343-.411,11.6,11.6,0,0,1,3.04,4.709,11.6,11.6,0,0,1,3.04-4.709.268.268,0,1,1,.343.411,11.6,11.6,0,0,0-3.127,5.224A.267.267,0,0,1,202.139,89.735Z" transform="translate(-186.608 -18.877)" fill="#b49f77"/><path d="M247.713,178.364a.535.535,0,0,1-.535-.535v-9.634a.535.535,0,0,1,1.07,0v9.634A.535.535,0,0,1,247.713,178.364Z" transform="translate(-232.182 -97.604)" fill="#a58c69"/><path d="M239.426,190.653h0a1.07,1.07,0,0,1-1.07-1.07v-3.211a1.07,1.07,0,0,1,1.07-1.07h0a1.07,1.07,0,0,1,1.07,1.07v3.211A1.07,1.07,0,0,1,239.426,190.653Z" transform="translate(-223.895 -114.175)" fill="#b49f77"/></g></svg>