<?xml version="1.0" encoding="UTF-8" standalone="no"?>
<svg
   width="20"
   height="20"
   viewBox="0 0 19.999999 19.999999"
   version="1.1"
   id="svg12"
   sodipodi:docname="link.svg"
   inkscape:version="1.1 (c4e8f9ed74, 2021-05-24)"
   xmlns:inkscape="http://www.inkscape.org/namespaces/inkscape"
   xmlns:sodipodi="http://sodipodi.sourceforge.net/DTD/sodipodi-0.dtd"
   xmlns="http://www.w3.org/2000/svg"
   xmlns:svg="http://www.w3.org/2000/svg">
  <defs
     id="defs16" />
  <sodipodi:namedview
     id="namedview14"
     pagecolor="#ffffff"
     bordercolor="#666666"
     borderopacity="1.0"
     inkscape:pageshadow="2"
     inkscape:pageopacity="0.0"
     inkscape:pagecheckerboard="0"
     showgrid="false"
     inkscape:zoom="43.458276"
     inkscape:cx="9.7910004"
     inkscape:cy="9.7910004"
     inkscape:current-layer="svg12" />
  <path
     d="m 18.623149,1.3773283 a 4.7030333,4.7029131 0 0 0 -6.650847,0 L 8.0418362,5.3076931 a 4.7470923,4.7469709 0 0 0 0,6.6506769 4.4755664,4.4754519 0 0 0 0.9457298,0.71722 l 0.7172382,-0.71722 a 1.6148106,1.6147693 0 0 0 0.2961168,-1.418046 2.2705712,2.2705132 0 0 1 -0.2961168,-0.244879 2.3761077,2.3760469 0 0 1 0,-3.3248264 L 13.63527,3.0402537 a 2.3515167,2.3514565 0 0 1 3.324911,3.3248264 l -2.598452,2.5983851 a 6.7686794,6.7685063 0 0 1 0.294068,3.0246188 c 0.01127,-0.01127 0.02459,-0.01844 0.03586,-0.02971 l 3.930465,-3.9303644 a 4.7030333,4.7029131 0 0 0 10e-4,-6.6506773 z"
     fill="#087a91"
     id="path2"
     style="stroke-width:0.98791" />
  <path
     d="M 12.198743,7.8015733 A 4.476591,4.4764765 0 0 0 11.253014,7.0843534 l -0.717239,0.7172199 a 1.6148106,1.6147693 0 0 0 -0.296117,1.4170215 2.2654481,2.2653902 0 0 1 0.296117,0.2448794 2.3761077,2.3760469 0 0 1 0,3.3248268 L 6.3009961,17.022972 A 2.3515167,2.3514565 0 0 1 2.9760847,13.698145 L 5.8778256,10.797503 A 6.7625316,6.7623587 0 0 1 5.5837579,7.7728845 c -0.011271,0.011271 -0.024591,0.018443 -0.035862,0.029713 L 1.3131167,12.037269 a 4.7030333,4.7029131 0 0 0 6.6498228,6.649653 l 4.2347795,-4.234671 a 4.745043,4.7449217 0 0 0 0.001,-6.6506777 z"
     fill="#087a91"
     id="path6"
     style="stroke-width:0.98791" />
</svg>
