<svg xmlns="http://www.w3.org/2000/svg" width="21.228" height="22.404" viewBox="0 0 21.228 22.404"><g transform="translate(-13.44)"><path d="M32.861,22.4H15.249a1.808,1.808,0,0,1-1.279-3.087L22.086,11.2,13.971,3.087A1.808,1.808,0,0,1,15.249,0H32.861a1.808,1.808,0,0,1,1.808,1.808V5.077a1.808,1.808,0,1,1-3.616,0V3.616H19.615l6.307,6.307a1.808,1.808,0,0,1,0,2.557l-6.307,6.307H31.053V17.327a1.808,1.808,0,1,1,3.616,0V20.6A1.808,1.808,0,0,1,32.861,22.4Z" transform="translate(-0.001)" fill="#95d6a4"/><g transform="translate(13.44 0)"><path d="M415.916,356.453v1.461h1.821v-1.461a1.807,1.807,0,0,1,.9-1.562,1.808,1.808,0,0,0-2.719,1.562Z" transform="translate(-398.304 -339.126)" fill="#78c2a4"/><path d="M15.4,21.288a1.808,1.808,0,0,1,.392-1.971L23.906,11.2,15.791,3.087A1.808,1.808,0,0,1,17.069,0H15.248A1.808,1.808,0,0,0,13.97,3.087L22.085,11.2,13.97,19.318A1.808,1.808,0,0,0,15.248,22.4h1.821A1.808,1.808,0,0,1,15.4,21.288Z" transform="translate(-13.44 0)" fill="#78c2a4"/><path d="M415.916,82.644v1.461a1.808,1.808,0,0,0,2.719,1.562,1.807,1.807,0,0,1-.9-1.562V82.644Z" transform="translate(-398.304 -79.028)" fill="#78c2a4"/></g></g></svg>