<svg xmlns="http://www.w3.org/2000/svg" width="18.571" height="20" viewBox="0 0 18.571 20"><path d="M66.154,38.134a1.421,1.421,0,0,0-1.011-.42H62.286V37a5,5,0,0,0-10,0v.714H49.429A1.429,1.429,0,0,0,48,39.143v9.643A3.259,3.259,0,0,0,51.214,52H63.357a3.224,3.224,0,0,0,2.254-.917,3.1,3.1,0,0,0,.961-2.241v-9.7A1.417,1.417,0,0,0,66.154,38.134ZM60.7,42.8l-4,5a.714.714,0,0,1-.546.268h-.012a.714.714,0,0,1-.543-.25l-1.714-2a.714.714,0,1,1,1.086-.929l1.154,1.348,3.46-4.326A.715.715,0,0,1,60.7,42.8Zm.157-5.089H53.714V37a3.571,3.571,0,1,1,7.143,0Z" transform="translate(-48 -32)" fill="#1a1a1a"/></svg>