<svg xmlns="http://www.w3.org/2000/svg" width="22.888" height="22.888" viewBox="0 0 22.888 22.888"><g transform="translate(-0.002 -0.003)"><rect width="1.341" height="26.316" transform="translate(0.95 22.891) rotate(-135)" fill="#480306"/><path d="M49.831,97.123a3.343,3.343,0,0,1-.983-2.369V88.8a4.253,4.253,0,0,1,3.622-4.2,4.252,4.252,0,0,1,3.577-3.577l8.1,8.1Z" transform="translate(-46.663 -77.399)" fill="#f9963b"/><path d="M218.49,8.676l-8.627,4.834V3.625a4.248,4.248,0,0,1,6.73-2.787,4.248,4.248,0,0,1,5.532.41Z" transform="translate(-200.48 0)" fill="#fcba66"/><path d="M83.368,276.526a4.253,4.253,0,0,1-4.2,3.622H73.215a3.342,3.342,0,0,1-2.369-.983l7.58-7.58Z" transform="translate(-67.677 -259.44)" fill="#c7461f"/><path d="M143.335,196.531a4.257,4.257,0,0,1-3.576,3.576h-9.883l8.518-8.518Z" transform="translate(-124.068 -183.021)" fill="#d95d27"/><path d="M222.125,93.628a4.216,4.216,0,0,1-2.378,1.2h-9.884l9.7-9.7,2.971,2.971a4.249,4.249,0,0,1-.41,5.532Z" transform="translate(-200.48 -81.317)" fill="#eb7330"/><path d="M366.361,33.367H360.42l5.532-5.532a4.247,4.247,0,0,1,.41,5.532Z" transform="translate(-344.307 -26.588)" fill="#f9963b"/></g></svg>