<svg xmlns="http://www.w3.org/2000/svg" width="104.063" height="50.991" viewBox="0 0 104.063 50.991"><g transform="translate(-1038.188 -699.972)"><path d="M1141.151,728.74l-13.167,15.25a3.3,3.3,0,0,1-2.1,1.2l-83.62,11.061a3.564,3.564,0,0,1-3.771-3.873l-.031-3.086-.008-.7-.015-1.477-.007-.69-.022-2.2-.008-.692-.026-2.737-.007-.709-.155-15.658a3.216,3.216,0,0,1,0-.408v-.046a3.639,3.639,0,0,1,2.9-3.5l84.494-13.448a3.184,3.184,0,0,1,2.9,1.117l12.842,13.492.048.051a2.806,2.806,0,0,1,.462.767l.007.022a5.961,5.961,0,0,1,.389,2.064v.012A6.832,6.832,0,0,1,1141.151,728.74Z" transform="translate(-0.017 -5.319)" fill="#53221b"/><path d="M1142.249,718.95a4.353,4.353,0,0,1-.051.75,4.178,4.178,0,0,1-.894,2.016l-13.179,15.248a3.3,3.3,0,0,1-2.105,1.2l-48.767,6.443-34.942,4.619c-2.035.272-3.815-1.53-3.844-3.871l-.129-12.737-.007-.707-.024-2.431-.007-.7-.025-2.474,0-.7-.024-2.312-.007-.7-.029-2.883,0-.709-.017-1.593a3.822,3.822,0,0,1,2.972-3.949l39.117-6.221,45.472-7.224a3.176,3.176,0,0,1,2.909,1.112l.976,1.17.549.658,2.36,2.827.551.663,4.243,5.085.529.636,3.376,4.043A4.247,4.247,0,0,1,1142.249,718.95Z" fill="#a43d2e"/><path d="M1046.19,752.256a2.128,2.128,0,0,1-1.981-2.216l-.28-27.948a2.18,2.18,0,0,1,1.709-2.245l84.585-13.447a1.839,1.839,0,0,1,1.693.645l12.591,15.091a2.477,2.477,0,0,1,.032,3.1l-13.185,15.255a1.911,1.911,0,0,1-1.215.691l-83.71,11.06A1.96,1.96,0,0,1,1046.19,752.256Zm84.31-45.247a1.184,1.184,0,0,0-.18.014l-84.583,13.447a1.549,1.549,0,0,0-1.177,1.615l.281,27.948a1.463,1.463,0,0,0,1.506,1.581l83.709-11.06a1.286,1.286,0,0,0,.816-.472l13.186-15.256a1.825,1.825,0,0,0-.03-2.28l-12.591-15.091A1.243,1.243,0,0,0,1130.5,707.009Z" transform="translate(-4.347 -4.849)" fill="#53221b"/><g transform="translate(1060.596 713.759)"><path d="M1134.086,777.2c.03.085.06.081.091.136.061.081.03.085.09.136a.768.768,0,0,1,.091.136.418.418,0,0,1,.091.166.209.209,0,0,1,.09.136.537.537,0,0,1,.121.132c.06.051.03.055.091.136a131.221,131.221,0,0,0,.181.272.764.764,0,0,1,.09.136.751.751,0,0,1,.091.136.427.427,0,0,1,.091.166.21.21,0,0,1,.09.136l.121.1c.06.081.03.085.09.166.03.055.06.051.091.136a.526.526,0,0,1,.121.132.629.629,0,0,1,.06.141.757.757,0,0,1,.091.136c.06.081.06.051.121.132a.208.208,0,0,1,.091.136c.06.05.03.085.091.136a.793.793,0,0,1,.09.136c.061.081.03.085.091.166l.121.1c.06.081.03.085.06.17a.529.529,0,0,1,.121.132c.06.051.03.055.09.136.03.055.06.051.121.132.03.055,0,.09.06.141a.78.78,0,0,1,.091.136.76.76,0,0,1,.09.136c.06.081.06.051.121.132a.778.778,0,0,1,.091.136c.06.081.03.085.091.136.03.085.06.081.09.136a.415.415,0,0,1,.091.166.2.2,0,0,0,.181.033.242.242,0,0,0,.121-.167v-.179c0-.09-.03-.085-.03-.175v-.179c0-.12.03-.124.03-.213v-.179c0-.09-.03-.085-.03-.175s.03-.094.03-.184-.03-.085-.03-.175.03-.094.03-.184v-.179c0-.09-.03-.085-.03-.175s.03-.094.03-.213c0-.09-.03-.086-.03-.175s.03-.094.03-.184v-.538c0-.09-.03-.085-.03-.175,0-.06.03-.124.03-.214,0-.06-.03-.115-.03-.175v-.538a.351.351,0,0,1-.03-.175.54.54,0,0,1-.03-.2c0-.06-.03-.115-.03-.175a.371.371,0,0,1-.06-.17.432.432,0,0,1-.06-.141l-.09-.166a.546.546,0,0,0-.091-.136.457.457,0,0,1,0-.329c.03-.034.06-.1.091-.133a.363.363,0,0,1,.151-.052c.06-.009.151.008.212,0s.121-.048.181-.056l.181-.027.181-.026.181-.026.181-.027.181-.026.181-.027.181-.026.181-.027.181-.026.181-.027.181-.026.211-.031.181-.027.181-.026.181-.026.181-.027.181-.026.181-.027c.06-.009.121-.018.151.008a.133.133,0,0,1,.091.106.43.43,0,0,1,.06.14.263.263,0,0,1-.06.158l-.091.193c0,.06-.06.128-.06.158a.474.474,0,0,0-.06.188.48.48,0,0,0-.061.188c-.03.064-.03.124-.06.188v.209c-.03.064,0,.12-.03.184v.179c0,.06-.03.124-.03.184v.179c0,.06-.03.124-.03.184v.209c0,.09.03.085.03.175v.9c0,.09-.03.094-.03.184s.03.085.03.175v.179c0,.09-.03.094-.03.154,0,.09.03.085.03.175s-.03.094-.03.184v.359c0,.09.03.085.03.175v.179c0,.089-.03.094-.03.184s.03.085.03.175v.359c0,.09-.03.094-.03.184s.03.085.03.175v1.792c0,.09-.03.094-.03.184s.03.085.03.175v.359c0,.09-.03.094-.03.184s.03.085.03.175v.717c0,.09-.03.094-.03.184s.03.085.03.175v.9c0,.09-.03.094-.03.184s.03.085.03.175-.03.094-.03.184.03.085.03.175v1.076c0,.09-.03.094-.03.184s.03.085.03.175v.179c0,.09-.03.094-.03.154,0,.09.03.085.03.175s-.03.094-.03.184v.179c0,.09.03.085.03.175s-.03.094-.03.184.03.085.03.175v.179c0,.09-.03.094-.03.184s.03.145.03.2v.538c.03.055,0,.12.03.175v.209c.03.055.03.115.06.17a.354.354,0,0,0,.03.175c0,.06.03.115.03.174a.533.533,0,0,0,.091.136.37.37,0,0,1,.06.17l.091.166a.194.194,0,0,1,.06.14.581.581,0,0,1-.06.158.2.2,0,0,1-.091.133.254.254,0,0,1-.151.052l-.181.026-.181.027-.181.026-.181.026-.181.027-.181.026-.211.031-.181.026-.181.027-.181.026-.181.026-.181.027-.181.026-.181.027-.181.026-.181.026-.181.027-.181.026-.181.026-.212.031a1.247,1.247,0,0,0-.151-.008c-.03-.025-.091-.046-.121-.1s0-.12,0-.149a.4.4,0,0,1,.03-.184.8.8,0,0,0,.091-.163.792.792,0,0,1,.09-.163.479.479,0,0,1,.06-.188c.03-.064.03-.124.06-.188a.4.4,0,0,1,.03-.183v-.179a2,2,0,0,0,.06-.218c0-.06-.03-.115-.03-.175a.4.4,0,0,0,.03-.184v-.358c0-.06.03-.124.03-.214v-.358c0-.09-.03-.085-.03-.145V790.9c0-.09.03-.094.03-.184v-.358c0-.09-.03-.085-.03-.175s.03-.094.03-.184v-.358c0-.09-.03-.085-.03-.175s.03-.094.03-.183v-.538c0-.09-.03-.085-.03-.175s.03-.094.03-.184-.03-.085-.03-.175a.323.323,0,0,0-.06-.23.765.765,0,0,0-.091-.136.326.326,0,0,0-.09-.136c-.03-.086-.06-.081-.091-.136-.06-.081-.06-.051-.12-.132-.03-.085,0-.09-.06-.17l-.121-.1-.06-.17a.527.527,0,0,1-.121-.132.764.764,0,0,0-.091-.136c-.03-.055-.06-.051-.09-.136a.527.527,0,0,1-.121-.132.664.664,0,0,1-.061-.141.522.522,0,0,1-.12-.132c-.03-.085-.03-.055-.091-.136a.21.21,0,0,1-.09-.136c-.06-.081-.03-.085-.09-.136-.061-.081-.03-.085-.091-.166a.255.255,0,0,1-.09-.106l-.121-.162a.793.793,0,0,0-.09-.136.818.818,0,0,0-.091-.136.329.329,0,0,0-.091-.136c-.03-.085-.06-.051-.09-.136a.324.324,0,0,1-.091-.136c-.06-.081-.06-.051-.12-.132a.212.212,0,0,0-.091-.136c-.03-.085-.061-.081-.091-.136a.742.742,0,0,1-.09-.136c-.06-.081-.03-.085-.091-.166a196.713,196.713,0,0,1-.181-.272.52.52,0,0,1-.121-.132c-.06-.051-.03-.055-.091-.136a.212.212,0,0,0-.091-.136c-.03-.055-.091-.076-.181-.033a.163.163,0,0,0-.091.163v.687c0,.09-.03.094-.03.183s.03.086.03.175v.9c0,.09-.03.094-.03.184v.179c0,.09.03.086.03.175v.179c0,.089-.03.094-.03.183s.03.085.03.175v.179c0,.09-.03.094-.03.184v.179c0,.09.03.085.03.175v.538c0,.06-.03.064-.03.154s.03.085.03.175v.179c0,.09-.03.094-.03.183s.03.086.03.175v.179c0,.09-.03.094-.03.184s.03.085.03.175v.359c0,.09-.03.094-.03.183s.03.085.03.175v.179c0,.09-.03.094-.03.184v.359c0,.09.03.085.03.175s-.03.094-.03.184.03.085.03.175v.179c0,.09-.03.094-.03.184s.03.085.03.175v.329c0,.09-.03.094-.03.183s.03.145.03.2v.538a.35.35,0,0,1,.03.175.412.412,0,0,0,.03.2v.18a.368.368,0,0,1,.061.17.35.35,0,0,1,.03.175.37.37,0,0,1,.06.171.537.537,0,0,0,.09.136.544.544,0,0,0,.091.136.193.193,0,0,1,.06.17.348.348,0,0,1-.03.154.563.563,0,0,1-.121.137.251.251,0,0,1-.151.052l-.181.027-.181.026-.181.026-.181.027-.181.026-.181.026-.211.031-.181.027-.181.026-.181.026-.181.027-.181.026-.181.027-.181.026-.181.026-.181.027-.181.026-.181.027-.181.026-.211.031a.456.456,0,0,1-.151-.038c-.03,0-.06-.051-.09-.076a.433.433,0,0,1-.06-.14.482.482,0,0,1,.06-.188.784.784,0,0,0,.09-.163c.03-.064.06-.1.091-.163s.03-.124.06-.188c0-.06.03-.124.03-.184a.477.477,0,0,0,.06-.188c.03-.064,0-.12.03-.184v-.209a.4.4,0,0,0,.03-.184v-.359c0-.06.03-.124.03-.184v-.568c0-.09-.03-.085-.03-.175s.03-.094.03-.184v-.508c0-.09-.03-.085-.03-.175v-.179c0-.09.03-.094.03-.184v-.179c0-.09-.03-.085-.03-.175s.03-.094.03-.183v-.179c0-.09-.03-.085-.03-.175s.03-.094.03-.184V789.4c0-.09-.03-.085-.03-.175v-.179c0-.09.03-.094.03-.184v-.538c0-.09-.03-.085-.03-.175v-.18c0-.09.03-.094.03-.184v-1.613c0-.09-.03-.085-.03-.175s.03-.094.03-.184-.03-.085-.03-.175v-.359c0-.09.03-.094.03-.184v-.179c0-.09-.03-.085-.03-.175v-.179c0-.09.03-.094.03-.184v-.717c0-.09-.03-.085-.03-.175s.03-.094.03-.184v-1.584c0-.09-.03-.085-.03-.175s.03-.094.03-.184v-.9c0-.09-.03-.085-.03-.175v-.179c0-.09.03-.094.03-.184v-.209c0-.06-.03-.115-.03-.175s.03-.124.03-.184a.349.349,0,0,0-.03-.175v-.18c-.03-.055-.03-.115-.06-.17v-.209a.37.37,0,0,0-.06-.17.349.349,0,0,0-.03-.175c0-.06-.06-.081-.091-.136a.365.365,0,0,0-.06-.17.532.532,0,0,0-.09-.136.371.371,0,0,1-.06-.17.587.587,0,0,1,.06-.159l.09-.1a.607.607,0,0,1,.151-.082l.181-.026.181-.026.181-.027.181-.026.181-.026.151-.022.181-.027.181-.026c.09-.013.09.017.181,0s.091-.043.181-.057l.181-.026.181-.026.151-.022.181-.026.181-.027.181-.026a.259.259,0,0,1,.151.008c.061-.009.09.047.121.072s.09.017.121.072C1134.056,777.114,1134.026,777.148,1134.086,777.2Z" transform="translate(-1130.466 -771.143)" fill="#53221b"/><path d="M1185.52,788.055c-.03-.026-.06-.081-.09-.106a.433.433,0,0,1-.06-.141c.03-.064.03-.124.06-.158l.09-.193c.03-.064.061-.1.091-.163s.03-.124.06-.188c0-.06.03-.124.03-.184.03-.064.03-.124.06-.188,0-.06.03-.124.03-.184s.03-.124.03-.214V785.8c0-.06.03-.124.03-.184s-.03-.115-.03-.2.03-.094.03-.184v-1.045c0-.09-.03-.086-.03-.175s.03-.094.03-.184-.03-.085-.03-.175v-.358c0-.089.03-.094.03-.183v-1.255c0-.09-.03-.085-.03-.175s.03-.094.03-.184v-.179c0-.09-.03-.085-.03-.175s.03-.094.03-.183v-.717c0-.09-.03-.085-.03-.175V779.7c0-.09.03-.094.03-.184v-.179c0-.09-.03-.085-.03-.175s.03-.094.03-.184-.03-.085-.03-.175v-.18c0-.09.03-.094.03-.184v-.358c0-.09-.03-.086-.03-.175s.03-.094.03-.184v-.358c0-.09-.03-.085-.03-.175s.03-.094.03-.184V774.89c0-.09-.03-.085-.03-.175v-.358c0-.09.03-.094.03-.184v-.358c0-.09-.03-.085-.03-.175s.03-.094.03-.184v-.538c0-.09-.03-.085-.03-.175V772a.348.348,0,0,1-.03-.175.351.351,0,0,0-.03-.175v-.209c0-.06-.03-.115-.03-.175l-.09-.166a.348.348,0,0,0-.03-.175.548.548,0,0,1-.091-.136.528.528,0,0,0-.09-.136.372.372,0,0,1-.06-.171.586.586,0,0,1,.06-.158l.09-.1a.61.61,0,0,1,.151-.082l.181-.026.181-.026.181-.027.181-.026.211-.031.181-.026.181-.026.181-.027c.06-.009.12.012.181,0s.121-.048.181-.057l.181-.026.181-.026.181-.026.181-.027.181-.026.181-.027.181-.026.181-.026.181-.026.181-.027.151-.022.181-.026.181-.027.181-.026c.06-.009.121.012.181,0s.121-.047.181-.056l.181-.026.181-.027.181-.026.181-.026.181-.026.181-.027a.375.375,0,0,1,.181,0c.06-.009.121-.048.181-.056l.181-.027.181-.026c.06-.009.121.012.181,0s.121-.047.181-.056l.181-.026c.06-.039.12-.018.181-.057a.423.423,0,0,0,.181-.056.255.255,0,0,0,.151-.052.427.427,0,0,0,.181-.056c.06-.009.121-.048.181-.027a.389.389,0,0,1,.181.033.191.191,0,0,1,.121.1.539.539,0,0,1,.091.136c0,.06.03.115.03.175a.35.35,0,0,1,.03.175c.03.055.03.115.06.17a.352.352,0,0,0,.03.175c0,.06.03.115.03.175a.369.369,0,0,0,.061.17.354.354,0,0,0,.03.175.346.346,0,0,0,.03.175,1.17,1.17,0,0,1,.03.145c.03.055.03.115.06.17,0,.06.03.115.03.175.03.055.03.115.06.17v.179a.371.371,0,0,1,.06.171.346.346,0,0,1,.03.175c.03.055.03.115.06.17a.349.349,0,0,1-.03.154c0,.03-.03.094-.061.1a.5.5,0,0,1-.181.086.454.454,0,0,1-.151-.038.543.543,0,0,0-.151-.068c-.06.009-.121-.042-.151-.038a.392.392,0,0,0-.181-.033.386.386,0,0,0-.181-.033c-.06-.021-.121.018-.181.026-.061-.021-.121-.012-.181-.033a1.249,1.249,0,0,0-.151-.008c-.06.009-.12-.012-.181,0l-.181.027-.181.026-.181.027c-.06-.021-.121.017-.181.026l-.181.026c-.091.013-.091-.017-.181,0l-.181.026-.181.026-.181.026-.181.027-.181.026c-.091.013-.091.043-.181.057s-.091-.017-.181,0-.091.043-.181.056l-.181.027-.181.026-.181.026a.426.426,0,0,0-.181.057c-.06.009-.09.073-.151.112a.79.79,0,0,0-.09.163.242.242,0,0,0-.03.154v.18c0,.09-.03.094-.03.183v.179c0,.09.03.085.03.175v.508c0,.09-.03.094-.03.184s.03.085.03.175v.359c0,.09-.03.094-.03.184v.328c0,.09.03.085.03.175v.717c.03.055.091.076.12.1a.429.429,0,0,0,.151.1c.06-.009.121.012.181,0l.181-.027.211-.031.211-.031.181-.026.211-.031c.06-.009.121-.048.181-.056s.121.012.181,0a.428.428,0,0,1,.181-.056l.181-.026c.09-.013.151-.052.211-.061.06-.039.121-.018.181-.056.06-.009.12-.048.181-.057.06-.039.121-.048.181-.086a.5.5,0,0,0,.181-.086.807.807,0,0,0,.151-.112c.06-.039.12-.048.181-.086a.272.272,0,0,1,.151-.082l.151-.022c.06.021.091.076.12.1a.349.349,0,0,1,.03.175v.508c0,.06.03.115.03.175s-.03.124-.03.184v2.3a1.4,1.4,0,0,1-.03.154.566.566,0,0,1-.12.137.609.609,0,0,1-.151.082.218.218,0,0,1-.151-.068c-.06-.021-.12-.012-.181-.033s-.091-.076-.151-.068c-.06-.021-.12-.012-.181-.033a.372.372,0,0,0-.181,0,.388.388,0,0,0-.181-.033.371.371,0,0,0-.181,0,.582.582,0,0,1-.211,0c-.061.009-.121.047-.181.026l-.181.026a.372.372,0,0,0-.181,0l-.181.026c-.06.009-.121.047-.211.061s-.09-.017-.181,0c-.121.018-.121.048-.211.061l-.211.031c-.091.013-.091-.017-.181,0a.426.426,0,0,0-.181.057.653.653,0,0,0-.151.142.789.789,0,0,0-.09.163.243.243,0,0,0-.03.154v.179c0,.09-.03.094-.03.184s.03.086.03.175v.179c0,.09-.03.094-.03.184,0,.119.03.115.03.2v.358c0,.09-.03.094-.03.184s.03.085.03.175v.9c0,.09-.03.094-.03.184s.03.086.03.175-.03.094-.03.184v.179c0,.09.03.085.03.175v.747c0,.06,0,.119.03.145a.537.537,0,0,0,.09.136.435.435,0,0,0,.151.1c.06.021.121-.018.181-.027.09-.013.09.017.181,0l.181-.027.181-.026.181-.026.151-.022c.091-.013.091-.043.181-.057l.181-.026.181-.026c.091-.013.091.017.181,0l.181-.026c.09-.013.09-.043.181-.057s.091.017.181,0c.061-.009.121-.047.181-.056l.181-.026.181-.027.181-.026.181-.027c.06-.009.121-.048.181-.056a.42.42,0,0,1,.181-.057.37.37,0,0,1,.151-.052.426.426,0,0,1,.181-.056.507.507,0,0,1,.181-.086c.06-.039.121-.048.181-.086.06-.009.091-.073.151-.112s.091-.043.151-.082a.618.618,0,0,1,.151-.082.2.2,0,0,1,.151.038.339.339,0,0,1,.121.072.134.134,0,0,1,0,.149.475.475,0,0,1-.061.188.4.4,0,0,1-.03.183c0,.06-.03.124-.03.184-.03.064-.03.124-.06.188,0,.06-.03.124-.03.184s-.03.124-.03.184a.474.474,0,0,1-.06.188v.179a.4.4,0,0,0-.03.184.485.485,0,0,0-.06.188c0,.06-.03.124-.03.184a.261.261,0,0,0-.06.158.4.4,0,0,1-.03.184c0,.06-.03.124-.03.184a.4.4,0,0,0-.03.184.479.479,0,0,0-.06.188.482.482,0,0,1-.06.188c-.061.039-.091.073-.151.112s-.12.108-.181.116l-.181.026a.451.451,0,0,0-.151-.038.385.385,0,0,1-.181-.033l-.181.027-.181.026-.181.026c-.06.009-.12-.012-.181,0-.06-.021-.121.018-.181.026l-.181.027-.181.026-.181.026-.151.022-.181.026-.181.027-.181.026-.181.027-.181.026-.181.026-.181.027-.181.026-.181.026-.181.027-.181.026-.151.022-.181.026-.181.027-.181.026-.181.027-.181.026-.181.026-.181.027-.181.026-.181.026-.181.027-.151.022-.181.026-.181.026-.181.027-.181.026-.181.026-.181.027-.181.026-.211.031-.211.031A.316.316,0,0,1,1185.52,788.055Z" transform="translate(-1172.036 -765.908)" fill="#53221b"/><path d="M1231.085,763.521l.181-.026.181-.026.211-.031.181-.026.181-.027.181-.026.181-.026.181-.027.181-.026.181-.026.181-.026.181-.027.181-.026.181-.026.181-.027.181-.026.181-.027.181-.026.181-.026.181-.027.181-.026.181-.026.181-.027.181-.026.181-.027.181-.026.181-.026.181-.027a.373.373,0,0,1,.181,0c.06.021.09.076.121.1a.435.435,0,0,1,.061.141.241.241,0,0,1-.03.154c-.03.064-.03.124-.06.188a.481.481,0,0,1-.06.188v.179c0,.06-.03.124-.03.184v.358a.348.348,0,0,0,.03.175v.209a.352.352,0,0,0,.03.175c0,.06.03.115.03.175a.35.35,0,0,1,.03.175c0,.06.03.115.03.175a.348.348,0,0,1,.03.175c.03.055,0,.09.03.175s0,.09.03.145c0,.09.03.085.06.17a150.225,150.225,0,0,1,.061.349.35.35,0,0,0,.03.175,286.248,286.248,0,0,0,.06.35.349.349,0,0,1,.03.175c.03.085,0,.09.03.175,0,.09.03.085.03.175.03.085.03.055.06.141v.179l.06.17a.353.353,0,0,0,.03.175c0,.089.03.085.03.175l.06.17c0,.09-.03.094,0,.18l.06.17a.351.351,0,0,0,.03.175v.179c.03.085.03.055.061.14a.355.355,0,0,0,.03.175.348.348,0,0,0,.03.175c0,.09.03.085.03.175a.354.354,0,0,1,.03.175.346.346,0,0,1,.03.175.35.35,0,0,1,.03.175l.06.17a240.894,240.894,0,0,0,.06.35.246.246,0,0,0,.03.145.35.35,0,0,1,.03.175c.03.085,0,.09.03.175l.06.17v.179c.03.085.06.081.06.17.03.085,0,.09.03.175s0,.09.03.175a.353.353,0,0,0,.03.175c0,.09.03.085.03.175.03.055,0,.09.03.145l.06.17v.18a.347.347,0,0,1,.03.175l.06.17a.348.348,0,0,0,.03.175c0,.09.03.085.03.175a.349.349,0,0,1,.03.175l.06.17v.179a.2.2,0,0,1,.03.145l.06.17a.352.352,0,0,0,.03.175.349.349,0,0,1,.03.175c.03.085,0,.09.03.175l.06.17a.348.348,0,0,0,.03.175c0,.09-.03.094,0,.179l.06.17c0,.06.03.056.03.145.03.085,0,.09.03.175a.348.348,0,0,0,.03.175c0,.09.03.085.03.175a.35.35,0,0,1,.03.175l.061.17V777l.06.17c0,.09.03.085.03.175a.205.205,0,0,1,.03.145c.03.085,0,.119.03.175a.369.369,0,0,0,.06.171v.179a.37.37,0,0,0,.06.17v.179c.03.055.03.115.06.17s.06.081.06.141a.366.366,0,0,1,.06.17c.03.055.03.115.06.17,0,.06.06.081.06.141l.09.166a.531.531,0,0,1,.091.136c.03.055.06.081.09.136l.121.1a.426.426,0,0,1,.06.141.187.187,0,0,1,0,.179c0,.06-.06.1-.091.133a.251.251,0,0,1-.151.052c-.06.009-.121.048-.181.056s-.12-.012-.181,0l-.181.026-.151.022-.181.026-.181.027-.181.026-.181.026-.181.027-.181.026-.181.026-.181.026-.151.022-.181.026-.181.027-.181.026-.181.026-.181.027-.181.026-.181.026a1.565,1.565,0,0,0-.151.052.4.4,0,0,1-.181-.033.191.191,0,0,1-.121-.1.167.167,0,0,1-.06-.14.243.243,0,0,1,.03-.154.479.479,0,0,1,.06-.188.4.4,0,0,0,.03-.184c.03-.064,0-.12.03-.183v-.179c0-.06.03-.124.03-.184v-.179c0-.06-.03-.115-.03-.175v-.179c0-.06-.03-.115-.03-.175a.409.409,0,0,1-.03-.2.976.976,0,0,1-.03-.175c-.03-.025-.03-.115-.03-.175a.3.3,0,0,0-.03-.145.348.348,0,0,0-.03-.175.2.2,0,0,0-.03-.145v-.179c-.03-.085-.061-.081-.061-.141,0-.09-.06-.14-.09-.2a.541.541,0,0,0-.151-.1.4.4,0,0,0-.211-.029l-.151.022-.181.027-.181.026-.181.027-.181.026c-.091.013-.091.043-.181.056-.06.009-.06-.021-.151-.008s-.091.043-.181.057-.091-.017-.181,0-.091.043-.181.056l-.181.027c-.06.009-.06-.021-.151-.008l-.181.027-.181.026-.181.027-.181.026a.5.5,0,0,0-.181.086c-.06.039-.151.082-.181.146a.478.478,0,0,0-.06.218.242.242,0,0,0-.03.154.4.4,0,0,0-.03.184c-.03.064,0,.09-.03.154,0,.09-.03.094-.03.184a.346.346,0,0,0-.03.154.4.4,0,0,0-.03.183c-.03.064-.03.124-.06.188v.179a.612.612,0,0,0-.03.213v.179a.4.4,0,0,1-.03.184v.359c0,.06.03.115.03.175v.179c.03.055.03.115.06.17s.03.115.06.17c.03.026.03.085.03.145a.364.364,0,0,1-.061.158l-.121.137a.424.424,0,0,1-.181.057l-.181.026-.181.027-.151.022-.181.027-.181.026-.181.027-.181.026-.181.026-.181.027-.181.026-.151.022-.181.026-.181.027-.181.026-.181.026-.181.027-.181.026-.181.027-.181.026a1.5,1.5,0,0,1-.151.052c-.061.009-.121-.012-.181,0s-.121.018-.151-.008c-.06-.021-.091-.046-.091-.106a.189.189,0,0,1,0-.179.267.267,0,0,1,.06-.128c.06-.068.06-.128.121-.167a188.6,188.6,0,0,0,.181-.325l.091-.192a.361.361,0,0,1,.06-.158c.03-.064.03-.124.06-.188a.4.4,0,0,0,.03-.184c.03-.064.06-.1.09-.163a.4.4,0,0,1,.03-.184c0-.06.03-.124.03-.184a.4.4,0,0,0,.03-.184c.03-.064.03-.124.06-.188v-.179a.844.844,0,0,1,.06-.158c.03-.094,0-.119.03-.184,0-.09.03-.094.03-.184l.06-.188a214.456,214.456,0,0,0,.061-.367v-.179l.06-.188c0-.09.03-.094.03-.184.03-.094,0-.09.03-.184a.4.4,0,0,1,.03-.184c.03-.064,0-.09.03-.154a.405.405,0,0,0,.03-.183.4.4,0,0,0,.03-.184l.06-.188a.4.4,0,0,1,.03-.184c.03-.094,0-.09.03-.184,0-.09.03-.094.03-.184l.061-.188c0-.09-.03-.085,0-.179,0-.09.03-.094.06-.158v-.209a.241.241,0,0,0,.03-.154l.06-.188a.405.405,0,0,1,.03-.184c0-.09.03-.094.06-.188v-.179a.4.4,0,0,0,.03-.184,216.705,216.705,0,0,1,.06-.367.911.911,0,0,1,.06-.158.4.4,0,0,1,.03-.184c0-.09.03-.094.03-.184a.4.4,0,0,0,.03-.184c.03-.094,0-.089.03-.183l.06-.188c0-.09-.03-.085,0-.179l.061-.188c.03-.094,0-.09.03-.184a143.732,143.732,0,0,0,.061-.367.349.349,0,0,1,.03-.154.4.4,0,0,0,.03-.184l.06-.188v-.179l.06-.188v-.179c.03-.094.061-.1.061-.188a.406.406,0,0,0,.03-.184c.03-.094,0-.09.03-.184s.03-.064.06-.158c0-.09-.03-.115,0-.179,0-.09.03-.094.061-.188s0-.09.03-.184,0-.09,0-.179c.03-.094.06-.1.06-.188a.407.407,0,0,0,.03-.184,234.986,234.986,0,0,0,.091-.551.858.858,0,0,0,.06-.158.4.4,0,0,1,.03-.184.4.4,0,0,0,.03-.184c.03-.094,0-.09.03-.184a.4.4,0,0,1,.03-.184c0-.09.03-.094.03-.184a.4.4,0,0,0,.03-.184l.06-.188a.4.4,0,0,1,.03-.184v-.179a.348.348,0,0,0,.03-.154.4.4,0,0,0,.03-.184c.03-.064.03-.124.061-.188a.406.406,0,0,1,.03-.184.4.4,0,0,1,.03-.184v-.179c0-.09.03-.154.03-.213V765.1c0-.06.03-.124.03-.184v-.179a194.992,194.992,0,0,1-.06-.35.372.372,0,0,0-.06-.17.368.368,0,0,0-.061-.17c-.03-.026-.03-.085,0-.149a.219.219,0,0,1,.061-.158.511.511,0,0,1,.12-.107.374.374,0,0,1,.151-.082Zm1.3,10.715c.03.055.06.081.09.136.06.051.09.106.151.127s.12-.017.211-.031.09.017.181,0l.181-.026.181-.027.181-.026.181-.026.181-.027.181-.026c.091-.013.091-.043.181-.057a.491.491,0,0,0,.211-.061.563.563,0,0,0,.121-.137.639.639,0,0,0,.12-.167v-.209c-.03-.085,0-.09-.03-.175a.348.348,0,0,0-.03-.175c0-.09-.03-.085-.06-.17,0-.09.03-.094,0-.179a.348.348,0,0,0-.03-.175c0-.09-.03-.085-.06-.17v-.179l-.06-.17a.348.348,0,0,0-.03-.175,261.7,261.7,0,0,0-.06-.35v-.209l-.06-.17a.349.349,0,0,0-.03-.175,117.76,117.76,0,0,1-.06-.35c-.03-.085,0-.09-.03-.175a.349.349,0,0,0-.03-.175v-.179a.351.351,0,0,1-.03-.175c0-.09-.03-.085-.06-.171,0-.09.03-.094,0-.179,0-.09-.03-.085-.03-.175-.03-.085,0-.09,0-.18l-.061-.17a657.943,657.943,0,0,1-.06-.35v-.179a.35.35,0,0,1-.03-.175c-.03-.085,0-.09-.03-.175,0-.09-.03-.085-.03-.175a.353.353,0,0,0-.03-.175c0-.09-.03-.085-.03-.175V767.7a286.248,286.248,0,0,0-.06-.35c-.03-.055-.091-.136-.151-.127-.091.013-.121.107-.151.171,0,.09-.03.094-.03.184a.4.4,0,0,0-.03.184c-.03.094,0,.09,0,.179l-.06.188a.4.4,0,0,1-.03.184v.179a.405.405,0,0,0-.03.184.4.4,0,0,0-.03.184c0,.09-.03.094-.03.184a.4.4,0,0,0-.03.184c0,.09-.03.094-.03.184v.18c0,.09-.03.094-.03.184s-.03.094-.03.184a136.091,136.091,0,0,0-.091.551v.179a.4.4,0,0,0-.03.184c-.03.094,0,.09-.03.184a.4.4,0,0,1-.03.184c0,.09-.03.094-.03.184a.4.4,0,0,0-.03.184.612.612,0,0,0-.03.214,288.152,288.152,0,0,0-.06.368l-.06.188a.4.4,0,0,1-.03.184c0,.089-.03.094-.03.184-.03.094,0,.09-.03.184s0,.09-.03.184c0,.09-.03.094-.03.184a107.652,107.652,0,0,1-.06.367,216.705,216.705,0,0,0-.06.367C1232.352,774.091,1232.383,774.177,1232.383,774.236Z" transform="translate(-1203.756 -761.302)" fill="#53221b"/><path d="M1292.746,766.63l.06.17a.348.348,0,0,1,.03.175l.06.17a.348.348,0,0,1,.03.175c.03.055.03.085.06.141l.06.17.06.17a.35.35,0,0,0,.03.175l.061.17c.03.085,0,.09.03.175l.06.17a.639.639,0,0,0,.061.141c0,.09.03.085.06.17a.353.353,0,0,0,.03.175c.03.085,0,.09.03.175l.061.17a.353.353,0,0,1,.03.175c.03.085.061.081.091.166s0,.09.03.175.03.055.06.141a.35.35,0,0,1,.03.175l.06.17c.03.085,0,.09.03.175l.06.17.06.171.061.17a.353.353,0,0,0,.03.175.626.626,0,0,1,.06.141.348.348,0,0,1,.03.175l.091.166a.347.347,0,0,1,.03.175c.03.055.06.081.091.136a.368.368,0,0,0,.06.171l.09.166c0,.03.03.115.03.145l.091.166a.538.538,0,0,0,.09.136,1.09,1.09,0,0,1,.211.268c.03.055.03.115.091.166a.425.425,0,0,0,.12.132.194.194,0,0,1,.06.141c0,.06-.03.094-.03.154a.37.37,0,0,1-.121.167.253.253,0,0,1-.151.052l-.181.026-.181.027-.181.026-.181.027-.181.026-.181.026-.151.022-.181.027-.181.026-.181.026-.181.027-.181.026-.181.026-.151.022-.181.027c-.06.009-.121.047-.181.056s-.121-.012-.181,0l-.181.027-.181.026-.181.026c-.061.009-.121-.012-.181,0-.06-.021-.091-.047-.151-.068-.03-.055-.061-.081-.061-.141a.352.352,0,0,1-.03-.175.472.472,0,0,0,.03-.214V773.4a.353.353,0,0,0-.03-.175c0-.06-.03-.115-.03-.175-.03-.055-.03-.115-.06-.17s0-.12-.03-.175a.353.353,0,0,1-.03-.175l-.091-.166c-.03-.055-.03-.115-.06-.171a.37.37,0,0,0-.06-.17c0-.06-.03-.115-.03-.175-.03-.055-.03-.085-.06-.14a.352.352,0,0,0-.03-.175l-.061-.17a.353.353,0,0,1-.03-.175.639.639,0,0,1-.06-.14l-.06-.171a.348.348,0,0,1-.03-.175c-.03-.085-.06-.051-.06-.141l-.06-.17c0-.09-.03-.085-.06-.171s0-.09-.03-.175a.2.2,0,0,1-.03-.145l-.06-.17c0-.09-.03-.085-.06-.17a.2.2,0,0,0-.03-.145l-.06-.17-.061-.17c-.03-.085,0-.09-.03-.175,0-.09-.03-.085-.06-.14-.03-.085,0-.09-.03-.175l-.06-.17-.06-.17a.138.138,0,0,0-.091-.136.247.247,0,0,0-.151-.1.405.405,0,0,0-.211-.028c-.061.009-.091.043-.151.052l-.181.026-.181.027a.256.256,0,0,0-.151.052l-.181.116c-.03.064-.06.1-.091.163a.4.4,0,0,0-.03.184v1.076c0,.09.03.085.03.175v.179c0,.119-.03.124-.03.213s.03.086.03.175-.03.094-.03.184v1.823a.35.35,0,0,0,.03.175v.538a.381.381,0,0,0,.06.2c0,.06-.03.124,0,.18,0,.06.03.115.03.175.03.055.03.115.06.17a.372.372,0,0,0,.06.171c0,.06.06.081.091.136l.09.166a.194.194,0,0,1,.061.141.577.577,0,0,1-.061.158c-.03.034-.06.1-.12.108a.275.275,0,0,1-.151.082l-.181.026-.181.026-.151.022-.181.026-.181.027-.181.026-.181.027-.181.026-.181.026-.181.027-.181.026-.181.026-.181.027-.181.026-.181.027-.181.026-.181.026-.181.027-.181.026-.181.026-.181.027a1.307,1.307,0,0,1-.151-.008.191.191,0,0,1-.121-.1.3.3,0,0,1-.03-.145.4.4,0,0,1,.03-.184c.06-.039.06-.1.091-.163l.09-.193a.781.781,0,0,0,.091-.163,107.4,107.4,0,0,0,.06-.367c0-.06.03-.124.03-.184a.472.472,0,0,0,.03-.214v-.179c0-.06.03-.124.03-.184v-1.106c0-.09.03-.094.03-.184s-.03-.085-.03-.145v-1.255c0-.089.03-.094.03-.183s-.03-.085-.03-.175v-1.255c0-.09.03-.094.03-.184s-.03-.085-.03-.175.03-.094.03-.184-.03-.086-.03-.175v-.538c0-.09.03-.094.03-.184s-.03-.085-.03-.175.03-.094.03-.184-.03-.085-.03-.175v-1.255c0-.09.03-.094.03-.184s-.03-.085-.03-.175.03-.094.03-.184v-.179c0-.09-.03-.085-.03-.175v-.9c0-.09.03-.094.03-.184s-.03-.085-.03-.175v-1.583c0-.09.03-.094.03-.184s-.03-.085-.03-.175v-1.434c0-.09.03-.094.03-.184v-.388a.369.369,0,0,1-.061-.17v-.359a.352.352,0,0,0-.03-.175.409.409,0,0,0-.03-.2.353.353,0,0,0-.03-.175c0-.06-.03-.115-.03-.175l-.091-.166c0-.03-.06-.081-.06-.141l-.09-.166a.2.2,0,0,1-.06-.141.348.348,0,0,1,.03-.154.515.515,0,0,1,.121-.108.275.275,0,0,1,.151-.082l.181-.026.181-.026.181-.027.181-.026.181-.026.181-.027.181-.026.181-.027.181-.026.181-.026.181-.027.181-.026.181-.026.181-.027.181-.026.181-.027c.06-.009.121.012.181,0s.121-.048.181-.057l.181-.026.181-.027.181-.026.181-.026.181-.027c.06-.009.121.012.181,0s.12-.048.181-.056.121.012.181,0a.374.374,0,0,1,.181,0c.06-.009.121-.048.181-.026l.181-.027a499.808,499.808,0,0,0,.362.007c.06-.009.12.012.181,0,.06.021.121-.018.181,0a.372.372,0,0,1,.181,0c.06-.009.121.012.181,0,.06.021.12.012.181.033.06-.009.121.012.181,0a.451.451,0,0,0,.151.038.391.391,0,0,0,.181.033l.181.063c.061-.009.091.017.151.038a.56.56,0,0,1,.151.068c.06.021.12.012.181.033s.09.076.151.1.121.012.151.067a.564.564,0,0,1,.151.068l.181.063c.03.026.091.046.121.1.06.021.09.077.12.1a.246.246,0,0,1,.151.1c.061.021.09.076.121.1a.429.429,0,0,0,.151.1.532.532,0,0,0,.09.136c.06.051.06.111.121.132a.536.536,0,0,0,.09.136.548.548,0,0,0,.091.136.526.526,0,0,0,.121.132.536.536,0,0,0,.091.136c.03.055.03.115.06.17l.091.166a.428.428,0,0,0,.06.141c0,.06.03.115.03.175l.091.166a.436.436,0,0,0,.06.14v.179a.369.369,0,0,1,.06.17c.03.055.03.115.06.17a.35.35,0,0,0,.03.175v.179c0,.06.03.115.03.175v.358a.353.353,0,0,1,.03.175v.717c0,.06-.03.124-.03.184v.179a.4.4,0,0,0-.03.184.4.4,0,0,1-.03.184c0,.06-.03.124-.03.184-.03.034-.03.094-.06.158v.179l-.091.193a.478.478,0,0,1-.06.188c0,.06-.03.094-.03.154a.478.478,0,0,0-.06.188l-.09.193c-.03.034-.03.094-.06.158s-.091.1-.121.167a.263.263,0,0,1-.06.158.789.789,0,0,1-.091.163.588.588,0,0,0-.09.193.577.577,0,0,0-.121.137c-.03.064-.09.1-.12.167a.805.805,0,0,1-.09.163.376.376,0,0,1-.151.141.66.66,0,0,1-.121.167.56.56,0,0,0-.121.137.291.291,0,0,0-.121.137.567.567,0,0,0-.121.137.4.4,0,0,0-.03.184.3.3,0,0,0,.03.145l-.03,0C1292.716,766.545,1292.746,766.541,1292.746,766.63Zm-4.676-6.215v.179c0,.09-.03.094-.03.184v1.763c0,.09.03.085.03.175s-.03.094-.03.184v.538c0,.09.03.085.03.175,0,.06-.03.064-.03.154v.9c0,.09.03.085.03.175v.179a.422.422,0,0,0,.121.132.553.553,0,0,0,.151.068,1.276,1.276,0,0,0,.151.008l.181-.026c.091-.013.091.016.181,0,.06-.009.151-.052.211-.061s.121-.048.181-.056.121-.048.181-.057a.425.425,0,0,0,.181-.056.274.274,0,0,0,.151-.082l.181-.116c.06-.039.091-.073.151-.112s.091-.1.151-.142a.814.814,0,0,1,.151-.112.37.37,0,0,1,.121-.167.792.792,0,0,1,.09-.163c.03-.064.091-.1.121-.167s.03-.124.06-.188a.779.779,0,0,0,.09-.163,59.538,59.538,0,0,0,.121-.376c0-.06.03-.124.03-.184a.405.405,0,0,0,.03-.184c0-.06.03-.124.03-.184s.03-.124.03-.184v-.717c0-.06-.03-.115-.03-.175a.351.351,0,0,0-.03-.175c0-.06.03-.124,0-.179,0-.06-.03-.085-.03-.145-.03-.055-.03-.115-.061-.17a.367.367,0,0,0-.06-.17c0-.06-.03-.085-.03-.145a.374.374,0,0,1-.06-.17c-.03-.055-.09-.076-.12-.132a56.31,56.31,0,0,1-.181-.272.427.427,0,0,1-.151-.1c-.03-.026-.091-.046-.121-.072-.06-.051-.121-.042-.181-.063a.547.547,0,0,0-.151-.068.374.374,0,0,0-.181,0,.206.206,0,0,0-.151-.038c-.06-.021-.121-.012-.181-.033l-.181.026-.181.026a.371.371,0,0,0-.181,0c-.091.013-.091-.017-.181,0s-.09.043-.181.057a.422.422,0,0,0-.181.056c-.03.034-.091.073-.121.107a.651.651,0,0,0-.121.167c0,.06-.03.124-.03.184C1288.041,760.33,1288.071,760.325,1288.071,760.415Z" transform="translate(-1246.806 -756.744)" fill="#53221b"/></g><g transform="translate(1061.843 712.342)"><path d="M1139.221,771.363c.03.085.06.081.091.136.06.081.03.085.09.136a.793.793,0,0,1,.091.136.421.421,0,0,1,.091.166.21.21,0,0,1,.09.136.525.525,0,0,1,.121.132c.06.051.03.055.09.136a197.621,197.621,0,0,0,.181.272.788.788,0,0,1,.09.136.755.755,0,0,1,.091.136.425.425,0,0,1,.091.166.21.21,0,0,1,.09.136l.121.1c.061.081.03.085.09.166.03.055.06.051.091.136a.53.53,0,0,1,.121.132.65.65,0,0,1,.06.141A.768.768,0,0,1,1141,774c.06.081.06.051.12.132a.207.207,0,0,1,.091.136c.06.051.03.085.091.136a.775.775,0,0,1,.09.136c.06.081.03.085.091.166l.121.1c.06.081.03.085.06.17a.534.534,0,0,1,.121.132c.06.051.03.055.09.136.03.055.061.051.121.132.03.055,0,.09.06.141a.813.813,0,0,1,.091.136.783.783,0,0,1,.09.136c.06.081.06.051.121.132a.771.771,0,0,1,.09.136c.06.081.03.085.09.136.03.085.06.081.09.136a.414.414,0,0,1,.091.166.2.2,0,0,0,.181.033.243.243,0,0,0,.121-.167v-.18c0-.09-.03-.085-.03-.175v-.179c0-.12.03-.124.03-.214v-.179c0-.09-.03-.085-.03-.175s.03-.094.03-.184-.03-.085-.03-.175.03-.094.03-.184v-.179c0-.09-.03-.085-.03-.175s.03-.094.03-.213c0-.09-.03-.085-.03-.175s.03-.094.03-.184v-.538c0-.09-.03-.085-.03-.175,0-.06.03-.124.03-.213,0-.06-.03-.115-.03-.175v-.538a.349.349,0,0,1-.03-.175.548.548,0,0,1-.03-.2c0-.06-.03-.115-.03-.175a.368.368,0,0,1-.061-.17.431.431,0,0,1-.06-.141l-.09-.166a.553.553,0,0,0-.091-.136.46.46,0,0,1,0-.329c.03-.034.06-.1.091-.133a.365.365,0,0,1,.151-.052c.061-.009.151.008.211,0s.121-.048.181-.057l.181-.026.181-.026.181-.026.181-.027.181-.026.181-.026.181-.027.181-.026.181-.027.181-.026.181-.026.211-.031.181-.026.181-.027.181-.026.181-.026.181-.027.181-.026c.06-.009.121-.018.151.008a.133.133,0,0,1,.091.106.438.438,0,0,1,.06.141.264.264,0,0,1-.06.158l-.091.193c0,.06-.06.128-.06.158a.475.475,0,0,0-.061.188.483.483,0,0,0-.06.188c-.03.064-.03.124-.06.188v.209c-.03.064,0,.12-.03.183v.179c0,.06-.03.124-.03.184v.179c0,.06-.03.124-.03.184v.209c0,.09.03.085.03.175v.9c0,.09-.03.094-.03.184s.03.085.03.175v.179c0,.09-.03.094-.03.154,0,.09.03.085.03.175s-.03.094-.03.184v.358c0,.09.03.085.03.175v.179c0,.089-.03.094-.03.183s.03.085.03.175v.359c0,.09-.03.094-.03.184s.03.085.03.175v1.792c0,.09-.03.094-.03.184s.03.085.03.175v.359c0,.09-.03.094-.03.184s.03.085.03.175v.717c0,.09-.03.094-.03.184s.03.085.03.175v.9c0,.09-.03.094-.03.184s.03.085.03.175-.03.094-.03.184.03.085.03.175v1.076c0,.09-.03.094-.03.184s.03.085.03.175v.179c0,.09-.03.094-.03.154,0,.09.03.085.03.175s-.03.094-.03.184v.179c0,.09.03.085.03.175s-.03.094-.03.184.03.085.03.175v.179c0,.09-.03.094-.03.184s.03.145.03.2V786c.03.055,0,.119.03.175v.209c.03.055.03.115.06.17a.35.35,0,0,0,.03.175c0,.06.03.115.03.175a.531.531,0,0,0,.091.136.37.37,0,0,1,.06.17l.091.166a.2.2,0,0,1,.06.141.589.589,0,0,1-.06.158.194.194,0,0,1-.091.133.256.256,0,0,1-.151.052l-.181.026-.181.027-.181.026-.181.026-.181.027-.181.026-.211.031-.181.026-.181.027-.181.026-.181.026-.181.027-.181.026-.181.027-.181.026-.181.026-.181.027-.181.026-.181.026-.211.031a1.256,1.256,0,0,0-.151-.008c-.03-.026-.091-.046-.121-.1s0-.12,0-.149a.4.4,0,0,1,.03-.184.812.812,0,0,0,.091-.163.785.785,0,0,1,.09-.163.482.482,0,0,1,.06-.188c.03-.064.03-.124.061-.188a.4.4,0,0,1,.03-.184v-.179a2.118,2.118,0,0,0,.06-.218c0-.06-.03-.115-.03-.175a.4.4,0,0,0,.03-.184v-.358c0-.06.03-.124.03-.214v-.358c0-.09-.03-.085-.03-.145v-.179c0-.09.03-.094.03-.184v-.359c0-.09-.03-.085-.03-.175s.03-.094.03-.184V783.8c0-.09-.03-.085-.03-.175s.03-.094.03-.184v-.538c0-.09-.03-.085-.03-.175s.03-.094.03-.184-.03-.085-.03-.175a.323.323,0,0,0-.06-.23.775.775,0,0,0-.091-.136.328.328,0,0,0-.09-.136c-.03-.085-.06-.081-.091-.136-.06-.081-.06-.051-.121-.132-.03-.085,0-.09-.06-.17l-.121-.1-.061-.17a.524.524,0,0,1-.12-.132.768.768,0,0,0-.091-.136c-.03-.055-.06-.051-.09-.136a.538.538,0,0,1-.121-.132.688.688,0,0,1-.06-.141.526.526,0,0,1-.121-.132c-.03-.085-.03-.056-.091-.136a.208.208,0,0,1-.09-.136c-.061-.081-.03-.085-.091-.136-.06-.081-.03-.085-.091-.166a.252.252,0,0,1-.09-.106l-.121-.162a.783.783,0,0,0-.09-.136.813.813,0,0,0-.091-.136.332.332,0,0,0-.091-.136c-.03-.085-.061-.051-.09-.136a.323.323,0,0,1-.091-.136c-.06-.081-.06-.051-.121-.132a.209.209,0,0,0-.091-.136c-.03-.085-.06-.081-.091-.136a.773.773,0,0,1-.09-.136c-.06-.08-.03-.085-.091-.166a.21.21,0,0,1-.091-.136.207.207,0,0,1-.09-.136.521.521,0,0,1-.121-.132c-.06-.051-.03-.055-.09-.136a.21.21,0,0,0-.091-.136c-.03-.055-.09-.077-.181-.033a.163.163,0,0,0-.091.163v.687c0,.09-.03.094-.03.184s.03.085.03.175v.9c0,.09-.03.094-.03.184v.179c0,.09.03.085.03.175v.179c0,.089-.03.094-.03.184s.03.085.03.175v.179c0,.09-.03.094-.03.184v.179c0,.09.03.085.03.175v.538c0,.06-.03.064-.03.154s.03.085.03.175v.179c0,.09-.03.094-.03.184s.03.085.03.175v.179c0,.09-.03.094-.03.184s.03.085.03.175v.359c0,.09-.03.094-.03.184s.03.085.03.175v.179c0,.09-.03.094-.03.184v.359c0,.09.03.085.03.175s-.03.094-.03.184.03.085.03.175v.179c0,.09-.03.094-.03.184s.03.085.03.175v.329c0,.09-.03.094-.03.184s.03.145.03.2v.538a.354.354,0,0,1,.03.175.41.41,0,0,0,.03.2v.179a.366.366,0,0,1,.06.17.348.348,0,0,1,.03.175.368.368,0,0,1,.06.17.533.533,0,0,0,.09.136.544.544,0,0,0,.091.136.193.193,0,0,1,.06.17.351.351,0,0,1-.03.154.561.561,0,0,1-.121.137.255.255,0,0,1-.151.052l-.181.027-.181.026-.181.026-.181.027-.181.026-.181.026-.211.031-.181.027-.181.026-.181.027-.181.026-.181.026-.181.027-.181.026-.181.026-.181.027-.181.026-.181.027-.181.026-.211.031a.463.463,0,0,1-.151-.038c-.03,0-.06-.051-.09-.077a.428.428,0,0,1-.06-.141.476.476,0,0,1,.06-.188.8.8,0,0,0,.09-.163c.03-.064.06-.1.09-.163s.03-.124.06-.188c0-.059.03-.124.03-.184a.484.484,0,0,0,.06-.188c.03-.064,0-.119.03-.184V787.7a.4.4,0,0,0,.03-.184v-.359c0-.06.03-.124.03-.183V786.4c0-.09-.03-.085-.03-.175s.03-.094.03-.184v-.508c0-.09-.03-.085-.03-.175v-.179c0-.09.03-.094.03-.183v-.179c0-.09-.03-.085-.03-.175s.03-.094.03-.183v-.179c0-.09-.03-.085-.03-.175s.03-.094.03-.184v-.359c0-.09-.03-.085-.03-.175v-.179c0-.09.03-.094.03-.184v-.537c0-.09-.03-.086-.03-.175v-.179c0-.09.03-.094.03-.184v-1.613c0-.09-.03-.085-.03-.175s.03-.094.03-.183-.03-.085-.03-.175v-.358c0-.09.03-.094.03-.184v-.179c0-.09-.03-.085-.03-.175v-.179c0-.09.03-.094.03-.184v-.717c0-.09-.03-.085-.03-.175s.03-.094.03-.184v-1.584c0-.09-.03-.085-.03-.175s.03-.094.03-.184v-.9c0-.09-.03-.085-.03-.175v-.179c0-.09.03-.094.03-.184v-.209c0-.06-.03-.115-.03-.175s.03-.124.03-.184a.35.35,0,0,0-.03-.175v-.179c-.03-.055-.03-.115-.06-.17v-.209a.373.373,0,0,0-.06-.17.348.348,0,0,0-.03-.175c0-.06-.06-.081-.091-.136a.371.371,0,0,0-.06-.17.53.53,0,0,0-.09-.136.369.369,0,0,1-.06-.17.577.577,0,0,1,.06-.158l.09-.1a.608.608,0,0,1,.151-.082l.181-.026.181-.027.181-.026.181-.026.181-.026.151-.022.181-.026.181-.026c.09-.013.09.017.181,0s.091-.043.181-.056l.181-.027.181-.026.151-.022.181-.026.181-.027.181-.026a.258.258,0,0,1,.151.008c.06-.009.09.046.121.072s.091.017.12.072C1139.191,771.278,1139.161,771.312,1139.221,771.363Z" transform="translate(-1135.601 -765.307)" fill="#fff"/><path d="M1190.655,782.22c-.03-.026-.06-.081-.09-.107a.428.428,0,0,1-.06-.14c.03-.064.03-.124.06-.158l.09-.192c.03-.064.06-.1.091-.163s.03-.124.06-.188c0-.06.03-.124.03-.184.03-.064.03-.124.06-.188,0-.06.03-.124.03-.183s.03-.124.03-.214v-.538c0-.06.03-.124.03-.184s-.03-.115-.03-.2.03-.094.03-.184v-1.045c0-.09-.03-.085-.03-.175s.03-.094.03-.184-.03-.085-.03-.175v-.358c0-.089.03-.094.03-.184v-1.255c0-.09-.03-.085-.03-.175s.03-.094.03-.184v-.179c0-.09-.03-.085-.03-.175s.03-.094.03-.184V774.4c0-.09-.03-.085-.03-.175v-.359c0-.09.03-.094.03-.184v-.179c0-.09-.03-.085-.03-.175s.03-.094.03-.184-.03-.085-.03-.175v-.179c0-.09.03-.094.03-.184v-.359c0-.09-.03-.085-.03-.175s.03-.094.03-.184v-.358c0-.09-.03-.085-.03-.175s.03-.094.03-.184v-2.121c0-.09-.03-.085-.03-.175v-.358c0-.09.03-.094.03-.184v-.359c0-.09-.03-.085-.03-.174s.03-.094.03-.184v-.538c0-.09-.03-.085-.03-.175v-.747a.35.35,0,0,1-.03-.175.351.351,0,0,0-.03-.175V765.6c0-.06-.03-.115-.03-.175l-.09-.166a.35.35,0,0,0-.03-.175.539.539,0,0,1-.091-.136.531.531,0,0,0-.09-.136.369.369,0,0,1-.06-.17.577.577,0,0,1,.06-.158l.09-.1a.606.606,0,0,1,.151-.082l.181-.027.181-.026.181-.026.181-.027.211-.031.181-.026.181-.026.181-.027c.06-.009.121.012.181,0s.121-.048.181-.056l.181-.027.181-.026.181-.027.181-.026.181-.026.181-.027.181-.026.181-.026.181-.027.181-.026.151-.022.181-.026.181-.027.181-.026c.06-.009.121.012.181,0s.121-.048.181-.056l.181-.026.181-.027.181-.026.181-.026.181-.027.181-.026a.374.374,0,0,1,.181,0c.06-.009.121-.047.181-.056l.181-.026.181-.027c.06-.009.121.012.181,0s.12-.048.181-.056l.181-.027c.06-.039.121-.018.181-.056a.424.424,0,0,0,.181-.056.253.253,0,0,0,.151-.052.424.424,0,0,0,.181-.056c.06-.009.121-.048.181-.026a.391.391,0,0,1,.181.033.191.191,0,0,1,.121.1.525.525,0,0,1,.09.136c0,.06.03.115.03.175a.349.349,0,0,1,.03.175c.03.055.03.115.06.17a.352.352,0,0,0,.03.175c0,.06.03.115.03.175a.368.368,0,0,0,.06.17,261.887,261.887,0,0,0,.061.35,1.169,1.169,0,0,1,.03.145c.03.055.03.115.06.17,0,.06.03.115.03.175.03.055.03.115.06.17v.179a.368.368,0,0,1,.06.17.35.35,0,0,1,.03.175c.03.055.03.115.06.17a.349.349,0,0,1-.03.154c0,.03-.03.094-.061.1a.5.5,0,0,1-.181.086.46.46,0,0,1-.151-.038.552.552,0,0,0-.151-.068c-.061.009-.121-.042-.151-.037a.386.386,0,0,0-.181-.033.391.391,0,0,0-.181-.033c-.06-.021-.121.018-.181.026-.06-.021-.121-.012-.181-.033a1.333,1.333,0,0,0-.151-.008c-.06.009-.121-.012-.181,0l-.181.026-.182.027-.181.026c-.06-.021-.121.018-.181.027l-.181.026c-.091.013-.091-.017-.181,0l-.181.027-.181.026-.181.026-.181.027-.181.026c-.091.013-.091.043-.181.056s-.09-.016-.181,0-.091.043-.181.057l-.181.026-.181.027-.181.026a.428.428,0,0,0-.181.056c-.06.009-.09.073-.151.112a.784.784,0,0,0-.091.163.241.241,0,0,0-.03.154v.179c0,.09-.03.094-.03.184v.179c0,.09.03.085.03.175v.508c0,.09-.03.094-.03.184s.03.085.03.175v.359c0,.09-.03.094-.03.184v.329c0,.09.03.085.03.175v.717c.03.055.091.076.121.1a.436.436,0,0,0,.151.1c.06-.009.121.012.181,0l.181-.026.211-.031.211-.031.181-.026.211-.031c.06-.009.121-.048.181-.056s.121.012.181,0a.423.423,0,0,1,.181-.056l.181-.027c.09-.013.151-.052.211-.061.06-.039.12-.018.181-.056.06-.009.12-.048.181-.057.06-.039.121-.048.181-.086a.5.5,0,0,0,.181-.086.8.8,0,0,0,.151-.112c.061-.039.121-.048.181-.086a.276.276,0,0,1,.151-.082l.151-.022c.06.021.09.076.12.1a.348.348,0,0,1,.03.175v.508c0,.06.03.115.03.175s-.03.124-.03.184v2.3a1.378,1.378,0,0,1-.03.154.57.57,0,0,1-.12.137.609.609,0,0,1-.151.082.216.216,0,0,1-.151-.068c-.06-.021-.121-.012-.181-.033s-.091-.076-.151-.068c-.06-.021-.12-.012-.181-.033a.372.372,0,0,0-.181,0,.385.385,0,0,0-.181-.033.371.371,0,0,0-.181,0,.573.573,0,0,1-.211,0c-.06.009-.121.048-.181.027l-.181.026a.373.373,0,0,0-.181,0l-.181.026c-.06.009-.121.048-.211.061s-.09-.017-.181,0c-.121.018-.121.047-.211.061l-.211.031c-.091.013-.091-.016-.181,0a.424.424,0,0,0-.181.056.663.663,0,0,0-.151.142.778.778,0,0,0-.091.163.241.241,0,0,0-.03.154v.179c0,.09-.03.094-.03.184s.03.085.03.175v.179c0,.09-.03.094-.03.184,0,.119.03.115.03.2v.358c0,.09-.03.094-.03.184s.03.085.03.175v.9c0,.09-.03.094-.03.184s.03.085.03.175-.03.094-.03.184v.179c0,.09.03.085.03.175v.747c0,.06,0,.119.03.145a.533.533,0,0,0,.091.136.433.433,0,0,0,.151.1c.06.021.121-.017.181-.026.09-.013.09.017.181,0l.181-.027.181-.026.181-.026.151-.022c.091-.013.091-.043.181-.057l.181-.026.181-.026c.091-.013.091.016.181,0l.181-.026c.09-.013.09-.043.181-.057s.091.017.181,0c.061-.009.121-.048.181-.056l.181-.027.181-.026.181-.026.181-.027c.061-.009.121-.048.181-.056a.432.432,0,0,1,.181-.057.367.367,0,0,1,.151-.052.422.422,0,0,1,.181-.057.5.5,0,0,1,.181-.086c.06-.039.12-.048.181-.086.06-.009.091-.073.151-.112s.091-.043.151-.082a.616.616,0,0,1,.151-.082.2.2,0,0,1,.151.038.345.345,0,0,1,.121.072.134.134,0,0,1,0,.149.481.481,0,0,1-.061.188.4.4,0,0,1-.03.183c0,.06-.03.124-.03.184-.03.064-.03.124-.06.188,0,.06-.03.124-.03.184s-.03.124-.03.184a.479.479,0,0,1-.06.188v.179a.4.4,0,0,0-.03.184.477.477,0,0,0-.06.188c0,.06-.03.124-.03.184a.262.262,0,0,0-.06.158.4.4,0,0,1-.03.184c0,.06-.03.124-.03.184a.4.4,0,0,0-.03.184.474.474,0,0,0-.06.188.48.48,0,0,1-.061.188c-.06.039-.091.073-.151.112s-.12.107-.181.116l-.181.026a.454.454,0,0,0-.151-.038.388.388,0,0,1-.181-.033l-.181.027-.181.026-.181.026c-.06.009-.121-.012-.181,0-.06-.021-.12.018-.181.026l-.181.027-.181.026-.181.026-.151.022-.181.027-.181.026-.181.026-.181.027-.181.026-.181.026-.181.027-.181.026-.181.027-.181.026-.181.026-.151.022-.181.026-.181.027-.181.026-.181.027-.181.026-.181.026-.181.027-.181.026-.181.026-.181.027-.151.022-.181.026-.181.026-.181.027-.181.026-.181.027-.181.026-.181.026-.211.031-.211.031A.314.314,0,0,1,1190.655,782.22Z" transform="translate(-1177.171 -760.072)" fill="#fff"/><path d="M1236.219,757.686l.181-.026.181-.026.211-.031.181-.027.181-.026.181-.026.181-.027.181-.026.181-.027.181-.026.181-.027.181-.026.181-.027.181-.026.181-.026.181-.027.181-.026.181-.026.181-.027.181-.026.181-.026.181-.027.181-.026.181-.027.181-.026.181-.026.181-.026.181-.027a.371.371,0,0,1,.181,0c.061.021.091.076.121.1a.431.431,0,0,1,.06.141.242.242,0,0,1-.03.154c-.03.064-.03.124-.06.188a.477.477,0,0,1-.06.188v.179c0,.06-.03.124-.03.184v.358a.348.348,0,0,0,.03.175v.209a.348.348,0,0,0,.03.175c0,.06.03.115.03.175a.349.349,0,0,1,.03.175c0,.06.03.115.03.175a.352.352,0,0,1,.03.175c.03.055,0,.09.03.175s0,.09.03.145c0,.09.03.085.06.17a.348.348,0,0,0,.03.175.353.353,0,0,0,.03.175.348.348,0,0,0,.03.175,859.006,859.006,0,0,0,.09.525c.03.085,0,.09.03.175,0,.09.03.085.03.175.03.085.03.055.06.141v.179l.061.17a.354.354,0,0,0,.03.175c0,.089.03.085.03.175l.06.17c0,.09-.03.094,0,.179l.061.17a.348.348,0,0,0,.03.175v.179c.03.085.03.055.06.141a.352.352,0,0,0,.03.175.347.347,0,0,0,.03.175c0,.09.03.085.03.175a.352.352,0,0,1,.03.175.348.348,0,0,1,.03.175.353.353,0,0,1,.03.175l.06.171a207.528,207.528,0,0,0,.06.349.248.248,0,0,0,.03.145.348.348,0,0,1,.03.175c.03.085,0,.09.03.175l.06.17v.179c.03.085.06.081.06.17.03.085,0,.09.03.175s0,.09.03.175a.353.353,0,0,0,.03.175c0,.09.03.085.03.175.03.055,0,.09.03.145l.061.17v.179a.352.352,0,0,1,.03.175l.061.17a.351.351,0,0,0,.03.175c0,.09.03.085.03.175a.348.348,0,0,1,.03.175l.06.171v.179a.2.2,0,0,1,.03.145l.061.17a.353.353,0,0,0,.03.175.349.349,0,0,1,.03.175c.03.085,0,.09.03.175l.06.17a.348.348,0,0,0,.03.175c0,.09-.03.094,0,.179l.06.17c0,.06.03.055.03.145.03.086,0,.09.03.175a.349.349,0,0,0,.03.175c0,.09.03.085.03.175a.349.349,0,0,1,.03.175l.06.17v.179l.06.171c0,.09.03.085.03.175a.2.2,0,0,1,.03.145c.03.085,0,.119.03.175a.366.366,0,0,0,.06.17v.179a.366.366,0,0,0,.06.17v.179c.03.055.03.115.06.171s.06.081.06.141a.368.368,0,0,1,.06.17c.03.056.03.115.061.171,0,.06.06.081.06.141l.09.166a.518.518,0,0,1,.091.136c.03.055.061.081.091.136l.121.1a.429.429,0,0,1,.06.141.187.187,0,0,1,0,.179c0,.06-.06.1-.091.133a.254.254,0,0,1-.151.052c-.06.009-.121.048-.181.057s-.12-.012-.181,0l-.181.026-.151.022-.181.026-.181.027-.181.026-.181.027-.181.026-.181.026-.181.027-.181.026-.151.022-.181.026-.181.027-.181.026-.181.026-.181.027-.181.026-.181.026a1.571,1.571,0,0,0-.151.052.385.385,0,0,1-.181-.033.191.191,0,0,1-.121-.1.168.168,0,0,1-.06-.141.244.244,0,0,1,.03-.154.479.479,0,0,1,.061-.188.4.4,0,0,0,.03-.183c.03-.064,0-.12.03-.184v-.18c0-.06.03-.124.03-.184v-.179c0-.06-.03-.115-.03-.175v-.179c0-.06-.03-.115-.03-.175a.414.414,0,0,1-.03-.2.968.968,0,0,1-.03-.175c-.03-.025-.03-.115-.03-.175a.3.3,0,0,0-.03-.145.347.347,0,0,0-.03-.175.2.2,0,0,0-.03-.145v-.179c-.03-.085-.06-.081-.06-.141,0-.09-.06-.141-.09-.2a.542.542,0,0,0-.151-.1.4.4,0,0,0-.211-.029l-.151.022-.181.027-.181.026-.181.027-.181.026c-.091.013-.091.043-.181.056-.06.009-.06-.021-.151-.008s-.091.043-.181.057-.091-.017-.181,0-.09.043-.181.056l-.181.027c-.06.009-.06-.021-.151-.008l-.181.027-.181.026-.181.027-.181.026a.5.5,0,0,0-.181.086c-.06.039-.151.082-.181.146a.479.479,0,0,0-.061.218.242.242,0,0,0-.03.154.4.4,0,0,0-.03.184c-.03.064,0,.09-.03.154,0,.09-.03.094-.03.183a.346.346,0,0,0-.03.154.4.4,0,0,0-.03.184c-.03.064-.03.124-.06.188v.179a.619.619,0,0,0-.03.214v.179a.4.4,0,0,1-.03.184v.359c0,.06.03.115.03.175v.179c.03.055.03.115.06.17s.03.115.06.17c.03.026.03.085.03.145a.365.365,0,0,1-.061.158l-.121.137a.423.423,0,0,1-.181.056l-.181.026-.181.027-.151.022-.181.027-.181.026-.181.027-.181.026-.181.026-.181.027-.181.026-.151.022-.181.026-.181.027-.181.026-.181.026-.181.027-.181.026-.181.027-.181.026a1.477,1.477,0,0,1-.151.052c-.06.009-.12-.012-.181,0s-.121.018-.151-.008c-.06-.021-.09-.047-.09-.106a.189.189,0,0,1,0-.179.266.266,0,0,1,.06-.128c.06-.068.06-.128.12-.167a162.737,162.737,0,0,0,.181-.325l.091-.192a.364.364,0,0,1,.06-.158c.03-.064.03-.124.061-.188a.408.408,0,0,0,.03-.184c.03-.064.061-.1.091-.163a.4.4,0,0,1,.03-.184c0-.06.03-.124.03-.184a.4.4,0,0,0,.03-.184c.03-.064.03-.124.06-.188v-.179a.866.866,0,0,1,.06-.159c.03-.094,0-.119.03-.183,0-.09.03-.094.03-.184l.06-.188a.4.4,0,0,1,.03-.184.407.407,0,0,1,.03-.184v-.179l.061-.188c0-.09.03-.094.03-.184.03-.094,0-.09.03-.184a.4.4,0,0,1,.03-.184c.03-.064,0-.09.03-.154a122.735,122.735,0,0,1,.06-.367l.06-.188a.4.4,0,0,1,.03-.184c.03-.094,0-.09.03-.184,0-.09.03-.094.03-.184l.06-.188c0-.09-.03-.085,0-.179,0-.09.03-.094.06-.158v-.209a.241.241,0,0,0,.03-.154l.06-.188a.4.4,0,0,1,.03-.184c0-.09.03-.094.06-.188v-.179a323.568,323.568,0,0,1,.091-.551.934.934,0,0,1,.06-.158.4.4,0,0,1,.03-.184c0-.09.03-.094.03-.184a.405.405,0,0,0,.03-.184c.03-.094,0-.089.03-.184l.06-.188c0-.09-.03-.085,0-.179l.061-.188c.03-.094,0-.09.03-.184a.4.4,0,0,1,.03-.184.407.407,0,0,1,.03-.184.346.346,0,0,1,.03-.154.4.4,0,0,0,.03-.184l.06-.188v-.179l.06-.188v-.179c.03-.094.06-.1.06-.188a.4.4,0,0,0,.03-.184c.03-.094,0-.09.03-.184s.03-.064.06-.158c0-.09-.03-.115,0-.179,0-.09.03-.094.06-.188s0-.09.03-.184,0-.09,0-.179c.03-.094.06-.1.06-.188a428.827,428.827,0,0,1,.06-.367,876.611,876.611,0,0,0,.06-.367.894.894,0,0,0,.06-.158.4.4,0,0,1,.03-.184.4.4,0,0,0,.03-.184c.03-.094,0-.09.03-.184a.4.4,0,0,1,.03-.184c0-.09.03-.094.03-.184a.4.4,0,0,0,.03-.184l.06-.188a.4.4,0,0,1,.03-.184v-.18a.348.348,0,0,0,.03-.154.4.4,0,0,0,.03-.184c.03-.064.03-.124.061-.188a381.919,381.919,0,0,1,.06-.367v-.179c0-.09.03-.154.03-.213v-.179c0-.06.03-.124.03-.184V758.9a.346.346,0,0,0-.03-.175.354.354,0,0,0-.03-.175,150.543,150.543,0,0,0-.121-.341c-.03-.025-.03-.085,0-.15a.218.218,0,0,1,.061-.158.51.51,0,0,1,.121-.107.38.38,0,0,1,.151-.082Zm1.3,10.715c.03.055.06.081.091.136.06.051.091.106.151.127s.121-.018.211-.031.09.017.181,0l.181-.027.181-.026.181-.026.181-.027.181-.026.181-.027c.091-.013.091-.043.181-.056a.493.493,0,0,0,.211-.061.56.56,0,0,0,.121-.137.644.644,0,0,0,.12-.167v-.209c-.03-.085,0-.09-.03-.175a.347.347,0,0,0-.03-.175c0-.09-.03-.085-.06-.17,0-.09.03-.094,0-.179a.348.348,0,0,0-.03-.175c0-.09-.03-.085-.06-.171v-.179l-.06-.17a312.317,312.317,0,0,1-.09-.525v-.209l-.061-.17a.354.354,0,0,0-.03-.175,3012.278,3012.278,0,0,1-.061-.35c-.03-.085,0-.09-.03-.175a.348.348,0,0,0-.03-.175v-.179a.349.349,0,0,1-.03-.175c0-.09-.03-.085-.06-.17,0-.09.03-.094,0-.179,0-.09-.03-.085-.03-.175-.03-.085,0-.09,0-.179l-.06-.17a.348.348,0,0,0-.03-.175.352.352,0,0,0-.03-.175v-.179a.347.347,0,0,1-.03-.175c-.03-.085,0-.09-.03-.175,0-.09-.03-.085-.03-.175a.35.35,0,0,0-.03-.175c0-.09-.03-.085-.03-.175v-.179a.353.353,0,0,1-.03-.175.348.348,0,0,1-.03-.175c-.03-.055-.09-.136-.151-.127-.091.013-.12.107-.151.172,0,.09-.03.094-.03.184a.4.4,0,0,0-.03.184c-.03.094,0,.09,0,.18l-.06.188a.4.4,0,0,1-.03.184v.179a834.24,834.24,0,0,0-.06.367c0,.09-.03.094-.03.184a.4.4,0,0,0-.03.184c0,.09-.03.094-.03.184v.179c0,.09-.03.094-.03.184s-.03.094-.03.184a.4.4,0,0,0-.03.184.4.4,0,0,0-.03.184.4.4,0,0,1-.03.184v.179a.4.4,0,0,0-.03.184c-.03.094,0,.09-.03.184a.4.4,0,0,1-.03.184c0,.09-.03.094-.03.184a.4.4,0,0,0-.03.184.619.619,0,0,0-.03.213,216.41,216.41,0,0,0-.061.367l-.06.188a.4.4,0,0,1-.03.184c0,.089-.03.094-.03.184-.03.094,0,.09-.03.184s0,.09-.03.184c0,.09-.03.094-.03.184a876.611,876.611,0,0,1-.06.367.4.4,0,0,0-.03.184.4.4,0,0,0-.03.184C1237.486,768.256,1237.516,768.341,1237.516,768.4Z" transform="translate(-1208.89 -755.467)" fill="#fff"/><path d="M1297.88,760.8l.06.17a.35.35,0,0,1,.03.175l.06.17a.349.349,0,0,1,.03.175c.03.055.03.085.06.14l.06.171.06.17a.348.348,0,0,0,.03.175l.06.17c.03.085,0,.09.03.175l.06.171a.655.655,0,0,0,.061.14c0,.09.03.085.06.17a.353.353,0,0,0,.03.175c.03.085,0,.09.03.175l.06.17a.351.351,0,0,1,.03.175c.03.085.061.081.091.166s0,.09.03.175.03.055.06.141a.351.351,0,0,1,.03.175l.061.171c.03.085,0,.09.03.175l.06.17.06.17.06.17a.349.349,0,0,0,.03.175.65.65,0,0,1,.06.141.349.349,0,0,1,.03.175l.09.166a.35.35,0,0,1,.03.175c.03.055.06.081.091.136a.369.369,0,0,0,.06.17l.09.166c0,.03.03.115.03.145l.091.166a.536.536,0,0,0,.09.136,1.091,1.091,0,0,1,.211.267c.03.056.03.115.091.166a.429.429,0,0,0,.121.132.2.2,0,0,1,.06.141c0,.06-.03.094-.03.154a.368.368,0,0,1-.12.167.255.255,0,0,1-.151.052l-.181.026-.181.027-.181.026-.181.027-.181.026-.181.026-.151.022-.181.027-.181.026-.181.026-.181.027-.181.026-.181.026-.151.022-.181.027c-.06.009-.121.048-.181.056s-.121-.012-.181,0l-.181.027-.181.026-.181.026c-.06.009-.121-.012-.181,0-.06-.021-.091-.047-.151-.068-.03-.055-.06-.081-.06-.141a.352.352,0,0,1-.03-.175.469.469,0,0,0,.03-.213v-.358a.353.353,0,0,0-.03-.175c0-.06-.03-.115-.03-.175-.03-.055-.03-.115-.06-.17s0-.12-.03-.175a.35.35,0,0,1-.03-.175l-.091-.166c-.03-.056-.03-.115-.06-.171a.375.375,0,0,0-.06-.17c0-.06-.03-.115-.03-.175-.03-.055-.03-.085-.06-.141a.349.349,0,0,0-.03-.174l-.06-.17a.35.35,0,0,1-.03-.175.647.647,0,0,1-.06-.141l-.06-.17a.348.348,0,0,1-.03-.175c-.03-.085-.06-.051-.06-.141l-.06-.17c0-.09-.03-.086-.061-.171s0-.09-.03-.175a.2.2,0,0,1-.03-.145l-.06-.17c0-.09-.03-.085-.06-.17a.2.2,0,0,0-.03-.145l-.06-.17-.061-.171c-.03-.085,0-.09-.03-.175,0-.09-.03-.085-.06-.141-.03-.085,0-.09-.03-.175l-.061-.171-.06-.17a.138.138,0,0,0-.091-.136.245.245,0,0,0-.151-.1.4.4,0,0,0-.211-.028c-.061.009-.091.043-.151.052l-.181.026-.181.026a.256.256,0,0,0-.151.052l-.181.116c-.03.064-.061.1-.091.163a.4.4,0,0,0-.03.184v1.076c0,.09.03.085.03.175v.179c0,.119-.03.124-.03.213s.03.085.03.175-.03.094-.03.184v1.823a.349.349,0,0,0,.03.175v.538a.38.38,0,0,0,.06.2c0,.06-.03.124,0,.179,0,.06.03.115.03.175.03.056.03.115.06.17a.375.375,0,0,0,.06.171c0,.06.061.081.091.136l.09.166a.193.193,0,0,1,.061.14.574.574,0,0,1-.061.158c-.03.034-.06.1-.12.107a.275.275,0,0,1-.151.082l-.181.026-.181.026-.151.022-.181.026-.181.027-.181.026-.181.027-.181.026-.181.026-.181.027-.181.026-.181.026-.181.027-.181.026-.181.027-.181.026-.181.026-.181.027-.181.026-.181.027-.181.026a1.283,1.283,0,0,1-.151-.008.191.191,0,0,1-.12-.1.3.3,0,0,1-.03-.145.4.4,0,0,1,.03-.184c.06-.039.06-.1.091-.163l.09-.193a.781.781,0,0,0,.091-.163,17970.689,17970.689,0,0,1,.06-.367c0-.06.03-.124.03-.184a.475.475,0,0,0,.03-.214v-.179c0-.06.03-.124.03-.184v-1.105c0-.09.03-.094.03-.184s-.03-.085-.03-.145v-1.255c0-.09.03-.094.03-.184s-.03-.085-.03-.175V763.16c0-.09.03-.094.03-.184s-.03-.085-.03-.175.03-.094.03-.184-.03-.085-.03-.175V761.9c0-.09.03-.094.03-.184s-.03-.085-.03-.175.03-.094.03-.184-.03-.085-.03-.175v-1.255c0-.09.03-.094.03-.184s-.03-.085-.03-.175.03-.094.03-.184v-.179c0-.09-.03-.085-.03-.175v-.9c0-.09.03-.094.03-.184s-.03-.085-.03-.175V756.2c0-.09.03-.094.03-.184s-.03-.085-.03-.175v-1.434c0-.09.03-.094.03-.184v-.389a.372.372,0,0,1-.06-.17V753.3a.354.354,0,0,0-.03-.175.41.41,0,0,0-.03-.2.349.349,0,0,0-.03-.175c0-.06-.03-.115-.03-.175l-.091-.166c0-.03-.061-.081-.061-.141l-.09-.166a.2.2,0,0,1-.061-.141.346.346,0,0,1,.03-.154.522.522,0,0,1,.12-.107.275.275,0,0,1,.151-.082l.181-.026.181-.027.181-.026.181-.026.181-.027.181-.026.181-.027.181-.026.181-.026.181-.026.181-.027.181-.026.181-.026.181-.027.181-.026.181-.026c.06-.009.12.012.181,0s.121-.048.181-.056l.181-.027.181-.026.181-.026.181-.027.181-.026c.06-.009.12.012.181,0s.12-.048.181-.057.121.012.181,0a.374.374,0,0,1,.181,0c.06-.009.121-.047.181-.026l.181-.026a174.86,174.86,0,0,1,.362.007c.061-.009.121.012.181,0,.06.021.121-.018.181,0a.369.369,0,0,1,.181,0c.06-.009.12.012.181,0,.06.021.12.012.181.033.06-.009.121.012.181,0a.452.452,0,0,0,.151.037.386.386,0,0,0,.181.033l.181.063c.06-.009.091.017.151.038a.555.555,0,0,1,.151.068c.06.021.12.012.181.033s.09.076.151.1.121.012.151.068a.548.548,0,0,1,.151.068l.181.063c.03.026.091.046.121.1.06.021.09.076.121.1a.248.248,0,0,1,.151.1c.06.021.09.076.121.1a.437.437,0,0,0,.151.1.521.521,0,0,0,.09.136c.06.051.06.111.121.132a.537.537,0,0,0,.09.136,3.148,3.148,0,0,1,.3.4c.03.055.03.115.06.17l.091.166a.426.426,0,0,0,.06.141c0,.06.03.115.03.175l.091.166a.426.426,0,0,0,.06.14v.179a.368.368,0,0,1,.06.171c.03.055.03.115.06.17a.346.346,0,0,0,.03.175v.18c0,.06.03.115.03.175v.359a.351.351,0,0,1,.03.175v.717c0,.06-.03.124-.03.184v.179a.4.4,0,0,0-.03.184.4.4,0,0,1-.03.184c0,.06-.03.124-.03.183-.03.034-.03.094-.06.158v.179l-.091.193a.477.477,0,0,1-.06.188c0,.06-.03.094-.03.154a.48.48,0,0,0-.061.188l-.09.193c-.03.034-.03.094-.06.158s-.091.1-.121.167a.261.261,0,0,1-.06.158.757.757,0,0,1-.091.163.594.594,0,0,0-.09.193.566.566,0,0,0-.121.137c-.03.064-.09.1-.121.167a.8.8,0,0,1-.09.163.375.375,0,0,1-.151.142.649.649,0,0,1-.12.167.559.559,0,0,0-.121.137.288.288,0,0,0-.12.137.556.556,0,0,0-.121.137.4.4,0,0,0-.03.184.3.3,0,0,0,.03.145l-.03,0C1297.85,760.71,1297.88,760.706,1297.88,760.8Zm-4.676-6.216v.179c0,.09-.03.094-.03.184v1.763c0,.09.03.085.03.175s-.03.094-.03.184v.538c0,.09.03.085.03.175,0,.06-.03.064-.03.154v.9c0,.09.03.085.03.175v.179a.425.425,0,0,0,.121.132.55.55,0,0,0,.151.068,1.265,1.265,0,0,0,.151.008l.181-.027c.091-.013.091.017.181,0,.06-.009.151-.052.211-.061s.12-.048.181-.057.12-.048.181-.056a.423.423,0,0,0,.181-.057.272.272,0,0,0,.151-.082l.181-.116c.06-.039.09-.073.151-.112s.091-.1.151-.142a.806.806,0,0,1,.151-.112.366.366,0,0,1,.121-.167.788.788,0,0,1,.09-.163c.03-.064.091-.1.121-.167s.03-.124.06-.188a.773.773,0,0,0,.09-.163,289.7,289.7,0,0,0,.121-.376c0-.06.03-.124.03-.184a.4.4,0,0,0,.03-.184c0-.06.03-.124.03-.184s.03-.124.03-.184V755.9c0-.06-.03-.115-.03-.175a.35.35,0,0,0-.03-.175c0-.06.03-.124,0-.179,0-.06-.03-.085-.03-.145-.03-.055-.03-.115-.06-.17a.37.37,0,0,0-.06-.171c0-.06-.03-.085-.03-.145a.374.374,0,0,1-.06-.171c-.03-.055-.09-.076-.121-.132a.551.551,0,0,1-.091-.136.539.539,0,0,1-.09-.136.435.435,0,0,1-.151-.1c-.03-.026-.091-.046-.12-.072-.06-.051-.121-.042-.181-.063a.543.543,0,0,0-.151-.068.372.372,0,0,0-.181,0,.2.2,0,0,0-.151-.038c-.061-.021-.121-.012-.181-.033l-.181.027-.181.026a.374.374,0,0,0-.181,0c-.09.013-.09-.016-.181,0s-.09.043-.181.056a.424.424,0,0,0-.181.057c-.03.034-.091.073-.121.107a.637.637,0,0,0-.121.167c0,.06-.03.124-.03.184C1293.175,754.494,1293.2,754.49,1293.2,754.58Z" transform="translate(-1251.94 -750.909)" fill="#fff"/></g><path d="M1044.147,842.917l-5.265.658h-.007l-.007-.709h.007l5.26-.134Z" transform="translate(-0.515 -108.092)" fill="#53221b"/><path d="M1044.134,857.117l-5.112.639h-.007l-.007-.692h.007l5.107-.131Z" transform="translate(-0.621 -118.844)" fill="#53221b"/><path d="M1044.242,869.027l-5.1.636h-.007l-.007-.69h.007l5.095-.131Z" transform="translate(-0.712 -127.862)" fill="#53221b"/><path d="M1044.4,877.947l-5.17.643-.007,0-.007-.7h.007l5.165-.131Z" transform="translate(-0.78 -134.616)" fill="#53221b"/><path d="M1044.023,831.127l-5.238.656-.007-.707,5.233-.134Z" transform="translate(-0.447 -99.165)" fill="#53221b"/><path d="M1043.888,818.227l-5.233.651-.007-.7,5.228-.134Z" transform="translate(-0.348 -89.398)" fill="#53221b"/><path d="M1043.77,805.137l-5.238.653,0-.7,5.231-.134Z" transform="translate(-0.257 -79.487)" fill="#53221b"/><path d="M1043.592,792.747l-5.187.646-.007-.7,5.182-.134Z" transform="translate(-0.159 -70.105)" fill="#53221b"/><path d="M1043.68,777.9l-5.418.673,0-.709,5.411-.148Z" transform="translate(-0.053 -58.862)" fill="#53221b"/><path d="M1400.061,724.545l-9.247.981-.036-.189,8.732-1.455Z" transform="translate(-266.967 -18.104)" fill="#53221b"/><path d="M1419.946,748.22l-9.182.974-.036-.189,8.681-1.452.529.636Z" transform="translate(-282.073 -36.026)" fill="#53221b"/><path d="M1439.276,778.122a4.353,4.353,0,0,1-.051.75l-8.713.92-.034-.189Z" transform="translate(-297.027 -59.172)" fill="#53221b"/><path d="M1428.729,803.608l-7.223,1.307.033.189,7.319-.76Z" transform="translate(-290.234 -78.469)" fill="#53221b"/><path d="M1413.1,822.675l-6.895,1.27.033.19,6.99-.723Z" transform="translate(-278.651 -92.906)" fill="#53221b"/><path d="M1394.962,710.19l-7.04.729-.034-.189,6.525-1.2Z" transform="translate(-264.779 -7.238)" fill="#53221b"/></g></svg>