<svg xmlns="http://www.w3.org/2000/svg" width="17.552" height="25.977" viewBox="0 0 17.552 25.977"><g transform="translate(-107.355)"><path d="M116.1,25.977c-4.819-.012-8.786-3.473-8.749-7.614.051-5.783,6.246-11.92,8.343-18.083a.474.474,0,0,1,.865,0c2.1,6.163,8.292,12.3,8.343,18.083.037,4.141-3.93,7.6-8.749,7.614" transform="translate(-0.001 0)" fill="#b2edff"/><path d="M297.74,382.062a.846.846,0,0,0,.748-.442.813.813,0,0,0-.358-1.11,6.331,6.331,0,0,1-3.307-4.14.843.843,0,0,0-1.014-.612.822.822,0,0,0-.626.99,7.982,7.982,0,0,0,4.168,5.221A.857.857,0,0,0,297.74,382.062Z" transform="translate(-183.644 -358.808)" fill="#e8faff"/><path d="M108.524,25.139h.05a8.231,8.231,0,0,0,8.277-8.105c-.036-4.576-3.282-9.359-5.762-14.208A3.3,3.3,0,0,1,110.9.292l0-.013a.439.439,0,0,1,.818,0c2.113,6.563,8.622,13.1,7.827,19.2-.486,3.731-4.074,6.493-8.21,6.493h-.05a8.816,8.816,0,0,1-3.936-.933A8.375,8.375,0,0,0,108.524,25.139Z" transform="translate(5.288 0)" fill="#59d8ff"/></g></svg>