<svg xmlns="http://www.w3.org/2000/svg" width="31.907" height="21.043" viewBox="0 0 31.907 21.043"><g transform="translate(-0.001 0)"><g transform="translate(14.787 9.481)"><path d="M238.086,171.016a.482.482,0,0,1-.46-.624.749.749,0,0,0-.2-.729.482.482,0,1,1,.638-.722,1.7,1.7,0,0,1,.486,1.736A.482.482,0,0,1,238.086,171.016Zm0,0" transform="translate(-237.259 -167.781)" fill="#efa66f"/><path d="M278.259,171.015a.482.482,0,0,1-.46-.624.749.749,0,0,0-.2-.729.482.482,0,1,1,.638-.722,1.7,1.7,0,0,1,.486,1.736A.482.482,0,0,1,278.259,171.015Zm0,0" transform="translate(-274.929 -167.779)" fill="#efa66f"/><path d="M319.091,171.015a.482.482,0,0,1-.46-.624.749.749,0,0,0-.2-.729.482.482,0,1,1,.638-.722,1.7,1.7,0,0,1,.486,1.736A.482.482,0,0,1,319.091,171.015Zm0,0" transform="translate(-313.216 -167.779)" fill="#efa66f"/><path d="M360.216,168.967a.487.487,0,0,1-.143-.022.482.482,0,0,1-.317-.6.749.749,0,0,0-.2-.729.482.482,0,1,1,.638-.722,1.7,1.7,0,0,1,.486,1.736A.482.482,0,0,1,360.216,168.967Zm0,0" transform="translate(-351.778 -165.859)" fill="#efa66f"/><path d="M447.911,154.33a.482.482,0,0,1-.46-.624.748.748,0,0,0-.2-.729.482.482,0,0,1,.638-.722,1.7,1.7,0,0,1,.486,1.736A.482.482,0,0,1,447.911,154.33Zm0,0" transform="translate(-434.008 -152.135)" fill="#efa66f"/><path d="M405.555,164.6a.482.482,0,0,1-.46-.624.748.748,0,0,0-.2-.729.482.482,0,0,1,.638-.722,1.7,1.7,0,0,1,.486,1.736A.482.482,0,0,1,405.555,164.6Zm0,0" transform="translate(-394.292 -161.764)" fill="#efa66f"/><path d="M427.032,221.526a.482.482,0,0,1-.091-.77.748.748,0,0,0,.184-.734.482.482,0,1,1,.912-.311,1.7,1.7,0,0,1-.437,1.749A.481.481,0,0,1,427.032,221.526Zm0,0" transform="translate(-414.977 -215.194)" fill="#efa66f"/><path d="M382.456,224.093a.482.482,0,0,1-.091-.77.749.749,0,0,0,.184-.734.482.482,0,1,1,.911-.311,1.7,1.7,0,0,1-.437,1.749A.482.482,0,0,1,382.456,224.093Zm0,0" transform="translate(-373.179 -217.6)" fill="#efa66f"/><path d="M340.567,225.136a.476.476,0,0,1-.113-.09.481.481,0,0,1,.023-.681.748.748,0,0,0,.184-.734.482.482,0,1,1,.912-.311,1.7,1.7,0,0,1-.437,1.749A.481.481,0,0,1,340.567,225.136Zm0,0" transform="translate(-333.901 -218.578)" fill="#efa66f"/><path d="M299.518,222.811a.488.488,0,0,1-.113-.09.482.482,0,0,1,.023-.681.748.748,0,0,0,.184-.734.482.482,0,0,1,.912-.311,1.7,1.7,0,0,1-.437,1.749A.482.482,0,0,1,299.518,222.811Zm0,0" transform="translate(-295.41 -216.398)" fill="#efa66f"/><path d="M259.345,216.154a.482.482,0,0,1-.091-.77.749.749,0,0,0,.184-.734.482.482,0,0,1,.912-.311,1.7,1.7,0,0,1-.437,1.749A.482.482,0,0,1,259.345,216.154Zm0,0" transform="translate(-257.74 -210.155)" fill="#efa66f"/></g><path d="M38.519,224.469a5.2,5.2,0,0,1-2.843,3.452.648.648,0,0,1-.614-.034l-1.2-.744a.338.338,0,0,0-.515.265l-.046.7a.321.321,0,0,1-.32.3H26.415l-4.606,1.247a10.94,10.94,0,0,1-11.994-4.535,1.444,1.444,0,0,1,1.209-2.236H21.347a5.173,5.173,0,0,1,2.169.471c1.152.534,3.039,1.168,7.6,1.168a37.614,37.614,0,0,0,6.907-.568A.419.419,0,0,1,38.519,224.469Zm0,0" transform="translate(-8.978 -208.996)" fill="#f4bc8e"/><path d="M28,224.493a1.373,1.373,0,0,1-1.768.243l-1.127-.7a5.851,5.851,0,0,1-3.757,1.092h-.012a5.773,5.773,0,0,1-4.254-1.862,1.424,1.424,0,0,1,.981-.382H28.28l.059.541A1.355,1.355,0,0,1,28,224.493Zm0,0" transform="translate(-16.017 -208.996)" fill="#efa66f"/><path d="M14.234,11.131c-2.006,0-2.809.83-2.809,2.181l.132,1.2a.6.6,0,0,1-.93.573l-1.444-.894a.327.327,0,0,0-.465.091c-.374.619-1.74,1.079-3.386,1.079a5.005,5.005,0,0,1-1.481-.219c-3-.919-4.576-4.453-3.521-7.893A6.351,6.351,0,0,1,6.59,2.484a1.288,1.288,0,0,0,.65-.121,4.205,4.205,0,0,1,.655-.245.476.476,0,0,0,.293-.685A.96.96,0,0,1,9.11,0L24.466,1.315A8.67,8.67,0,0,1,31.873,7.09a.636.636,0,0,1,.029.3c-.289,2.084-5.76,3.746-12.466,3.746Zm0,0" transform="translate(0 0)" fill="#fbdbb7"/><path d="M194.464,42.336a2.181,2.181,0,0,1-.282,2.742,3.614,3.614,0,0,1-4.768.344,2.993,2.993,0,0,1-1.074-1.7,4.407,4.407,0,0,0-1.65-2.5.4.4,0,0,1,0-.642,5.327,5.327,0,0,1,4.607-.467A5.808,5.808,0,0,1,194.464,42.336Zm0,0" transform="translate(-174.906 -37.326)" fill="#f4bc8e"/><path d="M194.384,51.08a2.077,2.077,0,0,1-.206.24,3.614,3.614,0,0,1-4.768.344,3,3,0,0,1-1.073-1.7,4.407,4.407,0,0,0-1.65-2.5.4.4,0,0,1,0-.642,3.477,3.477,0,0,1,.608-.354.392.392,0,0,0,.158.29,4.4,4.4,0,0,1,1.65,2.5,2.993,2.993,0,0,0,1.073,1.7,3.609,3.609,0,0,0,4.2.123Zm0,0" transform="translate(-174.902 -43.569)" fill="#efa66f"/><path d="M365.251,56.171c-.6.836-2.093,1.072-3.56.506a3.333,3.333,0,0,1-2.3-2.462,3.426,3.426,0,0,1,3.52-.319A3.672,3.672,0,0,1,365.251,56.171Zm0,0" transform="translate(-336.989 -50.236)" fill="#f4bc8e"/><path d="M365.2,58.485c-.625.791-2.084,1-3.518.45a3.334,3.334,0,0,1-2.3-2.462,2.124,2.124,0,0,1,.844-.489,3.4,3.4,0,0,0,2.294,2.373A3.889,3.889,0,0,0,365.2,58.485Zm0,0" transform="translate(-336.986 -52.495)" fill="#efa66f"/><path d="M105.364,77.3a1.814,1.814,0,1,0,.417,2.878A2.1,2.1,0,0,0,105.364,77.3Zm0,0" transform="translate(-95.715 -71.707)" fill="#f4bc8e"/><path d="M105.756,80.224a2.436,2.436,0,0,1-3.272-3.317,1.451,1.451,0,0,1,.986-.407l-.023.022a2.1,2.1,0,0,0,.418,2.877A2.619,2.619,0,0,0,105.756,80.224Zm0,0" transform="translate(-95.713 -71.732)" fill="#efa66f"/><path d="M106.091,285.163l-.6,1.338.481,1.267a10.837,10.837,0,0,1-1.081-.135l-.3-.794-1.059-.476a.481.481,0,1,1,.394-.879l.8.361.485-1.079a.481.481,0,1,1,.878.395Zm0,0" transform="translate(-96.81 -266.755)" fill="#efa66f"/><path d="M168.6,303.311a.482.482,0,0,1,0-.963h0a.482.482,0,1,1,0,.963Zm0,0" transform="translate(-157.643 -283.505)" fill="#efa66f"/><path d="M68.467,162.068a.482.482,0,0,1,0-.963h0a.482.482,0,0,1,0,.963Zm0,0" transform="translate(-63.747 -151.065)" fill="#f4bc8e"/></g></svg>