<svg xmlns="http://www.w3.org/2000/svg" width="25.916" height="25.798" viewBox="0 0 25.916 25.798"><g transform="translate(0 -1.175)"><g transform="translate(1.826 1.175)"><circle cx="2.443" cy="2.443" r="2.443" transform="translate(17.377 0)" fill="#91deb6"/><path d="M393.737,8.892a2.443,2.443,0,0,1-4.381,1.488,2.444,2.444,0,0,0,3.077-3.651A2.442,2.442,0,0,1,393.737,8.892Z" transform="translate(-371.474 -6.449)" fill="#6ed5a1"/><circle cx="3.197" cy="3.197" r="3.197" transform="translate(0 8.95)" fill="#fe9738"/><path d="M57.051,189.448a3.2,3.2,0,0,1-5.616,2.089,3.2,3.2,0,0,0,4.038-4.845A3.193,3.193,0,0,1,57.051,189.448Z" transform="translate(-50.658 -177.302)" fill="#fe860a"/><g transform="translate(18.594 6.086)"><path d="M403.815,124.5a.389.389,0,0,1-.389-.389V121.8a.389.389,0,0,1,.779,0v2.305A.389.389,0,0,1,403.815,124.5Z" transform="translate(-403.426 -121.413)" fill="#9facba"/><g transform="translate(1.673 0)"><path d="M436.859,123.007a.389.389,0,0,1-.389-.389V121.8a.389.389,0,1,1,.779,0v.814A.389.389,0,0,1,436.859,123.007Z" transform="translate(-436.47 -121.414)" fill="#9facba"/></g></g></g><path d="M25.28,193.094l-24.151,7.02a.882.882,0,0,1-.493-1.694l24.151-7.02a.882.882,0,1,1,.493,1.694Z" transform="translate(0 -180.562)" fill="#9facba"/><path d="M471.736,192.244a.883.883,0,0,1-.637.847l-.89.259a.9.9,0,0,0-.62-1.657l1.018-.3a.883.883,0,0,1,1.129.848Z" transform="translate(-445.82 -180.559)" fill="#8d9ca8"/><path d="M137.02,291.348l-5.792,10.069a.527.527,0,0,0,.457.789h11.583a.527.527,0,0,0,.457-.789l-5.792-10.069A.527.527,0,0,0,137.02,291.348Z" transform="translate(-124.519 -275.234)" fill="#596c76"/><path d="M250.715,302.206h-.389a.52.52,0,0,0-.055-.393l-5.792-10.069a.528.528,0,0,0-.146-.164l.134-.233a.527.527,0,0,1,.913,0l5.792,10.07A.527.527,0,0,1,250.715,302.206Z" transform="translate(-231.966 -275.233)" fill="#465a61"/><circle cx="1.72" cy="1.72" r="1.72" transform="translate(11.238 13.6)" fill="#d9e7ec"/><path d="M229.2,251.406a1.72,1.72,0,0,1-3.24.8,1.721,1.721,0,0,0,2.25-2.363,1.719,1.719,0,0,1,.991,1.558Z" transform="translate(-214.522 -236.085)" fill="#c5d3dd"/></g></svg>