<svg xmlns="http://www.w3.org/2000/svg" width="23.625" height="28" viewBox="0 0 23.625 28"><path d="M19.414,84.719H.82A.82.82,0,0,1,0,83.9V60.82A.82.82,0,0,1,.82,60H19.414a.82.82,0,0,1,.82.82V83.9A.82.82,0,0,1,19.414,84.719Z" transform="translate(0 -56.719)" fill="#e2dff4"/><path d="M194.3,60H185V84.719h9.3a.82.82,0,0,0,.82-.82V60.82A.82.82,0,0,0,194.3,60Z" transform="translate(-174.883 -56.719)" fill="#bebcdd"/><path d="M81.414,24.719H62.82A.82.82,0,0,1,62,23.9V.82A.82.82,0,0,1,62.82,0H81.414a.82.82,0,0,1,.82.82V23.9A.82.82,0,0,1,81.414,24.719Z" transform="translate(-58.609)" fill="#f1f1f4"/><path d="M256.3,0H247V24.719h9.3a.82.82,0,0,0,.82-.82V.82A.82.82,0,0,0,256.3,0Z" transform="translate(-233.492)" fill="#e2dff4"/><g transform="translate(6.672 3.391)"><path d="M126.1,66.922H122.82a.82.82,0,0,1-.82-.82V62.82a.82.82,0,0,1,.82-.82H126.1a.82.82,0,0,1,.82.82V66.1A.82.82,0,0,1,126.1,66.922Z" transform="translate(-122 -62)" fill="#999fed"/><path d="M126.1,186.922H122.82a.82.82,0,0,1-.82-.82V182.82a.82.82,0,0,1,.82-.82H126.1a.82.82,0,0,1,.82.82V186.1A.82.82,0,0,1,126.1,186.922Z" transform="translate(-122 -175.438)" fill="#999fed"/><path d="M126.1,306.922H122.82a.82.82,0,0,1-.82-.82V302.82a.82.82,0,0,1,.82-.82H126.1a.82.82,0,0,1,.82.82V306.1A.82.82,0,0,1,126.1,306.922Z" transform="translate(-122 -288.875)" fill="#999fed"/></g><g transform="translate(13.508 3.391)"><path d="M250.828,123.641H247.82a.82.82,0,0,1,0-1.641h3.008a.82.82,0,0,1,0,1.641Z" transform="translate(-247 -118.719)" fill="#453d83"/><path d="M253.016,63.641h-5.2a.82.82,0,0,1,0-1.641h5.2a.82.82,0,0,1,0,1.641Z" transform="translate(-247 -62)" fill="#453d83"/><path d="M251.922,243.641h-4.1a.82.82,0,0,1,0-1.641h4.1a.82.82,0,0,1,0,1.641Z" transform="translate(-247 -232.156)" fill="#453d83"/><path d="M253.016,183.641h-5.2a.82.82,0,0,1,0-1.641h5.2a.82.82,0,0,1,0,1.641Z" transform="translate(-247 -175.438)" fill="#453d83"/><path d="M252.4,363.641H247.82a.82.82,0,0,1,0-1.641H252.4a.82.82,0,1,1,0,1.641Z" transform="translate(-247 -345.594)" fill="#453d83"/><path d="M251.922,303.641h-4.1a.82.82,0,0,1,0-1.641h4.1a.82.82,0,0,1,0,1.641Z" transform="translate(-247 -288.875)" fill="#453d83"/></g></svg>