<svg xmlns="http://www.w3.org/2000/svg" width="23.875" height="26.521" viewBox="0 0 23.875 26.521"><g transform="translate(-25.537)"><path d="M37.864,4.3C37.807.419,35.858,0,35.023,0a3.02,3.02,0,0,0-2.442,1.3,4.787,4.787,0,0,0-.561.957,3.852,3.852,0,0,0-3.426,1.794,8.118,8.118,0,0,0-1.042,1.931,2.924,2.924,0,0,0-1.52,2.529,4.022,4.022,0,0,0,.441,2.522,4.62,4.62,0,0,0-.927,3.117,5.647,5.647,0,0,0,.818,2.845,5.13,5.13,0,0,0-.236,3.352c.6,2.326,2.337,2.838,3.6,3.213a4.639,4.639,0,0,1,1.135.433,2.234,2.234,0,0,1,.676.858,2.812,2.812,0,0,0,2.788,1.672l.144,0a2.869,2.869,0,0,0,2.055-.794,5.65,5.65,0,0,0,1.335-3.613V4.3S37.864,4.3,37.864,4.3Z" transform="translate(0 0)" fill="#f77474"/><path d="M180.263,4.3c-.057-3.88-2.006-4.3-2.841-4.3a2.821,2.821,0,0,0-1.1.221c.848.388,1.773,1.422,1.812,4.078,0,0,0,0,0,.006V22.114a5.65,5.65,0,0,1-1.335,3.613,2.783,2.783,0,0,1-1.083.649,4.539,4.539,0,0,0,1.015.143l.144,0a2.87,2.87,0,0,0,2.055-.794,5.651,5.651,0,0,0,1.335-3.613V4.3S180.263,4.3,180.263,4.3Z" transform="translate(-142.399 0)" fill="#e55555"/><path d="M259.874,11.029a4.023,4.023,0,0,0,.44-2.522,2.923,2.923,0,0,0-1.52-2.529,8.119,8.119,0,0,0-1.043-1.931,3.851,3.851,0,0,0-3.426-1.794,4.79,4.79,0,0,0-.561-.957A3.02,3.02,0,0,0,251.323,0a2.4,2.4,0,0,0-2.009,1.037,5.72,5.72,0,0,0-.832,3.262s0,0,0,.006V22.116a5.649,5.649,0,0,0,1.335,3.61,2.869,2.869,0,0,0,2.055.794l.144,0a2.812,2.812,0,0,0,2.788-1.672,2.234,2.234,0,0,1,.676-.858,4.639,4.639,0,0,1,1.135-.433c1.268-.374,3-.887,3.6-3.213a5.131,5.131,0,0,0-.236-3.352,5.647,5.647,0,0,0,.818-2.845A4.621,4.621,0,0,0,259.874,11.029Z" transform="translate(-211.397 0)" fill="#f77474"/><path d="M295.355,11.029a4.023,4.023,0,0,0,.44-2.522,2.923,2.923,0,0,0-1.52-2.529,8.119,8.119,0,0,0-1.042-1.931,3.851,3.851,0,0,0-3.426-1.794,4.792,4.792,0,0,0-.561-.957A3.02,3.02,0,0,0,286.8,0a2.494,2.494,0,0,0-.9.163,3.249,3.249,0,0,1,1.49,1.135,4.79,4.79,0,0,1,.561.957,3.851,3.851,0,0,1,3.426,1.794,8.119,8.119,0,0,1,1.042,1.931,2.924,2.924,0,0,1,1.52,2.529,4.023,4.023,0,0,1-.44,2.522,4.621,4.621,0,0,1,.927,3.117,5.646,5.646,0,0,1-.818,2.845,5.13,5.13,0,0,1,.236,3.352c-.6,2.326-2.337,2.838-3.6,3.213a4.639,4.639,0,0,0-1.135.433,2.234,2.234,0,0,0-.676.858,2.677,2.677,0,0,1-1.924,1.567,3.224,3.224,0,0,0,.847.109l.144,0a2.812,2.812,0,0,0,2.788-1.672,2.234,2.234,0,0,1,.676-.858,4.639,4.639,0,0,1,1.135-.433c1.268-.374,3-.887,3.6-3.213a5.131,5.131,0,0,0-.236-3.352,5.647,5.647,0,0,0,.818-2.845A4.621,4.621,0,0,0,295.355,11.029Z" transform="translate(-246.878 0)" fill="#e55555"/><g transform="translate(25.748 1.859)"><path d="M103.067,397.57a.389.389,0,1,0-.124.769,5.7,5.7,0,0,1,1.34.428c.838.4,1.291.908,1.348,1.524a.389.389,0,0,0,.387.354l.036,0a.389.389,0,0,0,.353-.423C106.213,398.1,103.2,397.591,103.067,397.57Z" transform="translate(-98.834 -378.83)" fill="#cc3a3a"/><path d="M193.652,369.894a.389.389,0,0,0-.724-.288,3.392,3.392,0,0,0,.411,2.968.389.389,0,1,0,.654-.423A2.614,2.614,0,0,1,193.652,369.894Z" transform="translate(-184.307 -352.088)" fill="#cc3a3a"/><path d="M205.441,125.331a.389.389,0,0,0,.495-.242c1.228-3.574-.378-5.6-.447-5.687a.389.389,0,1,0-.6.492c.014.017,1.4,1.773.314,4.941A.389.389,0,0,0,205.441,125.331Z" transform="translate(-195.723 -114.941)" fill="#cc3a3a"/><path d="M173.18,252.214a.389.389,0,0,0-.511-.206,1.825,1.825,0,0,1-1.808-.086,2.151,2.151,0,0,1-.629-.648.389.389,0,0,0-.681.379,2.911,2.911,0,0,0,.849.9,2.452,2.452,0,0,0,1.39.433,3.009,3.009,0,0,0,1.183-.259A.389.389,0,0,0,173.18,252.214Z" transform="translate(-162.257 -239.928)" fill="#cc3a3a"/><path d="M82.836,275.37a.385.385,0,0,0,.021.032,2.668,2.668,0,0,1,.4,2.187.389.389,0,1,0,.757.185,3.414,3.414,0,0,0-.019-1.755,3.457,3.457,0,0,0,1.135.2,2.841,2.841,0,0,0,1.522-.411.389.389,0,0,0-.438-.644,2.542,2.542,0,0,1-2.763-.275,4.989,4.989,0,0,0-.663-.765,6.782,6.782,0,0,0-1.758-1.191.389.389,0,0,0-.312.714,6.089,6.089,0,0,1,1.548,1.057A4.183,4.183,0,0,1,82.836,275.37Z" transform="translate(-77.846 -260.621)" fill="#cc3a3a"/><path d="M98.96,198.707a4.018,4.018,0,0,1,1.548,3,.389.389,0,0,0,.389.385h0a.389.389,0,0,0,.385-.394,4.772,4.772,0,0,0-1.877-3.628.389.389,0,1,0-.45.635Z" transform="translate(-95.212 -189.602)" fill="#cc3a3a"/><path d="M116.069,92.746a.39.39,0,0,0,.368-.517,3.6,3.6,0,0,1-.192-1.136,5.281,5.281,0,0,0,2.711,2.37.389.389,0,1,0,.251-.737,4.447,4.447,0,0,1-2.7-3.2,5.158,5.158,0,0,1,.478-1.044.389.389,0,0,0-.652-.426,5.5,5.5,0,0,0-.632,4.423A.39.39,0,0,0,116.069,92.746Z" transform="translate(-111.015 -85.191)" fill="#cc3a3a"/><path d="M170.361,39.379a.4.4,0,0,0,.081-.009,3.091,3.091,0,0,0,2.631-3.093.389.389,0,0,0-.778.036,2.315,2.315,0,0,1-2.015,2.3.389.389,0,0,0,.081.77Z" transform="translate(-162.701 -35.906)" fill="#cc3a3a"/><path d="M339.52,397.571c-.128.021-3.146.533-3.339,2.651a.389.389,0,0,0,.353.423l.036,0a.389.389,0,0,0,.387-.354c.056-.613.5-1.123,1.333-1.517a5.747,5.747,0,0,1,1.355-.435.389.389,0,0,0-.125-.769Z" transform="translate(-320.3 -378.832)" fill="#cc3a3a"/><path d="M294.792,369.408a.39.39,0,0,0-.22.5,2.613,2.613,0,0,1-.341,2.258.389.389,0,1,0,.654.423,3.391,3.391,0,0,0,.411-2.968A.389.389,0,0,0,294.792,369.408Z" transform="translate(-280.465 -352.106)" fill="#cc3a3a"/><path d="M277.159,125.354a.39.39,0,0,0,.368-.516,6.336,6.336,0,0,1-.253-3.666,3.7,3.7,0,0,1,.568-1.277.389.389,0,0,0-.6-.491c-.069.085-1.675,2.113-.447,5.687A.39.39,0,0,0,277.159,125.354Z" transform="translate(-263.55 -114.942)" fill="#cc3a3a"/><path d="M273.716,252.552a2.909,2.909,0,0,0,.849-.9.389.389,0,0,0-.682-.377,1.847,1.847,0,0,1-2.436.733.389.389,0,0,0-.3.717,3.009,3.009,0,0,0,1.183.259A2.452,2.452,0,0,0,273.716,252.552Z" transform="translate(-258.407 -239.929)" fill="#cc3a3a"/><path d="M315.51,273.132a.39.39,0,0,0-.513-.2,6.785,6.785,0,0,0-1.758,1.191,4.982,4.982,0,0,0-.663.765,2.543,2.543,0,0,1-2.762.276.389.389,0,0,0-.438.644,2.841,2.841,0,0,0,1.522.411,3.458,3.458,0,0,0,1.135-.2,3.414,3.414,0,0,0-.019,1.755.389.389,0,0,0,.757-.185,2.668,2.668,0,0,1,.4-2.188c.007-.01.014-.02.021-.031a4.171,4.171,0,0,1,.574-.669,6.092,6.092,0,0,1,1.548-1.057A.39.39,0,0,0,315.51,273.132Z" transform="translate(-294.724 -260.622)" fill="#cc3a3a"/><path d="M365.106,201.7a.39.39,0,0,0,.385.394h0a.389.389,0,0,0,.389-.385,4.051,4.051,0,0,1,1.549-3,.389.389,0,0,0-.451-.635A4.772,4.772,0,0,0,365.106,201.7Z" transform="translate(-347.728 -189.603)" fill="#cc3a3a"/><path d="M319.4,92.729a.389.389,0,0,0,.252.737,5.28,5.28,0,0,0,2.711-2.37,3.6,3.6,0,0,1-.192,1.136.389.389,0,1,0,.736.254,5.5,5.5,0,0,0-.632-4.423.389.389,0,0,0-.652.426,5.157,5.157,0,0,1,.478,1.044A4.395,4.395,0,0,1,319.4,92.729Z" transform="translate(-304.139 -85.193)" fill="#cc3a3a"/><path d="M284.763,39.35a.4.4,0,0,0,.081.009.389.389,0,0,0,.081-.77,2.315,2.315,0,0,1-2.015-2.295.389.389,0,0,0-.778-.037,3.091,3.091,0,0,0,2.631,3.093Z" transform="translate(-269.051 -35.886)" fill="#cc3a3a"/><path d="M63.161,97.75a.389.389,0,0,0,.3-.64,6.283,6.283,0,0,1-.826-2.954,8.3,8.3,0,0,0-.511,1.1c-.038.019-.08.041-.126.068a4.9,4.9,0,0,0,.867,2.286A.389.389,0,0,0,63.161,97.75Z" transform="translate(-60.319 -91.138)" fill="#cc3a3a"/><path d="M37.008,182.946a.39.39,0,0,0,.18-.735,11.158,11.158,0,0,1-2.5-2.364,3.575,3.575,0,0,0,.415,1.637,7.666,7.666,0,0,0,1.725,1.419A.388.388,0,0,0,37.008,182.946Z" transform="translate(-34.426 -172.389)" fill="#cc3a3a"/><path d="M31.851,302.441a.389.389,0,0,0,.348-.7c-.272-.136-1.7-1.23-2.588-1.924a4.7,4.7,0,0,0,.615,1.461h0A18.573,18.573,0,0,0,31.851,302.441Z" transform="translate(-29.612 -286.15)" fill="#cc3a3a"/><path d="M421.433,89.9a8.321,8.321,0,0,0-.682-1.395c-.005.286-.02.649-.054,1.032a4.467,4.467,0,0,1-.6,2.214.389.389,0,1,0,.6.5,4.748,4.748,0,0,0,.754-2.347Z" transform="translate(-399.783 -85.78)" fill="#cc3a3a"/><path d="M427.264,186.224a3.3,3.3,0,0,0,.443-1.459,17.554,17.554,0,0,1-2.476,2.107.389.389,0,1,0,.348.7,10.184,10.184,0,0,0,1.7-1.328Z" transform="translate(-404.535 -177.053)" fill="#cc3a3a"/><path d="M430.944,300.475c-.8.632-2.174,1.688-2.453,1.827a.389.389,0,1,0,.348.7,17.915,17.915,0,0,0,1.628-1.165,4.687,4.687,0,0,0,.6-1.425A.388.388,0,0,0,430.944,300.475Z" transform="translate(-407.626 -286.707)" fill="#cc3a3a"/></g></g></svg>