<svg xmlns="http://www.w3.org/2000/svg" width="27.876" height="29.934" viewBox="0 0 27.876 29.934"><g transform="translate(-0.036)"><g transform="translate(0.036 0)"><path d="M11.608,10.557H.508A.472.472,0,0,1,.1,9.849L5.649.236a.472.472,0,0,1,.818,0l5.55,9.613a.472.472,0,0,1-.409.708ZM1.326,9.613H10.79l-4.732-8.2Z" transform="translate(-0.036 0)" fill="#ef6e4b"/><path d="M6.058,63.078a.472.472,0,0,1-.409-.236L.1,53.229a.472.472,0,0,1,.409-.708h11.1a.472.472,0,0,1,.409.708l-5.55,9.613A.472.472,0,0,1,6.058,63.078ZM1.326,53.465l4.733,8.2,4.732-8.2Z" transform="translate(-0.036 -49.317)" fill="#ef6e4b"/></g><path d="M108.7,112.015v-8.454h-4.316V99.666H108.7V96.279H112.6v3.387h4.316v3.894H112.6v8.454Z" transform="translate(-97.312 -87.811)" fill="#ba7052"/><path d="M143,135.778V133.97h4.316v-1.287H143v-3.387h-1.287v3.387H137.4v1.287h4.316v8.454H143Z" transform="translate(-129.024 -119.523)" fill="#e2d0c5"/><g transform="translate(14.483 15.867)"><path d="M302.555,294.092a5.626,5.626,0,1,1,0-11.252,5.686,5.686,0,0,1,.6.032,7.034,7.034,0,1,0,0,11.188A5.672,5.672,0,0,1,302.555,294.092Z" transform="translate(-291.857 -281.432)" fill="#efd873"/><path d="M420.483,350.887l.89,1.8,1.989.289-1.439,1.4.34,1.981-1.779-.935-1.779.935.34-1.981-1.439-1.4,1.989-.289Z" transform="translate(-409.933 -346.649)" fill="#efd873"/></g></g></svg>