<svg xmlns="http://www.w3.org/2000/svg" width="28.39" height="28.818" viewBox="0 0 28.39 28.818"><g transform="translate(-3.805)"><g transform="translate(3.805 0)"><g transform="translate(0 4.749)"><path d="M33.526,100.915h-16.3a2,2,0,0,1-2-2v0a2,2,0,0,1,2-2h16.3Z" transform="translate(-14.582 -96.214)" fill="#ffe20d"/><path d="M17.035,97.645,4.967,89.285a2.7,2.7,0,0,1-.683-3.751h0a2.693,2.693,0,0,1,3.75-.684L20.1,93.21a2.7,2.7,0,0,1,.683,3.751h0A2.694,2.694,0,0,1,17.035,97.645Z" transform="translate(-3.805 -84.37)" fill="#ffbe00"/><g transform="translate(1.541 14.651)"><g transform="translate(0 5.265)"><path d="M79.395,441.926H68.234l1.019-3.725h9.122Z" transform="translate(-66.149 -438.2)" fill="#8caabd"/><path d="M210.1,438.2h-2.285l1.019,3.725h2.285Z" transform="translate(-197.873 -438.2)" fill="#809cad"/><path d="M46.093,496.777H31.619a.428.428,0,0,0,0,.857H46.093a.428.428,0,1,0,0-.857Z" transform="translate(-31.191 -493.48)" fill="#bfd6e6"/></g><path d="M108.5,344.663h6.628v5.265H108.5Z" transform="translate(-104.145 -344.663)" fill="#ffbe00"/></g><path d="M79.674,232.41l-8.187,3.13a3.084,3.084,0,0,1-3.983-1.783v0a3.087,3.087,0,0,1,1.781-3.983l8.187-3.13a3.084,3.084,0,0,1,3.983,1.783v0A3.087,3.087,0,0,1,79.674,232.41Z" transform="translate(-63.725 -218.442)" fill="#ffe20d"/><path d="M114.062,228.426v0a3.084,3.084,0,0,0-3.983-1.783l-.042.016a3.077,3.077,0,0,1,1.741,1.767v0A3.087,3.087,0,0,1,110,232.409l-8.145,3.114a3.072,3.072,0,0,0,2.243.016l8.187-3.13A3.087,3.087,0,0,0,114.062,228.426Z" transform="translate(-96.332 -218.441)" fill="#f7d900"/><g transform="translate(1.506 1.552)"><ellipse cx="1.605" cy="1.608" rx="1.605" ry="1.608" transform="translate(11.591 7.933)" fill="#8caabd"/><ellipse cx="1.225" cy="1.227" rx="1.225" ry="1.227" fill="#8caabd"/></g></g><g transform="translate(16.94 0)"><path d="M305.063,8.494a2,2,0,0,0,2.743.668l1.022-.622.351-.214,3.67,1.273a1.244,1.244,0,0,0,1.517-.607l1.717-3.347A1.247,1.247,0,0,0,313.865,4.5l-1.223,2.384L309.5,5.793l.47-3.3,2.646.006a1.267,1.267,0,0,0,1.28-1.2A1.249,1.249,0,0,0,312.649.009L308.886,0a1.245,1.245,0,0,0-1.235,1.069L307.1,4.912l-1.376.839a2,2,0,0,0-.664,2.744Z" transform="translate(-304.77 0)" fill="#8caabd"/></g><g transform="translate(18.082 0)"><path d="M378.466.009A1.249,1.249,0,0,1,379.71,1.3a1.264,1.264,0,0,1-1.183,1.2l1.616,0a1.267,1.267,0,0,0,1.28-1.2A1.249,1.249,0,0,0,380.179.009L376.417,0c-.03,0-.059,0-.088,0Z" transform="translate(-373.443 0)" fill="#809cad"/><path d="M327.232,141.2l-.973.593-1.022.622a2.006,2.006,0,0,1-.18.1,1.992,1.992,0,0,0,1.894-.1l1.373-.836Z" transform="translate(-325.058 -133.249)" fill="#809cad"/><path d="M441.835,68.125a1.246,1.246,0,0,0-1.427.2,1.249,1.249,0,0,1,.253,1.477l-1.717,3.347a1.24,1.24,0,0,1-.349.418l.546.189a1.244,1.244,0,0,0,1.517-.607l1.717-3.347A1.249,1.249,0,0,0,441.835,68.125Z" transform="translate(-432.204 -64.16)" fill="#809cad"/></g></g><g transform="translate(22.28 7.051)"><path d="M332.437,126.126a.429.429,0,0,0,0-.857A.429.429,0,0,0,332.437,126.126Z" transform="translate(-332.023 -125.269)" fill="#fff"/></g></g></svg>