<svg xmlns="http://www.w3.org/2000/svg" width="28.818" height="28.818" viewBox="0 0 28.818 28.818"><g transform="translate(-3 -3)"><path d="M13.1,32.2,7.02,26.632,4.973,17.422l2.6-10.407L26.822,6l.053.993L8.361,7.968,5.994,17.435l1.928,8.676,5.847,5.36Z" transform="translate(-0.993 -1.51)" fill="#76cc7a"/><path d="M18.573,31.082l-.987-.118,1.464-12.2L10.257,9,11,8.331l9.095,10.1Z" transform="translate(-3.651 -2.682)" fill="#76cc7a"/><path d="M0,0H.994V5.067H0Z" transform="matrix(0.196, -0.981, 0.981, 0.196, 5.391, 16.402)" fill="#76cc7a"/><path d="M0,0H16.547V.994H0Z" transform="translate(17.048 30.496) rotate(-48.647)" fill="#76cc7a"/><path d="M0,0H.993V6H0Z" transform="matrix(0.91, -0.414, 0.414, 0.91, 25.396, 8.664)" fill="#76cc7a"/><path d="M0,0H.994V8.579H0Z" transform="matrix(0.174, -0.985, 0.985, 0.174, 17.825, 16.407)" fill="#76cc7a"/><path d="M0,0H6.363V.994H0Z" transform="matrix(0.781, -0.625, 0.625, 0.781, 19.091, 12.047)" fill="#76cc7a"/><g transform="translate(3 3)"><circle cx="2.039" cy="2.039" r="2.039" transform="translate(23.11 9.516)" fill="#e89d43"/><path d="M53.956,31.981H47v-.994A1.988,1.988,0,0,1,48.987,29h2.981a1.988,1.988,0,0,1,1.987,1.987Z" transform="translate(-25.138 -16.081)" fill="#e89d43"/><circle cx="2.039" cy="2.039" r="2.039" transform="translate(9.516 21.751)" fill="#e89d43"/><path d="M25.956,57.981H19v-.994A1.988,1.988,0,0,1,20.987,55h2.981a1.988,1.988,0,0,1,1.987,1.987Z" transform="translate(-11.05 -29.163)" fill="#e89d43"/><circle cx="2.039" cy="2.039" r="2.039" transform="translate(20.391)" fill="#e89d43"/><path d="M48.956,13.981H42v-.994A1.988,1.988,0,0,1,43.987,11h2.981a1.988,1.988,0,0,1,1.987,1.987Z" transform="translate(-22.622 -7.025)" fill="#e89d43"/><ellipse cx="1.359" cy="2.039" rx="1.359" ry="2.039" transform="translate(0 10.875)" fill="#e89d43"/><circle cx="1.359" cy="1.359" r="1.359" transform="translate(2.719 1.359)" fill="#e89d43"/><ellipse cx="2.039" cy="1.359" rx="2.039" ry="1.359" transform="translate(1.359 20.391)" fill="#e89d43"/></g><path d="M37.491,36,48.113,46.623a1.054,1.054,0,0,1-1.491,1.491L36,37.491Z" transform="translate(-16.603 -16.603)" fill="#454a6d"/><circle cx="7.477" cy="7.477" r="7.477" transform="translate(8.438 8.438)" fill="#454a6d"/><circle cx="6.117" cy="6.117" r="6.117" transform="translate(9.797 9.797)" fill="#eae8e5"/><circle cx="2.039" cy="2.039" r="2.039" transform="translate(13.875 12.516)" fill="#4ac3ed"/><path d="M28.95,31.981H21v-.992A1.99,1.99,0,0,1,22.989,29H26.96a1.99,1.99,0,0,1,1.989,1.989Z" transform="translate(-9.056 -13.081)" fill="#4ac3ed"/></g></svg>