<svg xmlns="http://www.w3.org/2000/svg" width="30.082" height="23.219" viewBox="0 0 30.082 23.219"><g transform="translate(-2.739 -92.23)"><g transform="translate(2.739 92.23)"><rect width="2.127" height="2.636" transform="translate(0 10.292)" fill="#64dde0"/><rect width="2.127" height="4.866" transform="translate(3.106 9.176)" fill="#64dde0"/><rect width="2.127" height="7.503" transform="translate(6.213 7.858)" fill="#64dde0"/><rect width="2.127" height="12.167" transform="translate(9.318 5.526)" fill="#64dde0"/><rect width="2.127" height="23.218" transform="translate(12.425)" fill="#64dde0"/><rect width="2.127" height="19.264" transform="translate(15.531 1.977)" fill="#64dde0"/><rect width="2.127" height="11.356" transform="translate(18.637 5.932)" fill="#64dde0"/><rect width="2.127" height="6.59" transform="translate(21.744 8.314)" fill="#64dde0"/><rect width="2.127" height="4.562" transform="translate(24.85 9.328)" fill="#64dde0"/><rect width="2.127" height="2.636" transform="translate(27.955 10.292)" fill="#64dde0"/></g><g transform="translate(2.739 103.839)"><rect width="2.127" height="1.318" fill="#00c2c7"/><rect width="2.127" height="2.434" transform="translate(3.106)" fill="#00c2c7"/><rect width="2.127" height="3.751" transform="translate(6.213)" fill="#00c2c7"/><rect width="2.127" height="6.084" transform="translate(9.318)" fill="#00c2c7"/><rect width="2.127" height="11.609" transform="translate(12.425)" fill="#00c2c7"/><rect width="2.127" height="9.632" transform="translate(15.531)" fill="#00c2c7"/><rect width="2.127" height="5.677" transform="translate(18.637)" fill="#00c2c7"/><rect width="2.127" height="3.295" transform="translate(21.744)" fill="#00c2c7"/><rect width="2.127" height="2.281" transform="translate(24.85)" fill="#00c2c7"/><rect width="2.127" height="1.318" transform="translate(27.955)" fill="#00c2c7"/></g></g></svg>