<svg xmlns="http://www.w3.org/2000/svg" width="29" height="19.81" viewBox="0 0 29 19.81"><g transform="translate(0 -81.125)"><g transform="translate(0 81.125)"><g transform="translate(0 0)"><path d="M29,82.534V83.1l-4.46,1.2L29,91.9v5.777a.47.47,0,0,1-.47.47H.47a.47.47,0,0,1-.47-.47V82.534a1.409,1.409,0,0,1,1.409-1.409H27.591A1.409,1.409,0,0,1,29,82.534Z" transform="translate(0 -81.125)" fill="#fd8087"/></g></g><g transform="translate(0 81.125)"><g transform="translate(0 0)"><path d="M1.7,98.147H.47a.47.47,0,0,1-.47-.47V82.534a1.409,1.409,0,0,1,1.409-1.409H2.644a1.409,1.409,0,0,0-1.409,1.409V97.678A.47.47,0,0,0,1.7,98.147Z" transform="translate(0 -81.125)" fill="#fe646f"/></g></g><g transform="translate(9.217 92.903)"><g transform="translate(0 0)"><path d="M173.287,289.545v4.774H162.72v-4.774a.47.47,0,0,1,.47-.47h9.628A.47.47,0,0,1,173.287,289.545Z" transform="translate(-162.72 -289.075)" fill="#9facba"/></g></g><g transform="translate(9.217 92.903)"><path d="M164.424,289.075a.47.47,0,0,0-.47.47v4.774H162.72v-4.774a.47.47,0,0,1,.47-.47Z" transform="translate(-162.72 -289.075)" fill="#8d9ca8"/></g><g transform="translate(2.055 83.18)"><g transform="translate(0 0)"><path d="M36.275,122.332v-4.367a.566.566,0,0,1,.566-.566h3.224l.425.554.425-.554h3.377l.484.53.366-.53h3.377l.35.833.5-.833H52.6a.566.566,0,0,1,.566.566v4.367a.566.566,0,0,1-.566.566H49.368l-.48-1.475-.369,1.475H45.142l-.385-1.075-.465,1.075H40.915l-.4-.472-.45.472H36.841A.566.566,0,0,1,36.275,122.332Z" transform="translate(-36.275 -117.399)" fill="#99e6fc"/></g></g><g transform="translate(21.879 83.095)"><g transform="translate(0 0)"><path d="M393.4,115.909v8.805l-6.629-2.108a.7.7,0,0,1-.491-.672v-5.321a.7.7,0,0,1,.7-.7H393.4Z" transform="translate(-386.28 -115.909)" fill="#99e6fc"/></g></g><g transform="translate(2.055 83.18)"><g transform="translate(0 0)"><path d="M38.154,122.9H36.863a.587.587,0,0,1-.587-.587V117.99a.587.587,0,0,1,.587-.587h1.292a.587.587,0,0,0-.587.587v4.325A.587.587,0,0,0,38.154,122.9Z" transform="translate(-36.276 -117.403)" fill="#62dbfb"/></g></g><g transform="translate(21.879 83.095)"><g transform="translate(0 0)"><path d="M393.4,124.3v.411l-6.629-2.108a.7.7,0,0,1-.491-.672v-5.321a.7.7,0,0,1,.7-.7h1.292a.7.7,0,0,0-.7.7v5.321a.7.7,0,0,0,.491.672Z" transform="translate(-386.28 -115.909)" fill="#62dbfb"/></g></g><g transform="translate(21.638 95.358)"><g transform="translate(0 0)"><path d="M387.6,335.2a2.787,2.787,0,1,1-2.271-2.74A2.789,2.789,0,0,1,387.6,335.2Z" transform="translate(-382.02 -332.415)" fill="#8d9ca8"/></g></g><g transform="translate(23.575 97.296)"><circle cx="0.851" cy="0.851" r="0.851" fill="#d8ecfe"/></g><g transform="translate(1.785 95.358)"><g transform="translate(0 0)"><path d="M37.1,335.2a2.788,2.788,0,1,1-2.272-2.74A2.789,2.789,0,0,1,37.1,335.2Z" transform="translate(-31.52 -332.415)" fill="#8d9ca8"/></g></g><g transform="translate(21.638 95.358)"><path d="M385.323,337.944a2.788,2.788,0,1,1,0-5.481,2.846,2.846,0,0,0,0,5.481Z" transform="translate(-382.02 -332.415)" fill="#7a8c98"/></g><g transform="translate(1.785 95.358)"><path d="M34.824,337.944a2.789,2.789,0,1,1-.515-5.529,2.769,2.769,0,0,1,.517.048,2.846,2.846,0,0,0,0,5.481Z" transform="translate(-31.52 -332.415)" fill="#7a8c98"/></g><g transform="translate(3.723 97.296)"><circle cx="0.851" cy="0.851" r="0.851" fill="#d8ecfe"/></g><g transform="translate(12.974 94.21)"><path d="M231.678,313h-2.2a.425.425,0,1,1,0-.85h2.2a.425.425,0,0,1,0,.85Z" transform="translate(-229.05 -312.146)" fill="#b3dafe"/></g><g transform="translate(5.845 83.18)"><g transform="translate(0 0)"><path d="M103.191,117.4h.85v5.5h-.85Z" transform="translate(-103.191 -117.404)" fill="#fe646f"/></g></g><g transform="translate(10.072 83.18)"><g transform="translate(0 0)"><path d="M177.815,117.4h.85v5.5h-.85Z" transform="translate(-177.815 -117.404)" fill="#fe646f"/></g></g><g transform="translate(14.298 83.18)"><g transform="translate(0 0)"><path d="M252.438,117.4h.85v5.5h-.85Z" transform="translate(-252.438 -117.404)" fill="#fe646f"/></g></g></g></svg>