<svg xmlns="http://www.w3.org/2000/svg" width="20.031" height="20.031" viewBox="0 0 20.031 20.031"><g transform="translate(440 -172.182)"><g transform="translate(-438.826 172.182)"><g transform="translate(0 2.426)"><path d="M32.347,66.695a2.347,2.347,0,1,1,2.347-2.347A2.35,2.35,0,0,1,32.347,66.695Z" transform="translate(-30 -62)" fill="#1a1a1a"/></g><g transform="translate(12.989 2.426)"><path d="M364.347,66.695a2.347,2.347,0,1,1,2.347-2.347A2.35,2.35,0,0,1,364.347,66.695Z" transform="translate(-362 -62)" fill="#1a1a1a"/></g><g transform="translate(5.908)"><path d="M183.934,5.869a2.934,2.934,0,1,1,2.934-2.934A2.938,2.938,0,0,1,183.934,5.869Z" transform="translate(-181)" fill="#1a1a1a"/></g><path d="M155.695,151.516v4.049a.587.587,0,0,1-1.174,0v-4.049A4.1,4.1,0,0,0,151,155.565v3.521a.587.587,0,0,0,.587.587H152.9l.448,5.409a.587.587,0,0,0,.585.538h2.347a.587.587,0,0,0,.585-.538l.448-5.409h1.315a.587.587,0,0,0,.587-.587v-3.521A4.1,4.1,0,0,0,155.695,151.516Z" transform="translate(-146.266 -145.588)" fill="#1a1a1a"/></g><path d="M4.695,188.455v-3.521a5.214,5.214,0,0,1,.619-2.427A3.483,3.483,0,0,0,3.521,182,3.525,3.525,0,0,0,0,185.521v2.934a.587.587,0,0,0,.587.587h.642l.534,5.34a.587.587,0,0,0,.584.528H4.695a.587.587,0,0,0,.584-.528l.434-4.337a1.759,1.759,0,0,1-1.018-1.59Z" transform="translate(-440 -2.698)" fill="#1a1a1a"/><path d="M371.7,185.521A3.525,3.525,0,0,0,368.177,182a3.483,3.483,0,0,0-1.792.507,5.215,5.215,0,0,1,.619,2.427v3.521a1.759,1.759,0,0,1-1.018,1.59l.434,4.337a.587.587,0,0,0,.584.528h2.347a.587.587,0,0,0,.584-.528l.534-5.34h.642a.587.587,0,0,0,.587-.587Z" transform="translate(-791.668 -2.698)" fill="#1a1a1a"/></g></svg>