<svg xmlns="http://www.w3.org/2000/svg" xmlns:xlink="http://www.w3.org/1999/xlink" width="622.302" height="512.601" viewBox="0 0 622.302 512.601"><defs><clipPath id="a"><rect width="566.029" height="455.479" fill="none"/></clipPath></defs><g transform="translate(-506.636 -290.2)"><path d="M417.176,18.511C476.158,67.016,523.5,150.057,512.247,228.054c-10.865,78-81.1,150.949-166.47,192.857-85.757,42.3-187.425,53.55-265.809,15.91C1.582,399.569-53.52,313.035-70.206,223.009-86.5,132.983-64.385,39.077-10.059-8.264S130.8-56.381,209.185-50.173C287.57-43.576,358.194-29.607,417.176,18.511Z" transform="translate(582.088 343.104)" fill="rgba(37,39,80,0.04)"/><g transform="translate(562.909 330.013)"><g transform="translate(0 0)" clip-path="url(#a)"><path d="M65.273,16.169c16-3.66,35.28,21.011,43.083,55.1s1.146,64.686-14.849,68.346S58.226,118.6,50.43,84.515,49.277,19.829,65.273,16.169" transform="translate(260.001 87.149)" fill="#7da299"/><path d="M71.612,81.571a8.476,8.476,0,0,0,1.433-7.086L63.568,39.114a10.2,10.2,0,0,0-12.98-6L8.15,44.487A10.982,10.982,0,0,0,.374,57.93l.007.013L8.906,89.771a10.976,10.976,0,0,0,13.443,7.77h.007L64.8,86.169a12.184,12.184,0,0,0,6.812-4.6" transform="translate(-0.002 179.254)" fill="#1b4a54"/><path d="M2.492,57.782a10.973,10.973,0,0,0,13.443,7.77h.013L58.392,54.18a12.168,12.168,0,0,0,6.806-4.6A8.475,8.475,0,0,0,66.631,42.5l-1.8-4.181L1.163,55.372Z" transform="translate(6.411 211.224)" fill="#0d2226"/><path d="M7.1,67.167A25.661,25.661,0,0,1,25.221,35.775l28.292-7.581a10.987,10.987,0,0,1,13.456,7.77L85.921,106.7a10.984,10.984,0,0,1-7.763,13.449h-.007L49.859,127.73a25.661,25.661,0,0,1-31.392-18.125Z" transform="translate(34.301 153.35)" fill="#6c6d6d"/><path d="M11.355,64.368A25.661,25.661,0,0,0,42.747,82.494l28.292-7.581a10.976,10.976,0,0,0,7.77-13.443v-.007L71.176,36.024,7.512,53.081Z" transform="translate(41.413 198.594)" fill="#37373a"/><path d="M12.783,91.8A21.971,21.971,0,0,1,28.316,64.9L201.624,18.459a10.98,10.98,0,0,1,13.449,7.757l.007.013,26.54,99.029a10.99,10.99,0,0,1-7.77,13.449L60.542,185.144a21.961,21.961,0,0,1-26.9-15.52l-.007-.013Z" transform="translate(66.316 99.682)" fill="#1b4a54"/><path d="M228.631,61.548l-9.079-31.913L14.389,84.565l6.239,21.31a21.971,21.971,0,0,0,26.9,15.533L220.841,74.971a10.99,10.99,0,0,0,7.77-13.449Z" transform="translate(79.325 163.372)" fill="#0d2226"/><path d="M39.681,42.573a11,11,0,0,1,7.77-13.456l56.591-15.162A10.99,10.99,0,0,1,117.5,21.712v.013l34.121,127.327a10.99,10.99,0,0,1-7.77,13.449L87.258,177.663a10.99,10.99,0,0,1-13.449-7.77Z" transform="translate(216.692 74.852)" fill="#6c6d6d"/><path d="M132.89,85.864a10.971,10.971,0,0,0,1.1-8.337L120.314,26.551,42.5,47.392,56.181,98.369a10.987,10.987,0,0,0,13.456,7.77l56.591-15.162a11.007,11.007,0,0,0,6.669-5.119Z" transform="translate(234.32 146.37)" fill="#37373a"/><path d="M212.338,210.974,133.995,47.683a10.988,10.988,0,0,0-9.906-6.233H105.071a10.988,10.988,0,0,0-9.906,6.233L16.8,210.955a10.987,10.987,0,0,0,19.617,9.9c.065-.13.13-.261.189-.391L103.573,80.9V215.715a10.987,10.987,0,1,0,21.968.541c.007-.182.007-.358,0-.541V80.9l66.992,139.565a10.988,10.988,0,1,0,19.995-9.118c-.059-.13-.124-.261-.189-.391Z" transform="translate(86.076 228.507)" fill="#37373a"/><path d="M91.659,68.049a34.719,34.719,0,1,1-.007-.13v.13Z" transform="translate(141.984 193.141)" fill="#37373a"/><path d="M85.337,64.734a33.007,33.007,0,0,1-32.9,33A21.421,21.421,0,0,1,27.105,73.566a29.913,29.913,0,1,1,58.232-8.831Z" transform="translate(140.641 187.625)" fill="#6c6d6d"/><path d="M164.3,56.284,128.207,66.959a10.955,10.955,0,0,0-7.164,6.721l-13.026,35.306L97.05,71.9A8.891,8.891,0,0,0,91.6,66.086L55.315,52.7,91.787,41.917a10.2,10.2,0,0,0,6.682-6.252L111.625,0l10.662,36.049a11.062,11.062,0,0,0,6.767,7.229Z" transform="translate(304.946 -0.003)" fill="#f4b033"/><path d="M164.3,56.284,128.207,66.959a10.955,10.955,0,0,0-7.164,6.721l-13.026,35.306L97.05,71.9A8.891,8.891,0,0,0,91.6,66.086L55.315,52.7,91.787,41.917a10.2,10.2,0,0,0,6.682-6.252L111.625,0l10.662,36.049a11.062,11.062,0,0,0,6.767,7.229Z" transform="translate(-14.793 0)" fill="#f4b033"/><path d="M179.145,69.887,143.064,80.562a10.955,10.955,0,0,0-7.164,6.721l-13.026,35.306L111.906,85.5a8.881,8.881,0,0,0-5.445-5.816L70.178,66.3,106.65,55.513a10.194,10.194,0,0,0,6.676-6.252L126.488,13.6,137.15,49.645a11.062,11.062,0,0,0,6.767,7.229Z" transform="translate(386.884 74.951)" fill="#f4b033"/><path d="M83.195,29.13A19.565,19.565,0,1,1,63.63,48.695,19.565,19.565,0,0,1,83.195,29.13" transform="translate(350.785 160.588)" fill="#f4b033"/><path d="M83.195,29.13A19.565,19.565,0,1,1,63.63,48.695,19.565,19.565,0,0,1,83.195,29.13" transform="translate(180.255 -29.13)" fill="#f4b033"/></g></g><path d="M179.145,69.887,143.064,80.562a10.955,10.955,0,0,0-7.164,6.721l-13.026,35.306L111.906,85.5a8.881,8.881,0,0,0-5.445-5.816L70.178,66.3,106.65,55.513a10.194,10.194,0,0,0,6.676-6.252L126.488,13.6,137.15,49.645a11.062,11.062,0,0,0,6.767,7.229Z" transform="translate(436.458 403.66)" fill="#f4b033"/><path d="M-4200.69,566.8a272.513,272.513,0,0,1-55.6-5.557,226.292,226.292,0,0,1-51.659-17.319,225.467,225.467,0,0,1-48.393-31.424h342.76c-9.263,5.54-18.871,10.76-28.559,15.515a386.929,386.929,0,0,1-78.134,28.645A336.006,336.006,0,0,1-4200.69,566.8Z" transform="translate(4970 236)" fill="#252750"/></g></svg>