<svg height="23.604" viewBox="0 0 23.566 23.604" width="23.566" xmlns="http://www.w3.org/2000/svg"><path d="m318.941 79.888c-1.614 1.614-4.514 1.717-6.76 1.265-.163-.032-.289-.063-.584-.131-1.529-6.62 1.713-10.04 8.477-8.477.575 2.393.6 5.61-1.133 7.343z" fill="#00aa95" transform="translate(-296.86 -68.834)"/><path d="m9.234 81.592c-.3.068-.423.1-.588.132-2.253.447-5.137.352-6.755-1.266-1.735-1.734-1.708-4.958-1.134-7.343 2.407-.555 5.588-.615 7.343 1.134s1.689 4.934 1.134 7.343z" fill="#00cc76" transform="translate(-.406 -69.405)"/><path d="m169.182 5.994c0 2.472-2.287 4.679-4.391 5.994-2.617-1.65-5.093-4.3-4.2-7.248.592-1.96 2.465-3.654 4.2-4.741 2.093 1.291 4.391 3.534 4.391 5.994z" fill="#a5e887" transform="translate(-153.011)"/><path d="m256.688 6.041c0 2.477-2.3 4.685-4.391 5.994l-.145-.091v-11.805l.11-.071c.044-.027.022-.029.1.017 2.068 1.315 4.326 3.503 4.326 5.956z" fill="#00cc76" transform="translate(-240.517 -.047)"/><path d="m15.449 87.161-5.54-5.351h-5.078a5.963 5.963 0 0 1 -.482-1.387h4.125l-4.142-4c.049-.284.105-.56.169-.825.261-.06.53-.114.806-.161l3.645 3.521v-3.588a6.544 6.544 0 0 1 1.387.383v4.547l5.592 5.4z" fill="#a5e887" transform="translate(-4.15 -71.887)"/><path d="m273.441 80.442h4.13a5.984 5.984 0 0 1 -.481 1.387h-5.084l-5.5 5.316v-1.928l5.074-4.9v-4.542a6.518 6.518 0 0 1 1.387-.385v3.587l3.646-3.522c.277.047.548.1.81.162.063.264.12.538.168.821z" fill="#00cc76" transform="translate(-254.204 -71.906)"/><path d="m180.369 17.421h-1.387v-9.483l-2.971-1.651.673-1.212 2.3 1.277v-5.832c.343-.243.687-.463.7-.46s.4.257.691.46v4.145l1.849-1.387.832 1.109-2.687 2.013z" fill="#00cc76" transform="translate(-167.896 -.057)"/><path d="m256.042 17.421h-.69v-17.361c.016 0 .4.257.69.46v4.145l1.849-1.387.832 1.109-2.681 2.013z" fill="#00aa95" transform="translate(-243.569 -.057)"/><path d="m74.673 366.639a8.851 8.851 0 0 1 -.092 1.063h-18.211l-.068-.617a4.027 4.027 0 0 1 5.6-4.136 4.026 4.026 0 0 1 7.152 0 4.027 4.027 0 0 1 5.619 3.69z" fill="#c47e4e" transform="translate(-53.695 -344.099)"/><path d="m264.489 366.57a8.844 8.844 0 0 1 -.092 1.063h-9.1v-6.933a4.024 4.024 0 0 1 3.576 2.18 4.027 4.027 0 0 1 5.616 3.69z" fill="#a05f4b" transform="translate(-243.512 -344.029)"/></svg>