<svg height="21.453" viewBox="0 0 23.302 21.453" width="23.302" xmlns="http://www.w3.org/2000/svg"><g transform="translate(-.001 -20.31)"><path d="m210.789 80.769a.7.7 0 0 0 -.079-.982l-1.4-1.192a2.809 2.809 0 0 1 -.989-2.141v-.032l1.079-1.082a.7.7 0 0 0 -.985-.985l-.1.1v-.218a.7.7 0 1 0 -1.394 0v.218l-.1-.1a.7.7 0 0 0 -.985.985l1.081 1.081v.032a4.2 4.2 0 0 0 1.231 2.973q.119.119.248.229l1.4 1.192a.7.7 0 0 0 .993-.078z" fill="#7fdc48" transform="translate(-196.283 -50.804)"/><path d="m20.525 159.192-1.192-1.4a4.2 4.2 0 0 0 -3.2-1.479h-.033l-1.081-1.081a.7.7 0 0 0 -.985.985l.1.1h-.224a.7.7 0 1 0 0 1.394h.218l-.1.1a.7.7 0 0 0 .985.985l1.081-1.081h.032a2.809 2.809 0 0 1 2.141.989l1.192 1.4a.7.7 0 1 0 1.061-.9z" fill="#7fdc48" transform="translate(-12.611 -128.588)"/><path d="m1.322 41.154a.7.7 0 0 1 -.084-.1 8.168 8.168 0 0 1 -1.087-2.683 6.056 6.056 0 0 1 1.508-5.557 7.322 7.322 0 0 1 3.049-1.964 7.981 7.981 0 0 1 3.58-.326c3.35.452 5.532-.852 6.488-3.878a4.233 4.233 0 0 1 .293-3.463 6.325 6.325 0 0 1 2.162-2.207 3.158 3.158 0 0 1 3.081-.429c1.894.958 1.62 4.522.845 6.067a3.9 3.9 0 0 1 -2.308 1.9 9.592 9.592 0 0 1 -3.169 4.814c-2.01 1.565-4.7 2.133-8 1.689a3.453 3.453 0 0 0 -2.844.733 9.149 9.149 0 0 0 -2.329 4.99.7.7 0 0 1 -1.185.414z" fill="#b7f07d"/><path d="m354.347 262.207-.1-.1h.218a.7.7 0 1 0 0-1.394h-.218l.1-.1a.7.7 0 0 0 -.985-.985l-1.081 1.081h-.032a2.809 2.809 0 0 1 -2.141-.989l-1.192-1.4a.7.7 0 0 0 -1.061.9l1.192 1.4q.11.129.229.248a4.2 4.2 0 0 0 2.973 1.231h.032l1.081 1.081a.7.7 0 1 0 .985-.986z" fill="#46a655" transform="translate(-331.863 -226.953)"/><path d="m203.718 324.626-.826-1.286.007-.031a4.2 4.2 0 0 0 -.764-3.443l-1.115-1.466a.7.7 0 0 0 -1.109.844l1.114 1.462a2.809 2.809 0 0 1 .511 2.3l-.007.031-1.286.826a.7.7 0 1 0 .753 1.172l.114-.073-.046.213a.7.7 0 1 0 1.362.3l.046-.213.073.114a.7.7 0 1 0 1.172-.753z" fill="#46a655" transform="translate(-190.676 -284.264)"/><g fill="#7fdc48"><path d="m30.917 450.923a8.709 8.709 0 0 1 .165-.872l-1.317 1.317a.7.7 0 0 0 1.152-.445z" transform="translate(-28.409 -410.183)"/><path d="m179.349 48.668c.625-1.246.924-3.807.022-5.253l-13.635 13.635.139.017c3.3.445 5.988-.123 8-1.689a9.592 9.592 0 0 0 3.169-4.814 3.9 3.9 0 0 0 2.305-1.896z" transform="translate(-158.192 -22.053)"/></g></g></svg>