<svg height="28.361" viewBox="0 0 26.471 28.361" width="26.471" xmlns="http://www.w3.org/2000/svg"><path d="m394.363 330.4h-1.891a.473.473 0 0 1 -.473-.473v-9.927h2.836v9.926a.473.473 0 0 1 -.472.474z" fill="#fabe19" transform="translate(-370.729 -302.038)"/><path d="m416 330.4h.945a.473.473 0 0 0 .473-.473v-9.927h-1.418z" fill="#f5871e" transform="translate(-393.31 -302.038)"/><path d="m359.09 274.836h-6.618a.473.473 0 0 1 -.473-.473v-1.891a.473.473 0 0 1 .473-.473h6.618a.473.473 0 0 1 .473.473v1.891a.473.473 0 0 1 -.473.473z" fill="#463c4b" transform="translate(-333.092 -256.874)"/><path d="m353.418 274.363v-1.891a.473.473 0 0 1 .473-.473h-1.418a.473.473 0 0 0 -.473.473v1.891a.473.473 0 0 0 .473.473h1.418a.473.473 0 0 1 -.473-.473z" fill="#555a6e" transform="translate(-333.092 -256.874)"/><path d="m365.672 160h-4.727a.945.945 0 0 0 -.945.945v5.672h6.618v-5.672a.945.945 0 0 0 -.946-.945z" fill="#b9af9b" transform="translate(-340.619 -151.492)"/><path d="m362.363 160h-1.418a.945.945 0 0 0 -.945.945v5.672h1.418v-5.672a.945.945 0 0 1 .945-.945z" fill="#f0e1cd" transform="translate(-340.619 -151.492)"/><g fill="#9b917d"><path d="m400 160h.473v6.618h-.473z" transform="translate(-378.256 -151.492)"/><path d="m424 160h.473v6.618h-.473z" transform="translate(-400.838 -151.492)"/><path d="m448 160h.473v6.618h-.473z" transform="translate(-423.42 -151.492)"/></g><path d="m227.309 44.361h-2.836a.473.473 0 0 1 -.473-.473v-27.415a.473.473 0 0 1 .473-.473h2.836a.473.473 0 0 1 .473.473v27.416a.473.473 0 0 1 -.473.472z" fill="#fabe19" transform="translate(-212.655 -16)"/><path d="m256 51.889h1.418a.473.473 0 0 0 .473-.473v-27.416h-1.418a.473.473 0 0 0 -.473.473z" fill="#f5871e" transform="translate(-242.764 -23.527)"/><path d="m112.071 48h-13.235a2.836 2.836 0 0 0 -2.836 2.836h18.908a2.836 2.836 0 0 0 -2.837-2.836z" fill="#555a6e" transform="translate(-92.218 -46.109)"/><path d="m220.254 36.727h-3.782a.473.473 0 0 1 -.473-.473v-3.781a.473.473 0 0 1 .473-.473h3.782a.473.473 0 0 1 .473.473v3.782a.473.473 0 0 1 -.473.472z" fill="#555a6e" transform="translate(-205.128 -31.055)"/><path d="m257.891 36.727h-1.418a.473.473 0 0 1 -.473-.473v-3.781a.473.473 0 0 1 .473-.473h1.418a.473.473 0 0 1 .473.473v3.782a.473.473 0 0 1 -.473.472z" fill="#463c4b" transform="translate(-242.764 -31.055)"/><path d="m35.782 170.4a1.278 1.278 0 0 0 .832-.308l2.476-2.122a1.358 1.358 0 0 0 .331-1.639l-2.954-5.908a.765.765 0 0 0 -1.368 0l-2.954 5.908a1.358 1.358 0 0 0 .331 1.639l2.476 2.122a1.278 1.278 0 0 0 .83.308z" fill="#463c4b" transform="translate(-32 -151.492)"/><path d="m32.473 169.981a.473.473 0 0 1 -.473-.473 1.365 1.365 0 0 1 .143-.607l2.954-5.908a.473.473 0 1 1 .846.423l-2.954 5.908a.416.416 0 0 0 -.044.185.473.473 0 0 1 -.472.472z" fill="#555a6e" transform="translate(-32 -154.063)"/><path d="m80.945 304a.945.945 0 0 0 -.945.945v1.891h1.891v-1.891a.945.945 0 0 0 -.946-.945z" fill="#f0e1cd" transform="translate(-77.164 -286.984)"/><path d="m96.473 312a.473.473 0 0 1 .473.473v1.891h-.946v-1.891a.473.473 0 0 1 .473-.473z" fill="#b9af9b" transform="translate(-92.218 -294.511)"/><path d="m74.363 360.508h-1.89a.473.473 0 0 1 -.473-.473v-7.563a.473.473 0 0 1 .473-.473h1.891a.473.473 0 0 1 .473.473v7.563a.473.473 0 0 1 -.474.473z" fill="#fabe19" transform="translate(-69.637 -332.147)"/><path d="m96 368.036h.945a.473.473 0 0 0 .473-.473v-7.563h-1.418z" fill="#f5871e" transform="translate(-92.218 -339.675)"/></svg>