<svg height="28.596" viewBox="0 0 28.863 28.596" width="28.863" xmlns="http://www.w3.org/2000/svg"><path d="m21.506 82.174a11.335 11.335 0 0 1 -6.666-1.886 7.669 7.669 0 0 1 -3.333-5.911c0-1.585-.938-2.011-1.886-2.012a5.47 5.47 0 0 0 -1.949.44 12.6 12.6 0 1 0 17.481 11.633c0-2.453-2.704-2.264-3.647-2.264zm-13.96-1.95a2.166 2.166 0 1 1 0-4.276 2.166 2.166 0 1 1 0 4.276z" fill="#fad59a" transform="translate(0 -68.418)"/><path d="m58.417 246.318a12.578 12.578 0 0 1 -19.622 9.355 12.577 12.577 0 0 0 22.966-7.088c0-2.226-2.227-2.276-3.344-2.267z" fill="#f2c04b" transform="translate(-36.608 -232.565)"/><circle cx="3.899" cy="15.265" fill="#fbe709" r="2.138"/><circle cx="7.169" cy="21.239" fill="#f59393" r="2.138"/><circle cx="13.331" cy="23.628" fill="#a1e42c" r="2.138"/><path d="m2.138 0a2.138 2.138 0 1 1 -2.138 2.138 2.138 2.138 0 0 1 2.138-2.138z" fill="#314c52" transform="translate(17.419 18.409)"/><path d="m303.955 94.823-1.211.855 9.933 13.308a1.035 1.035 0 0 0 1.691-1.192l-9.181-13.84z" fill="#da8659" transform="translate(-285.677 -88.791)"/><path d="m332.424 94.5 9.128 13.877a1.034 1.034 0 0 1 .07 1.021 1.034 1.034 0 0 0 .753-1.6l-9.182-13.84z" fill="#c56e37" transform="translate(-313.684 -88.791)"/><path d="m285.748 67.521-2.442 1.724-1.161-1.491 2.569-1.812z" fill="#dfdfdf" transform="translate(-266.238 -62.358)"/><path d="m313.138 66.522 1.087 1.542.769-.542-1.034-1.579z" fill="#bebebe" transform="translate(-295.485 -62.358)"/><path d="m247.025 5.956a2.918 2.918 0 0 0 -.646-2.007 4.165 4.165 0 0 0 -2.813-1.479l-.753-.1a.116.116 0 0 0 -.11.182l.241.342a.348.348 0 0 1 -.418.523l-.066-.027a.116.116 0 0 0 -.158.083 4.056 4.056 0 0 0 .48 3.01 2.918 2.918 0 0 0 1.674 1.282z" fill="#f2c04b" transform="translate(-228.55 -2.372)"/><path d="m251.482 7.11a2.483 2.483 0 0 0 1.134.658l2.569-1.812a2.918 2.918 0 0 0 -.646-2.007 4.165 4.165 0 0 0 -2.813-1.479l-.753-.1a.114.114 0 0 0 -.121.072c.534.415 2.38 1.985 1.819 3.437a2.592 2.592 0 0 1 -1.189 1.231z" fill="#90421d" transform="translate(-236.71 -2.372)"/></svg>