<svg height="31.496" viewBox="0 0 39.162 31.496" width="39.162" xmlns="http://www.w3.org/2000/svg"><ellipse cx="2.155" cy="4.593" fill="#7da299" rx="2.155" ry="4.593" transform="matrix(.975 -.223 .223 .975 21.497 6.447)"/><path d="m541.787 177.516a.614.614 0 0 0 .1-.514l-.688-2.566a.74.74 0 0 0 -.942-.435l-3.079.825a.8.8 0 0 0 -.563.976l.619 2.309a.8.8 0 0 0 .976.564l3.079-.825a.884.884 0 0 0 .498-.334z" fill="#335f66" transform="translate(-536.592 -160.122)"/><path d="m538.852 186.126a.8.8 0 0 0 .976.564l3.079-.825a.883.883 0 0 0 .494-.334.614.614 0 0 0 .1-.514l-.131-.3-4.619 1.238z" fill="#122347" transform="translate(-538.205 -168.138)"/><path d="m548.225 168.042a1.862 1.862 0 0 1 1.315-2.277l2.053-.55a.8.8 0 0 1 .976.564l1.375 5.132a.8.8 0 0 1 -.563.976l-2.053.55a1.862 1.862 0 0 1 -2.277-1.315z" fill="#6c6d6d" transform="translate(-545.222 -153.573)"/><path d="m550.841 182.5a1.861 1.861 0 0 0 2.277 1.315l2.053-.55a.8.8 0 0 0 .564-.976l-.554-1.845-4.619 1.238z" fill="#37373a" transform="translate(-547.013 -164.955)"/><path d="m559.017 152.425a1.593 1.593 0 0 1 1.127-1.952l12.573-3.369a.8.8 0 0 1 .976.564l1.925 7.184a.8.8 0 0 1 -.563.976l-12.573 3.372a1.593 1.593 0 0 1 -1.952-1.127z" fill="#335f66" transform="translate(-553.279 -140.064)"/><path d="m578.891 170.88-.659-2.316-14.882 3.988.452 1.546a1.594 1.594 0 0 0 1.952 1.127l12.573-3.369a.8.8 0 0 0 .563-.976z" fill="#122347" transform="translate(-556.551 -156.091)"/><path d="m609.716 140.811a.8.8 0 0 1 .564-.976l4.105-1.1a.8.8 0 0 1 .976.564l2.475 9.237a.8.8 0 0 1 -.564.976l-4.105 1.1a.8.8 0 0 1 -.976-.564z" fill="#6c6d6d" transform="translate(-591.117 -133.821)"/><g fill="#37373a"><path d="m622.187 167.136a.8.8 0 0 0 .08-.6l-.993-3.7-5.645 1.513.993 3.7a.8.8 0 0 0 .976.564l4.105-1.1a.8.8 0 0 0 .484-.371z" transform="translate(-595.547 -151.816)"/><path d="m579.921 202.843-5.685-11.843a.8.8 0 0 0 -.719-.452h-1.38a.8.8 0 0 0 -.719.452l-5.685 11.845a.8.8 0 1 0 1.437.69l4.86-10.125v9.78a.8.8 0 1 0 1.594 0v-9.78l4.86 10.125a.8.8 0 1 0 1.437-.69z" transform="translate(-558.271 -172.488)"/><path d="m589.268 181.008a2.4 2.4 0 0 1 -2.394 2.387 2.4 2.4 0 0 1 -2.387-2.387 2.39 2.39 0 1 1 4.781 0z" transform="translate(-572.318 -163.588)"/></g><path d="m588.711 180.367a2.4 2.4 0 0 1 -2.387 2.394 1.554 1.554 0 0 1 -1.837-1.753 2.17 2.17 0 1 1 4.224-.641z" fill="#6c6d6d" transform="translate(-572.318 -163.588)"/><path d="m647.359 117.541-2.618.774a.8.8 0 0 0 -.521.488l-.945 2.561-.8-2.69a.645.645 0 0 0 -.4-.422l-2.632-.971 2.644-.782a.74.74 0 0 0 .485-.454l.954-2.588.774 2.615a.8.8 0 0 0 .491.525z" fill="#f2c04b" transform="translate(-615.22 -113.457)"/><path d="m675 142.826-2.618.774a.8.8 0 0 0 -.521.488l-.945 2.561-.8-2.691a.646.646 0 0 0 -.4-.422l-2.632-.971 2.645-.782a.74.74 0 0 0 .484-.454l.955-2.587.773 2.615a.8.8 0 0 0 .491.524z" fill="#f2c04b" transform="translate(-635.834 -132.317)"/><circle cx="29.58" cy="15.07" fill="#f2c04b" r="1.419"/></svg>