<svg height="44.084" viewBox="0 0 40.063 44.084" width="40.063" xmlns="http://www.w3.org/2000/svg"><g fill="#37373a"><path d="m0 0h18.926v1.862h-18.926z" transform="matrix(.615 -.788 .788 .615 20.791 21.588)"/><path d="m0 0h1.863v19.677h-1.863z" transform="matrix(.654 -.756 .756 .654 20.916 23.927)"/><path d="m0 0h1.861v21.032h-1.861z" transform="matrix(.621 -.784 .784 .621 6.109 10.275)"/><path d="m0 0h1.861v16.071h-1.861z" transform="matrix(.99360934 -.11287373 .11287373 .99360934 20.549 24.619)"/></g><circle cx="21.632" cy="23.292" fill="#fa8707" r="9.331"/><path d="m187 337.356a9.2 9.2 0 0 1 -1.583 5.2 9.328 9.328 0 1 1 -12.942-12.942 9.2 9.2 0 0 1 5.2-1.583 9.334 9.334 0 0 1 9.325 9.325z" fill="#b46621" transform="translate(-156.034 -314.063)"/><path d="m192.037 337.356a9.2 9.2 0 0 1 -1.583 5.2 9.2 9.2 0 0 1 -5.2 1.583 9.334 9.334 0 0 1 -9.329-9.33 9.2 9.2 0 0 1 1.583-5.2 9.2 9.2 0 0 1 5.2-1.583 9.334 9.334 0 0 1 9.329 9.33z" fill="#f2c04b" transform="translate(-161.073 -314.059)"/><path d="m142.656 298.058a5.355 5.355 0 0 1 -1.242 3.438 1.428 1.428 0 0 1 -.109.149 5.407 5.407 0 0 1 -4.114 1.878 5.461 5.461 0 1 1 5.466-5.466z" fill="#122347" transform="translate(-131.724 -290.48)"/><path d="m143.087 298.058a5.355 5.355 0 0 1 -1.242 3.438 6.846 6.846 0 0 1 -2.643.517 6.991 6.991 0 0 1 -6.828-5.476 5.466 5.466 0 0 1 10.713 1.521z" fill="#335f66" transform="translate(-132.156 -290.48)"/><path d="m229.742 291.719a5.357 5.357 0 0 1 -1.242 3.438 1.406 1.406 0 0 1 -.11.149 5.406 5.406 0 0 1 -4.114 1.878 5.461 5.461 0 1 1 5.466-5.466z" fill="#122347" transform="translate(-189.679 -286.263)"/><path d="m230.174 291.719a5.357 5.357 0 0 1 -1.242 3.438 6.848 6.848 0 0 1 -2.643.517 6.991 6.991 0 0 1 -6.828-5.476 5.466 5.466 0 0 1 10.713 1.521z" fill="#335f66" transform="translate(-190.111 -286.263)"/><path d="m237.144 386.737a3.2 3.2 0 0 1 -.742 2.053.9.9 0 0 1 -.065.089 3.228 3.228 0 0 1 -2.456 1.121 3.26 3.26 0 1 1 3.263-3.263z" fill="#122347" transform="translate(-197.53 -350.955)"/><path d="m237.4 386.737a3.2 3.2 0 0 1 -.741 2.053 4.091 4.091 0 0 1 -1.578.308 4.174 4.174 0 0 1 -4.076-3.269 3.263 3.263 0 0 1 6.4.908z" fill="#335f66" transform="translate(-197.788 -350.955)"/><path d="m198.072 401.73a3.2 3.2 0 0 1 -.742 2.053.888.888 0 0 1 -.065.089 3.229 3.229 0 0 1 -2.456 1.121 3.26 3.26 0 1 1 3.263-3.263z" fill="#122347" transform="translate(-171.442 -360.909)"/><path d="m198.33 401.73a3.2 3.2 0 0 1 -.742 2.053 4.091 4.091 0 0 1 -1.578.309 4.174 4.174 0 0 1 -4.076-3.269 3.263 3.263 0 0 1 6.4.908z" fill="#335f66" transform="translate(-171.7 -360.909)"/></svg>