<svg xmlns="http://www.w3.org/2000/svg" xmlns:xlink="http://www.w3.org/1999/xlink" width="36.005" height="39.617" viewBox="0 0 36.005 39.617"><defs><clipPath id="a"><rect width="36.005" height="39.617" fill="#165e6f"/></clipPath></defs><g clip-path="url(#a)"><path d="M32.688,29.263a2.93,2.93,0,0,0-1.637.5,1,1,0,0,0-.1.072l-4.744-4.1-.054-.048c.054-.033.108-.066.16-.1.111-.166.217-.334.316-.509l.006-.006c.048-.084.1-.172.141-.262.06-.108.117-.223.169-.337.042-.087.081-.175.118-.262.012-.027.024-.054.033-.081.045-.105.087-.214.126-.322.084-.229.16-.458.223-.7.012-.051.027-.1.039-.15.021-.09.042-.181.06-.271.012-.042.021-.087.03-.132.045-.229.078-.461.105-.7l.018-.181c.009-.1.015-.2.021-.3v-.03c.009-.138.012-.277.012-.415v-.009a8.313,8.313,0,0,0-1.21-4.331c-.141-.229-.292-.451-.451-.665v0a8.263,8.263,0,0,0-1.412-1.469c-.093-.078-.187-.15-.283-.226.1.072.193.144.286.223L28.772,9.2a4.891,4.891,0,0,0,2.336.59A4.838,4.838,0,0,0,34.792,8.1c.036-.045.072-.09.1-.132a4.8,4.8,0,0,0,1.113-3.082,4.9,4.9,0,1,0-8.539,3.275l-4.2,5.373a8.282,8.282,0,0,0-3.895-.963c-.144,0-.286,0-.427.012h-.012c-.108.006-.217.012-.322.024-.054,0-.105.009-.16.015-.138.015-.274.033-.412.054l-.307.054c-.036.009-.073.015-.109.024-.1.021-.2.045-.3.069a.585.585,0,0,0-.06.015c-.259.069-.515.147-.765.241-.108.039-.217.081-.322.126a.508.508,0,0,0-.081.033q-.131.054-.262.117c-.114.051-.229.108-.337.169-.09.045-.178.093-.262.141l-.006.006c-.175.1-.343.2-.509.316l-.2.135-.111.081h0L8.783,9.743A4.784,4.784,0,0,0,9.791,6.8,4.895,4.895,0,0,0,.2,5.436,4.811,4.811,0,0,0,0,6.8a4.893,4.893,0,0,0,4.894,4.9A4.831,4.831,0,0,0,7.561,10.9l5.6,4.443c-.057.063-.114.129-.168.193-.042.048-.082.093-.118.141q-.162.2-.307.406c-.051.066-.1.135-.144.208s-.093.138-.135.211-.078.123-.114.187c-.018.03-.036.06-.051.09-.075.126-.144.256-.208.385-.039.075-.075.151-.111.229s-.072.154-.105.232-.054.129-.081.2c-.072.181-.138.361-.2.548-.024.063-.042.126-.06.193a.7.7,0,0,0-.024.078c-.042.147-.082.3-.115.451-.018.078-.036.157-.051.235q-.036.185-.063.37-.023.149-.036.3c-.006.045-.012.087-.015.132a.584.584,0,0,0-.006.072c-.009.1-.018.2-.021.3-.009.141-.012.283-.012.427A8.346,8.346,0,0,0,14.7,27.86a8.6,8.6,0,0,0,1.047.605h0c.244.117.491.223.746.316h0a8.164,8.164,0,0,0,2.709.5l.539,4.741a2.828,2.828,0,0,0-.461.25,2.916,2.916,0,0,0-1.168,1.607,2.867,2.867,0,0,0-.117.813,2.919,2.919,0,0,0,5.123,1.917.644.644,0,0,0,.057-.078,2.862,2.862,0,0,0,.665-1.839A2.918,2.918,0,0,0,21.4,33.814l-.53-4.659c-.138.027-.28.048-.424.066.141-.021.283-.042.424-.069a8.324,8.324,0,0,0,3.139-1.27c.069-.048.138-.093.208-.144q.289-.2.56-.433c.03-.03.063-.057.1-.084.082-.072.163-.144.241-.223a.319.319,0,0,0,.036-.03.172.172,0,0,1-.033.033l4.828,4.172a1.5,1.5,0,0,0-.066.2A2.919,2.919,0,0,0,34.889,34.1l.06-.078a2.876,2.876,0,0,0,.662-1.839,2.921,2.921,0,0,0-2.923-2.92M19.923,20.3l.108.093,0,0-.111-.087Zm-.012,8.97c.178-.009.349-.027.524-.048a4.977,4.977,0,0,1-.524.048" fill="#165e6f"/></g></svg>