<svg height="28.039" viewBox="0 0 28.039 28.039" width="28.039" xmlns="http://www.w3.org/2000/svg"><path d="m162.435 400.943-5.685-1.643-5.685 1.643a.668.668 0 0 0 -.066.312v3.4h11.5v-3.4a.667.667 0 0 0 -.064-.312z" fill="#646d73" transform="translate(-142.731 -377.433)"/><path d="m261.75 404.65v-3.4a.667.667 0 0 0 -.066-.312l-5.684-1.638v5.35z" fill="#474f54" transform="translate(-241.98 -377.433)"/><path d="m27.218 1.643h-4.2c.007-.277.035-.539.035-.821a.813.813 0 0 0 -.819-.822h-16.434a.813.813 0 0 0 -.821.821c0 .283.028.544.035.821h-4.193a.821.821 0 0 0 -.821.822v2.081a8.634 8.634 0 0 0 8.2 8.555 8.143 8.143 0 0 0 3.339 2.8 12.274 12.274 0 0 1 -3.023 7.344.583.583 0 0 0 -.181.263h11.365a.583.583 0 0 0 -.181-.263 12.117 12.117 0 0 1 -3.019-7.344 8.165 8.165 0 0 0 3.345-2.8 8.634 8.634 0 0 0 8.194-8.552v-2.084a.821.821 0 0 0 -.821-.821zm-25.575 2.902v-1.259h3.446a21.815 21.815 0 0 0 2.04 8.034 7.008 7.008 0 0 1 -5.486-6.775zm24.753 0a7.008 7.008 0 0 1 -5.481 6.773 21.9 21.9 0 0 0 2.035-8.032h3.45z" fill="#fed843"/><path d="m269.2 1.643h-4.2c.007-.277.035-.539.035-.821a.813.813 0 0 0 -.82-.822h-8.215v23.51h5.685a.583.583 0 0 0 -.181-.263 12.117 12.117 0 0 1 -3.023-7.344 8.165 8.165 0 0 0 3.344-2.806 8.634 8.634 0 0 0 8.194-8.552v-2.081a.821.821 0 0 0 -.821-.821zm-.821 2.9a7.008 7.008 0 0 1 -5.481 6.773 21.9 21.9 0 0 0 2.035-8.033h3.446z" fill="#fabe2c" transform="translate(-241.98)"/><path d="m195.945 74.882-1.311-.681-1.311.681a.821.821 0 0 1 -1.189-.863l.241-1.459-1.051-1.037a.821.821 0 0 1 .454-1.4l1.46-.22.661-1.321a.855.855 0 0 1 1.47 0l.661 1.321 1.46.22a.821.821 0 0 1 .454 1.4l-1.051 1.037.241 1.459a.821.821 0 0 1 -1.189.863z" fill="#fabe2c" transform="translate(-180.615 -64.434)"/><path d="m257.311 74.882a.821.821 0 0 0 1.189-.863l-.241-1.459 1.051-1.037a.821.821 0 0 0 -.454-1.4l-1.46-.22-.661-1.321a.8.8 0 0 0 -.735-.418v6.036z" fill="#ff9100" transform="translate(-241.98 -64.433)"/><path d="m134.965 483.643h-13.144a.821.821 0 1 1 0-1.643h13.143a.821.821 0 1 1 0 1.643z" fill="#474f54" transform="translate(-114.374 -455.604)"/><path d="m262.572 482h-6.572v1.643h6.572a.821.821 0 0 0 0-1.643z" fill="#32393f" transform="translate(-241.98 -455.604)"/></svg>