<svg height="127.935" viewBox="0 0 133.134 127.935" width="133.134" xmlns="http://www.w3.org/2000/svg"><circle cx="63.514" cy="64.421" fill="#087a91" r="63.514"/><path d="m349.933 246.677v4.733a3.352 3.352 0 0 0 1.586 2.848l-6.8 18.749 8.584 3.112 7.741-21.352h2.635a5.481 5.481 0 0 0 5.481-5.481v-2.61z" fill="#ffcdbe" transform="translate(-247.542 -188.799)"/><path d="m354.885 214.579h-41.405a1.065 1.065 0 0 0 -1.065 1.065v2.2a4.269 4.269 0 0 0 4.269 4.269h35a4.269 4.269 0 0 0 4.269-4.269v-2.2a1.065 1.065 0 0 0 -1.068-1.065z" fill="#90421d" transform="translate(-222.816 -164.232)"/><path d="m464.055 214.579h-5.8a1.065 1.065 0 0 1 1.065 1.065v2.2a4.269 4.269 0 0 1 -4.269 4.269h5.8a4.269 4.269 0 0 0 4.269-4.269v-2.2a1.064 1.064 0 0 0 -1.065-1.065z" fill="#902d72" transform="translate(-331.986 -164.232)"/><path d="m93.34 220.535-6.54 18.034-4.44-13.083a20.6 20.6 0 0 0 -11.9-12.52l-10.071-4v-13.88h-13.903v13.876c-14.575 0-25.378 21.06-30.857 29.875a10.069 10.069 0 0 0 -1.591 5.305 9.641 9.641 0 0 0 9.641 9.641h7.653v8.517h44.218v-14.481l2.88 7.638a9.591 9.591 0 0 0 10.495 6.087 7.487 7.487 0 0 0 7.039-4.936l11.254-31.043a1.209 1.209 0 0 0 -.724-1.548l-11.606-4.207a1.208 1.208 0 0 0 -1.548.725z" fill="#ddebfd" transform="translate(5.553 -149.312)"/><path d="m325.786 312.611-11.743 32.389a7.716 7.716 0 0 1 -7.255 5.087 9.912 9.912 0 0 1 -1.34.122 9.573 9.573 0 0 0 6.513 1.284 7.487 7.487 0 0 0 7.039-4.934l11.254-31.043a1.209 1.209 0 0 0 -.724-1.548z" fill="#bed9fd" transform="translate(-217.483 -239.262)"/><path d="m142.12 210.979q9.352 9.481 18.7 0v-1.065l-2.4-.953v-13.876h-13.903v13.876a15.309 15.309 0 0 0 -2.4.193z" fill="#ffcdbe" transform="translate(-92.477 -149.312)"/><path d="m152.335 195.085v9.3c2.748 2.077 6.256 3.75 8.61 3.75a12.528 12.528 0 0 0 5.3-1.651v-11.4z" fill="#ebae9d" transform="translate(-100.295 -149.312)"/><path d="m131.967 289.378v24.269a1.238 1.238 0 0 1 -1.238 1.238h-41.742a1.238 1.238 0 0 1 -1.238-1.238v-24.269l3.621-2.764a12.323 12.323 0 0 0 4.669-11.914l-2.967-17.116a18.614 18.614 0 0 1 8.58-3.131l7.076 18.278a1.209 1.209 0 0 0 2.255 0l6.893-17.907 8.649 3.438-2.851 16.438a12.333 12.333 0 0 0 4.669 11.909z" fill="#26447e" transform="translate(-50.863 -194.754)"/><path d="m83.018 363.752a1.45 1.45 0 0 1 -1.45-1.45v-11.114a1.45 1.45 0 1 1 2.9 0v11.112a1.45 1.45 0 0 1 -1.45 1.452z" fill="#bed9fd" transform="translate(-46.132 -267.678)"/><path d="m180.082 378.434h-1.948v-1.924a1.923 1.923 0 0 0 -1.923-1.923h-3.211a2.058 2.058 0 0 0 -2.058 2.058v14.021h9.135a5.527 5.527 0 0 0 5.527-5.527v-1.177a5.528 5.528 0 0 0 -5.522-5.528z" fill="#ffcdbe" transform="translate(-114.54 -286.697)"/><path d="m60.09 415.377h25.135a.5.5 0 0 0 .5-.5v-29.12h-21.065a5.066 5.066 0 0 0 -5.066 5.066v24.059a.5.5 0 0 0 .5.5z" fill="#75cff9" transform="translate(-29.314 -295.246)"/><path d="m128.135 460.425a1.45 1.45 0 0 0 -1.45 1.45v10.651h2.9v-10.651a1.45 1.45 0 0 0 -1.45-1.45z" fill="#5fa7ee" transform="translate(-80.664 -352.395)"/><path d="m92.943 483.122a1.45 1.45 0 0 0 -1.45 1.45v5.328h2.9v-5.325a1.45 1.45 0 0 0 -1.45-1.453z" fill="#5fa7ee" transform="translate(-53.729 -369.767)"/><path d="m121.791 18.764c-.544-3.965-5.174-6.28-7.4-6.7-3.065-4.8-13.567-11.654-23.255-12.064a.643.643 0 0 0 -.567.981 28.319 28.319 0 0 1 2.4 4.485.642.642 0 0 1 -.815.84c-4.718-1.68-12.526-3.123-19.462-.68a.646.646 0 0 0 -.271 1.033 80.755 80.755 0 0 0 5.858 5.965 20.21 20.21 0 0 0 1.528 23.892l36.671 1.032s6.047-13.436 5.313-18.783z" fill="#26447e" transform="translate(-39.01 .001)"/><path d="m181.2 18.764c-.544-3.965-5.174-6.28-7.4-6.7-3.061-4.8-13.563-11.654-23.251-12.064a.641.641 0 0 0 -.633.828c7.923 2.034 15.379 7.319 17.884 11.239 2.222.417 6.853 2.732 7.4 6.7.686 5-4.552 17.062-5.239 18.616l5.934.167s6.042-13.439 5.305-18.786z" fill="#20396b" transform="translate(-98.423 .001)"/><path d="m227.813 145.065h-9.033v-8.88h9.033a4.44 4.44 0 1 1 0 8.88z" fill="#ebae9d" transform="translate(-151.15 -104.231)"/><path d="m92.186 145.065h9.033v-8.88h-9.033a4.44 4.44 0 1 0 0 8.88z" fill="#ebae9d" transform="translate(-50.861 -104.231)"/><path d="m149.611 108.65c-1.74 3.391-8.571 7.766-12.381 7.766s-10.64-4.375-12.378-7.766c-1.315-2.56-1.482-10.51-1.25-17.111a34.31 34.31 0 0 0 18.285-9.156h5.513a3.1 3.1 0 0 1 3.087 2.821c.573 6.449.914 19.958-.877 23.446z" fill="#ffcdbe" transform="translate(-78.237 -63.053)"/><g fill="#bed9fd"><path d="m277.657 349.738a1.45 1.45 0 0 0 -1.45 1.45v15l2.9 7.69v-22.69a1.45 1.45 0 0 0 -1.45-1.45z" transform="translate(-195.103 -267.678)"/><path d="m307.16 370.554a1.449 1.449 0 0 0 1.858-.869l1.383-3.815-1.492-4.4-2.618 7.221a1.451 1.451 0 0 0 .869 1.858z" transform="translate(-218.062 -276.661)"/></g></svg>