<svg height="28.06" viewBox="0 0 28.06 28.06" width="28.06" xmlns="http://www.w3.org/2000/svg"><path d="m160.874 231.79a.423.423 0 0 1 -.3-.124l-6.438-6.438a.424.424 0 0 1 .6-.6l6.438 6.438a.424.424 0 0 1 -.3.724zm0 0" fill="#8ac129" transform="translate(-145.573 -212.229)"/><path d="m182.748 183.672a.423.423 0 0 1 -.3-.124l-8.072-8.072a.424.424 0 1 1 .6-.6l8.072 8.071a.424.424 0 0 1 -.3.724zm0 0" fill="#ff4c4c" transform="translate(-164.703 -165.203)"/><path d="m230.866 161.8a.423.423 0 0 1 -.3-.124l-6.438-6.438a.424.424 0 0 1 .6-.6l6.437 6.437a.424.424 0 0 1 -.3.724zm0 0" fill="#8ac129" transform="translate(-211.729 -146.07)"/><path d="m354.075 44.738a.422.422 0 0 1 -.3-.124l-6.13-6.13a.424.424 0 1 1 .6-.6l6.13 6.13a.424.424 0 0 1 -.3.724zm0 0" fill="#ff4c4c" transform="translate(-328.475 -35.718)"/><path d="m43.813 355a.423.423 0 0 1 -.3-.124l-6.13-6.13a.424.424 0 0 1 .6-.6l6.13 6.13a.424.424 0 0 1 -.3.724zm0 0" fill="#ff4c4c" transform="translate(-35.217 -328.975)"/><path d="m7.8 320.368c-2.611-.494-5.328-.572-7.526 1.625a.935.935 0 0 0 1.326 1.323c1.782-1.782 4.05-1.52 6.661-.946-.152-.67-.315-1.344-.461-2.002zm0 0" fill="#ffbf14" transform="translate(0 -302.568)"/><path d="m122.106 322.085c-.389-.074-.78-.138-1.172-.187.142.648.3 1.288.446 1.951.386.067.781.149 1.183.237-.149-.676-.31-1.34-.457-2.001zm0 0" fill="#e0a812" transform="translate(-114.306 -304.285)"/><path d="m190.093 2.1a.935.935 0 1 0 -1.322-1.327c-5.214 5.214 2.367 13-1.891 17.262-2.018 2.018-4.659 1.415-7.717.705.156.672.313 1.348.44 2.019 2.924.652 6.1 1.1 8.6-1.4 5.227-5.229-2.365-13.008 1.89-17.259zm0 0" fill="#ffbf14" transform="translate(-169.346 -.5)"/><path d="m179.6 335.355c.35.078.7.153 1.058.22-.12-.669-.27-1.331-.424-1.994-.352-.077-.71-.161-1.075-.245.157.671.314 1.344.441 2.019zm0 0" fill="#e0a812" transform="translate(-169.342 -315.096)"/><path d="m139.615 136.049c-.156-.669-.314-1.355-.44-2.019-2.924-.652-6.1-1.1-8.6 1.4-5.2 5.2 2.351 13.021-1.89 17.262a.935.935 0 0 0 1.322 1.322c5.247-5.247-2.389-12.982 1.891-17.262 2.019-2.015 4.66-1.413 7.717-.703zm0 0" fill="#45748c" transform="translate(-121.375 -126.231)"/><path d="m306.119 138.936c-.358-.08-.72-.156-1.084-.225.115.667.262 1.329.415 1.992.363.079.733.165 1.108.252-.158-.669-.314-1.355-.439-2.019zm0 0" fill="#3a6175" transform="translate(-288.318 -131.137)"/><path d="m369.312 129.186a.935.935 0 0 0 -1.322 0c-1.782 1.782-4.05 1.52-6.661.946.149.679.31 1.341.458 2 2.888.546 5.449.452 7.526-1.625a.935.935 0 0 0 -.001-1.321zm0 0" fill="#45748c" transform="translate(-341.526 -121.875)"/><path d="m362.364 151.383c-.339-.062-.685-.134-1.036-.211.149.679.31 1.341.458 2 .341.064.683.122 1.027.168-.14-.632-.301-1.301-.449-1.957zm0 0" fill="#3a6175" transform="translate(-341.526 -142.915)"/></svg>