<svg xmlns="http://www.w3.org/2000/svg" width="41.725" height="47.773" viewBox="0 0 41.725 47.773"><g transform="translate(-10.97 -11.477)"><path d="M18.2,14.462l-1.154-3.214a.409.409,0,1,1,.77-.277l.77,2.142.77-2.142a.409.409,0,0,1,.77,0l.77,2.142.77-2.142a.409.409,0,1,1,.77.277l-1.156,3.214a.409.409,0,0,1-.77,0l-.77-2.142-.77,2.142a.409.409,0,0,1-.77,0ZM7.689,22.992A12.489,12.489,0,0,1,6.5,20.864a15.175,15.175,0,0,0-2.47.941,12.271,12.271,0,0,0,5.108,2.786,8.314,8.314,0,0,1-1.449-1.6Zm4.162,1.981a5.251,5.251,0,0,1-3.493-2.454A11.479,11.479,0,0,1,7.3,20.652a21.336,21.336,0,0,1,4.551-.561Zm4.358-2.454a11.479,11.479,0,0,0,1.057-1.866,21.357,21.357,0,0,0-4.6-.562v4.888a5.221,5.221,0,0,0,3.539-2.46Zm4.329-.714a12.271,12.271,0,0,1-5.108,2.786,8.314,8.314,0,0,0,1.449-1.6,12.5,12.5,0,0,0,1.19-2.128A15.175,15.175,0,0,1,20.538,21.8ZM19.35,16.47a18.92,18.92,0,0,1-.971,3.632,15.675,15.675,0,0,1,2.779,1.1,12.321,12.321,0,0,0,2.822-4.73Zm-6.68,0h5.85a17.969,17.969,0,0,1-.934,3.418,22.113,22.113,0,0,0-4.915-.617v-2.8ZM6.185,20.1a15.759,15.759,0,0,0-2.776,1.1A12.322,12.322,0,0,1,.587,16.47h4.63A19.1,19.1,0,0,0,6.185,20.1Zm5.666-3.632h-5.8a17.965,17.965,0,0,0,.934,3.418,22.085,22.085,0,0,1,4.869-.617ZM6.982,5.545a17.966,17.966,0,0,0-.934,3.418h5.8v-2.8A22.067,22.067,0,0,1,6.982,5.545Zm-.8-.214a19.107,19.107,0,0,0-.968,3.632H.587A12.316,12.316,0,0,1,3.409,4.234,15.729,15.729,0,0,0,6.185,5.331ZM6.5,4.57a12.479,12.479,0,0,1,1.19-2.129A8.322,8.322,0,0,1,9.138.843,12.272,12.272,0,0,0,4.029,3.629,15.2,15.2,0,0,0,6.5,4.57Zm5.352.772A21.321,21.321,0,0,1,7.3,4.781,11.478,11.478,0,0,1,8.358,2.915,5.251,5.251,0,0,1,11.851.461Zm5.415-.561a11.477,11.477,0,0,0-1.057-1.866A5.221,5.221,0,0,0,12.67.455V5.343a21.375,21.375,0,0,0,4.6-.562Zm.8-.211a12.479,12.479,0,0,0-1.19-2.129,8.322,8.322,0,0,0-1.449-1.6,12.272,12.272,0,0,1,5.108,2.786A15.2,15.2,0,0,1,18.068,4.57Zm.311.761a18.931,18.931,0,0,1,.971,3.632h4.628a12.282,12.282,0,0,0-2.82-4.729A15.684,15.684,0,0,1,18.379,5.331ZM12.67,8.963v-2.8a22.1,22.1,0,0,0,4.915-.617,17.963,17.963,0,0,1,.934,3.418H12.67Zm11.9,3.753a12.248,12.248,0,0,0-.355-2.934H.355a12.311,12.311,0,0,0,0,5.869H24.212A12.249,12.249,0,0,0,24.567,12.716ZM14.98,11.248l-1.156,3.214a.409.409,0,0,1-.77,0l-.77-2.142-.77,2.142a.409.409,0,0,1-.77,0L9.587,11.248a.41.41,0,0,1,.773-.277l.77,2.142.768-2.142a.411.411,0,0,1,.773,0l.768,2.142.77-2.142a.41.41,0,0,1,.773.277Zm-7.46,0L6.366,14.462a.409.409,0,0,1-.77,0l-.77-2.142-.77,2.142a.409.409,0,0,1-.77,0L2.129,11.248a.409.409,0,1,1,.77-.277l.77,2.142.77-2.142a.409.409,0,0,1,.77,0l.77,2.142.77-2.142a.409.409,0,1,1,.77.277Z" transform="translate(10.97 11.022)" fill="#165e6f" fill-rule="evenodd"/><path d="M15.082,1A10.082,10.082,0,0,0,5,11.082c0,5.325,8.982,16.589,9.367,17.075a.917.917,0,0,0,1.43,0c.385-.486,9.367-11.75,9.367-17.075A10.082,10.082,0,0,0,15.082,1Zm0,12.832a3.666,3.666,0,1,1,3.666-3.666A3.666,3.666,0,0,1,15.082,13.832Z" transform="translate(27.531 30.75)" fill="#165e6f"/></g></svg>