<svg height="26.999" viewBox="0 0 27.449 26.999" width="27.449" xmlns="http://www.w3.org/2000/svg"><path d="m213.247 110.631v-5.431h-6.763v5.432a8.322 8.322 0 1 0 6.763 0zm0 0" fill="#c9fff7" transform="translate(-190.738 -99.56)"/><path d="m246.233 263.907a6.638 6.638 0 1 1 -11.233-4.786h9.2a6.646 6.646 0 0 1 2.033 4.786zm0 0" fill="#f7d360" transform="translate(-220.468 -245.23)"/><path d="m208 98.006v-1.506a1.474 1.474 0 0 1 1.474-1.475h3.769v-1.608l-1.337-1.217-1.263-.337-4.159 1.557v4.59a8.323 8.323 0 0 0 3.323 15.927c-2.5-.058-4.521-3.761-4.521-8.321-.001-3.396 1.114-6.316 2.714-7.61zm0 0" fill="#72cec0" transform="translate(-190.738 -86.935)"/><path d="m236.286 269.659a6.635 6.635 0 0 1 -1.286-10.538h.852a13.392 13.392 0 0 0 -.833 4.786 12.581 12.581 0 0 0 1.267 5.752zm0 0" fill="#e58e13" transform="translate(-220.468 -245.23)"/><path d="m16.278 185.368-5.4-9.361v-4.843h-5.141v4.843l-5.4 9.361a2.413 2.413 0 0 0 2.089 3.619h11.762a2.412 2.412 0 0 0 2.09-3.619zm0 0" fill="#e6e6e6" transform="translate(-.005 -161.988)"/><path d="m10.868 155.567-1.568-.883-3.014.031-.55.852v4.843l-5.4 9.361a2.412 2.412 0 0 0 2.089 3.619h3.203c-.843 0-1.37-2.01-.949-3.619l2.454-9.361v-2.486a.925.925 0 0 1 .926-.924h2.809zm0 0" fill="#ccc" transform="translate(0 -146.391)"/><path d="m81.033 131.423a1.1 1.1 0 0 1 -1.095 1.095h-6.671a1.095 1.095 0 1 1 0-2.189h6.672a1.094 1.094 0 0 1 1.095 1.095zm0 0" fill="#ccc" transform="translate(-68.303 -123.341)"/><path d="m127.9 131.423a1.1 1.1 0 0 1 -1.095 1.095h-4.017a1.095 1.095 0 1 1 0-2.189h4.012a1.094 1.094 0 0 1 1.095 1.095zm0 0" fill="#e6e6e6" transform="translate(-115.167 -123.341)"/><path d="m270.684 81.161a1.1 1.1 0 0 1 -1.095 1.095h-8.253a1.095 1.095 0 1 1 0-2.189h8.253a1.095 1.095 0 0 1 1.095 1.095zm0 0" fill="#72cec0" transform="translate(-246.29 -75.774)"/><path d="m315.845 81.161a1.1 1.1 0 0 1 -1.095 1.095h-5.695a1.095 1.095 0 0 1 0-2.189h5.695a1.095 1.095 0 0 1 1.095 1.095zm0 0" fill="#c9fff7" transform="translate(-291.451 -75.774)"/><path d="m44.537 331.115a.7.7 0 0 1 -.63.364h-11.767a.728.728 0 0 1 -.631-1.092l3.972-6.879h5.086l3.971 6.879a.7.7 0 0 1 -.001.728zm0 0" fill="#fc5f61" transform="translate(-29.723 -306.164)"/><g fill="#e83842"><path d="m34.4 329.545a4.992 4.992 0 0 0 -.1 1.934h-2.16a.728.728 0 0 1 -.631-1.092l3.972-6.879h.5zm0 0" transform="translate(-29.723 -306.164)"/><path d="m164.342 398.209a.421.421 0 1 1 .417-.359.424.424 0 0 1 -.417.359zm0 0" transform="translate(-155.136 -376.065)"/><path d="m129.7 76.225a.421.421 0 1 1 .41-.326.425.425 0 0 1 -.41.326zm0 0" transform="translate(-122.347 -71.343)"/><path d="m160.941 46.379a.421.421 0 1 1 .41-.326.424.424 0 0 1 -.41.326zm0 0" transform="translate(-151.917 -43.096)"/><path d="m143.864.841a.426.426 0 0 1 -.4-.3.426.426 0 0 1 .169-.472.424.424 0 0 1 .642.453.425.425 0 0 1 -.408.319zm0 0" transform="translate(-135.752 -.001)"/></g><path d="m418.369 293a.421.421 0 1 1 .421-.421.425.425 0 0 1 -.421.421zm0 0" fill="#fff" transform="translate(-395.545 -276.495)"/><path d="m423.811 345.349a.421.421 0 1 1 .417-.359.424.424 0 0 1 -.417.359zm0 0" fill="#fff" transform="translate(-400.694 -326.039)"/><path d="m321.344 404.477a.421.421 0 1 1 .406-.309.424.424 0 0 1 -.406.309zm0 0" fill="#fff" transform="translate(-303.718 -381.997)"/><path d="m285.273 338.511a.421.421 0 1 1 .412-.334.424.424 0 0 1 -.412.334zm0 0" fill="#fff" transform="translate(-269.585 -319.568)"/><path d="m381.073 319.664a.421.421 0 1 1 .413-.338.424.424 0 0 1 -.413.338zm0 0" fill="#fff" transform="translate(-360.248 -301.731)"/><path d="m109.316 414.482a.421.421 0 1 1 .413-.339.425.425 0 0 1 -.413.339zm0 0" fill="#e83842" transform="translate(-103.058 -391.467)"/><path d="m129.733 363.661a.421.421 0 1 1 .414-.349.424.424 0 0 1 -.414.349zm0 0" fill="#e83842" transform="translate(-122.38 -343.37)"/></svg>