<svg height="29.895" viewBox="0 0 26.75 29.895" width="26.75" xmlns="http://www.w3.org/2000/svg"><path d="m53.674 23.245-1.56.9h-.014l-9.908 5.7-.092.055a.131.131 0 0 1 -.053-.016l-14.969-8.647a.334.334 0 0 1 -.154-.263v-1.459a.1.1 0 0 1 .052-.1l9.94-5.734v-12.147a.667.667 0 0 1 .2-.529l.121-.073 1.438-.832.105-.061.012-.008a.664.664 0 0 1 .578.089l13.4 7.738a1.981 1.981 0 0 1 .893 1.548v12.162z" fill="#dadcda" transform="translate(-26.924 -.001)"/><path d="m42.2 341.213v1.459a.111.111 0 0 1 -.012.053l-.089.052a.131.131 0 0 1 -.053-.016l-14.971-8.643a.334.334 0 0 1 -.154-.263v-1.455a.1.1 0 0 1 .052-.1.105.105 0 0 1 .1.012l6.194 3.576a.887.887 0 0 0 .368.517l2.109 1.216c.17.1.315.053.372-.089l5.928 3.422a.3.3 0 0 1 .113.121.314.314 0 0 1 .043.138z" fill="#a5b4b4" transform="translate(-26.924 -312.882)"/><path d="m219.947 23.244-1.56.9h-.016l-9.908 5.7a.112.112 0 0 0 .012-.053v-1.46a.313.313 0 0 0 -.04-.141l9.952-5.722v-12.162a1.976 1.976 0 0 0 -.9-1.544l-13.4-7.742a.679.679 0 0 0 -.578-.089l1.439-.831.105-.065.012-.008a.664.664 0 0 1 .578.089l13.4 7.738a1.981 1.981 0 0 1 .893 1.548v12.165z" fill="#919d9e" transform="translate(-193.198)"/><path d="m228.774 56.5-13.14-7.586v-10.951l13.14 7.586z" fill="#4f6f7f" transform="translate(-204.614 -35.746)"/><path d="m52.976 242.962-9.952 5.722a.3.3 0 0 0 -.113-.121l-5.928-3.422c-.057.141-.2.186-.372.089l-2.111-1.217a.887.887 0 0 1 -.368-.517l-6.192-3.576a.105.105 0 0 0 -.1-.012l9.94-5.734v.016z" fill="#b4b4b3" transform="translate(-27.786 -220.494)"/><path d="m133.029 268.419 11.924 6.921 4.083-2.45-11.924-6.921z" fill="#dadcda" transform="translate(-126.833 -250.436)"/><path d="m140.592 351.669 5.062 2.938 1.733-1.04-5.062-2.938z" fill="#dadcda" transform="translate(-133.954 -330.152)"/><g fill="#95c2d5"><path d="m236.833 95.425a.2.2 0 0 1 -.1-.378l1.143-.651a.2.2 0 0 1 .2.351l-1.143.651a.2.2 0 0 1 -.1.027z" transform="translate(-224.384 -88.859)"/><path d="m236.833 128.725a.2.2 0 0 1 -.1-.378l.571-.326a.2.2 0 0 1 .2.351l-.571.326a.2.2 0 0 1 -.1.027z" transform="translate(-224.384 -120.52)"/><path d="m266.185 109.384a.2.2 0 0 1 -.1-.378l.857-.488a.2.2 0 0 1 .2.351l-.857.488a.2.2 0 0 1 -.1.027z" transform="translate(-252.022 -102.156)"/><path d="m236.833 138.411a.2.2 0 0 1 -.1-.378l2.571-1.465a.2.2 0 0 1 .2.351l-2.571 1.465a.2.2 0 0 1 -.1.027z" transform="translate(-224.384 -128.568)"/><path d="m300.421 123.176a.2.2 0 0 1 -.1-.378l.286-.163a.2.2 0 0 1 .2.351l-.286.163a.2.2 0 0 1 -.1.027z" transform="translate(-284.258 -115.449)"/></g></svg>