<svg xmlns="http://www.w3.org/2000/svg" width="109.099" height="109.099" viewBox="0 0 109.099 109.099"><path d="M225.7,41.71a54.549,54.549,0,1,0,54.549,54.549A54.553,54.553,0,0,0,225.7,41.71Zm0,92.354a37.783,37.783,0,1,1,37.8-37.8A37.8,37.8,0,0,1,225.7,134.064Z" transform="translate(-171.148 -41.71)" fill="#1a1818"/><g transform="translate(38.516 22.269)"><path d="M208.933,78.574a10.5,10.5,0,0,0-1.039-.9,24.076,24.076,0,0,0-6.515-3.413c-.6-.214-1.252-.428-1.9-.646a30.265,30.265,0,0,1-5.307-1.986,6.981,6.981,0,0,1-2.461-1.811,4.091,4.091,0,0,1-.69-2.5A3.916,3.916,0,0,1,192.7,63.9a7.8,7.8,0,0,1,4.49-1.165,13.524,13.524,0,0,1,9.278,3.626l4.36-5.049a19.361,19.361,0,0,0-10.443-5.093V46.813h-6.777v9.365a14.711,14.711,0,0,0-8.588,3.884,11.488,11.488,0,0,0-.3,15.667c1.942,1.942,5.093,3.622,9.5,5.049a2.693,2.693,0,0,0,.345.127,28.478,28.478,0,0,1,5.049,1.9,7.241,7.241,0,0,1,1.51.995,3.437,3.437,0,0,1,.908,1.034,5.455,5.455,0,0,1,.69,2.893,4.96,4.96,0,0,1-1.986,4.229,8.448,8.448,0,0,1-5.307,1.554,13.963,13.963,0,0,1-4.277-.6,14.785,14.785,0,0,1-6.3-3.583c-.044,0-.087-.044-.131-.087l-1.3,1.379-3.452,3.714a19.589,19.589,0,0,0,5.394,3.84,22.787,22.787,0,0,0,8.243,2.073v9.579h6.777V99.9a14.806,14.806,0,0,0,8.545-4.49,11.9,11.9,0,0,0,3.107-8.287Q212.04,81.62,208.933,78.574Z" transform="translate(-179.974 -46.813)" fill="#1a1818"/></g></svg>