<svg height="21.049" viewBox="0 0 28.042 21.049" width="28.042" xmlns="http://www.w3.org/2000/svg"><path d="m105.045 235.811h-8.712a.929.929 0 0 1 -1-.834v-10.277a.929.929 0 0 1 1-.834h8.712a.929.929 0 0 1 1 .834v10.275a.928.928 0 0 1 -1 .836z" fill="#2bd254" transform="translate(-90.631 -219.653)"/><path d="m180.024 223.867h-4.356v11.944h4.356a.929.929 0 0 0 1-.834v-10.277a.928.928 0 0 0 -1-.833z" fill="#1eb4a0" transform="translate(-166.436 -219.653)"/><path d="m116.682 169.093a4.214 4.214 0 1 1 4.214-4.214 4.218 4.218 0 0 1 -4.214 4.214z" fill="#ffc3b9" transform="translate(-106.747 -160.666)"/><path d="m175.667 169.093v-8.427a4.214 4.214 0 0 1 0 8.427z" fill="#ffa0a5" transform="translate(-166.34 -160.666)"/><path d="m265.711 235.811h-8.711a.929.929 0 0 1 -1-.834v-10.277a.929.929 0 0 1 1-.834h8.712a.929.929 0 0 1 1 .834v10.275a.929.929 0 0 1 -1.001.836z" fill="#d5ff38" transform="translate(-243.371 -219.653)"/><path d="m340.689 223.867h-4.356v11.944h4.356a.929.929 0 0 0 1-.834v-10.277a.928.928 0 0 0 -1-.833z" fill="#2bd254" transform="translate(-318.657 -219.653)"/><path d="m277.348 169.093a4.214 4.214 0 1 1 4.214-4.214 4.218 4.218 0 0 1 -4.214 4.214z" fill="#a05e2c" transform="translate(-259.24 -160.666)"/><path d="m336.333 169.093v-8.427a4.214 4.214 0 1 1 0 8.427z" fill="#6c4014" transform="translate(-318.476 -160.666)"/><path d="m36.348 225.327a4.214 4.214 0 1 1 4.214-4.214 4.218 4.218 0 0 1 -4.214 4.214z" fill="#d17b48" transform="translate(-29.992 -213.745)"/><path d="m11.712 354.547h-10.712a1 1 0 0 1 -1-1v-3.891a6.356 6.356 0 0 1 12.712 0v3.891a1 1 0 0 1 -1 1z" fill="#00d4f5" transform="translate(0 -333.499)"/><path d="m95.333 225.327v-8.427a4.214 4.214 0 1 1 0 8.427z" fill="#a05e2c" transform="translate(-90.271 -213.745)"/><path d="m100.689 354.547a1 1 0 0 0 1-1v-3.891a6.363 6.363 0 0 0 -6.356-6.356v11.247z" fill="#0098c9" transform="translate(-90.371 -333.499)"/><path d="m357.681 225.327a4.214 4.214 0 1 1 4.214-4.214 4.218 4.218 0 0 1 -4.214 4.214z" fill="#ffe1d2" transform="translate(-335.995 -213.745)"/><path d="m333.045 354.547h-10.712a1 1 0 0 1 -1-1v-3.891a6.356 6.356 0 0 1 12.712 0v3.891a1 1 0 0 1 -1 1z" fill="#ffe287" transform="translate(-306.003 -333.499)"/><path d="m416.666 225.327v-8.427a4.214 4.214 0 1 1 0 8.427z" fill="#ffc3b9" transform="translate(-394.98 -213.745)"/><path d="m422.022 354.547a1 1 0 0 0 1-1v-3.891a6.363 6.363 0 0 0 -6.356-6.356v11.247z" fill="#ffcb00" transform="translate(-394.98 -333.499)"/><path d="m197.015 225.327a4.214 4.214 0 1 1 4.214-4.214 4.218 4.218 0 0 1 -4.214 4.214z" fill="#ffe1d2" transform="translate(-182.994 -213.745)"/><path d="m172.379 354.547h-10.712a1 1 0 0 1 -1-1v-3.891a6.356 6.356 0 0 1 12.712 0v3.891a1 1 0 0 1 -1 1z" fill="#ee1c66" transform="translate(-153.002 -333.499)"/><path d="m256 225.327v-8.427a4.214 4.214 0 1 1 0 8.427z" fill="#ffc3b9" transform="translate(-242.408 -213.745)"/><path d="m261.355 354.547a1 1 0 0 0 1-1v-3.891a6.363 6.363 0 0 0 -6.355-6.356v11.247z" fill="#a8003f" transform="translate(-242.675 -333.499)"/></svg>