<svg xmlns="http://www.w3.org/2000/svg" width="15.717" height="19.578" viewBox="0 0 15.717 19.578"><g transform="translate(18.127 50.193)"><g transform="translate(-0.127 -0.161)"><path d="M95.2,40.39H89.084a2.1,2.1,0,0,1-2.1-2.1V32.175A.175.175,0,0,0,86.813,32H82.8A2.8,2.8,0,0,0,80,34.8V48.78a2.8,2.8,0,0,0,2.8,2.8h9.783a2.8,2.8,0,0,0,2.8-2.8V40.565A.175.175,0,0,0,95.2,40.39Z" transform="translate(-98 -82.031)" fill="#1a1a1a"/><path d="M279.142,51.2l-6.976-6.976a.1.1,0,0,0-.165.068v6.3a.776.776,0,0,0,.776.776h6.3a.1.1,0,0,0,.068-.165Z" transform="translate(-281.453 -94.23)" fill="#1a1a1a"/></g></g></svg>