<svg xmlns="http://www.w3.org/2000/svg" width="23.006" height="21.075" viewBox="0 0 23.006 21.075"><g transform="translate(0 -13.594)"><g transform="translate(13.767 25.056)"><path d="M202.481,175h-7.973a.631.631,0,0,0-.439,1.085l5.614,5.614a.634.634,0,0,0,.99-.078,10.083,10.083,0,0,0,2.428-5.876.492.492,0,0,0,.013-.113A.632.632,0,0,0,202.481,175Z" transform="translate(-193.875 -175.001)"/></g><g transform="translate(11.362 13.594)"><g transform="translate(0 0)"><path d="M160.63,13.594a.633.633,0,0,0-.63.632v8.861a.632.632,0,0,0,.63.635h8.863a.634.634,0,0,0,.632-.635A10.146,10.146,0,0,0,160.63,13.594Z" transform="translate(-160 -13.594)"/></g></g><g transform="translate(0 14.395)"><g transform="translate(0 0)"><path d="M16.863,41.718l-6.538-6.538a.63.63,0,0,1-.177-.442l0-9.234a.63.63,0,0,0-.63-.63,10.147,10.147,0,1,0,7.305,17.769.626.626,0,0,0,.224-.482A.633.633,0,0,0,16.863,41.718Z" transform="translate(0 -24.875)"/></g></g></g></svg>