<svg height="25.026" viewBox="0 0 25.026 25.026" width="25.026" xmlns="http://www.w3.org/2000/svg"><path d="m98.583 404.894h3.117v5.236h-3.117z" fill="#a26037" transform="translate(-93.765 -385.104)"/><path d="m130.487 404.894h1.559v5.236h-1.559z" fill="#824c2d" transform="translate(-124.11 -385.104)"/><path d="m10.013 14.428h1.177a.248.248 0 0 0 .226-.348l-2.916-6.587h.987a.248.248 0 0 0 .226-.348l-3.1-7a.248.248 0 0 0 -.453 0l-3.1 7a.248.248 0 0 0 .226.348h.987l-2.918 6.587a.248.248 0 0 0 .226.348h1.177l-2.728 6.159a.248.248 0 0 0 .226.348h12.259a.248.248 0 0 0 .226-.348z" fill="#5a9ea7" transform="translate(-.008 -.001)"/><path d="m136.843 20.587-2.728-6.159h1.177a.248.248 0 0 0 .226-.348l-2.918-6.587h.987a.248.248 0 0 0 .226-.348l-3.1-7a.244.244 0 0 0 -.226-.145v20.935h6.13a.248.248 0 0 0 .226-.348z" fill="#4f7976" transform="translate(-124.109 -.001)"/><path d="m349.625 404.894h3.119v5.235h-3.119z" fill="#613921" transform="translate(-332.537 -385.104)"/><path d="m381.528 404.894h1.559v5.236h-1.559z" fill="#4c250f" transform="translate(-362.881 -385.104)"/><path d="m261.055 14.428h1.177a.248.248 0 0 0 .226-.348l-2.918-6.587h.987a.248.248 0 0 0 .226-.348l-3.1-7a.248.248 0 0 0 -.453 0l-3.1 7a.248.248 0 0 0 .226.348h.987l-2.913 6.587a.248.248 0 0 0 .226.348h1.174l-2.728 6.159a.248.248 0 0 0 .226.348h12.259a.248.248 0 0 0 .226-.348z" fill="#5a9ea7" transform="translate(-238.779 -.001)"/><path d="m387.884 20.587-2.728-6.159h1.177a.248.248 0 0 0 .227-.348l-2.918-6.586h.987a.248.248 0 0 0 .227-.348l-3.1-7a.244.244 0 0 0 -.228-.146v20.935h6.13a.248.248 0 0 0 .226-.348z" fill="#4f7976" transform="translate(-362.88 -.001)"/><path d="m224.53 406.563h3.077v5.154h-3.077z" fill="#824c2d" transform="translate(-213.556 -386.691)"/><path d="m256.008 406.563h1.539v5.154h-1.539z" fill="#613921" transform="translate(-243.495 -386.691)"/><path d="m172.67 147.5h.711a.244.244 0 0 0 .223-.343l-1.992-4.5h.579a.244.244 0 0 0 .223-.343l-2.054-4.636a.244.244 0 0 0 -.447 0l-2.054 4.636a.244.244 0 0 0 .223.343h.579l-1.992 4.5a.244.244 0 0 0 .223.343h.711l-1.86 4.2a.244.244 0 0 0 .223.343h8.337a.244.244 0 0 0 .223-.343z" fill="#5a9ea7" transform="translate(-157.626 -130.814)"/><path d="m260.4 151.7-1.86-4.2h.711a.244.244 0 0 0 .223-.343l-1.992-4.5h.579a.244.244 0 0 0 .223-.343l-2.054-4.636a.241.241 0 0 0 -.223-.145v14.506h4.168a.244.244 0 0 0 .225-.339z" fill="#4f7976" transform="translate(-243.497 -130.815)"/><path d="m3.067 9.121a2.969 2.969 0 0 1 -3.038-3.292c.222-1.839 3.138-3.699 2.988-5.564a.244.244 0 0 1 .4-.21c.815.667 2.14 2.287 1.065 5.279a1.326 1.326 0 0 0 .849-.495.245.245 0 0 1 .428.071c.61 1.929-.305 4.211-2.692 4.211z" fill="#edbe2c" transform="translate(-.008)"/><path d="m63.478 4.911a.245.245 0 0 0 -.428-.071 1.326 1.326 0 0 1 -.849.495c1.075-2.992-.249-4.612-1.064-5.279a.244.244 0 0 0 -.4.21 1.9 1.9 0 0 1 -.037.564v8.29h.093c2.387 0 3.3-2.282 2.688-4.21z" fill="#e58f22" transform="translate(-57.731 -.001)"/><path d="m273.595 363.3a2.5 2.5 0 0 1 -2.561-2.776c.184-1.524 2.564-3.066 2.523-4.612a.244.244 0 0 1 .4-.2c.69.6 1.7 1.954.826 4.39a1.131 1.131 0 0 0 .679-.37.244.244 0 0 1 .42.087c.473 1.612-.305 3.481-2.287 3.481z" fill="#edbe2c" transform="translate(-257.769 -338.271)"/><path d="m324.552 359.822a.244.244 0 0 0 -.42-.087 1.131 1.131 0 0 1 -.679.37c.875-2.436-.136-3.793-.826-4.39a.244.244 0 0 0 -.4.2 1.641 1.641 0 0 1 -.04.4v6.985h.078c1.98 0 2.757-1.868 2.287-3.478z" fill="#e58f22" transform="translate(-306.437 -338.272)"/><path d="m369.3 97.008a3.581 3.581 0 0 1 -3.664-3.971c.271-2.252 3.894-4.53 3.592-6.816a.244.244 0 0 1 .392-.226c.97.752 2.722 2.714 1.382 6.445a1.582 1.582 0 0 0 1.071-.666.244.244 0 0 1 .435.052c.804 2.347-.289 5.182-3.208 5.182z" fill="#edbe2c" transform="translate(-347.737 -81.743)"/><path d="m442.127 91.827a.244.244 0 0 0 -.435-.052 1.582 1.582 0 0 1 -1.071.666c1.341-3.73-.412-5.692-1.382-6.445a.244.244 0 0 0 -.392.226 2.256 2.256 0 0 1 -.04.785v10h.112c2.923.002 4.015-2.833 3.208-5.18z" fill="#e58f22" transform="translate(-417.359 -81.744)"/></svg>