<svg xmlns="http://www.w3.org/2000/svg" width="19" height="19" viewBox="0 0 19 19"><g transform="translate(0 -0.004)"><g transform="translate(0 1.361)"><path d="M15.607,42.28a.679.679,0,0,0-.679.679v6.786a.679.679,0,0,1-.679.679H2.036a.679.679,0,0,1-.679-.679V36.173a.679.679,0,0,1,.679-.679h8.143a.679.679,0,1,0,0-1.357H2.036A2.036,2.036,0,0,0,0,36.173V49.744A2.036,2.036,0,0,0,2.036,51.78H14.25a2.036,2.036,0,0,0,2.036-2.036V42.958A.679.679,0,0,0,15.607,42.28Z" transform="translate(0 -34.137)" fill="#fff"/></g><g transform="translate(4.072 0.004)"><g transform="translate(0 0)"><path d="M116.577.765a2.6,2.6,0,0,0-3.674,0L103.964,9.7a.686.686,0,0,0-.164.265l-1.357,4.071a.679.679,0,0,0,.643.893.689.689,0,0,0,.214-.035l4.071-1.357a.679.679,0,0,0,.265-.164l8.938-8.938A2.6,2.6,0,0,0,116.577.765Z" transform="translate(-102.409 -0.004)" fill="#fff"/></g></g></g></svg>