<svg height="25.241" viewBox="0 0 28.863 25.241" width="28.863" xmlns="http://www.w3.org/2000/svg"><path d="m257.922 252.651a.845.845 0 0 1 -.795-1.135l3.623-9.963a.846.846 0 1 1 1.589.578l-3.623 9.963a.846.846 0 0 1 -.794.557zm0 0" fill="#3ab4fb" transform="translate(-242.584 -227.411)"/><path d="m357.324 252.652a.846.846 0 0 1 -.794-.554l-3.659-9.963a.846.846 0 0 1 1.587-.583l3.659 9.963a.846.846 0 0 1 -.793 1.137zm0 0" fill="#1d9cfd" transform="translate(-332.93 -227.411)"/><path d="m208.138 0h-12.68a2.657 2.657 0 0 0 -2.658 2.657v9.963a2.657 2.657 0 0 0 2.657 2.657h12.681a2.657 2.657 0 0 0 2.662-2.657v-9.963a2.657 2.657 0 0 0 -2.662-2.657zm0 0" fill="#eff6fe" transform="translate(-181.932)"/><path d="m356.881 0h-6.451v15.277h6.451a2.657 2.657 0 0 0 2.657-2.657v-9.963a2.657 2.657 0 0 0 -2.657-2.657zm0 0" fill="#d9e4ef" transform="translate(-330.675)"/><path d="m37.366 33.683a3.683 3.683 0 1 1 -3.683-3.683 3.683 3.683 0 0 1 3.683 3.683zm0 0" fill="#ffcfbe" transform="translate(-28.309 -28.309)"/><path d="m233.432 150.728a.846.846 0 0 1 -.378-1.135l2.264-4.529a.846.846 0 0 1 1.513.756l-2.264 4.529a.846.846 0 0 1 -1.135.379zm0 0" fill="#ffb826" transform="translate(-219.831 -136.446)"/><path d="m99.012 33.68a3.683 3.683 0 0 1 -3.684 3.683v-7.363a3.683 3.683 0 0 1 3.684 3.68zm0 0" fill="#f9bcaa" transform="translate(-89.954 -28.305)"/><path d="m266.969 57.929h-9.057a.846.846 0 1 1 0-1.691h9.057a.846.846 0 0 1 0 1.691zm0 0" fill="#3ab4fb" transform="translate(-242.575 -53.068)"/><g fill="#1d9cfd"><path d="m355.07 122.191h-3.794a.846.846 0 1 1 0-1.691h3.794a.846.846 0 0 1 0 1.691zm0 0" transform="translate(-330.675 -113.707)"/><path d="m355.07 186.457h-3.794a.846.846 0 1 1 0-1.691h3.794a.846.846 0 0 1 0 1.691zm0 0" transform="translate(-330.675 -174.35)"/><path d="m355.07 56.238h-4.64v1.691h4.64a.846.846 0 0 0 0-1.691zm0 0" transform="translate(-330.675 -53.068)"/></g><path d="m8.091 176.851h-5.434a.846.846 0 0 1 -.846-.846v-4.727a2.661 2.661 0 0 1 -1.811-2.519v-2.717a5.332 5.332 0 0 1 1.575-3.8 5.4 5.4 0 0 1 3.8-1.573h.747a7.253 7.253 0 0 1 3.571 1.149l4.083 2.031a2.2 2.2 0 0 1 1.1 2.677v.01a2.316 2.316 0 0 1 -3.231 1.323l-2.708-1.359v9.5a.846.846 0 0 1 -.846.851zm0 0" fill="#ff7579" transform="translate(0 -151.611)"/><path d="m103.73 163.848-4.084-2.031a7.252 7.252 0 0 0 -3.571-1.149h-.748v16.183h2.717a.846.846 0 0 0 .846-.846v-9.5l2.707 1.353a2.316 2.316 0 0 0 3.231-1.323v-.01a2.2 2.2 0 0 0 -1.098-2.677zm0 0" fill="#fe4a60" transform="translate(-89.954 -151.611)"/></svg>