<svg height="27.592" viewBox="0 0 27.592 27.592" width="27.592" xmlns="http://www.w3.org/2000/svg"><path d="m12.677 234.338a2.338 2.338 0 1 1 -2.339-2.338 2.338 2.338 0 0 1 2.339 2.338zm0 0" fill="#ffcd34" transform="translate(-7.532 -218.438)"/><path d="m124.677 274.338a2.338 2.338 0 1 1 -2.339-2.338 2.338 2.338 0 0 1 2.339 2.338zm0 0" fill="#ffcd34" transform="translate(-112.985 -256.1)"/><path d="m36.677 386.338a2.338 2.338 0 1 1 -2.339-2.338 2.338 2.338 0 0 1 2.339 2.338zm0 0" fill="#008fcf" transform="translate(-30.129 -361.552)"/><g fill="#226c8a"><path d="m40.935 264.468a.468.468 0 1 1 -.468-.468.468.468 0 0 1 .468.468zm0 0" transform="translate(-37.662 -248.567)"/><path d="m152.935 304.468a.468.468 0 1 1 -.468-.468.468.468 0 0 1 .468.468zm0 0" transform="translate(-143.115 -286.229)"/><path d="m64.935 416.468a.468.468 0 1 1 -.468-.468.468.468 0 0 1 .468.468zm0 0" transform="translate(-60.259 -391.682)"/></g><path d="m4.206 124.909h-.027a2.708 2.708 0 0 1 -2.779-2.831 2.835 2.835 0 0 1 1.619-2.517l6.9-2.223a2.053 2.053 0 0 0 1.181-1.108 2.175 2.175 0 0 0 -.072-1.5 1.883 1.883 0 0 0 -2.385-.9l-4.7 1.961a2.946 2.946 0 0 1 -2.82-.327 2.936 2.936 0 0 1 -1.123-2.246l.761-9.858.933.073-.759 9.821a2.031 2.031 0 0 0 .739 1.453 2.011 2.011 0 0 0 1.905.215l4.714-1.964a2.828 2.828 0 0 1 3.567 1.342 3.1 3.1 0 0 1 .117 2.26 2.973 2.973 0 0 1 -1.722 1.652l-6.875 2.214a1.912 1.912 0 0 0 -1.041 1.683 1.783 1.783 0 0 0 1.874 1.864l17.85-.948.047.935zm0 0" fill="#4d4d4d" transform="translate(0 -97.317)"/><path d="m128.523 29.949.056-.934 8.2.491-.056.933zm0 0" fill="#4d4d4d" transform="translate(-121.01 -27.319)"/><path d="m429.139 258.449-.178-6.167.934-.036.178 6.168zm0 0" fill="#4d4d4d" transform="translate(-403.885 -237.5)"/><path d="m15.875 3.342.692-.541 1.25.518.108.873.676.676.873.108.518 1.249-.541.693v.958l.541.692-.518 1.25-.873.108-.676.676-.108.873-1.25.518-.692-.541h-.958l-.693.541-1.249-.518-.108-.873-.677-.676-.873-.108-.517-1.251.541-.692v-.958l-.541-.693.518-1.249.873-.108.676-.677.108-.873 1.249-.517.693.541zm0 0" fill="#53a2ab" transform="translate(-10.169 -2.637)"/><path d="m60.053 50.111a1.943 1.943 0 1 1 -1.943-1.943 1.943 1.943 0 0 1 1.943 1.943zm0 0" fill="#ffcd34" transform="translate(-52.885 -45.352)"/><path d="m185.905 25.552 1.472-1.552 1.3.421.278 2.121.886.643 2.1-.391.8 1.1-1.023 1.879.339 1.042 1.931.919v1.366l-1.931.919-.339 1.041 1.022 1.879-.8 1.1-2.1-.391-.886.643-.277 2.121-1.3.421-1.471-1.552h-1.1l-1.471 1.552-1.3-.421-.278-2.121-.886-.643-2.1.391-.8-1.1 1.029-1.879-.338-1.041-1.931-.919v-1.364l1.931-.919.338-1.041-1.026-1.876.8-1.1 2.1.391.886-.643.278-2.121 1.3-.421 1.471 1.552zm0 0" fill="#008fcf" transform="translate(-166.396 -22.597)"/><path d="m335.8 321.447 1.483.421.323.971-.935 1.226-.108.526.374 1.5-.677.765-1.529-.2-.51.17-1.107 1.076-1-.206-.594-1.426-.4-.357-1.483-.421-.323-.971.935-1.226.108-.527-.374-1.5.679-.766 1.529.2.51-.17 1.107-1.076 1 .206.594 1.423zm0 0" fill="#e2c675" transform="translate(-310.062 -300.782)"/><path d="m371.741 361.871a1.871 1.871 0 1 1 -1.87-1.871 1.871 1.871 0 0 1 1.87 1.871zm0 0" fill="#53a2ab" transform="translate(-346.488 -338.955)"/><path d="m256.418 100.209a4.209 4.209 0 1 1 -4.209-4.209 4.209 4.209 0 0 1 4.209 4.209zm0 0" fill="#ffcd34" transform="translate(-233.503 -90.388)"/><path d="m284.677 130.338a2.338 2.338 0 1 1 -2.339-2.338 2.338 2.338 0 0 1 2.339 2.338zm0 0" fill="#53a2ab" transform="translate(-263.632 -120.517)"/><path d="m441.871.935a.935.935 0 1 1 -.936-.935.935.935 0 0 1 .936.935zm0 0" fill="#fbcc34" transform="translate(-414.279)"/><path d="m200.935.468a.468.468 0 1 1 -.467-.468.468.468 0 0 1 .467.468zm0 0" fill="#fbcc34" transform="translate(-188.309)"/></svg>