<svg xmlns="http://www.w3.org/2000/svg" width="23.251" height="15.501" viewBox="0 0 23.251 15.501"><g transform="translate(-15.98 -96)"><circle cx="3.1" cy="3.1" r="3.1" transform="translate(24.506 100.65)" fill="#fff"/><path d="M38.982,102.908a16.418,16.418,0,0,0-4.809-4.87A12.169,12.169,0,0,0,27.59,96a11.6,11.6,0,0,0-6.02,1.749,17.645,17.645,0,0,0-5.313,5.138,1.546,1.546,0,0,0-.031,1.722,16.185,16.185,0,0,0,4.761,4.876,12,12,0,0,0,6.6,2.017,12.219,12.219,0,0,0,6.6-2.021,16.177,16.177,0,0,0,4.8-4.889A1.56,1.56,0,0,0,38.982,102.908ZM27.607,108.4a4.65,4.65,0,1,1,4.65-4.65A4.65,4.65,0,0,1,27.607,108.4Z" transform="translate(0 0)" fill="#fff"/></g></svg>