<svg height="27.592" viewBox="0 0 21.642 27.592" width="21.642" xmlns="http://www.w3.org/2000/svg"><path d="m8.753 17.637a.5.5 0 0 1 -.429-.24 1.98 1.98 0 0 0 -1.549-1.059.517.517 0 0 1 -.518-.488.5.5 0 0 1 .488-.519 2.984 2.984 0 0 1 2.436 1.539.5.5 0 0 1 -.428.768z" fill="#436b1c" transform="translate(-6.082 -7.614)"/><path d="m21.85 3.534a1.885 1.885 0 0 0 -1.88-1.756h-.009a1.167 1.167 0 0 0 -.04-.469 1.228 1.228 0 0 0 -1.015-.869 1.21 1.21 0 0 0 -1 .342 1.342 1.342 0 0 0 -2.247 1s0 0 0 .007a1.744 1.744 0 0 0 -1.568 2.154 2.017 2.017 0 0 0 -1.664 3.027 1.475 1.475 0 0 0 -.081 2.215c1.214-.992 2.489 2.326 3.991 4.975.5.88 5.888-.057 6.317.489.489-.44.805-8.1.819-8.773a2.427 2.427 0 0 0 -1.623-2.342z" fill="#88c057" transform="translate(-8.878 -.213)"/><path d="m31.483 13.354.359-.215a2.1 2.1 0 0 1 2.158 0l.359.215a2.1 2.1 0 0 0 2.158 0l1.014-.451c.149-.416.253-.717.294-.85a35.1 35.1 0 0 0 1.639-9.444c.033-1.285-1.03-3.29-2.8-2.379-1.736.895-2.979 4.327-3.853 5.957a35.5 35.5 0 0 0 -2.922 7.4 2.094 2.094 0 0 0 1.594-.233z" fill="#eeaf4b" transform="translate(-17.822 .001)"/><path d="m6.49 21.013.677.406a2.455 2.455 0 0 0 2.527 0l.174-.1a2.1 2.1 0 0 1 2.158 0l.359.215a2.093 2.093 0 0 0 1.274.286 4.342 4.342 0 0 0 -.285-3.221c-1.679-2.962-3.076-2.358-4.42-1.073a2.2 2.2 0 0 1 -.916.525c-1.474.421-2.561 1.11-1.943 2.987a.355.355 0 0 1 .395-.025z" fill="#ed3f32" transform="translate(-5.914 -8.175)"/><path d="m35.1 21.647a.5.5 0 0 1 -.476-.665 1.9 1.9 0 0 1 2.4-1.184.886.886 0 0 0 1.123-.554.5.5 0 1 1 .953.324 1.9 1.9 0 0 1 -2.4 1.184.888.888 0 0 0 -1.123.554.5.5 0 0 1 -.477.341z" fill="#a46f3e" transform="translate(-20.156 -9.388)"/><path d="m37.461 14.68a.5.5 0 0 1 -.476-.665 1.892 1.892 0 0 1 2.4-1.184.885.885 0 0 0 1.123-.554.5.5 0 1 1 .953.324 1.9 1.9 0 0 1 -2.4 1.184.885.885 0 0 0 -1.123.554.5.5 0 0 1 -.477.341z" fill="#a46f3e" transform="translate(-21.331 -5.927)"/><path d="m39.826 8a.508.508 0 0 1 -.162-.027.5.5 0 0 1 -.315-.639 1.664 1.664 0 0 1 2.106-1.039.653.653 0 0 0 .83-.408.5.5 0 1 1 .953.324 1.66 1.66 0 0 1 -2.107 1.038.654.654 0 0 0 -.829.409.5.5 0 0 1 -.476.342z" fill="#a46f3e" transform="translate(-22.506 -2.753)"/><path d="m22.382 11.069a3.029 3.029 0 0 0 -.937 2.7l.777 3.556.359-.215a2.1 2.1 0 0 1 2.158 0l.359.215a2.052 2.052 0 0 0 .567.233 36.265 36.265 0 0 1 2.035-5.623 3.322 3.322 0 0 0 -1.821-1.635l-.01-.006a.7.7 0 0 1 -.119-1.074.57.57 0 0 0 .126-.493l-.061-.278a.571.571 0 0 0 -.677-.434l-3.059.667a.571.571 0 0 0 -.434.677l.061.278a.565.565 0 0 0 .33.4.694.694 0 0 1 .409.934.778.778 0 0 1 -.063.098z" fill="#dae7ef" transform="translate(-13.594 -3.974)"/><path d="m25.428 9.286-3.462.756a.714.714 0 0 1 -.847-.543l-.05-.227a.714.714 0 0 1 .543-.847l3.462-.756a.714.714 0 0 1 .847.543l.05.227a.714.714 0 0 1 -.543.847z" fill="#fff" transform="translate(-13.431 -3.8)"/><path d="m26.5 25.167-.878 12.6a2.365 2.365 0 0 1 -2.362 2.244h-14.13a2.365 2.365 0 0 1 -2.362-2.244l-.857-12.187a.358.358 0 0 1 .542-.326l.677.406a2.455 2.455 0 0 0 2.527 0l.174-.1a2.1 2.1 0 0 1 2.158 0l.359.215a2.1 2.1 0 0 0 2.158 0l.359-.215a2.1 2.1 0 0 1 2.158 0l.359.215a2.1 2.1 0 0 0 2.158 0l.359-.215a2.1 2.1 0 0 1 2.158 0l.359.215a2.1 2.1 0 0 0 2.158 0l1.7-.757a.159.159 0 0 1 .226.149z" fill="#fbd490" transform="translate(-5.91 -12.417)"/><g fill="#e0b877"><path d="m13.936 41.007h-3.523a.5.5 0 0 1 0-1.007h3.523a.5.5 0 1 1 0 1.007z" transform="translate(-7.897 -19.867)"/><path d="m14.943 45.007h-4.53a.5.5 0 0 1 0-1.007h4.53a.5.5 0 0 1 0 1.007z" transform="translate(-7.897 -21.854)"/><path d="m15.95 49.007h-5.537a.5.5 0 0 1 0-1.007h5.537a.5.5 0 1 1 0 1.007z" transform="translate(-7.897 -23.841)"/><path d="m26.42 49.007h-1.007a.5.5 0 0 1 0-1.007h1.007a.5.5 0 1 1 0 1.007z" transform="translate(-15.347 -23.841)"/></g></svg>