<svg xmlns="http://www.w3.org/2000/svg" width="109.099" height="109.099" viewBox="0 0 109.099 109.099"><path d="M196.829,41.71a54.549,54.549,0,1,0,54.549,54.549A54.553,54.553,0,0,0,196.829,41.71Zm0,92.354a37.424,37.424,0,0,1-19.376-5.35l10.962-11.608a22.013,22.013,0,0,1-5.311-1.728,21.267,21.267,0,0,1-4.01-2.5l-9.282,9.841a37.8,37.8,0,0,1,51.831-54.938l-19.2,20.371a22.34,22.34,0,0,1,5.481,3.107,9.932,9.932,0,0,1,1.2,1.078,8.374,8.374,0,0,1,1.252,1.51l17.74-18.817a37.818,37.818,0,0,1-31.289,59.04Z" transform="translate(-142.28 -41.71)" fill="#1a1818"/><g transform="translate(35.95 20.371)"><path d="M179.477,78.139a11.629,11.629,0,0,0-1.034-.908,24.231,24.231,0,0,0-6.52-3.408c-.6-.214-1.248-.432-1.9-.646a30.267,30.267,0,0,1-5.307-1.986,7.035,7.035,0,0,1-2.461-1.811,4.1,4.1,0,0,1-.689-2.5,3.919,3.919,0,0,1,1.685-3.408,7.774,7.774,0,0,1,4.486-1.165,13.523,13.523,0,0,1,9.278,3.626l4.36-5.053a19.385,19.385,0,0,0-10.443-5.088V46.378h-6.777v9.365a14.7,14.7,0,0,0-8.588,3.884,10.609,10.609,0,0,0-3.234,7.894,10.658,10.658,0,0,0,2.933,7.772c1.942,1.938,5.093,3.622,9.5,5.049.087.039.214.083.345.127a28.477,28.477,0,0,1,5.049,1.9,7.243,7.243,0,0,1,1.51.995,3.435,3.435,0,0,1,.908,1.034,5.415,5.415,0,0,1,.689,2.893,4.954,4.954,0,0,1-1.986,4.229,8.439,8.439,0,0,1-5.307,1.554,13.8,13.8,0,0,1-4.272-.607,14.744,14.744,0,0,1-6.3-3.578c-.044,0-.087-.044-.131-.087l-1.292,1.379-3.456,3.714a19.608,19.608,0,0,0,5.4,3.84,22.74,22.74,0,0,0,8.239,2.073v9.579h6.777V99.457a14.763,14.763,0,0,0,8.545-4.486,11.9,11.9,0,0,0,3.107-8.287Q182.584,81.185,179.477,78.139Z" transform="translate(-150.518 -46.378)" fill="#1a1818"/></g></svg>