<svg height="28.229" viewBox="0 0 21.427 28.229" width="21.427" xmlns="http://www.w3.org/2000/svg"><path d="m22 44.913h1.947v3.1h-1.947z" fill="#f29c1f" fill-rule="evenodd" transform="translate(-11.768 -23.54)"/><path d="m21.79 18.419 1.363 1.363a.97.97 0 1 1 -1.372 1.372l-1.363-1.363-15.769-15.768-1.363-1.363a.97.97 0 1 1 1.372-1.373l1.363 1.363z" fill="#f29c1f" fill-rule="evenodd" transform="translate(-2.014 -.999)"/><circle cx="11.205" cy="10.222" fill="#81ccb8" r="9.247"/><g fill-rule="evenodd"><path d="m21.15 19.056a11.194 11.194 0 1 1 -15.692-15.641.977.977 0 0 1 1.276.092l.027.027a.911.911 0 0 1 -.118 1.426 9.247 9.247 0 1 0 12.941 12.94.94.94 0 0 1 1.421-.123l.057.057a.937.937 0 0 1 .088 1.222z" fill="#f0c419" transform="translate(-.977 -2.139)"/><path d="m15.787 54.893h6.946a.841.841 0 0 0 .251-1.645l-6.759-2.182a1.454 1.454 0 0 0 -.871 0l-6.764 2.183a.841.841 0 0 0 .251 1.645z" fill="#f0c419" transform="translate(-4.582 -26.665)"/><path d="m12.507 3.68c-.507 1.256-.998 2.52-1.507 3.772a3.319 3.319 0 0 1 -2.3 2.112 3.03 3.03 0 0 1 -2.325-.414 9.243 9.243 0 0 1 6.132-5.47z" fill="#24ae5f" transform="translate(-3.746 -2.375)"/><path d="m29.785 6.582c-.355.107-.715.2-1.08.292a18.8 18.8 0 0 0 -2.453.467c-1.037.384-1.494 1.548-2.506 2.005a1.788 1.788 0 0 1 -2.7-1.562 8.071 8.071 0 0 1 .894-2.884c.277-.633.574-1.256.861-1.888a9.238 9.238 0 0 1 6.225 2.706 8.411 8.411 0 0 1 .759.864z" fill="#24ae5f" transform="translate(-11.28 -2.031)"/><path d="m28.9 22.283a1.417 1.417 0 0 1 -1.776 1.47 2.242 2.242 0 0 0 -1.4-.151 6.336 6.336 0 0 1 -2.283.784 2.49 2.49 0 0 1 -2.068-.91c-.784-1.076.019-2.234.934-2.857a10.887 10.887 0 0 1 2.784-1.368 2.593 2.593 0 0 1 1.956.024 3.969 3.969 0 0 1 1.626 2.287 2.526 2.526 0 0 1 .224.72z" fill="#24ae5f" transform="translate(-11.285 -10.275)"/><path d="m16.58 32.382a9.236 9.236 0 0 1 -11.16-7.077c.964-.516 2.146-1.022 2.813-.1.711.983.608 2.317 1.684 3.076a6.891 6.891 0 0 0 2.458.672c1.071.287 2.618.355 3.241 1.431.321.569.307 1.343.788 1.825z" fill="#24ae5f" transform="translate(-3.258 -13.162)"/></g></svg>