<svg height="23.294" viewBox="0 0 27.801 23.294" width="27.801" xmlns="http://www.w3.org/2000/svg"><g transform="translate(0 -41.497)"><path d="m17.735 118.483-7.12-5.154-10.615 1.086v13.063l.814 1.629h26.172l.814-1.629v-6.278z" fill="#ffa64d" transform="translate(0 -67.932)"/><g fill="#ed8600"><path d="m250.458 153.114v13.618h13.387l.814-1.629v-6.28l-10.066-2.715z" transform="translate(-236.859 -105.556)"/><path d="m51.449 180.521a.814.814 0 0 0 -.814.814v.52a.814.814 0 1 0 1.629 0v-.52a.814.814 0 0 0 -.815-.814z" transform="translate(-47.886 -131.475)"/><path d="m111.623 272.834a.815.815 0 0 0 -.814.814v.52a.814.814 0 0 0 1.629 0v-.52a.815.815 0 0 0 -.815-.814z" transform="translate(-104.793 -218.775)"/><path d="m181.485 210.262a.815.815 0 0 0 -.814.814v.52a.814.814 0 0 0 1.629 0v-.52a.815.815 0 0 0 -.815-.814z" transform="translate(-170.861 -159.601)"/></g><path d="m251.814 296.291a.814.814 0 0 0 -.814.814v.52a.814.814 0 1 0 1.629 0v-.52a.814.814 0 0 0 -.815-.814z" fill="#d36705" transform="translate(-237.371 -240.959)"/><path d="m27.8 373.906h-27.8v4.431a.814.814 0 0 0 .814.814h26.172a.814.814 0 0 0 .814-.814z" fill="#ed8600" transform="translate(0 -314.36)"/><path d="m250.458 379.151h13.387a.814.814 0 0 0 .814-.814v-4.431h-14.2z" fill="#d36705" transform="translate(-236.859 -314.36)"/><path d="m17.735 53.266h2.506l.814-.543.814.543h5.931v-4.172a.814.814 0 0 0 -.814-.814h-2.334l-.7.543-.933-.543h-2.224l-3.795-3.915-.815.3-.785-1.946-.945-.974a.815.815 0 0 0 -.585-.247h-8.8l-.693.326-.934-.324h-2.629a.814.814 0 0 0 -.814.811v4.172h6.63l.814-.543.814.543h2.356l1.061 1.011.813-.312.813 1.86.294.28 2.046 1.949.814-.31.814 1.862z" fill="#b36b24"/><path d="m64.215 43.1a.814.814 0 0 0 .814-.814v-.786h-1.629v.79a.814.814 0 0 0 .815.81z" fill="#99481f" transform="translate(-59.958 -.001)"/><path d="m263.777 48.28h-2.334l-.7.543-.933-.543h-2.229l-3.8-3.915-.815.3-.782-1.947-.945-.974a.815.815 0 0 0 -.585-.247h-.274v7.826l2.046 1.949.814-.31.814 1.862.465.443h2.506l.814-.543.814.543h5.93v-4.173a.814.814 0 0 0 -.806-.814z" fill="#99481f" transform="translate(-236.79)"/><path d="m122.926 100.087a.814.814 0 0 0 -.814.814v.99h1.629v-.99a.814.814 0 0 0 -.815-.814z" fill="#99481f" transform="translate(-115.482 -55.409)"/><path d="m181.485 61.186a.815.815 0 0 0 -.814.814v1.006a.814.814 0 0 0 1.629 0v-1.006a.814.814 0 0 0 -.815-.814z" fill="#99481f" transform="translate(-170.861 -18.62)"/><path d="m424.833 168.118a.814.814 0 0 0 .814-.814v-.889h-1.629v.889a.814.814 0 0 0 .815.814z" fill="#662828" transform="translate(-400.995 -118.134)"/><path d="m373.6 226.875a.814.814 0 0 0 -.814.814v.889h1.629v-.889a.815.815 0 0 0 -.815-.814z" fill="#662828" transform="translate(-352.544 -175.312)"/><path d="m288.88 203.033a.815.815 0 0 0 -.814.814v.189l1.629 1.552v-1.741a.815.815 0 0 0 -.815-.814z" fill="#662828" transform="translate(-272.424 -152.765)"/><path d="m283.066 65.669a.814.814 0 1 0 1.629 0v-.551l-1.626-1.677v.062z" fill="#662828" transform="translate(-267.696 -20.753)"/><path d="m216.662 134.156a.814.814 0 1 0 -1.629 0v.2l1.629 1.544z" fill="#99481f" transform="translate(-203.357 -86.858)"/></g></svg>