<svg height="27.526" viewBox="0 0 26.824 27.526" width="26.824" xmlns="http://www.w3.org/2000/svg"><path d="m18.956 73.643-.024-.022a5.084 5.084 0 0 0 -4.781-1.155 24.836 24.836 0 0 1 -6.574.886h-.737a.5.5 0 0 0 -.355.858l.583.583a2.236 2.236 0 0 0 1.581.655h.534a2.236 2.236 0 0 1 1.581.655 2.236 2.236 0 0 0 1.581.655h1.087a2.236 2.236 0 0 1 1.581.655l.306.306a2.236 2.236 0 0 0 1.581.655h2.057z" fill="#62a4fb" transform="translate(-6.337 -68.282)"/><path d="m111.523 157.776c.256-.085.382-.319.629-.493l-.1-.031q-2.722-.834-5.408-1.779a1.74 1.74 0 0 1 -.725-.4.916.916 0 0 1 .389-1.427 3 3 0 0 1 1.4.21 1.666 1.666 0 0 0 1.165-.166 1.169 1.169 0 0 0 .59-.986 1.331 1.331 0 0 0 -1.147-1.172 3.2 3.2 0 0 0 -1.729.3c-.336.136-.665.231-.988.4a2.591 2.591 0 0 0 -.766.579 2.524 2.524 0 0 0 -.684 1.7 2.453 2.453 0 0 0 .823 1.8 4.889 4.889 0 0 0 1.774.853q1.544.5 3.085 1.011c.74.167 1.159-.223 1.692-.399z" fill="#a2f5c3" transform="translate(-98.731 -143.115)"/><path d="m262.81 73.643.024-.022a5.084 5.084 0 0 1 4.781-1.155 24.835 24.835 0 0 0 6.574.886h.737a.5.5 0 0 1 .355.858l-.583.583a2.236 2.236 0 0 1 -1.581.655h-.534a2.236 2.236 0 0 0 -1.583.652 2.236 2.236 0 0 1 -1.581.655h-1.087a2.236 2.236 0 0 0 -1.581.655l-.306.306a2.236 2.236 0 0 1 -1.581.655h-2.054z" fill="#62a4fb" transform="translate(-248.605 -68.282)"/><path d="m274.927 91.261h-.737q-.457 0-.913-.017l-.24.239a2.236 2.236 0 0 1 -1.581.655h-.534a2.236 2.236 0 0 0 -1.581.655 2.236 2.236 0 0 1 -1.581.655h-1.087a2.236 2.236 0 0 0 -1.581.655l-.306.306a2.236 2.236 0 0 1 -1.581.655h-.4v1.218h2.057a2.236 2.236 0 0 0 1.581-.655l.306-.306a2.236 2.236 0 0 1 1.581-.655h1.087a2.236 2.236 0 0 0 1.583-.654 2.236 2.236 0 0 1 1.581-.655h.534a2.236 2.236 0 0 0 1.585-.657l.583-.583a.5.5 0 0 0 -.356-.856z" fill="#5392f9" transform="translate(-248.606 -86.19)"/><path d="m241.845 376.847a6.878 6.878 0 0 0 -1.332-1.025h-.21c-.3.11-.6.235-.893.37q-.2.093-.4.193l-.131.067-.131.069c.4.187.792.373 1.174.585a3.244 3.244 0 0 1 1.518 1.462 2.769 2.769 0 0 1 .071 1.665.331.331 0 0 0 .517.339 2.03 2.03 0 0 0 .783-1.488 3.083 3.083 0 0 0 -.966-2.237z" fill="#bed9fd" transform="translate(-225.872 -355.007)"/><path d="m219.391 1.814a1.813 1.813 0 1 0 -2.612 1.628v23.288a.8.8 0 0 0 1.592 0v-23.285a1.814 1.814 0 0 0 1.02-1.631z" fill="#bed9fd" transform="translate(-204.166)"/><path d="m225.43 0a1.8 1.8 0 0 0 -.831.2 1.813 1.813 0 0 1 0 3.223l.032.017v16.19l-.554.592.554.79v5.718a.8.8 0 0 0 1.592 0v-10.621l.554-.715-.554-1.2v-10.749a1.814 1.814 0 0 0 -.793-3.445z" fill="#9ec8fc" transform="translate(-212.018)"/><path d="m191.362 153.893a2.515 2.515 0 0 0 -1.792-1.9 5.633 5.633 0 0 1 -.586-.15c-.2-.077-.381-.2-.576-.293a1.929 1.929 0 0 0 -1.094-.163 1.365 1.365 0 0 0 -1.222 1.19 1.218 1.218 0 0 0 .726 1.077 1.882 1.882 0 0 0 1.343.042 2.476 2.476 0 0 1 .9-.217.889.889 0 0 1 .765.647.959.959 0 0 1 -.316.96 1.959 1.959 0 0 1 -.65.309l-6.139 2.031a6.087 6.087 0 0 0 -1.941.909 3.167 3.167 0 0 0 -1.111 2.77 3.4 3.4 0 0 0 1.687 2.548 10.57 10.57 0 0 0 1.318.723v-1.76l-.23-.133a3.2 3.2 0 0 1 -.9-.674 1.652 1.652 0 0 1 .07-2.116 3.215 3.215 0 0 1 1.383-.725l1.268-.418.755.305.694-.783 3.262-1.075a4.931 4.931 0 0 0 1.449-.659 2.515 2.515 0 0 0 .937-2.445z" fill="#bed9fd" transform="translate(-170.06 -142.98)"/><path d="m190.9 273.483a2.95 2.95 0 0 0 -1.086-1.055c-.724.239-.755.251-1.449.477v.543a2.643 2.643 0 0 1 .882.47 1.591 1.591 0 0 1 .385 1.811 2.46 2.46 0 0 1 -.783.877 16.853 16.853 0 0 1 -2.075 1.235 7.189 7.189 0 0 0 -1.938 1.424 3 3 0 0 0 -.828 2.2 2.055 2.055 0 0 0 .757 1.41.331.331 0 0 0 .53-.326 2.848 2.848 0 0 1 .059-1.679 3.318 3.318 0 0 1 1.658-1.5c1.419-.74 3.051-1.349 3.864-2.728a3.153 3.153 0 0 0 .3-.673 3.045 3.045 0 0 0 -.276-2.486z" fill="#a2f5c3" transform="translate(-174.156 -257.34)"/></svg>