<svg xmlns="http://www.w3.org/2000/svg" width="38" height="19.071" viewBox="0 0 38 19.071"><g transform="translate(-0.11 -16.04)"><path d="M28.551,16.04a9.5,9.5,0,0,0-7.28,3.325l-1.41,1.624,3.146,3.634,1.856-2.141A4.818,4.818,0,0,1,28.551,20.8a4.735,4.735,0,1,1,0,9.469,4.8,4.8,0,0,1-3.676-1.678c-6.891-7.957-3.617-4.163-7.994-9.231a9.5,9.5,0,1,0,0,12.341l1.41-1.624-3.146-3.634L13.29,28.583A4.818,4.818,0,0,1,9.6,30.266a4.735,4.735,0,1,1,0-9.469,4.8,4.8,0,0,1,3.676,1.678c6.891,7.957,3.617,4.163,7.994,9.231a9.535,9.535,0,1,0,7.28-15.666Z" transform="translate(0)" fill="#165e6f"/></g></svg>