<svg height="23.328" viewBox="0 0 31.063 23.328" width="31.063" xmlns="http://www.w3.org/2000/svg"><path d="m64.78 232.086a13.591 13.591 0 0 0 -1.606 6.423 11.939 11.939 0 0 0 -1.02 3.8.426.426 0 0 1 -.726.253 15.5 15.5 0 0 0 -4.275-2.849c-3.734-1.765-4.974-4.232-4.683-6.557a7.292 7.292 0 0 1 1.606-3.211l10.7-.535z" fill="#ffdc50" transform="translate(-49.248 -219.359)"/><path d="m.446 64.024a.59.59 0 0 0 -.437.689c.379 2.051 1.757 9.215 2.577 9.625 1.07.535 9.2.535 12.945-.535v-2.142s-5.887-9.634-15.085-7.637z" fill="#ffdc50" transform="translate(.001 -63.751)"/><path d="m7.932 116.326c.069.34.142.7.22 1.058 2.34-.279 8.753-.664 13.9 2.558a29.638 29.638 0 0 0 -13.045 1.058c.1.374.2.722.3 1.035a28.716 28.716 0 0 1 13.671-.84v-.349a19.383 19.383 0 0 0 -2.239-2.826 24.439 24.439 0 0 0 -12.807-1.694z" fill="#ffbe46" transform="translate(-7.45 -112.937)"/><path d="m54.081 231.073a7.291 7.291 0 0 0 -1.606 3.211 5.044 5.044 0 0 0 .605 3.108 29.529 29.529 0 0 1 10.25-6.782z" fill="#ffbe46" transform="translate(-49.253 -220.486)"/><path d="m256 232.086a13.591 13.591 0 0 1 1.606 6.423 11.938 11.938 0 0 1 1.02 3.8.426.426 0 0 0 .726.253 15.5 15.5 0 0 1 4.275-2.849c3.734-1.765 4.974-4.232 4.683-6.557a7.292 7.292 0 0 0 -1.606-3.211l-10.704-.535z" fill="#ffdc50" transform="translate(-240.468 -219.359)"/><path d="m271.084 64.024a.59.59 0 0 1 .437.689c-.379 2.051-1.757 9.215-2.577 9.625-1.07.535-9.2.535-12.945-.535v-2.142s5.888-9.634 15.085-7.637z" fill="#ffdc50" transform="translate(-240.467 -63.751)"/><path d="m271.05 116.326c-.069.34-.142.7-.22 1.058-2.34-.279-8.753-.664-13.9 2.558a29.638 29.638 0 0 1 13.045 1.058c-.1.374-.2.722-.3 1.035a28.716 28.716 0 0 0 -13.675-.835v-.349a19.378 19.378 0 0 1 2.239-2.826 24.439 24.439 0 0 1 12.811-1.699z" fill="#ffbe46" transform="translate(-240.467 -112.937)"/><path d="m289.225 231.073a7.291 7.291 0 0 1 1.606 3.211 5.044 5.044 0 0 1 -.605 3.108 29.528 29.528 0 0 0 -10.25-6.782z" fill="#ffbe46" transform="translate(-262.988 -220.486)"/><path d="m202.139 89.735a.267.267 0 0 1 -.256-.191 11.549 11.549 0 0 0 -3.127-5.224.268.268 0 0 1 .343-.411 11.6 11.6 0 0 1 3.04 4.709 11.6 11.6 0 0 1 3.04-4.709.268.268 0 1 1 .343.411 11.6 11.6 0 0 0 -3.127 5.224.267.267 0 0 1 -.256.191z" fill="#b49f77" transform="translate(-186.607 -82.628)"/><path d="m247.713 178.364a.535.535 0 0 1 -.535-.535v-9.634a.535.535 0 0 1 1.07 0v9.634a.535.535 0 0 1 -.535.535z" fill="#a58c69" transform="translate(-232.181 -161.355)"/><path d="m239.426 190.653a1.07 1.07 0 0 1 -1.07-1.07v-3.211a1.07 1.07 0 0 1 1.07-1.07 1.07 1.07 0 0 1 1.07 1.07v3.211a1.07 1.07 0 0 1 -1.07 1.07z" fill="#b49f77" transform="translate(-223.894 -177.926)"/></svg>