<svg xmlns="http://www.w3.org/2000/svg" width="19.826" height="19" viewBox="0 0 19.826 19"><g transform="translate(0 -10.667)"><g transform="translate(0 18.928)"><path d="M2.065,224A2.068,2.068,0,0,0,0,226.065v6.609a2.068,2.068,0,0,0,2.065,2.065H4.543a2.05,2.05,0,0,0,1.239-.418V224Z" transform="translate(0 -224)" fill="#087a91"/></g><g transform="translate(6.609 10.667)"><g transform="translate(0 0)"><path d="M183.884,22.026a1.832,1.832,0,0,0-.538-1.3,2.051,2.051,0,0,0,.529-1.577,2.135,2.135,0,0,0-2.154-1.873h-5.1a11.877,11.877,0,0,0,.658-3.3c0-1.792-1.522-3.3-2.478-3.3a2.6,2.6,0,0,0-1.5.5.415.415,0,0,0-.154.323v2.8l-2.379,5.154-.1.05v8.854a5.412,5.412,0,0,0,2.065.488h7.583a1.9,1.9,0,0,0,1.872-1.443,1.858,1.858,0,0,0-.15-1.241,1.85,1.85,0,0,0,.827-2.479A1.849,1.849,0,0,0,183.884,22.026Z" transform="translate(-170.667 -10.667)" fill="#087a91"/></g></g></g></svg>