<?xml version="1.0" encoding="UTF-8"?>
<svg width="20" height="20" version="1.1" viewBox="0 0 20 20" xmlns="http://www.w3.org/2000/svg"><path d="m18.623 1.3773a4.703 4.7029 0 0 0-6.6508 0l-3.9305 3.9304a4.7471 4.747 0 0 0 0 6.6507 4.4756 4.4755 0 0 0 0.94573 0.71722l0.71724-0.71722a1.6148 1.6148 0 0 0 0.29612-1.418 2.2706 2.2705 0 0 1-0.29612-0.24488 2.3761 2.376 0 0 1 0-3.3248l3.9305-3.9304a2.3515 2.3515 0 0 1 3.3249 3.3248l-2.5985 2.5984a6.7687 6.7685 0 0 1 0.29407 3.0246c0.01127-0.01127 0.02459-0.01844 0.03586-0.02971l3.9305-3.9304a4.703 4.7029 0 0 0 1e-3 -6.6507z" fill="#087a91" stroke-width=".98791"/><path d="m12.199 7.8016a4.4766 4.4765 0 0 0-0.94573-0.71722l-0.71724 0.71722a1.6148 1.6148 0 0 0-0.29612 1.417 2.2654 2.2654 0 0 1 0.29612 0.24488 2.3761 2.376 0 0 1 0 3.3248l-4.2348 4.2347a2.3515 2.3515 0 0 1-3.3249-3.3248l2.9017-2.9006a6.7625 6.7624 0 0 1-0.29407-3.0246c-0.011271 0.011271-0.024591 0.018443-0.035862 0.029713l-4.2348 4.2347a4.703 4.7029 0 0 0 6.6498 6.6497l4.2348-4.2347a4.745 4.7449 0 0 0 1e-3 -6.6507z" fill="#087a91" stroke-width=".98791"/></svg>
