<svg height="22.404" viewBox="0 0 21.228 22.404" width="21.228" xmlns="http://www.w3.org/2000/svg"><path d="m32.861 22.4h-17.612a1.808 1.808 0 0 1 -1.279-3.087l8.116-8.113-8.115-8.113a1.808 1.808 0 0 1 1.278-3.087h17.612a1.808 1.808 0 0 1 1.808 1.808v3.269a1.808 1.808 0 1 1 -3.616 0v-1.461h-11.438l6.307 6.307a1.808 1.808 0 0 1 0 2.557l-6.307 6.307h11.438v-1.46a1.808 1.808 0 1 1 3.616 0v3.273a1.808 1.808 0 0 1 -1.808 1.8z" fill="#95d6a4" transform="translate(-13.441)"/><g fill="#78c2a4"><path d="m415.916 356.453v1.461h1.821v-1.461a1.807 1.807 0 0 1 .9-1.562 1.808 1.808 0 0 0 -2.719 1.562z" transform="translate(-398.304 -339.126)"/><path d="m15.4 21.288a1.808 1.808 0 0 1 .392-1.971l8.114-8.117-8.115-8.113a1.808 1.808 0 0 1 1.278-3.087h-1.821a1.808 1.808 0 0 0 -1.278 3.087l8.115 8.113-8.115 8.118a1.808 1.808 0 0 0 1.278 3.082h1.821a1.808 1.808 0 0 1 -1.669-1.112z" transform="translate(-13.44)"/><path d="m415.916 82.644v1.461a1.808 1.808 0 0 0 2.719 1.562 1.807 1.807 0 0 1 -.9-1.562v-1.461z" transform="translate(-398.304 -79.028)"/></g></svg>