<?xml version="1.0" encoding="UTF-8"?>
<svg width="19.928" height="20" version="1.1" viewBox="0 0 19.928 20" xmlns="http://www.w3.org/2000/svg"><path transform="translate(-.374 .002)" d="M20.121,4.008,17.658,6.471H14.805l-.45.45L12.643,8.633,11.576,9.7l-.9.9a.691.691,0,0,1-.992-.015A.71.71,0,0,1,9.718,9.6L11.512,7.81l.137-.137h0l1.719-1.719h0l.459-.459V2.641l.851-.851h0L16.291.178a.642.642,0,0,1,.067-.057l.016-.012a.62.62,0,0,1,.07-.044l.006,0a.606.606,0,0,1,.069-.029l.018-.006a.592.592,0,0,1,.075-.019l.011,0A.606.606,0,0,1,16.69,0h.018a.623.623,0,0,1,.076,0L16.8,0a.612.612,0,0,1,.065.012l.018,0a.637.637,0,0,1,.072.023l.01,0a.624.624,0,0,1,.06.029l.017.009A.64.64,0,0,1,17.1.126l.007.006a.62.62,0,0,1,.051.046l.014.014a.609.609,0,0,1,.05.059l0,.005a.6.6,0,0,1,.038.062l.009.018A.589.589,0,0,1,17.3.409v0a.6.6,0,0,1,.02.077l0,.021A.657.657,0,0,1,17.338.6l.049,2.313h.049l2.263.048a.627.627,0,0,1,.414.171.619.619,0,0,1,.1.136.635.635,0,0,1,.064.159A.6.6,0,0,1,20.121,4.008Zm-10.057.829a5.476,5.476,0,1,0,5.049,3.37l-1.977,1.977c0,.041,0,.082,0,.123a3.077,3.077,0,1,1-3.095-3.076l2.015-2.015A5.435,5.435,0,0,0,10.064,4.837ZM18.68,7.493a1.446,1.446,0,0,1-1.022.423H16.552a6.923,6.923,0,1,1-4.17-4.123V2.641a1.446,1.446,0,0,1,.423-1.022l.457-.457A9.692,9.692,0,1,0,19.172,7Z"/></svg>
