<svg height="22.888" viewBox="0 0 22.888 22.888" width="22.888" xmlns="http://www.w3.org/2000/svg"><path d="m0 0h1.341v26.316h-1.341z" fill="#480306" transform="matrix(-.70710678 -.70710678 .70710678 -.70710678 .948 22.888)"/><path d="m49.831 97.123a3.343 3.343 0 0 1 -.983-2.369v-5.954a4.253 4.253 0 0 1 3.622-4.2 4.252 4.252 0 0 1 3.577-3.577l8.1 8.1z" fill="#f9963b" transform="translate(-46.665 -77.402)"/><path d="m218.49 8.676-8.627 4.834v-9.885a4.248 4.248 0 0 1 6.73-2.787 4.248 4.248 0 0 1 5.532.41z" fill="#fcba66" transform="translate(-200.482 -.003)"/><path d="m83.368 276.526a4.253 4.253 0 0 1 -4.2 3.622h-5.953a3.342 3.342 0 0 1 -2.369-.983l7.58-7.58z" fill="#c7461f" transform="translate(-67.679 -259.443)"/><path d="m143.335 196.531a4.257 4.257 0 0 1 -3.576 3.576h-9.883l8.518-8.518z" fill="#d95d27" transform="translate(-124.07 -183.024)"/><path d="m222.125 93.628a4.216 4.216 0 0 1 -2.378 1.2h-9.884l9.7-9.7 2.971 2.971a4.249 4.249 0 0 1 -.41 5.532z" fill="#eb7330" transform="translate(-200.482 -81.32)"/><path d="m366.361 33.367h-5.941l5.532-5.532a4.247 4.247 0 0 1 .41 5.532z" fill="#f9963b" transform="translate(-344.309 -26.591)"/></svg>