<svg height="21.043" viewBox="0 0 31.907 21.043" width="31.907" xmlns="http://www.w3.org/2000/svg"><g transform="translate(-.001)"><g fill="#efa66f"><path d="m238.086 171.016a.482.482 0 0 1 -.46-.624.749.749 0 0 0 -.2-.729.482.482 0 1 1 .638-.722 1.7 1.7 0 0 1 .486 1.736.482.482 0 0 1 -.464.339zm0 0" transform="translate(-222.472 -158.3)"/><path d="m278.259 171.015a.482.482 0 0 1 -.46-.624.749.749 0 0 0 -.2-.729.482.482 0 1 1 .638-.722 1.7 1.7 0 0 1 .486 1.736.482.482 0 0 1 -.464.339zm0 0" transform="translate(-260.142 -158.298)"/><path d="m319.091 171.015a.482.482 0 0 1 -.46-.624.749.749 0 0 0 -.2-.729.482.482 0 1 1 .638-.722 1.7 1.7 0 0 1 .486 1.736.482.482 0 0 1 -.464.339zm0 0" transform="translate(-298.429 -158.298)"/><path d="m360.216 168.967a.487.487 0 0 1 -.143-.022.482.482 0 0 1 -.317-.6.749.749 0 0 0 -.2-.729.482.482 0 1 1 .638-.722 1.7 1.7 0 0 1 .486 1.736.482.482 0 0 1 -.464.337zm0 0" transform="translate(-336.991 -156.378)"/><path d="m447.911 154.33a.482.482 0 0 1 -.46-.624.748.748 0 0 0 -.2-.729.482.482 0 0 1 .638-.722 1.7 1.7 0 0 1 .486 1.736.482.482 0 0 1 -.464.339zm0 0" transform="translate(-419.221 -142.654)"/><path d="m405.555 164.6a.482.482 0 0 1 -.46-.624.748.748 0 0 0 -.2-.729.482.482 0 0 1 .638-.722 1.7 1.7 0 0 1 .486 1.736.482.482 0 0 1 -.464.339zm0 0" transform="translate(-379.505 -152.283)"/><path d="m427.032 221.526a.482.482 0 0 1 -.091-.77.748.748 0 0 0 .184-.734.482.482 0 1 1 .912-.311 1.7 1.7 0 0 1 -.437 1.749.481.481 0 0 1 -.568.066zm0 0" transform="translate(-400.19 -205.713)"/><path d="m382.456 224.093a.482.482 0 0 1 -.091-.77.749.749 0 0 0 .184-.734.482.482 0 1 1 .911-.311 1.7 1.7 0 0 1 -.437 1.749.482.482 0 0 1 -.567.066zm0 0" transform="translate(-358.392 -208.119)"/><path d="m340.567 225.136a.476.476 0 0 1 -.113-.09.481.481 0 0 1 .023-.681.748.748 0 0 0 .184-.734.482.482 0 1 1 .912-.311 1.7 1.7 0 0 1 -.437 1.749.481.481 0 0 1 -.569.067zm0 0" transform="translate(-319.114 -209.097)"/><path d="m299.518 222.811a.488.488 0 0 1 -.113-.09.482.482 0 0 1 .023-.681.748.748 0 0 0 .184-.734.482.482 0 0 1 .912-.311 1.7 1.7 0 0 1 -.437 1.749.482.482 0 0 1 -.569.067zm0 0" transform="translate(-280.623 -206.917)"/><path d="m259.345 216.154a.482.482 0 0 1 -.091-.77.749.749 0 0 0 .184-.734.482.482 0 0 1 .912-.311 1.7 1.7 0 0 1 -.437 1.749.482.482 0 0 1 -.568.066zm0 0" transform="translate(-242.953 -200.674)"/></g><path d="m38.519 224.469a5.2 5.2 0 0 1 -2.843 3.452.648.648 0 0 1 -.614-.034l-1.2-.744a.338.338 0 0 0 -.515.265l-.046.7a.321.321 0 0 1 -.32.3h-6.566l-4.606 1.247a10.94 10.94 0 0 1 -11.994-4.535 1.444 1.444 0 0 1 1.209-2.236h10.323a5.173 5.173 0 0 1 2.169.471c1.152.534 3.039 1.168 7.6 1.168a37.614 37.614 0 0 0 6.907-.568.419.419 0 0 1 .496.514zm0 0" fill="#f4bc8e" transform="translate(-8.978 -208.996)"/><path d="m28 224.493a1.373 1.373 0 0 1 -1.768.243l-1.127-.7a5.851 5.851 0 0 1 -3.757 1.092h-.012a5.773 5.773 0 0 1 -4.254-1.862 1.424 1.424 0 0 1 .981-.382h10.217l.059.541a1.355 1.355 0 0 1 -.339 1.068zm0 0" fill="#efa66f" transform="translate(-16.017 -208.996)"/><path d="m14.234 11.131c-2.006 0-2.809.83-2.809 2.181l.132 1.2a.6.6 0 0 1 -.93.573l-1.444-.894a.327.327 0 0 0 -.465.091c-.374.619-1.74 1.079-3.386 1.079a5.005 5.005 0 0 1 -1.481-.219c-3-.919-4.576-4.453-3.521-7.893a6.351 6.351 0 0 1 6.26-4.765 1.288 1.288 0 0 0 .65-.121 4.205 4.205 0 0 1 .655-.245.476.476 0 0 0 .293-.685.96.96 0 0 1 .922-1.433l15.356 1.315a8.67 8.67 0 0 1 7.407 5.775.636.636 0 0 1 .029.3c-.289 2.084-5.76 3.746-12.466 3.746zm0 0" fill="#fbdbb7"/><path d="m194.464 42.336a2.181 2.181 0 0 1 -.282 2.742 3.614 3.614 0 0 1 -4.768.344 2.993 2.993 0 0 1 -1.074-1.7 4.407 4.407 0 0 0 -1.65-2.5.4.4 0 0 1 0-.642 5.327 5.327 0 0 1 4.607-.467 5.808 5.808 0 0 1 3.167 2.223zm0 0" fill="#f4bc8e" transform="translate(-174.906 -37.326)"/><path d="m194.384 51.08a2.077 2.077 0 0 1 -.206.24 3.614 3.614 0 0 1 -4.768.344 3 3 0 0 1 -1.073-1.7 4.407 4.407 0 0 0 -1.65-2.5.4.4 0 0 1 0-.642 3.477 3.477 0 0 1 .608-.354.392.392 0 0 0 .158.29 4.4 4.4 0 0 1 1.65 2.5 2.993 2.993 0 0 0 1.073 1.7 3.609 3.609 0 0 0 4.2.123zm0 0" fill="#efa66f" transform="translate(-174.902 -43.569)"/><path d="m365.251 56.171c-.6.836-2.093 1.072-3.56.506a3.333 3.333 0 0 1 -2.3-2.462 3.426 3.426 0 0 1 3.52-.319 3.672 3.672 0 0 1 2.34 2.275zm0 0" fill="#f4bc8e" transform="translate(-336.989 -50.236)"/><path d="m365.2 58.485c-.625.791-2.084 1-3.518.45a3.334 3.334 0 0 1 -2.3-2.462 2.124 2.124 0 0 1 .844-.489 3.4 3.4 0 0 0 2.294 2.373 3.889 3.889 0 0 0 2.68.128zm0 0" fill="#efa66f" transform="translate(-336.986 -52.495)"/><path d="m105.364 77.3a1.814 1.814 0 1 0 .417 2.878 2.1 2.1 0 0 0 -.417-2.878zm0 0" fill="#f4bc8e" transform="translate(-95.715 -71.707)"/><path d="m105.756 80.224a2.436 2.436 0 0 1 -3.272-3.317 1.451 1.451 0 0 1 .986-.407l-.023.022a2.1 2.1 0 0 0 .418 2.877 2.619 2.619 0 0 0 1.891.825zm0 0" fill="#efa66f" transform="translate(-95.713 -71.732)"/><path d="m106.091 285.163-.6 1.338.481 1.267a10.837 10.837 0 0 1 -1.081-.135l-.3-.794-1.059-.476a.481.481 0 1 1 .394-.879l.8.361.485-1.079a.481.481 0 1 1 .878.395zm0 0" fill="#efa66f" transform="translate(-96.81 -266.755)"/><path d="m168.6 303.311a.482.482 0 0 1 0-.963.482.482 0 1 1 0 .963zm0 0" fill="#efa66f" transform="translate(-157.643 -283.505)"/><path d="m68.467 162.068a.482.482 0 0 1 0-.963.482.482 0 0 1 0 .963zm0 0" fill="#f4bc8e" transform="translate(-63.747 -151.065)"/></g></svg>