<svg height="25.798" viewBox="0 0 25.916 25.798" width="25.916" xmlns="http://www.w3.org/2000/svg"><circle cx="21.646" cy="2.443" fill="#91deb6" r="2.443"/><path d="m393.737 8.892a2.443 2.443 0 0 1 -4.381 1.488 2.444 2.444 0 0 0 3.077-3.651 2.442 2.442 0 0 1 1.304 2.163z" fill="#6ed5a1" transform="translate(-369.648 -6.449)"/><circle cx="5.023" cy="12.147" fill="#fe9738" r="3.197"/><path d="m57.051 189.448a3.2 3.2 0 0 1 -5.616 2.089 3.2 3.2 0 0 0 4.038-4.845 3.193 3.193 0 0 1 1.578 2.756z" fill="#fe860a" transform="translate(-48.832 -177.302)"/><g fill="#9facba"><path d="m403.815 124.5a.389.389 0 0 1 -.389-.389v-2.311a.389.389 0 0 1 .779 0v2.305a.389.389 0 0 1 -.39.395z" transform="translate(-383.006 -115.327)"/><path d="m436.859 123.007a.389.389 0 0 1 -.389-.389v-.818a.389.389 0 1 1 .779 0v.814a.389.389 0 0 1 -.39.393z" transform="translate(-414.377 -115.328)"/><path d="m25.28 193.094-24.151 7.02a.882.882 0 0 1 -.493-1.694l24.151-7.02a.882.882 0 1 1 .493 1.694z" transform="translate(0 -181.737)"/></g><path d="m471.736 192.244a.883.883 0 0 1 -.637.847l-.89.259a.9.9 0 0 0 -.62-1.657l1.018-.3a.883.883 0 0 1 1.129.848z" fill="#8d9ca8" transform="translate(-445.82 -181.734)"/><path d="m137.02 291.348-5.792 10.069a.527.527 0 0 0 .457.789h11.583a.527.527 0 0 0 .457-.789l-5.792-10.069a.527.527 0 0 0 -.913 0z" fill="#596c76" transform="translate(-124.519 -276.409)"/><path d="m250.715 302.206h-.389a.52.52 0 0 0 -.055-.393l-5.792-10.069a.528.528 0 0 0 -.146-.164l.134-.233a.527.527 0 0 1 .913 0l5.792 10.07a.527.527 0 0 1 -.457.789z" fill="#465a61" transform="translate(-231.966 -276.408)"/><circle cx="12.958" cy="14.145" fill="#d9e7ec" r="1.72"/><path d="m229.2 251.406a1.72 1.72 0 0 1 -3.24.8 1.721 1.721 0 0 0 2.25-2.363 1.719 1.719 0 0 1 .991 1.558z" fill="#c5d3dd" transform="translate(-214.522 -237.26)"/></svg>