<svg height="28" viewBox="0 0 23.625 28" width="23.625" xmlns="http://www.w3.org/2000/svg"><path d="m19.414 84.719h-18.594a.82.82 0 0 1 -.82-.819v-23.08a.82.82 0 0 1 .82-.82h18.594a.82.82 0 0 1 .82.82v23.08a.82.82 0 0 1 -.82.819z" fill="#e2dff4" transform="translate(0 -56.719)"/><path d="m194.3 60h-9.3v24.719h9.3a.82.82 0 0 0 .82-.82v-23.079a.82.82 0 0 0 -.82-.82z" fill="#bebcdd" transform="translate(-174.883 -56.719)"/><path d="m81.414 24.719h-18.594a.82.82 0 0 1 -.82-.819v-23.08a.82.82 0 0 1 .82-.82h18.594a.82.82 0 0 1 .82.82v23.08a.82.82 0 0 1 -.82.819z" fill="#f1f1f4" transform="translate(-58.609)"/><path d="m256.3 0h-9.3v24.719h9.3a.82.82 0 0 0 .82-.82v-23.079a.82.82 0 0 0 -.82-.82z" fill="#e2dff4" transform="translate(-233.492)"/><path d="m126.1 66.922h-3.28a.82.82 0 0 1 -.82-.82v-3.282a.82.82 0 0 1 .82-.82h3.28a.82.82 0 0 1 .82.82v3.28a.82.82 0 0 1 -.82.822z" fill="#999fed" transform="translate(-115.328 -58.609)"/><path d="m126.1 186.922h-3.28a.82.82 0 0 1 -.82-.82v-3.282a.82.82 0 0 1 .82-.82h3.28a.82.82 0 0 1 .82.82v3.28a.82.82 0 0 1 -.82.822z" fill="#999fed" transform="translate(-115.328 -172.047)"/><path d="m126.1 306.922h-3.28a.82.82 0 0 1 -.82-.82v-3.282a.82.82 0 0 1 .82-.82h3.28a.82.82 0 0 1 .82.82v3.28a.82.82 0 0 1 -.82.822z" fill="#999fed" transform="translate(-115.328 -285.484)"/><g fill="#453d83"><path d="m250.828 123.641h-3.008a.82.82 0 0 1 0-1.641h3.008a.82.82 0 0 1 0 1.641z" transform="translate(-233.492 -115.328)"/><path d="m253.016 63.641h-5.2a.82.82 0 0 1 0-1.641h5.2a.82.82 0 0 1 0 1.641z" transform="translate(-233.492 -58.609)"/><path d="m251.922 243.641h-4.1a.82.82 0 0 1 0-1.641h4.1a.82.82 0 0 1 0 1.641z" transform="translate(-233.492 -228.765)"/><path d="m253.016 183.641h-5.2a.82.82 0 0 1 0-1.641h5.2a.82.82 0 0 1 0 1.641z" transform="translate(-233.492 -172.047)"/><path d="m252.4 363.641h-4.58a.82.82 0 0 1 0-1.641h4.58a.82.82 0 1 1 0 1.641z" transform="translate(-233.492 -342.203)"/><path d="m251.922 303.641h-4.1a.82.82 0 0 1 0-1.641h4.1a.82.82 0 0 1 0 1.641z" transform="translate(-233.492 -285.484)"/></g></svg>