<svg xmlns="http://www.w3.org/2000/svg" width="32" height="32" viewBox="0 0 32 32"><g transform="translate(-1406 -285)"><circle cx="16" cy="16" r="16" transform="translate(1406 285)" fill="#fff"/><path d="M16,0h.583a16.047,16.047,0,0,1,2.388.265l.011,0h0L18.8,1.26A15.135,15.135,0,0,0,16,1V0Zm5.861,1.108h0l.01,0h0l.01,0h0l.009,0h0l.009,0h0l.009,0h0l.009,0h0l.009,0h0l.008,0h0l.009,0h0l.008,0h0l.008,0h0l.008,0h0l.008,0h0l.008,0h0l.008,0,.01,0,.011,0h0l.008,0h0l.008,0h0l.008,0h0l.008,0h0l.008,0h0l.007,0h0l.007,0,0,0,.007,0h0l.008,0,0,0,.007,0,.01,0,.011,0,.011,0,.011,0,.011,0,.011,0,.011,0,.011,0,.011,0,.011,0,.011,0,.011,0,.01,0,.009,0,.007,0,0,0,.007,0,0,0,.007,0,0,0,.007,0h0l.008,0h0l.008,0h0l.008,0h0l.008,0h0l.008,0,.01,0,0,0,.008,0h0l.006,0,.01,0,.011,0,0,0,.008,0h0l.009,0h0l.008,0h0l.008,0h0l.008,0h0l.008,0h0l.008,0h0l.008,0h0l.009,0h0l.009,0h0l.008,0h0l.007,0,0,0,.008,0h0l.016.007h0l.009,0h0l.009,0h0l.01,0h0l.009,0h0l.009,0h0l.008,0h0l.008,0h0l.008,0h0l.008,0h0l.009,0h0l.009,0h0l.009,0h0l.007,0,.009,0,.011.005h0l.008,0h0l.008,0h0l.008,0h0l.008,0h0l.008,0h0l.008,0h0l.007,0,0,0,.008,0h0l.008,0,0,0,.008,0h0l.008,0,0,0,.008,0h0l.007,0,.009,0,.011.005.011.005.011.005.011.005,0,0,.007,0,0,0,.007,0,0,0,.007,0,0,0,.007,0,0,0,.007,0,0,0,.006,0,0,0,.007,0,.01.005.011.005.009,0,.011.005.006,0,0,0,.006,0,0,0,.006,0,.01.005.01,0,.01,0,.006,0,0,0,.007,0,.011.005.01.005.01.005.01.005.009,0,.007,0,0,0,.007,0,0,0,.007,0,0,0,.007,0,0,0,.007,0,0,0,.007,0,0,0,.007,0,0,0,.007,0h0l.008,0,0,0,.007,0,0,0,.007,0,0,0,.007,0,0,0,.007,0,0,0,.007,0h0l.008,0h0l.008,0h0l.008,0h0l.008,0h0l.008,0,0,0,.008,0h0l.008,0h0l.008,0h0l.008,0h0l.009,0h0l.009,0h0l.009,0h0l.009,0h0l.009,0h0l.009,0h0l.009,0h0l.009,0h0l.009,0h0l.009,0h0l.009,0h0l.009,0h0l.009,0h0l.01.005h0l.01.005h0l.01.005h0l.082.045h0l.01.006h0l.031.017h0q.409.226.8.475L24,3.308a14.984,14.984,0,0,0-2.5-1.27Zm5.044,3.184h0l.007.007h0l.007.007h0l.008.007h0l.008.008h0A16.1,16.1,0,0,1,28.5,6.008h0l.007.009h0l.007.009h0l.007.009h0l.007.009h0l.007.009h0l.007.008h0l.006.008h0l.006.008h0l.006.008h0l.006.008h0l.006.008h0l.006.008h0l.006.008h0l.006.008h0l.006.008h0l.006.008h0l.006.008h0l.006.008h0l.006.008h0l.006.008h0l.006.008h0l.006.008v0l.006.008v0l.006.007,0,0,.006.007,0,0,.006.007,0,0,.006.007v0l.006.007,0,0,.006.008v0l.006.008,0,0,.006.007v0l.006.007,0,0,.006.007v0l.006.008v0l.006.008v0l.006.008v0l.006.008h0l.006.008v0l.006.007v0l.005.007,0,0,.006.007h0L28.8,6.4v0l.006.008v0l.006.008v0l.006.008h0l.006.008v0l.005.007,0,0,.005.007,0,0,.005.007,0,0,.005.007,0,0,.005.007,0,0,.005.007,0,0,.005.007,0,0,.005.007,0,0,.005.007,0,0,.005.007h0l-.806.593a15.126,15.126,0,0,0-1.868-2.1l.682-.732ZM30.439,9.1a15.874,15.874,0,0,1,1.034,2.812l-.967.255a14.924,14.924,0,0,0-.969-2.635l.9-.432Zm1.522,5.767q.031.439.038.885h0q0,.027,0,.053h0v.018h0v.008h0v.017h0v.008h0v.008h0V15.9h0v.008h0v.016h0v.026h0v.017s0,.005,0,.008v.011S32,16,32,16h0s0,0,0,.007v.01s0,0,0,0V16.1h0v.051h0v.059h0v.417h0v.05h0v.051h0v.007h0v.035h0v.007h0v.007h0v.035h0v.021h0v.006h0V16.9h0v.007h0v.006h0v.006h0v.006h0v.006h0v.014h0v.007h0v.006h0v.006h0v.007h0l0,.036h0v.007h0l0,.043h0v.007h0q-.026.4-.071.785l-.993-.115A15.232,15.232,0,0,0,31,16c0-.355-.013-.713-.037-1.065Zm-1.644,5.626.954.3c-.054.171-.11.34-.169.509h0l0,.011h0l0,.01h0l0,.011h0l0,.011h0l0,.01h0l0,.011h0l-.006.017h0l0,.011v0l0,.01v0l0,.009v0l0,.009v0l0,.008v0l0,.008v0l0,.008v0l0,.008v0l0,.007v0l0,.007,0,0,0,.007,0,0,0,.005,0,.006,0,.005,0,.006,0,0,0,.006,0,0,0,0,0,.006,0,0,0,.007v0l0,.007v0l0,.007v0l0,.007v0l0,.007,0,0,0,.007,0,0,0,.007,0,0,0,.006,0,0,0,.005,0,.006,0,.005,0,.006,0,0,0,.007,0,0,0,.005,0,.006,0,0,0,.006,0,0,0,.007,0,0,0,.007v0l0,.007,0,0,0,.007v0l0,.007,0,0,0,.007,0,0,0,.005,0,.006,0,0,0,.006,0,0,0,.006,0,0,0,.006,0,0,0,0,0,.006v0l0,.008v0l0,.007,0,0,0,.008v0l0,.008v0l0,.008v0l0,.007v0l0,.008v0l0,.009v0l0,.008v0l0,.005,0,.006,0,.005v0l0,.008v0l0,.009v0l0,.008v0l0,.008v0l0,.009v0l0,.009v0l0,.009v0l0,.009v0l0,.01h0l0,.01h0l0,.011h0l-.016.039h0l0,.01h0l0,.011h0l0,.011h0q-.3.711-.659,1.386l-.881-.473A14.942,14.942,0,0,0,30.316,20.492Zm-2.642,4.928.778.628q-.415.514-.87.991h0l-.087.091h0l-.008.008h0l-.008.008h0l-.007.008h0l-.007.007h0l-.007.007h0l-.007.007,0,0-.007.007,0,0-.006.007,0,0-.006.006,0,0-.006.006,0,0-.006.006,0,0-.006.006,0,0-.005.006,0,0,0,0,0,0,0,0,0,0,0,0,0,0,0,0,0,0,0,0-.005.005,0,0,0,0,0,0,0,0,0,0-.005.005,0,0-.005.005,0,0,0,0,0,0,0,0,0,0,0,0,0,0,0,0,0,0,0,0,0,0,0,0,0,0,0,0,0,0,0,0,0,0,0,0,0,0,0,0,0,0,0,0,0,0-.006.005,0,0-.005.005,0,0-.005.005,0,0-.005.005,0,0-.006.005,0,0-.006.005,0,0-.006.005,0,0-.006.005,0,0-.006.006,0,0-.006.006,0,0-.005,0,0,0,0,0,0,0-.005.005,0,0-.005,0,0,0,0,0,0,0,0,0,0,0,0,0,0,0-.005,0,0,0,0,0,0,0,0,0,0,0-.006.005,0,0-.006.006,0,0-.006.006,0,0-.006.005,0,0-.006.005,0,0L27,27.62l0,0-.005.005,0,0-.005,0,0,0-.005.005,0,0-.006.005,0,0-.005,0,0,0-.005,0,0,0,0,0,0,0,0,0,0,0,0,0,0,0,0,0,0,0,0,0,0,0,0,0,0,0,0,0,0,0,0,0,0,0,0,0-.005,0,0,0,0,0,0,0-.005,0,0,0,0,0,0,0,0,0-.005,0,0,0,0,0,0,0,0,0,0,0,0,0,0,0,0,0,0,0,0,0-.006.006,0,0-.006.006,0,0-.006.006,0,0-.005,0,0,0-.007.006h0l-.007.007h0l-.007.007h0l-.008.007h0l-.008.007h0L26.7,27.9h0l-.008.007h0q-.163.146-.33.289l-.648-.762A15.132,15.132,0,0,0,27.674,25.419Zm-4.261,3.624.495.869q-.331.189-.673.362h0l-.011.005h0l-.01.005h0l-.01.005h0l-.011.005h0l-.037.019h0l-.008,0h0l-.008,0h0l-.008,0h0l-.007,0,0,0-.007,0h0l-.008,0h0l-.008,0h0l-.007,0,0,0-.007,0-.01,0-.009,0-.01.005-.006,0,0,0-.006,0-.01,0-.01,0-.011.005-.01.005-.011.005-.011.005-.011.005,0,0-.006,0-.01.005,0,0-.007,0,0,0-.007,0,0,0-.007,0,0,0-.007,0,0,0-.007,0,0,0-.007,0,0,0-.007,0-.01,0-.01,0-.011,0-.011.005-.01,0-.011.005,0,0-.007,0,0,0-.007,0,0,0-.007,0,0,0-.007,0,0,0-.007,0,0,0-.007,0,0,0-.007,0,0,0-.007,0-.01,0-.011,0-.01,0-.011,0-.011,0-.011,0,0,0-.007,0,0,0-.007,0,0,0-.007,0,0,0-.007,0,0,0-.007,0,0,0-.007,0-.01,0-.01,0-.011,0-.011,0-.011,0-.011,0-.011,0-.011,0-.011,0-.011,0-.011,0-.011,0-.011,0-.01,0-.01,0-.01,0-.007,0,0,0-.007,0,0,0-.007,0,0,0-.007,0,0,0-.007,0,0,0-.007,0,0,0-.007,0-.01,0-.01,0-.011,0-.011,0h0l-.008,0h0l-.008,0h0l-.009,0h0l-.009,0h0l-.009,0h0l-.008,0h0l-.009,0h0l-.009,0h0l-.009,0h0l-.01,0h0l-.073.03h0l-.011,0h0q-.448.184-.91.342l-.323-.946A14.955,14.955,0,0,0,23.413,29.043Zm-5.289,1.808.14.99q-.451.064-.909.1h0l-.044,0h0l-.027,0h-.018l-.026,0H15.5l-.232-.009.045-1c.226.01.456.015.684.015A15.2,15.2,0,0,0,18.124,30.851ZM9.876,29.7a14.92,14.92,0,0,0,2.659.9l-.23.973c-.2-.047-.394-.1-.589-.151h0l-.011,0h0l-.011,0h0l-.011,0h0l-.012,0h0l-.029-.008-.011,0-.012,0-.012,0-.012,0-.012,0-.012,0-.011,0-.011,0-.01,0-.01,0-.012,0-.012,0-.011,0-.011,0-.011,0-.011,0-.011,0-.011,0-.01,0-.012,0-.011,0-.012,0-.011,0-.011,0-.011,0-.011,0-.011,0-.011,0-.01,0-.011,0-.011,0-.011,0-.011,0-.012,0-.011,0-.011,0-.011,0-.012,0-.01,0-.011,0-.011,0-.011,0-.011,0-.011,0-.011,0-.011,0-.011,0-.011,0-.011,0-.011,0-.011,0-.011,0-.011,0-.011,0-.011,0-.011,0L11,31.2l-.011,0-.011,0-.011,0-.011,0-.011,0-.01,0-.011,0-.011,0-.011,0-.011,0-.011,0-.011,0-.011,0-.011,0-.011,0-.01,0-.011,0-.011,0-.011,0-.011,0-.011,0-.011,0-.011,0-.011,0-.011,0-.011,0-.011,0-.01,0-.011,0-.011,0-.011,0-.011,0-.011,0-.011,0-.011,0-.011,0-.011,0-.011,0-.011,0-.01,0-.011,0-.011,0-.011,0-.011,0-.011,0-.011,0-.011,0-.011,0-.011,0-.011,0-.011,0-.01,0-.011,0-.011,0-.011,0-.011,0-.011,0-.011,0h0l-.008,0h0l-.009,0h0l-.009,0-.01,0h0l-.009,0h0l-.017-.006h0l-.01,0h0l-.009,0h0l-.009,0h0l-.009,0h0l-.009,0h0l-.009,0h0l-.009,0h0l-.01,0h0l-.011,0h0l-.04-.016h0l-.01,0h0l-.01,0h0l-.01,0h0l-.01,0h0l-.01,0h0l-.062-.025h0l-.011,0h0l-.01,0h0l-.01,0h0l-.011,0h0l-.011,0h0l-.011,0h0l-.084-.035h0l-.011,0h0q-.2-.082-.389-.168ZM5.287,26.5a15.119,15.119,0,0,0,2.145,1.815l-.572.82q-.318-.222-.624-.458h0l-.009-.007h0l-.009-.007h0l-.008-.006h0L6.2,28.648h0l-.008-.006h0l-.007-.006,0,0-.007-.006,0,0-.007-.005,0,0-.007-.005,0,0-.007-.005,0,0L6.135,28.6l0,0-.006-.005,0,0-.006-.005,0,0-.006,0,0,0,0,0,0,0,0,0,0,0,0,0-.005,0,0,0-.006,0,0,0-.006,0,0,0-.006,0,0,0-.006-.005,0,0-.007-.006,0,0-.007-.006,0,0L6.01,28.5l0,0L6,28.491H6l-.008-.007h0l-.018-.015h0q-.318-.256-.622-.528h0l-.008-.008h0l-.008-.007h0l-.008-.007h0l-.008-.007,0,0L5.305,27.9l0,0L5.3,27.893l0,0-.007-.006,0,0-.006-.006,0,0-.006-.006,0,0-.006-.006,0,0-.006-.006,0,0,0,0,0,0,0,0-.005,0,0,0-.005,0,0,0-.005,0,0,0-.005,0,0,0-.005,0,0,0-.005,0,0,0-.005,0,0,0-.006-.005,0,0-.006-.005,0,0-.006-.005,0,0-.005,0,0,0-.005,0,0,0-.005-.005,0,0-.006-.005,0,0-.006-.006,0,0L5.1,27.715h0l-.007-.007,0,0L5.085,27.7h0l-.007-.007,0,0-.007-.007h0l-.007-.007h0l-.007-.007h0l-.007-.007h0l-.008-.007h0l-.008-.008h0l-.008-.008h0l-.008-.008h0q-.221-.209-.434-.426Zm-3.1-4.652a15,15,0,0,0,1.334,2.471l-.832.555q-.212-.317-.409-.645h0l-.006-.01h0l-.005-.009h0L2.258,24.2v0l-.005-.009v0l0-.008v0l0-.008v0l-.005-.008v0l0-.007,0,0,0-.007,0,0,0,0,0-.006,0,0,0-.005,0,0,0-.006,0,0,0,0,0-.006,0,0,0-.007,0,0,0-.006,0,0,0-.006,0,0,0-.005,0,0,0-.005,0,0,0-.005,0,0,0-.005,0,0,0,0,0-.005,0,0,0-.006,0,0,0-.007,0,0,0-.007,0,0,0-.007,0,0,0-.007,0,0,0-.007,0,0,0-.007,0,0,0-.007,0,0,0-.007,0,0,0-.007,0,0,0-.007,0,0,0-.007v0l0-.007v0l0-.008v0l0-.008v0l0-.008v0l0-.008v0l0-.008v0l0-.008v0l0-.008v0l0-.008v0l0-.008v0l0-.008v0l0-.008v0l0-.008v0l0-.008v0l0-.009h0l0-.009v0l0-.009h0L1.97,23.7h0l0-.009h0l0-.009v0l0-.009h0l0-.009v0l0-.009h0l0-.009h0l0-.009h0l0-.009h0l0-.009h0l0-.009h0l-.005-.009h0l-.005-.01h0l-.005-.01h0l-.005-.01h0l-.011-.02h0l-.005-.01h0l0-.009h0l0-.009h0l0-.009h0l0-.009h0l0-.009h0l0-.009h0l0-.009h0l0-.009h0l0-.009h0l0-.009h0l-.005-.01h0l-.005-.01h0l-.016-.031h0l-.005-.01h0l0-.009h0l0-.009h0l0-.009h0l0-.009h0l0-.009h0l0-.009h0l0-.01h0l0-.009h0l0-.009v0l0-.009h0l0-.01h0l-.005-.01h0l-.005-.01h0l-.005-.01h0l-.005-.01h0l0-.009h0l0-.009v0l0-.009v0l0-.009v0l0-.009v0l0-.008v0l0-.008v0l0-.008v0l0-.009v0l0-.008v0l0-.008v0l0-.008v0l0-.008v0l0-.007,0,0,0-.007v0l0-.008v0l0-.008v0l0-.008,0,0,0-.008v0l0-.008,0,0,0-.008v0l0-.007,0,0,0-.007v0l0-.007,0,0,0-.007,0,0,0-.007,0,0,0-.006,0,0,0-.006,0-.005,0-.006,0,0,0-.005,0-.006,0,0,0-.006,0,0,0-.006,0,0,0-.005,0,0,0-.007,0,0,0-.006,0,0,0-.008,0,0,0-.005v0L1.5,22.783h0l0-.01h0l0-.009v0l0-.009h0l0-.01h0l0-.01h0l0-.01h0l0-.01h0l0-.011h0l0-.011h0q-.1-.221-.2-.446ZM1,16.382a15.082,15.082,0,0,0,.331,2.79l-.978.21q-.118-.55-.2-1.113h0l0-.012h0l0-.031h0l0-.011v-.251h0l0-.022h0v-.011h0v-.011h0V17.9h0v-.011h0q-.086-.733-.106-1.485ZM.963,10.519l.94.343a14.93,14.93,0,0,0-.708,2.716l-.987-.16q.049-.3.109-.6h0l0-.012h0l.014-.067h0l0-.011v0l0-.01h0l0-.01v0l0-.01v0l0-.011h0l0-.012h0l.006-.03v0l0-.01v0l0-.01v0l0-.009v0l0-.009v0l0-.009v0l0-.009v0l0-.009v0l0-.018v0l0-.009v0l0-.009v0l0-.009v0l0-.009v0l0-.008v0l0-.009v0l0-.008v-.037l0-.007v0l0-.008v0l0-.007v0l0-.007v0l0-.007v0l0-.007v-.037l0-.008v0l0-.008v0l0-.008v0l0-.008v0l0-.008v0l0-.007v0l0-.006v-.01l0-.006v-.005l0-.006V12.2l0-.006v-.011l0-.007v0l0-.007v0l0-.008v0l0-.008v0l0-.008v0l0-.007v-.01l0-.006v-.011l0-.006v0l0-.008v0l0-.008v0l0-.007v0l0-.008v0l0-.008v0l0-.007v-.01L.5,12v0l0-.006v-.01l0-.007v0l0-.008v0l0-.008v0l0-.009v0l0-.009v0l0-.008v-.009l0-.006v-.008l0-.01v0l0-.009v0l0-.008v0l0-.009v0l0-.008v0l0-.008v0l0-.008v0l0-.007v-.009l0-.006v-.009l0-.008v0l0-.009v0l0-.008v0l0-.008v0l0-.008v0l0-.008v0l0-.007v0l0-.006,0-.006V11.68l0-.006v-.01l0-.006v0l0-.006v0l0-.006v0l0-.006v-.005l0-.006,0-.005,0-.006v-.005l0-.006v0l0-.005,0-.006v0l0-.006,0-.006V11.55l0-.006v0l0-.007v0l0-.007v0l0-.007v0l0-.007v0l0-.006,0-.006v0l0-.007v0l0-.007v0l0-.007v0l0-.006v-.005l0-.006,0-.005,0-.005,0-.006,0-.005,0-.006,0-.006v0l0-.007v0l0-.007v0l0-.007v0l0-.007v0l0-.008v0l0-.007v0l0-.006v0l0-.006v0l0-.007v0l0-.008v0l0-.008v0l0-.008v0l0-.008v0l0-.009v0l0-.008v0l0-.008v0l0-.007v0l0-.008v0l0-.009v0l0-.009v0l0-.009v0l0-.009v0l0-.009v0l0-.009v0l0-.01h0l.007-.021h0l0-.01h0l0-.01h0l0-.01h0l0-.01h0l0-.01h0l0-.01h0l0-.011h0l.018-.055h0Q.884,10.737.963,10.519ZM4.018,5.4l.749.663A15.088,15.088,0,0,0,3.109,8.326L2.25,7.814l.063-.1h0L2.319,7.7v0l0-.008v0l0-.008,0,0,0-.007,0,0,0-.006,0,0,0-.007,0,0,0-.005,0-.005,0,0,0-.006,0,0,0-.007,0,0,0-.007,0,0,0-.007,0,0,0-.007,0,0,0-.008,0,0,0-.008v0l.005-.008v0l.005-.009h0l.006-.009h0l.006-.009h0l.006-.01h0l.012-.019h0q.388-.616.829-1.194h0l.007-.009h0l.007-.009h0L3.3,6.272h0L3.3,6.263h0l.007-.009h0l.007-.009h0l.007-.009h0l.007-.009h0l.014-.018h0l.014-.018h0l.014-.018h0l.007-.009h0l.007-.008h0L3.4,6.143h0L3.4,6.134h0l.006-.008h0l.006-.008v0l.006-.008v0L3.432,6.1v0l.006-.008h0l.006-.008v0l.006-.007v0l.006-.008,0,0,.006-.007v0l.006-.007,0,0,.006-.007,0,0,.005-.007,0,0L3.5,6.015l0,0L3.5,6.006l0,0L3.512,6l0,0,.005-.007,0,0,.005-.007,0,0,.006-.007,0,0,.005-.007,0,0,.005-.007,0,0,.005-.007,0,0,.005-.007,0,0,.005-.007,0,0,.005-.007,0,0,.005-.007,0,0L3.593,5.9l0,0L3.6,5.887l0,0,.006-.007,0,0,.006-.007,0,0,.006-.007,0,0,.006-.007,0,0,.006-.007,0,0,.005-.007,0,0,.006-.007,0,0,.006-.007,0,0,.006-.007,0,0L3.675,5.8l0,0,.006-.007,0,0,.006-.007,0,0L3.7,5.77l0,0L3.7,5.761l0,0,.006-.007,0,0,.006-.007,0,0,.006-.007,0,0,.006-.007,0,0,.006-.007,0,0,.006-.007,0,0L3.758,5.7l0,0,.006-.007,0,0,.005-.006,0,0,.006-.007v0l.006-.007,0,0L3.8,5.653v0L3.8,5.644v0l.006-.007h0l.006-.007v0l.006-.007v0l.006-.007,0,0L3.841,5.6h0l.006-.007v0l.006-.007h0l.006-.007v0l.006-.008h0l.007-.008h0l.007-.008h0l.007-.008h0L3.9,5.528h0l.008-.009h0L3.926,5.5h0ZM8.733,1.742l.455.891A15.048,15.048,0,0,0,6.817,4.138L6.2,3.348q.186-.144.377-.284h0l.01-.007h0L6.6,3.05h0l.009-.007h0l.009-.006h0l.009-.006h0l.009-.006h0l.009-.006h0l.008-.006h0L6.668,3h0l.008-.006h0L6.7,2.981h0l0,0,0,0,.007,0,0,0,.007-.005,0,0,.007,0,0,0,.006,0,0,0,.006,0,0,0,.006,0,0,0,.007,0,0,0,.007,0,0,0,.007,0,0,0,.007,0,0,0,.007,0,0,0,.006,0,0,0,.006,0,0,0,.006,0,0,0,.005,0,0,0,0,0,.006,0,0,0,.006,0,0,0,.006,0,0,0,.006,0,0,0,.006,0,0,0,.006,0,0,0,0,0,.005,0,0,0,.005,0,0,0,.006,0,0,0,.006,0,0,0,.006,0,0,0,0,0,0,0,.005,0,0,0,.005,0,0,0,.005,0,0,0,0,0,.006,0,0,0,.006,0,0,0,.006,0,0,0,.006,0,0,0,.006,0,0,0,.006,0,0,0,.006,0,0,0,0,0,0,0,0,0,.006,0,0,0,.006,0,0,0,.007,0,0,0,.006,0,0,0,.006,0,0,0,.006,0,0,0,.006,0,0,0,.007,0,0,0,.006,0,0,0,.007,0,0,0,.007,0,0,0,.005,0,0,0,0,0,.005,0,0,0h0l.008-.005,0,0,.008,0h0L7.254,2.6h0l.008-.005h0l.008-.006h0l.008-.005h0l.008-.005h0L7.3,2.567h0l.009-.006h0l.009-.006h0l.009-.006h0a15.96,15.96,0,0,1,1.4-.8ZM14.459.073l.1,1A14.979,14.979,0,0,0,11.8,1.6l-.28-.96.037-.011h0l.012,0h0l.011,0h0l.011,0h0l.012,0h0L11.643.6h0l.011,0h0l.011,0h0A15.9,15.9,0,0,1,13.328.222h0l.013,0,.012,0,.012,0,.03,0,.012,0,.012,0,.012,0,.011,0,.011,0,.01,0,.012,0,.012,0,.012,0,.012,0,.012,0,.011,0,.011,0,.012,0,.012,0,.012,0,.012,0,.012,0,.011,0,.011,0,.012,0,.012,0,.012,0,.012,0,.012,0,.011,0,.011,0h0l.023,0h0l.012,0,.011,0h0Q14.1.107,14.459.073Z" transform="translate(1406 285)" fill="#707070"/></g></svg>