<svg height="29.934" viewBox="0 0 27.876 29.934" width="27.876" xmlns="http://www.w3.org/2000/svg"><path d="m11.608 10.557h-11.1a.472.472 0 0 1 -.408-.708l5.549-9.613a.472.472 0 0 1 .818 0l5.55 9.613a.472.472 0 0 1 -.409.708zm-10.282-.944h9.464l-4.732-8.2z" fill="#ef6e4b" transform="translate(-.036)"/><path d="m6.058 63.078a.472.472 0 0 1 -.409-.236l-5.549-9.613a.472.472 0 0 1 .409-.708h11.1a.472.472 0 0 1 .409.708l-5.55 9.613a.472.472 0 0 1 -.41.236zm-4.732-9.613 4.733 8.2 4.732-8.2z" fill="#ef6e4b" transform="translate(-.036 -49.317)"/><path d="m108.7 112.015v-8.454h-4.316v-3.895h4.316v-3.387h3.9v3.387h4.316v3.894h-4.316v8.454z" fill="#ba7052" transform="translate(-97.348 -87.811)"/><path d="m143 135.778v-1.808h4.316v-1.287h-4.316v-3.387h-1.287v3.387h-4.313v1.287h4.316v8.454h1.284z" fill="#e2d0c5" transform="translate(-129.06 -119.523)"/><g fill="#efd873"><path d="m302.555 294.092a5.626 5.626 0 1 1 0-11.252 5.686 5.686 0 0 1 .6.032 7.034 7.034 0 1 0 0 11.188 5.672 5.672 0 0 1 -.6.032z" transform="translate(-277.41 -265.565)"/><path d="m420.483 350.887.89 1.8 1.989.289-1.439 1.4.34 1.981-1.779-.935-1.779.935.34-1.981-1.439-1.4 1.989-.289z" transform="translate(-395.486 -330.782)"/></g></svg>