<svg height="28.818" viewBox="0 0 28.39 28.818" width="28.39" xmlns="http://www.w3.org/2000/svg"><path d="m33.526 100.915h-16.3a2 2 0 0 1 -2-2 2 2 0 0 1 2-2h16.3z" fill="#ffe20d" transform="translate(-14.582 -91.465)"/><path d="m17.035 97.645-12.068-8.36a2.7 2.7 0 0 1 -.683-3.751 2.693 2.693 0 0 1 3.75-.684l12.066 8.36a2.7 2.7 0 0 1 .683 3.751 2.694 2.694 0 0 1 -3.748.684z" fill="#ffbe00" transform="translate(-3.805 -79.621)"/><path d="m79.395 441.926h-11.161l1.019-3.725h9.122z" fill="#8caabd" transform="translate(-64.608 -413.535)"/><path d="m210.1 438.2h-2.285l1.019 3.725h2.285z" fill="#809cad" transform="translate(-196.332 -413.535)"/><path d="m46.093 496.777h-14.474a.428.428 0 0 0 0 .857h14.474a.428.428 0 1 0 0-.857z" fill="#bfd6e6" transform="translate(-29.65 -468.815)"/><path d="m108.5 344.663h6.628v5.265h-6.628z" fill="#ffbe00" transform="translate(-102.604 -325.263)"/><path d="m79.674 232.41-8.187 3.13a3.084 3.084 0 0 1 -3.983-1.783 3.087 3.087 0 0 1 1.781-3.983l8.187-3.13a3.084 3.084 0 0 1 3.983 1.783 3.087 3.087 0 0 1 -1.781 3.983z" fill="#ffe20d" transform="translate(-63.725 -213.693)"/><path d="m114.062 228.426a3.084 3.084 0 0 0 -3.983-1.783l-.042.016a3.077 3.077 0 0 1 1.741 1.767 3.087 3.087 0 0 1 -1.778 3.983l-8.145 3.114a3.072 3.072 0 0 0 2.243.016l8.187-3.13a3.087 3.087 0 0 0 1.777-3.983z" fill="#f7d900" transform="translate(-96.332 -213.692)"/><g fill="#8caabd"><ellipse cx="14.702" cy="15.842" rx="1.605" ry="1.608"/><ellipse cx="2.731" cy="7.528" rx="1.225" ry="1.227"/><path d="m305.063 8.494a2 2 0 0 0 2.743.668l1.022-.622.351-.214 3.67 1.273a1.244 1.244 0 0 0 1.517-.607l1.717-3.347a1.247 1.247 0 0 0 -2.218-1.145l-1.223 2.384-3.142-1.091.47-3.3 2.646.006a1.267 1.267 0 0 0 1.28-1.2 1.249 1.249 0 0 0 -1.247-1.29l-3.763-.009a1.245 1.245 0 0 0 -1.235 1.069l-.551 3.843-1.376.839a2 2 0 0 0 -.664 2.744z" transform="translate(-287.83)"/></g><path d="m378.466.009a1.249 1.249 0 0 1 1.244 1.291 1.264 1.264 0 0 1 -1.183 1.2h1.616a1.267 1.267 0 0 0 1.28-1.2 1.249 1.249 0 0 0 -1.244-1.291l-3.762-.009c-.03 0-.059 0-.088 0z" fill="#809cad" transform="translate(-355.361)"/><path d="m327.232 141.2-.973.593-1.022.622a2.006 2.006 0 0 1 -.18.1 1.992 1.992 0 0 0 1.894-.1l1.373-.836z" fill="#809cad" transform="translate(-306.976 -133.249)"/><path d="m441.835 68.125a1.246 1.246 0 0 0 -1.427.2 1.249 1.249 0 0 1 .253 1.477l-1.717 3.347a1.24 1.24 0 0 1 -.349.418l.546.189a1.244 1.244 0 0 0 1.517-.607l1.717-3.347a1.249 1.249 0 0 0 -.54-1.677z" fill="#809cad" transform="translate(-414.122 -64.16)"/><path d="m332.437 126.126a.429.429 0 0 0 0-.857.429.429 0 0 0 0 .857z" fill="#fff" transform="translate(-313.548 -118.218)"/></svg>