<svg height="28.818" viewBox="0 0 28.818 28.818" width="28.818" xmlns="http://www.w3.org/2000/svg"><path d="m13.1 32.2-6.08-5.568-2.047-9.21 2.6-10.407 19.249-1.015.053.993-18.514.975-2.367 9.467 1.928 8.676 5.847 5.36z" fill="#76cc7a" transform="translate(-3.993 -4.51)"/><path d="m18.573 31.082-.987-.118 1.464-12.2-8.793-9.764.743-.669 9.095 10.1z" fill="#76cc7a" transform="translate(-6.651 -5.682)"/><path d="m0 0h.994v5.067h-.994z" fill="#76cc7a" transform="matrix(.196 -.981 .981 .196 2.391 13.402)"/><path d="m0 0h16.547v.994h-16.547z" fill="#76cc7a" transform="matrix(.66069632 -.75065329 .75065329 .66069632 14.048 27.496)"/><path d="m0 0h.993v6h-.993z" fill="#76cc7a" transform="matrix(.91 -.414 .414 .91 22.396 5.664)"/><path d="m0 0h.994v8.579h-.994z" fill="#76cc7a" transform="matrix(.174 -.985 .985 .174 14.825 13.407)"/><path d="m0 0h6.363v.994h-6.363z" fill="#76cc7a" transform="matrix(.781 -.625 .625 .781 16.091 9.047)"/><g fill="#e89d43"><circle cx="25.149" cy="11.555" r="2.039"/><path d="m53.956 31.981h-6.956v-.994a1.988 1.988 0 0 1 1.987-1.987h2.981a1.988 1.988 0 0 1 1.987 1.987z" transform="translate(-25.138 -16.081)"/><circle cx="11.555" cy="23.79" r="2.039"/><path d="m25.956 57.981h-6.956v-.994a1.988 1.988 0 0 1 1.987-1.987h2.981a1.988 1.988 0 0 1 1.987 1.987z" transform="translate(-11.05 -29.163)"/><circle cx="22.43" cy="2.039" r="2.039"/><path d="m48.956 13.981h-6.956v-.994a1.988 1.988 0 0 1 1.987-1.987h2.981a1.988 1.988 0 0 1 1.987 1.987z" transform="translate(-22.622 -7.025)"/><ellipse cx="1.359" cy="12.914" rx="1.359" ry="2.039"/><circle cx="4.078" cy="2.718" r="1.359"/><ellipse cx="3.398" cy="21.75" rx="2.039" ry="1.359"/></g><path d="m37.491 36 10.622 10.623a1.054 1.054 0 0 1 -1.491 1.491l-10.622-10.623z" fill="#454a6d" transform="translate(-19.603 -19.603)"/><circle cx="12.915" cy="12.915" fill="#454a6d" r="7.477"/><circle cx="12.914" cy="12.914" fill="#eae8e5" r="6.117"/><circle cx="12.914" cy="11.555" fill="#4ac3ed" r="2.039"/><path d="m28.95 31.981h-7.95v-.992a1.99 1.99 0 0 1 1.989-1.989h3.971a1.99 1.99 0 0 1 1.989 1.989z" fill="#4ac3ed" transform="translate(-12.056 -16.081)"/></svg>