<svg height="23.219" viewBox="0 0 30.082 23.219" width="30.082" xmlns="http://www.w3.org/2000/svg"><g fill="#64dde0"><path d="m0 10.292h2.127v2.636h-2.127z"/><path d="m3.106 9.176h2.127v4.866h-2.127z"/><path d="m6.213 7.858h2.127v7.503h-2.127z"/><path d="m9.318 5.526h2.127v12.167h-2.127z"/><path d="m12.425 0h2.127v23.218h-2.127z"/><path d="m15.531 1.977h2.127v19.264h-2.127z"/><path d="m18.637 5.932h2.127v11.356h-2.127z"/><path d="m21.744 8.314h2.127v6.59h-2.127z"/><path d="m24.85 9.328h2.127v4.562h-2.127z"/><path d="m27.955 10.292h2.127v2.636h-2.127z"/></g><path d="m0 11.609h2.127v1.318h-2.127z" fill="#00c2c7"/><path d="m3.106 11.609h2.127v2.434h-2.127z" fill="#00c2c7"/><path d="m6.213 11.609h2.127v3.751h-2.127z" fill="#00c2c7"/><path d="m9.318 11.609h2.127v6.084h-2.127z" fill="#00c2c7"/><path d="m12.425 11.609h2.127v11.609h-2.127z" fill="#00c2c7"/><path d="m15.531 11.609h2.127v9.632h-2.127z" fill="#00c2c7"/><path d="m18.637 11.609h2.127v5.677h-2.127z" fill="#00c2c7"/><path d="m21.744 11.609h2.127v3.295h-2.127z" fill="#00c2c7"/><path d="m24.85 11.609h2.127v2.281h-2.127z" fill="#00c2c7"/><path d="m27.955 11.609h2.127v1.318h-2.127z" fill="#00c2c7"/></svg>