<svg height="19.81" viewBox="0 0 29 19.81" width="29" xmlns="http://www.w3.org/2000/svg"><path d="m29 82.534v.566l-4.46 1.2 4.46 7.6v5.777a.47.47 0 0 1 -.47.47h-28.06a.47.47 0 0 1 -.47-.47v-15.143a1.409 1.409 0 0 1 1.409-1.409h26.182a1.409 1.409 0 0 1 1.409 1.409z" fill="#fd8087" transform="translate(0 -81.125)"/><path d="m1.7 98.147h-1.23a.47.47 0 0 1 -.47-.47v-15.143a1.409 1.409 0 0 1 1.409-1.409h1.235a1.409 1.409 0 0 0 -1.409 1.409v15.144a.47.47 0 0 0 .465.469z" fill="#fe646f" transform="translate(0 -81.125)"/><path d="m173.287 289.545v4.774h-10.567v-4.774a.47.47 0 0 1 .47-.47h9.628a.47.47 0 0 1 .469.47z" fill="#9facba" transform="translate(-153.503 -277.297)"/><path d="m164.424 289.075a.47.47 0 0 0 -.47.47v4.774h-1.234v-4.774a.47.47 0 0 1 .47-.47z" fill="#8d9ca8" transform="translate(-153.503 -277.297)"/><path d="m36.275 122.332v-4.367a.566.566 0 0 1 .566-.566h3.224l.425.554.425-.554h3.377l.484.53.366-.53h3.377l.35.833.5-.833h3.231a.566.566 0 0 1 .566.566v4.367a.566.566 0 0 1 -.566.566h-3.232l-.48-1.475-.369 1.475h-3.377l-.385-1.075-.465 1.075h-3.377l-.4-.472-.45.472h-3.224a.566.566 0 0 1 -.566-.566z" fill="#99e6fc" transform="translate(-34.22 -115.344)"/><path d="m393.4 115.909v8.805l-6.629-2.108a.7.7 0 0 1 -.491-.672v-5.321a.7.7 0 0 1 .7-.7h6.42z" fill="#99e6fc" transform="translate(-364.401 -113.939)"/><path d="m38.154 122.9h-1.291a.587.587 0 0 1 -.587-.587v-4.323a.587.587 0 0 1 .587-.587h1.292a.587.587 0 0 0 -.587.587v4.325a.587.587 0 0 0 .586.585z" fill="#62dbfb" transform="translate(-34.221 -115.348)"/><path d="m393.4 124.3v.411l-6.629-2.108a.7.7 0 0 1 -.491-.672v-5.321a.7.7 0 0 1 .7-.7h1.292a.7.7 0 0 0 -.7.7v5.321a.7.7 0 0 0 .491.672z" fill="#62dbfb" transform="translate(-364.401 -113.939)"/><path d="m387.6 335.2a2.787 2.787 0 1 1 -2.271-2.74 2.789 2.789 0 0 1 2.271 2.74z" fill="#8d9ca8" transform="translate(-360.382 -318.182)"/><circle cx="24.426" cy="17.022" fill="#d8ecfe" r=".851"/><path d="m37.1 335.2a2.788 2.788 0 1 1 -2.272-2.74 2.789 2.789 0 0 1 2.272 2.74z" fill="#8d9ca8" transform="translate(-29.735 -318.182)"/><path d="m385.323 337.944a2.788 2.788 0 1 1 0-5.481 2.846 2.846 0 0 0 0 5.481z" fill="#7a8c98" transform="translate(-360.382 -318.182)"/><path d="m34.824 337.944a2.789 2.789 0 1 1 -.515-5.529 2.769 2.769 0 0 1 .517.048 2.846 2.846 0 0 0 0 5.481z" fill="#7a8c98" transform="translate(-29.735 -318.182)"/><circle cx="4.574" cy="17.022" fill="#d8ecfe" r=".851"/><path d="m231.678 313h-2.2a.425.425 0 1 1 0-.85h2.2a.425.425 0 0 1 0 .85z" fill="#b3dafe" transform="translate(-216.076 -299.061)"/><g fill="#fe646f"><path d="m103.191 117.4h.85v5.5h-.85z" transform="translate(-97.346 -115.349)"/><path d="m177.815 117.4h.85v5.5h-.85z" transform="translate(-167.743 -115.349)"/><path d="m252.438 117.4h.85v5.5h-.85z" transform="translate(-238.14 -115.349)"/></g></svg>