<svg xmlns="http://www.w3.org/2000/svg" width="17" height="20.923" viewBox="0 0 17 20.923"><g transform="translate(-48)"><path d="M63.365,2.615h-3.6V1.962A1.962,1.962,0,0,0,57.808,0H55.192a1.962,1.962,0,0,0-1.962,1.962v.654h-3.6A1.635,1.635,0,0,0,48,4.25V5.558a.654.654,0,0,0,.654.654H64.346A.654.654,0,0,0,65,5.558V4.25A1.635,1.635,0,0,0,63.365,2.615Zm-8.827-.654a.655.655,0,0,1,.654-.654h2.615a.655.655,0,0,1,.654.654v.654H54.538Z" fill="#065e6f"/><path d="M73.569,184a.2.2,0,0,0-.2.214l.539,11.321a1.959,1.959,0,0,0,1.959,1.868h9.929a1.959,1.959,0,0,0,1.959-1.868l.539-11.321a.2.2,0,0,0-.2-.214Zm9.875,1.635a.654.654,0,0,1,1.308,0v8.5a.654.654,0,0,1-1.308,0Zm-3.269,0a.654.654,0,0,1,1.308,0v8.5a.654.654,0,0,1-1.308,0Zm-3.269,0a.654.654,0,0,1,1.308,0v8.5a.654.654,0,0,1-1.308,0Z" transform="translate(-24.328 -176.481)" fill="#065e6f"/></g></svg>