<svg data-name="Capa 1" viewBox="0 0 1227 1227" xmlns="http://www.w3.org/2000/svg"><defs><style>.cls-1, .cls-2 {stroke-width: 0px;}.cls-2 {fill: #fff;}</style></defs><rect class="cls-1" x="121.6" y="114.9" width="969.3" height="984.4"/><path class="cls-2" d="m654.5 592.5 276.1 395h-113.3l-225.3-322.3-33.1-47.3-263.2-376.5h113.3l212.4 303.9 33.1 47.2z"/><path class="cls-2" d="M1094.4,0H132.6C59.4,0,0,59.4,0,132.6v961.8c0,73.2,59.4,132.6,132.6,132.6h961.8c73.2,0,132.6-59.4,132.6-132.6V132.6c0-73.2-59.4-132.6-132.6-132.6h0ZM782.6,1040.5l-228-331.8-285.5,331.8h-73.8l326.6-379.5L195.4,185.9h249l215.9,314.2,270.3-314.2h73.8l-311.3,361.9h0l338.6,492.8h-249.1v-.1Z"/></svg>