<svg xmlns="http://www.w3.org/2000/svg" width="33.774" height="40.482" viewBox="0 0 33.774 40.482"><path d="M96.782,19.5a9.434,9.434,0,0,0,6.894-2.857,9.434,9.434,0,0,0,2.856-6.894,9.435,9.435,0,0,0-2.857-6.894,9.748,9.748,0,0,0-13.788,0A9.434,9.434,0,0,0,87.031,9.75a9.434,9.434,0,0,0,2.857,6.894A9.436,9.436,0,0,0,96.782,19.5Zm0,0" transform="translate(-80.15)" fill="#165e6f"/><path d="M33.692,258.891a24.082,24.082,0,0,0-.328-2.558,20.154,20.154,0,0,0-.629-2.572,12.7,12.7,0,0,0-1.057-2.4,9.052,9.052,0,0,0-1.594-2.078,7.03,7.03,0,0,0-2.29-1.439,7.915,7.915,0,0,0-2.924-.529,2.967,2.967,0,0,0-1.585.672c-.475.31-1.031.668-1.651,1.064a9.459,9.459,0,0,1-2.136.941,8.295,8.295,0,0,1-5.225,0,9.437,9.437,0,0,1-2.134-.941c-.614-.393-1.17-.751-1.652-1.065a2.963,2.963,0,0,0-1.584-.672,7.9,7.9,0,0,0-2.923.53,7.023,7.023,0,0,0-2.29,1.439,9.052,9.052,0,0,0-1.594,2.077,12.728,12.728,0,0,0-1.057,2.4,20.2,20.2,0,0,0-.629,2.571,24,24,0,0,0-.328,2.559C.027,259.666,0,260.47,0,261.282a6.722,6.722,0,0,0,2,5.086,7.187,7.187,0,0,0,5.145,1.877H26.633a7.185,7.185,0,0,0,5.144-1.877,6.719,6.719,0,0,0,2-5.086C33.774,260.466,33.746,259.661,33.692,258.891Zm0,0" transform="translate(0 -227.762)" fill="#165e6f"/></svg>