<svg xmlns="http://www.w3.org/2000/svg" xmlns:xlink="http://www.w3.org/1999/xlink" width="101.844" height="97.336" viewBox="0 0 101.844 97.336"><defs><clipPath id="a"><rect width="101.844" height="97.336" fill="none"/></clipPath></defs><g transform="translate(-1408.078 -2370.332)"><g transform="translate(490.078 446.332)"><g transform="translate(918 1924)"><g clip-path="url(#a)"><path d="M180.259,401.771l-17.242,6.147-.654,2.285a8.649,8.649,0,0,1-7.836,5.912v1.537h35.758Z" transform="translate(-123.789 -321.853)" fill="#adaca7"/><path d="M221.251,385.446l-2.41-8.432-9.939-6.147-9.938,6.147-1.756,6.147H214.45l.654,2.285a8.648,8.648,0,0,0,7.836,5.912l3.074,1.537,3.074-1.537a8.649,8.649,0,0,1-7.836-5.912" transform="translate(-157.981 -297.095)" fill="#8f8f8b"/><path d="M450.189,277.982h6.147a6.166,6.166,0,0,0,6.148-6.147v-12.3l-12.3-12.3Z" transform="translate(-360.64 -198.064)" fill="#adaca7"/><path d="M0,222.317a6.165,6.165,0,0,0,6.147,6.147h83.4a6.166,6.166,0,0,0,6.148-6.147V185.432L0,210.022Z" transform="translate(0 -148.547)" fill="#cbc9c2"/><path d="M456.337,0H450.19l6.147,61.475h6.147V6.147A6.166,6.166,0,0,0,456.337,0" transform="translate(-360.641)" fill="#404242"/><path d="M95.7,6.147A6.165,6.165,0,0,0,89.549,0H6.148A6.166,6.166,0,0,0,0,6.147V61.475H95.7V55.328L50.922,30.735Z" fill="#565959"/><path d="M300.775,30.882l-6.146,0S256,55.471,256,55.471l38.627,24.593,6.147,0S300.774,30.883,300.775,30.882Z" transform="translate(-205.078 -24.736)" fill="#7cb4bf"/><path d="M114.307,30.882l-83.383,0c-.005,0-.009,49.185-.018,49.186l83.4,0S114.3,30.882,114.307,30.882Z" transform="translate(-24.758 -24.735)" fill="#bfdce2"/><path d="M243.621,339.96a3.074,3.074,0,1,1-3.074,3.074,3.074,3.074,0,0,1,3.074-3.074" transform="translate(-192.699 -272.337)" fill="#fff"/><path d="M153.657,476.957H90.133a1.537,1.537,0,0,1,0-3.074h63.524a1.537,1.537,0,0,1,0,3.074" transform="translate(-70.973 -379.621)" fill="#8f8f8b"/></g></g></g><rect width="17.125" height="1.685" transform="matrix(0.615, -0.788, 0.788, 0.615, 1457.131, 2399.566)" fill="#37373a"/><rect width="1.686" height="17.805" transform="matrix(0.654, -0.756, 0.756, 0.654, 1457.25, 2401.779)" fill="#37373a"/><rect width="1.684" height="19.031" transform="matrix(0.621, -0.784, 0.784, 0.621, 1443.752, 2389.336)" fill="#37373a"/><rect width="1.684" height="14.542" transform="translate(1456.818 2402.406) rotate(-6.481)" fill="#37373a"/><path d="M177.276,336.469a8.328,8.328,0,0,1-1.432,4.7,8.44,8.44,0,1,1-11.711-11.711,8.328,8.328,0,0,1,4.7-1.432A8.446,8.446,0,0,1,177.276,336.469Z" transform="translate(1288.967 2064.672)" fill="#b88728"/><path d="M182.559,336.469a8.328,8.328,0,0,1-1.432,4.7,8.328,8.328,0,0,1-4.7,1.432,8.446,8.446,0,0,1-8.442-8.442,8.328,8.328,0,0,1,1.432-4.7,8.328,8.328,0,0,1,4.7-1.432A8.446,8.446,0,0,1,182.559,336.469Z" transform="translate(1283.684 2064.672)" fill="#ffaf2a"/><g transform="translate(1438.227 2381.928)"><path d="M133.671,297.539a4.846,4.846,0,0,1-1.124,3.111,1.31,1.31,0,0,1-.1.135,4.893,4.893,0,0,1-3.723,1.7,4.941,4.941,0,1,1,4.946-4.946Z" transform="translate(-123.779 -292.602)" fill="#0d2226"/><path d="M134.123,297.539A4.846,4.846,0,0,1,133,300.65a6.2,6.2,0,0,1-2.392.468,6.326,6.326,0,0,1-6.178-4.955,4.946,4.946,0,0,1,9.694,1.376Z" transform="translate(-124.231 -292.602)" fill="#1b4a54"/></g><g transform="translate(1464.705 2380)"><path d="M220.757,291.2a4.846,4.846,0,0,1-1.124,3.111,1.314,1.314,0,0,1-.1.135,4.893,4.893,0,0,1-3.723,1.7,4.941,4.941,0,1,1,4.946-4.946Z" transform="translate(-210.865 -286.263)" fill="#0d2226"/><path d="M221.21,291.2a4.846,4.846,0,0,1-1.124,3.111,6.2,6.2,0,0,1-2.392.468,6.326,6.326,0,0,1-6.178-4.955,4.946,4.946,0,0,1,9.694,1.376Z" transform="translate(-211.318 -286.263)" fill="#1b4a54"/></g><g transform="translate(1468.295 2409.559)"><path d="M228.579,386.427a2.894,2.894,0,0,1-.671,1.858.792.792,0,0,1-.059.081,2.921,2.921,0,0,1-2.223,1.015,2.95,2.95,0,1,1,2.953-2.953Z" transform="translate(-222.673 -383.48)" fill="#0d2226"/><path d="M228.849,386.427a2.894,2.894,0,0,1-.671,1.858,3.7,3.7,0,0,1-1.428.279,3.777,3.777,0,0,1-3.689-2.958,2.953,2.953,0,0,1,5.788.822Z" transform="translate(-222.943 -383.48)" fill="#1b4a54"/></g><g transform="translate(1456.414 2414.117)"><path d="M189.506,401.42a2.893,2.893,0,0,1-.671,1.858.784.784,0,0,1-.059.081,2.921,2.921,0,0,1-2.223,1.015,2.95,2.95,0,1,1,2.953-2.953Z" transform="translate(-183.6 -398.472)" fill="#0d2226"/><path d="M189.777,401.42a2.893,2.893,0,0,1-.671,1.858,3.7,3.7,0,0,1-1.428.279,3.777,3.777,0,0,1-3.688-2.958,2.953,2.953,0,0,1,5.788.822Z" transform="translate(-183.871 -398.472)" fill="#1b4a54"/></g></g></svg>