<svg xmlns="http://www.w3.org/2000/svg" width="43.123" height="43.046" viewBox="0 0 43.123 43.046"><path d="M31.948,25.042,29.923,19.4a.718.718,0,1,1,1.352-.486l1.352,3.759,1.352-3.759a.718.718,0,0,1,1.352,0l1.352,3.759,1.352-3.759a.718.718,0,1,1,1.352.486l-2.03,5.641a.718.718,0,0,1-1.352,0l-1.352-3.76L33.3,25.042a.718.718,0,0,1-1.352,0ZM13.5,40.015a21.922,21.922,0,0,1-2.089-3.736A26.637,26.637,0,0,0,7.073,37.93a21.54,21.54,0,0,0,8.967,4.891A14.6,14.6,0,0,1,13.5,40.015ZM20.8,43.492c-2.216-.274-4.322-1.749-6.132-4.308a20.15,20.15,0,0,1-1.856-3.276,37.452,37.452,0,0,1,7.988-.985Zm7.649-4.308a20.149,20.149,0,0,0,1.856-3.276,37.488,37.488,0,0,0-8.069-.987V43.5c2.246-.249,4.382-1.729,6.212-4.317Zm7.6-1.254a21.54,21.54,0,0,1-8.967,4.891,14.6,14.6,0,0,0,2.543-2.806,21.934,21.934,0,0,0,2.089-3.736A26.637,26.637,0,0,1,36.05,37.93Zm-2.085-9.364a33.211,33.211,0,0,1-1.7,6.376,27.515,27.515,0,0,1,4.878,1.926,21.627,21.627,0,0,0,4.954-8.3Zm-11.726,0H32.508a31.541,31.541,0,0,1-1.64,6,38.816,38.816,0,0,0-8.628-1.083V28.567ZM10.857,34.942a27.663,27.663,0,0,0-4.873,1.926,21.629,21.629,0,0,1-4.954-8.3H9.158A33.518,33.518,0,0,0,10.857,34.942ZM20.8,28.567H10.615a31.535,31.535,0,0,0,1.64,6A38.766,38.766,0,0,1,20.8,33.485ZM12.255,9.389a31.537,31.537,0,0,0-1.64,6H20.8V10.472A38.736,38.736,0,0,1,12.255,9.389Zm-1.4-.376a33.539,33.539,0,0,0-1.7,6.376H1.03a21.619,21.619,0,0,1,4.954-8.3A27.61,27.61,0,0,0,10.857,9.014Zm.551-1.336A21.9,21.9,0,0,1,13.5,3.941,14.607,14.607,0,0,1,16.04,1.135,21.541,21.541,0,0,0,7.073,6.026,26.677,26.677,0,0,0,11.408,7.678Zm9.4,1.356a37.425,37.425,0,0,1-7.988-.985,20.147,20.147,0,0,1,1.856-3.276C16.48,2.214,18.587.739,20.8.465Zm9.505-.985a20.147,20.147,0,0,0-1.856-3.276C26.621,2.184,24.486.7,22.24.455V9.036a37.52,37.52,0,0,0,8.069-.987Zm1.407-.37a21.9,21.9,0,0,0-2.089-3.736,14.607,14.607,0,0,0-2.543-2.806A21.541,21.541,0,0,1,36.05,6.026,26.677,26.677,0,0,1,31.715,7.678Zm.547,1.336a33.23,33.23,0,0,1,1.7,6.376h8.124a21.559,21.559,0,0,0-4.95-8.3A27.53,27.53,0,0,1,32.262,9.014ZM22.24,15.39V10.473a38.786,38.786,0,0,0,8.628-1.083,31.531,31.531,0,0,1,1.64,6H22.24Zm20.884,6.588a21.5,21.5,0,0,0-.623-5.151H.623a21.61,21.61,0,0,0,0,10.3H42.5A21.5,21.5,0,0,0,43.123,21.978ZM26.3,19.4l-2.03,5.641a.718.718,0,0,1-1.352,0l-1.352-3.76-1.352,3.76a.718.718,0,0,1-1.352,0L16.828,19.4a.72.72,0,0,1,1.356-.486l1.352,3.759,1.348-3.759a.721.721,0,0,1,1.356,0l1.348,3.759,1.352-3.759A.72.72,0,0,1,26.3,19.4ZM13.2,19.4l-2.026,5.641a.718.718,0,0,1-1.352,0l-1.352-3.76-1.352,3.76a.718.718,0,0,1-1.352,0L3.738,19.4a.718.718,0,1,1,1.352-.486l1.352,3.759,1.352-3.759a.718.718,0,0,1,1.352,0L10.5,22.674l1.352-3.759A.718.718,0,1,1,13.2,19.4Z" transform="translate(0 -0.455)" fill="#165e6f" fill-rule="evenodd"/></svg>